<?xml version="1.0" encoding="UTF-8"?>
<svg id="Capa_2" data-name="Capa 2" xmlns="http://www.w3.org/2000/svg" viewBox="0 0 1845.03 1718.52">
  <defs>
    <style>
      .cls-1 {
        fill: #f7f7f7;
      }

      .cls-2 {
        fill: #f2edd1;
      }

      .cls-3 {
        fill: #fa8200;
      }

      .cls-4 {
        fill: #fc4c20;
      }

      .cls-5 {
        fill: #fad500;
      }

      .cls-6 {
        fill: #00d9f5;
      }

      .cls-7 {
        fill: #00b9c7;
      }

      .cls-8 {
        fill: #00c1cf;
      }

      .cls-9 {
        fill: #02d4db;
      }

      .cls-10 {
        fill: #ebebeb;
      }

      .cls-11 {
        fill: #f78f1d;
      }

      .cls-12 {
        fill: #ff5429;
      }

      .cls-13 {
        fill: #e6451d;
      }

      .cls-14 {
        fill: #fff;
      }

      .cls-15 {
        fill: #ffe629;
      }

      .cls-16 {
        fill: #ffa929;
      }

      .cls-17 {
        fill: #ffc229;
      }

      .cls-18 {
        fill: #fadd00;
      }

      .cls-19 {
        fill: #ff931e;
      }

      .cls-20 {
        fill: #b3b3b3;
      }

      .cls-21 {
        fill: #666;
      }

      .cls-22 {
        fill: #c73c19;
      }

      .cls-23 {
        fill: #ccc;
      }

      .cls-24 {
        fill: #dbdbdb;
      }

      .cls-25 {
        fill: #161617;
      }

      .cls-26 {
        fill: #41bcbf;
      }

      .cls-27 {
        fill: #04c9cf;
      }

      .cls-28 {
        fill: #03e1e8;
      }

      .cls-29 {
        fill: #04a61c;
      }

      .cls-30 {
        fill: #1c1e36;
      }

      .cls-31 {
        fill: #27c29d;
      }

      .cls-32 {
        fill: #25cc3f;
      }

      .cls-33 {
        stroke-linejoin: round;
        stroke-width: 12.8px;
      }

      .cls-33, .cls-34 {
        fill: none;
        stroke: #4a1b82;
      }

      .cls-34 {
        stroke-miterlimit: 10;
        stroke-width: 19.69px;
      }

      .cls-35 {
        fill: #8144ba;
        opacity: .89;
      }

      .cls-36 {
        fill: #4a1b82;
        opacity: .93;
      }
    </style>
  </defs>
  <g id="Layer_1" data-name="Layer 1">
    <g>
      <path class="cls-34" d="m1700.45,824.95c37.26,330.74,476.73,725.85-485.64,834.28C261.16,1766.67-2.58,1430.87,112.49,1000.49,202.15,665.16,842.52-116.76,1309.25,27.38c408.61,126.19,353.93,466.83,391.2,797.57Z"/>
      <path class="cls-35" d="m1029.93,1711.33c373.53-51.78,787.56-834.67,604.31-1293.28-107.44-268.89-397.49-195.8-692.76-99.65C670,406.79,608.34,59.79,330.63,98.67c-339.4,47.51-147.26,433.71,35.99,892.32,183.25,458.62,230.86,780.29,663.31,720.34Z"/>
      <path class="cls-36" d="m1761.92,826.29c0,221.69-66.66,466.42-455.61,521.13-316.56,44.52-473.55-211.03-628.77-208.27-121.39,2.16-89.37,43.63-256.3,58.73-202.64,18.33-348.01-78.37-398.88-244.21-71.85-234.21,33.91-444.72,253.89-491.15,278.62-58.8,306.76,26.47,433.06,14.02,148.96-14.68,128.09-142.82,459.25-186.45,404.09-53.25,593.36,308.57,593.36,536.21Z"/>
      <circle class="cls-30" cx="911.3" cy="874.31" r="357.92"/>
      <g>
        <path class="cls-12" d="m601.35,823.54l31.92-29.2-37.3-21.93,25.15-35.2-41.04-13.7,17.28-39.66-42.99-4.86,8.66-42.39-43.06,4.18-.34-43.26-41.25,13.04-9.33-42.25-37.64,21.33-17.91-39.38-32.38,28.69-25.71-34.8-25.71,34.8-32.38-28.69-17.91,39.38-37.64-21.33-9.33,42.25-41.25-13.04-.34,43.26-43.06-4.18,8.66,42.39-42.99,4.86,17.28,39.66-41.04,13.7,25.15,35.2-37.3,21.93,31.92,29.2-31.92,29.2,37.3,21.93-25.15,35.2,41.04,13.69-17.28,39.66,42.99,4.86-8.66,42.39,43.06-4.18.34,43.26,41.25-13.04,9.33,42.25,37.64-21.33,17.91,39.38,32.38-28.69,25.71,34.8,25.71-34.8,32.38,28.69,17.91-39.38,37.64,21.33,9.33-42.25,41.25,13.04.34-43.26,43.06,4.18-8.66-42.39,42.99-4.86-17.28-39.66,41.04-13.69-25.15-35.2,37.3-21.93-31.92-29.2Zm-245.93,221.09c-121.91,0-221.09-99.18-221.09-221.09s99.18-221.09,221.09-221.09,221.09,99.18,221.09,221.09-99.18,221.09-221.09,221.09Z"/>
        <path class="cls-12" d="m355.42,617.65c-113.53,0-205.89,92.36-205.89,205.89s92.36,205.89,205.89,205.89,205.89-92.36,205.89-205.89-92.36-205.89-205.89-205.89Zm-74.75,310.41c-21.67,21.68-56.82,21.68-78.49,0-21.67-21.67-21.67-56.82,0-78.49,21.68-21.68,56.82-21.68,78.49,0,21.68,21.67,21.68,56.82,0,78.49Zm0-130.52c-21.67,21.68-56.82,21.68-78.49,0-21.67-21.68-21.67-56.82,0-78.49,21.68-21.68,56.82-21.68,78.49,0,21.68,21.67,21.68,56.82,0,78.49Zm113.69,193.17c-21.68,21.68-56.82,21.68-78.49,0-21.67-21.67-21.67-56.82,0-78.49,21.68-21.68,56.82-21.68,78.49,0,21.67,21.68,21.67,56.82,0,78.49Zm-63.48-167.18c0-13.55,10.99-24.54,24.54-24.54s24.54,10.99,24.54,24.54-10.99,24.54-24.54,24.54-24.54-10.99-24.54-24.54Zm63.48-94.15c-21.68,21.68-56.82,21.68-78.49,0-21.67-21.68-21.67-56.82,0-78.49,21.68-21.68,56.82-21.68,78.49,0,21.67,21.67,21.67,56.82,0,78.49Zm113.33,198.67c-21.68,21.68-56.82,21.68-78.49,0-21.68-21.67-21.68-56.82,0-78.49,21.67-21.68,56.82-21.68,78.49,0,21.68,21.67,21.68,56.82,0,78.49Zm0-130.52c-21.68,21.68-56.82,21.68-78.49,0-21.68-21.68-21.68-56.82,0-78.49,21.67-21.68,56.82-21.68,78.49,0,21.68,21.67,21.68,56.82,0,78.49Z"/>
      </g>
      <g>
        <path class="cls-26" d="m1706.45,430.4l28.71-17.81-25.46-22.21,24.38-23.39-29.52-16.43,18.98-27.95-32.29-9.93,12.76-31.28-33.65-3,5.97-33.25-33.54,4.06-1.07-33.77-31.96,10.94-8.07-32.81-28.99,17.35-14.71-30.41-24.75,23-20.71-26.69-19.42,27.64-25.81-21.8-13.25,31.08-29.78-15.96-6.5,33.15-32.44-9.42.53,33.78-33.69-2.47,7.55,32.93-33.47,4.59,14.23,30.64-31.78,11.45,20.29,27.01-28.71,17.81,25.46,22.21-24.38,23.39,29.52,16.43-18.98,27.95,32.29,9.93-12.76,31.28,33.65,3-5.97,33.25,33.54-4.06,1.07,33.77,31.96-10.94,8.07,32.81,28.99-17.35,14.71,30.41,24.75-23,20.71,26.69,19.42-27.64,25.81,21.8,13.25-31.08,29.78,15.96,6.5-33.15,32.44,9.42-.53-33.78,33.69,2.47-7.54-32.93,33.47-4.59-14.23-30.64,31.78-11.45-20.29-27.01Zm-35.55,28.43c-35.23,84.47-132.61,124.52-217.08,89.29-84.47-35.23-124.52-132.61-89.29-217.08,35.23-84.47,132.61-124.52,217.07-89.29,84.47,35.23,124.52,132.61,89.29,217.08Z"/>
        <path class="cls-26" d="m1576.61,253.72c-77.86-32.48-167.64,4.45-200.11,82.31-32.48,77.87,4.45,167.64,82.31,200.11,77.87,32.48,167.64-4.45,200.11-82.32,32.48-77.86-4.45-167.63-82.31-200.11Zm-173.26,123.48c-8.83-21.47,1.41-46.04,22.89-54.87,21.47-8.83,46.04,1.41,54.87,22.89,8.83,21.47-1.41,46.04-22.89,54.87-21.47,8.83-46.04-1.41-54.87-22.89Zm99.21,130.68c-21.47,8.83-46.04-1.41-54.88-22.89-8.83-21.47,1.41-46.04,22.89-54.87,21.47-8.83,46.04,1.41,54.87,22.89,8.83,21.47-1.41,46.04-22.89,54.87Zm32.31-105.79c-3.95,9.48-14.84,13.95-24.31,10-9.48-3.95-13.95-14.84-10-24.31,3.95-9.48,14.84-13.95,24.31-10,9.48,3.95,13.95,14.84,10,24.31Zm-23.73-69.23c-8.83-21.47,1.41-46.04,22.89-54.87,21.47-8.83,46.04,1.41,54.87,22.89,8.83,21.47-1.41,46.04-22.89,54.87-21.47,8.83-46.04-1.41-54.87-22.89Zm99.21,130.68c-21.47,8.83-46.04-1.41-54.88-22.89-8.83-21.47,1.41-46.04,22.89-54.87,21.47-8.83,46.04,1.41,54.87,22.89,8.83,21.47-1.41,46.04-22.89,54.87Z"/>
      </g>
      <g>
        <g>
          <path d="m1479.15,1064.29V445.35s-1113.3-7.54-1120.84,0v618.94h1120.84Z"/>
          <rect class="cls-23" x="558.58" y="494.13" width="228.74" height="146.43"/>
          <polygon class="cls-20" points="787.31 640.56 558.58 640.56 787.31 494.13 787.31 640.56"/>
          <g>
            <rect class="cls-17" x="924.19" y="496.14" width="185.54" height="23.79"/>
            <rect class="cls-23" x="822.97" y="496.14" width="77.61" height="23.79"/>
            <rect class="cls-20" x="822.97" y="576.06" width="256.14" height="23.79"/>
            <rect class="cls-17" x="1100.78" y="576.06" width="175.26" height="23.79"/>
            <rect class="cls-31" x="1297.17" y="576.06" width="36.19" height="23.79"/>
            <rect class="cls-20" x="822.97" y="616.02" width="227.6" height="23.79"/>
            <rect class="cls-31" x="822.97" y="536.1" width="419.71" height="23.79"/>
          </g>
          <g>
            <rect class="cls-2" x="582.51" y="877.42" width="155.55" height="19.13"/>
            <rect class="cls-4" x="760.88" y="877.42" width="164.82" height="19.13"/>
            <rect class="cls-17" x="948.68" y="877.42" width="49.73" height="19.13"/>
            <rect class="cls-23" x="582.51" y="877.42" width="69.34" height="19.13"/>
            <rect class="cls-20" x="582.51" y="941.69" width="705.65" height="19.13"/>
            <rect class="cls-20" x="582.51" y="973.82" width="243.72" height="19.13"/>
            <rect class="cls-19" x="847.74" y="973.96" width="196.94" height="19.21"/>
            <rect class="cls-31" x="582.51" y="909.55" width="610.43" height="19.13"/>
            <rect class="cls-17" x="1214.81" y="909.55" width="56.99" height="19.13" transform="translate(2486.61 1838.24) rotate(180)"/>
          </g>
          <rect class="cls-25" x="358.3" y="445.35" width="144.48" height="649.75"/>
          <rect class="cls-21" x="482.98" y="434.66" width="18.83" height="660.44"/>
          <g>
            <rect class="cls-20" x="414.93" y="495.2" width="23.07" height="23.07"/>
            <rect class="cls-20" x="414.93" y="543.3" width="23.07" height="23.07"/>
            <rect class="cls-20" x="414.93" y="639.49" width="23.07" height="23.07"/>
            <rect class="cls-20" x="414.93" y="591.39" width="23.07" height="23.07"/>
            <rect class="cls-20" x="414.93" y="687.59" width="23.07" height="23.07"/>
            <rect class="cls-20" x="414.93" y="735.68" width="23.07" height="23.07"/>
            <rect class="cls-20" x="414.93" y="783.78" width="23.07" height="23.07"/>
            <rect class="cls-20" x="414.93" y="831.87" width="23.07" height="23.07"/>
            <rect class="cls-20" x="414.93" y="879.97" width="23.07" height="23.07"/>
            <rect class="cls-20" x="414.93" y="928.07" width="23.07" height="23.07"/>
            <rect class="cls-20" x="414.93" y="976.16" width="23.07" height="23.07"/>
          </g>
        </g>
        <g>
          <g>
            <rect class="cls-24" x="794.13" y="1112.06" width="250.12" height="138"/>
            <path class="cls-14" d="m1010.8,1215.26h-179.43c-54.69,0-99.05,13.71-102.99,69.59h385.42c-3.94-55.88-48.33-69.59-103-69.59Z"/>
            <path class="cls-14" d="m380.2,1177.92h1081.34c22.8,0,41.28-18.48,41.28-41.28V469.86c0-22.8-18.48-41.28-41.28-41.28H380.2c-22.8,0-41.28,18.48-41.28,41.28v666.79c0,22.8,18.48,41.28,41.28,41.28Zm-15.03-720.38h1111.42v581.51H365.17V457.54Z"/>
          </g>
          <path class="cls-16" d="m895.23,1071.19h10.71c7.55,0,13.68,6.13,13.68,13.68v10.71c0,7.55-6.13,13.68-13.68,13.68h-10.71c-7.55,0-13.68-6.13-13.68-13.68v-10.71c0-7.55,6.13-13.68,13.68-13.68Z"/>
        </g>
      </g>
      <g>
        <path class="cls-4" d="m554.39,764.6l76.34-36.99,9.84,20.46-55.29,26.76,55.09,27.15-10.03,20.26-75.94-37.38v-20.26Z"/>
        <path class="cls-4" d="m779.66,709.12l-17.7,20.46c-6.56-4.2-13.81-6.46-21.74-6.79-7.94-.33-15.22,1.08-21.84,4.23-6.62,3.15-12.2,8.1-16.72,14.85-4.53,6.76-6.79,14.59-6.79,23.51s2.36,17.45,7.08,24.4c4.72,6.95,10.52,11.93,17.41,14.95,6.89,3.02,14.39,4.2,22.52,3.54,8.13-.66,15.35-3.41,21.64-8.26l17.71,20.26c-13.38,11.02-28.6,16.52-45.64,16.52-19.68,0-36.49-6.99-50.47-20.95-13.97-13.97-20.95-30.79-20.95-50.47s6.99-36.49,20.95-50.46c13.97-13.97,30.79-20.95,50.47-20.95,16.4,0,31.08,5.05,44.07,15.15Z"/>
        <path class="cls-4" d="m808.1,714.53c13.97-13.97,30.79-20.95,50.46-20.95s36.5,6.99,50.47,20.95c13.97,13.97,20.95,30.79,20.95,50.47s-6.99,36.5-20.95,50.46c-13.97,13.97-30.79,20.95-50.47,20.95s-36.49-6.98-50.46-20.95c-13.97-13.97-20.95-30.79-20.95-50.46s6.98-36.5,20.95-50.47Zm80.96,19.97c-8.4-8.4-18.56-12.59-30.5-12.59s-22.1,4.19-30.5,12.59c-8.4,8.4-12.59,18.56-12.59,30.5s4.2,22.1,12.59,30.5c8.39,8.39,18.56,12.59,30.5,12.59s22.1-4.2,30.5-12.59c8.4-8.4,12.59-18.56,12.59-30.5s-4.19-22.1-12.59-30.5Z"/>
        <path class="cls-4" d="m949.65,696.13h38.96c9.31,0,18.23,1.77,26.76,5.32,8.26,3.54,15.54,8.46,21.84,14.75,6.55,6.57,11.47,13.91,14.75,22.04,3.67,8.27,5.51,17.19,5.51,26.76s-1.84,18.69-5.51,26.95c-3.28,8.26-8.2,15.54-14.75,21.84-6.69,6.69-13.97,11.61-21.84,14.76-8.27,3.67-17.19,5.51-26.76,5.51h-27.74v-.2h-11.21v-137.72Zm27.54,110.38h11.41c11.41,0,21.15-4.06,29.22-12.2,8.06-8.13,12.1-17.9,12.1-29.31s-4.03-21.15-12.1-29.22c-8.07-8.06-17.81-12.1-29.22-12.1h-11.41v82.83Z"/>
        <path class="cls-4" d="m1171,696.13v27.55h-64.34v25.38h53.12v27.55h-53.12v29.9h63.75v27.55h-91.29v-137.92h91.88Z"/>
        <path class="cls-4" d="m1249.88,774.83l-55.28-26.76,9.84-20.46,76.14,36.99v20.26l-75.75,37.38-10.03-20.26,55.09-27.15Z"/>
      </g>
      <g>
        <circle class="cls-8" cx="418.95" cy="1488.32" r="194.21" transform="translate(-929.69 732.17) rotate(-45)"/>
        <path class="cls-7" d="m613.17,1488.32c0,107.26-86.95,194.21-194.21,194.21v-388.43c107.26,0,194.21,86.95,194.21,194.21Z"/>
        <g>
          <path class="cls-14" d="m357.97,1442.16l-14.45,16.71c-5.36-3.42-11.27-5.27-17.75-5.54-6.48-.27-12.42.88-17.83,3.46-5.41,2.57-9.96,6.61-13.65,12.13-3.7,5.52-5.54,11.92-5.54,19.19s1.93,14.24,5.78,19.92c3.86,5.67,8.59,9.74,14.22,12.2,5.62,2.47,11.75,3.43,18.39,2.89,6.64-.53,12.53-2.78,17.67-6.75l14.46,16.55c-10.93,9-23.35,13.5-37.27,13.5-16.06,0-29.8-5.7-41.2-17.11-11.41-11.4-17.11-25.14-17.11-41.2s5.7-29.8,17.11-41.2c11.4-11.41,25.14-17.11,41.2-17.11,13.39,0,25.38,4.12,35.98,12.37Z"/>
          <path class="cls-14" d="m416.76,1496.62l-.8-.16c-7.18-1.82-12.85-4.18-17.03-7.07-9.1-6-13.92-14.46-14.46-25.38-.54-9,2.19-16.65,8.19-22.97,3.75-3.85,8.11-6.67,13.09-8.43,4.98-1.77,9.34-2.65,13.09-2.65,5.03,0,9.85.64,14.46,1.92,4.6,1.29,8.03,2.54,10.28,3.77,2.25,1.23,5.25,3.08,8.99,5.54l3.69,2.41-11.72,19.11-4.01-2.57c-3.11-1.93-5.41-3.32-6.91-4.18-1.5-.86-3.56-1.66-6.19-2.41-2.62-.75-5.49-1.12-8.59-1.12-1.07,0-2.68.37-4.82,1.12-2.14.75-3.86,1.76-5.14,3.05-1.39,1.39-2.04,3.54-1.93,6.42.1,2.89,1.26,5.22,3.45,6.99,2.19,1.76,5.86,3.29,11,4.57.86.22,1.93.54,3.21.97,10.82,3.75,19.12,8.73,24.9,14.93,5.89,6.54,8.84,13.87,8.84,22.01s-3,15.69-9,22.33c-6.85,7.71-15.47,11.57-25.86,11.57-7.07,0-13.65-.91-19.76-2.73-10.28-3.21-19.22-8.89-26.82-17.03l16.38-15.42c7.92,8.46,17.99,12.69,30.2,12.69,4.07,0,7.15-1.34,9.24-4.02,2.09-2.67,3.13-5.14,3.13-7.39,0-6.2-6.21-11.45-18.64-15.74l-.48-.16Z"/>
          <path class="cls-14" d="m512.66,1496.62l-.8-.16c-7.18-1.82-12.85-4.18-17.03-7.07-9.1-6-13.92-14.46-14.46-25.38-.54-9,2.19-16.65,8.19-22.97,3.75-3.85,8.11-6.67,13.09-8.43,4.98-1.77,9.34-2.65,13.09-2.65,5.03,0,9.85.64,14.46,1.92,4.6,1.29,8.03,2.54,10.28,3.77,2.25,1.23,5.25,3.08,8.99,5.54l3.69,2.41-11.72,19.11-4.01-2.57c-3.11-1.93-5.41-3.32-6.91-4.18-1.5-.86-3.56-1.66-6.19-2.41-2.62-.75-5.49-1.12-8.59-1.12-1.07,0-2.68.37-4.82,1.12-2.14.75-3.85,1.76-5.14,3.05-1.39,1.39-2.04,3.54-1.93,6.42.1,2.89,1.26,5.22,3.45,6.99,2.19,1.76,5.86,3.29,11,4.57.86.22,1.93.54,3.21.97,10.82,3.75,19.12,8.73,24.9,14.93,5.89,6.54,8.83,13.87,8.83,22.01s-3,15.69-9,22.33c-6.85,7.71-15.47,11.57-25.86,11.57-7.07,0-13.65-.91-19.76-2.73-10.28-3.21-19.22-8.89-26.82-17.03l16.38-15.42c7.92,8.46,17.99,12.69,30.2,12.69,4.07,0,7.15-1.34,9.24-4.02,2.09-2.67,3.13-5.14,3.13-7.39,0-6.2-6.21-11.45-18.64-15.74l-.48-.16Z"/>
        </g>
      </g>
      <g>
        <polygon class="cls-19" points="1623.94 855.26 1550.24 727.61 1623.94 599.97 1771.33 599.97 1845.03 727.61 1771.33 855.26 1623.94 855.26"/>
        <polygon class="cls-11" points="1623.94 855.26 1550.24 727.61 1845.03 727.61 1771.33 855.26 1623.94 855.26"/>
        <g>
          <path class="cls-14" d="m1665.09,679.45l-27.36,38.56,27.36,38.46h-18.9l-17.91-25.16-17.91,25.16h-18.89l27.36-38.46-27.36-38.56h18.89l17.91,25.27,17.91-25.27h18.9Z"/>
          <path class="cls-14" d="m1735.07,709.34l-22.08,20.11-22.09-20.11v47.14h-15.38v-77.02h5.27l32.2,29.23,32.08-29.23h5.39v77.02h-15.38v-47.14Z"/>
          <path class="cls-14" d="m1780.12,679.45v61.64h28.68v15.27h-44.06v-76.91h15.38Z"/>
        </g>
      </g>
      <g>
        <polygon class="cls-33" points="1763.13 1337.25 1626.27 1534.55 1494.17 1337.25 1763.13 1337.25"/>
        <polygon class="cls-33" points="1493.8 1337.25 1546.92 1295.7 1700.94 1295.7 1763.13 1337.25 1493.8 1337.25"/>
        <line class="cls-33" x1="1626.27" y1="1534.55" x2="1684.38" y2="1337.25"/>
        <line class="cls-33" x1="1626.27" y1="1534.55" x2="1572.44" y2="1337.25"/>
        <line class="cls-33" x1="1572.44" y1="1337.25" x2="1602.47" y2="1295.7"/>
        <line class="cls-33" x1="1684.38" y1="1337.25" x2="1650.28" y2="1295.7"/>
      </g>
      <g>
        <g>
          <path class="cls-27" d="m1335.84,1393.25l-18.66-6.94c-7.23-2.69-15.45-.6-20.34,5.37-3.06,3.74-6.34,7.26-9.81,10.55-5.61,5.33-7.13,13.68-3.91,20.71l8.29,18.11c2.92,6.39.09,14.01-6.31,16.94l-23.54,10.77c-6.39,2.93-14.01.09-16.94-6.3l-8.29-18.11c-3.22-7.04-10.53-11.34-18.23-10.58-4.76.47-9.56.65-14.39.53-7.72-.2-14.67,4.65-17.36,11.88l-6.94,18.66c-2.45,6.59-9.85,9.97-16.44,7.52l-24.26-9.03c-6.59-2.45-9.97-9.85-7.52-16.44l6.94-18.66c2.69-7.23.6-15.45-5.37-20.34-3.74-3.06-7.26-6.34-10.55-9.81-5.33-5.61-13.67-7.13-20.71-3.91l-18.11,8.29c-6.39,2.92-14.02.09-16.94-6.3l-10.77-23.54c-2.93-6.39-.09-14.02,6.3-16.94l18.11-8.29c7.04-3.22,11.34-10.53,10.58-18.23-.47-4.76-.65-9.56-.52-14.39.2-7.72-4.65-14.67-11.88-17.36l-18.66-6.94c-6.59-2.45-9.97-9.85-7.52-16.44l9.03-24.26c2.45-6.59,9.85-9.97,16.44-7.52l18.66,6.94c7.24,2.69,15.45.6,20.34-5.37,3.06-3.74,6.34-7.26,9.81-10.55,5.61-5.33,7.13-13.67,3.91-20.71l-8.29-18.11c-2.93-6.39-.09-14.02,6.3-16.94l23.54-10.77c6.39-2.93,14.02-.09,16.94,6.3l8.29,18.11c3.22,7.04,10.53,11.34,18.23,10.58,4.76-.47,9.56-.65,14.39-.52,7.72.2,14.67-4.65,17.36-11.88l6.94-18.66c2.45-6.59,9.85-9.97,16.44-7.52l24.26,9.03c6.59,2.45,9.97,9.85,7.52,16.44l-6.94,18.66c-2.69,7.24-.6,15.45,5.37,20.34,3.74,3.06,7.26,6.34,10.55,9.81,5.33,5.61,13.68,7.13,20.71,3.91l18.11-8.29c6.39-2.92,14.01-.09,16.94,6.31l10.77,23.54c2.92,6.39.09,14.02-6.31,16.94l-18.11,8.28c-7.04,3.22-11.34,10.53-10.58,18.23.47,4.76.65,9.56.52,14.39-.2,7.72,4.65,14.67,11.88,17.36l18.66,6.94c6.59,2.45,9.97,9.85,7.52,16.44l-9.03,24.26c-2.45,6.59-9.85,9.97-16.44,7.52Z"/>
          <path class="cls-9" d="m1542.08,1201.75l-15.36-5.32c-5.96-2.06-12.62-.2-16.51,4.76-2.43,3.11-5.04,6.04-7.81,8.79-4.48,4.45-5.57,11.3-2.81,16.98l7.1,14.63c2.51,5.16.33,11.44-4.83,13.95l-19.02,9.23c-5.16,2.51-11.44.33-13.95-4.83l-7.1-14.63c-2.76-5.68-8.81-9.06-15.08-8.3-3.87.47-7.79.71-11.74.7-6.3-.02-11.89,4.07-13.95,10.02l-5.32,15.36c-1.88,5.42-7.85,8.32-13.28,6.45l-19.97-6.92c-5.42-1.88-8.32-7.85-6.45-13.28l5.32-15.36c2.06-5.96.2-12.62-4.76-16.51-3.11-2.43-6.04-5.04-8.79-7.81-4.45-4.48-11.3-5.57-16.98-2.81l-14.63,7.1c-5.16,2.51-11.44.33-13.95-4.83l-9.23-19.02c-2.51-5.16-.33-11.44,4.83-13.95l14.63-7.1c5.68-2.76,9.06-8.81,8.3-15.08-.47-3.87-.71-7.79-.7-11.74.02-6.3-4.07-11.89-10.02-13.95l-15.36-5.32c-5.42-1.88-8.32-7.85-6.45-13.28l6.92-19.97c1.88-5.42,7.85-8.32,13.28-6.45l15.36,5.32c5.96,2.06,12.62.2,16.51-4.76,2.43-3.11,5.04-6.04,7.81-8.79,4.48-4.46,5.57-11.3,2.81-16.98l-7.1-14.63c-2.51-5.16-.33-11.44,4.83-13.95l19.02-9.23c5.16-2.51,11.44-.33,13.95,4.83l7.1,14.63c2.76,5.68,8.81,9.06,15.08,8.3,3.87-.47,7.79-.71,11.74-.7,6.3.02,11.89-4.07,13.95-10.02l5.32-15.36c1.88-5.42,7.85-8.33,13.28-6.45l19.97,6.92c5.42,1.88,8.32,7.85,6.45,13.28l-5.32,15.36c-2.06,5.96-.2,12.62,4.76,16.51,3.11,2.43,6.04,5.04,8.79,7.81,4.46,4.48,11.3,5.57,16.98,2.81l14.63-7.1c5.16-2.51,11.44-.33,13.95,4.83l9.23,19.02c2.51,5.16.33,11.44-4.83,13.95l-14.63,7.1c-5.68,2.76-9.06,8.81-8.3,15.08.47,3.87.71,7.79.7,11.74-.02,6.3,4.07,11.89,10.02,13.95l15.36,5.32c5.42,1.88,8.33,7.85,6.45,13.28l-6.92,19.97c-1.88,5.42-7.85,8.32-13.28,6.45Z"/>
          <path class="cls-26" d="m1196.15,1435.81c2.34-1.03,4.9-1.59,7.56-1.52,4.83.12,9.64-.05,14.39-.53,7.7-.76,15.01,3.54,18.23,10.58l8.29,18.11c2.92,6.39,10.55,9.23,16.94,6.3l23.54-10.77c6.39-2.92,9.23-10.55,6.31-16.94l-8.29-18.11c-3.22-7.04-1.7-15.38,3.91-20.71,3.47-3.29,6.74-6.81,9.81-10.55,4.89-5.97,13.11-8.06,20.34-5.37l18.66,6.94c6.59,2.45,13.98-.93,16.44-7.52l9.03-24.26c2.45-6.59-.93-13.98-7.52-16.44l-18.66-6.94c-7.24-2.69-12.08-9.65-11.88-17.36.12-4.83-.05-9.64-.53-14.39-.76-7.7,3.54-15.01,10.58-18.23l18.11-8.28c6.39-2.93,9.23-10.55,6.31-16.94l-10.77-23.54c-2.92-6.39-10.55-9.23-16.94-6.3l-18.11,8.28c-7.04,3.22-15.38,1.7-20.71-3.91-3.29-3.47-6.81-6.74-10.55-9.81-5.97-4.9-8.06-13.11-5.37-20.34l6.94-18.66c2.45-6.59-.93-13.98-7.52-16.44l-24.26-9.03c-6.59-2.45-13.98.93-16.44,7.52l-6.94,18.66c-1.76,4.74-5.37,8.41-9.8,10.36l-21.09,236.15Z"/>
          <path class="cls-1" d="m1287.74,1347.9c16.66-44.76-6.12-94.54-50.88-111.2-44.76-16.66-94.54,6.12-111.2,50.88-16.66,44.76,6.12,94.54,50.88,111.2,44.76,16.66,94.54-6.12,111.2-50.88Z"/>
          <path class="cls-10" d="m1256.95,1336.44c10.33-27.75-3.8-58.63-31.55-68.96-27.75-10.33-58.63,3.8-68.96,31.55-10.33,27.75,3.8,58.63,31.55,68.96,27.75,10.33,58.63-3.8,68.96-31.55Z"/>
          <path class="cls-23" d="m1246.18,1332.44c8.12-21.81-2.98-46.07-24.79-54.18-21.81-8.12-46.07,2.98-54.18,24.79-8.12,21.81,2.98,46.07,24.79,54.18,21.81,8.12,46.07-2.98,54.18-24.79Z"/>
          <path class="cls-28" d="m1314.67,1122.99l15.36,5.32c5.96,2.06,10.04,7.65,10.02,13.95-.01,3.95.23,7.87.7,11.74.77,6.27-2.61,12.32-8.3,15.08l-14.63,7.1c-5.16,2.51-7.34,8.78-4.83,13.95l9.23,19.02c2.51,5.16,8.78,7.34,13.95,4.83l14.63-7.1c5.68-2.76,12.53-1.67,16.98,2.81,2.75,2.77,5.69,5.38,8.79,7.81,4.96,3.89,6.83,10.55,4.76,16.51l-5.32,15.36c-1.88,5.42,1.02,11.4,6.45,13.28l19.97,6.92c5.42,1.88,11.4-1.02,13.28-6.45l5.32-15.36c1.04-3.01,2.99-5.54,5.47-7.3l17.49-195.84c-2.43,1.73-5.37,2.73-8.49,2.72-3.95-.01-7.87.22-11.74.7-6.27.77-12.32-2.61-15.08-8.3l-7.1-14.63c-2.51-5.16-8.78-7.34-13.95-4.83l-19.02,9.23c-5.16,2.51-7.34,8.78-4.83,13.95l7.1,14.63c2.76,5.68,1.67,12.53-2.81,16.98-2.77,2.75-5.38,5.69-7.81,8.79-3.89,4.97-10.55,6.83-16.51,4.76l-15.36-5.32c-5.42-1.88-11.4,1.02-13.28,6.45l-6.92,19.98c-1.88,5.42,1.02,11.4,6.45,13.28Z"/>
          <path class="cls-1" d="m1494.92,1163.19c11.41-32.95-6.05-68.92-39-80.33-32.95-11.41-68.92,6.05-80.33,39-11.41,32.95,6.05,68.92,39,80.33,32.95,11.41,68.92-6.05,80.33-39Z"/>
          <path class="cls-23" d="m1460.77,1151.36c4.88-14.09-2.59-29.47-16.68-34.35-14.09-4.88-29.47,2.59-34.35,16.68-4.88,14.09,2.59,29.47,16.68,34.35,14.09,4.88,29.47-2.59,34.35-16.68Z"/>
        </g>
        <g>
          <rect class="cls-22" x="562.99" y="1255.24" width="77.03" height="125.61" transform="translate(1919.56 716.54) rotate(90)"/>
          <rect class="cls-5" x="1126.55" y="1271.46" width="72.6" height="93.19" transform="translate(2480.9 155.2) rotate(90)"/>
          <rect class="cls-15" x="843.05" y="1120.94" width="29.97" height="394.22" transform="translate(2176.08 460.02) rotate(90)"/>
          <path class="cls-4" d="m255.17,1381.63c-12.88,0-24.89-6.88-31.04-18.19-6.22-11.44-12.13-27.6-11.7-47.44.38-17.67,5.66-32.14,11.33-42.73,6.2-11.58,18.25-18.8,31.38-18.8h274.11c24.18,0,45.21,16.91,50.01,40.61,1.47,7.25,2.37,15.25,2.3,23.91-.06,8.12-.97,15.63-2.38,22.47-4.85,23.52-25.9,40.17-49.91,40.17H255.17Z"/>
          <path class="cls-22" d="m273.29,1330.09c-7.9,0-9.16-1.32-12.94-3.5-3.82-2.2-4.39-5.31-4.13-9.13.23-3.4.42-6.19,3.9-8.23,3.8-2.23,5.09-3.62,13.15-3.62h223.22c14.84,0,18.58,3.26,21.53,7.82.9,1.4,1.45,2.94,1.41,4.6-.04,1.56-.6,3.01-1.46,4.33-2.98,4.53-6.73,7.73-21.46,7.73h-223.21Z"/>
          <path class="cls-22" d="m285.51,1381.01c-7.9,0-9.17-1.32-12.94-3.5-3.82-2.2-4.39-5.32-4.13-9.13.23-3.4.42-6.19,3.9-8.23,3.81-2.23,5.09-3.62,13.15-3.62h204.89c14.84,0,18.58,3.26,21.53,7.82.9,1.4,1.45,2.94,1.41,4.6-.04,1.56-.6,3.01-1.46,4.33-2.98,4.53-6.73,7.74-21.46,7.74h-204.88Z"/>
          <path class="cls-22" d="m285.51,1279.17c-7.9,0-9.17-1.33-12.94-3.5-3.82-2.2-4.39-5.31-4.13-9.13.23-3.4.42-6.19,3.9-8.23,3.81-2.23,5.09-3.62,13.15-3.62h204.89c14.84,0,18.58,3.26,21.53,7.82.9,1.4,1.45,2.94,1.41,4.6-.04,1.56-.6,3.01-1.46,4.33-2.98,4.53-6.73,7.74-21.46,7.74h-204.88Z"/>
          <polygon class="cls-18" points="1045.98 1332.96 1045.98 1303.14 1085.7 1281.75 1085.7 1354.35 1045.98 1332.96"/>
          <rect class="cls-15" x="1095.99" y="1271.46" width="72.6" height="93.19" transform="translate(2450.34 185.76) rotate(90)"/>
          <path class="cls-13" d="m675.87,1381.63c-19.87,0-37.2-13.67-41.62-33.05-2.23-9.78-3.73-21.31-3.38-34.27.26-9.88,1.54-18.79,3.31-26.6,4.4-19.46,21.71-33.24,41.66-33.24h18.3v127.16h-18.27Z"/>
        </g>
      </g>
      <g>
        <rect class="cls-19" x="707.7" y="1451.94" width="455.27" height="169.21"/>
        <rect class="cls-3" x="708.11" y="1536.54" width="454.87" height="84.6"/>
        <g>
          <path class="cls-14" d="m806.04,1523.23v-40.96h21.4v106.99h-21.4v-44.63h-39.59v44.63h-21.4v-106.99h21.4v40.96h39.59Z"/>
          <path class="cls-14" d="m845.02,1482.12h80.85v21.4h-29.65v85.75h-21.4v-85.75h-29.8v-21.4Z"/>
          <path class="cls-14" d="m1026.29,1523.69l-30.72,27.97-30.72-27.97v65.57h-21.4v-107.14h7.34l44.78,40.65,44.63-40.65h7.49v107.14h-21.4v-65.57Z"/>
          <path class="cls-14" d="m1088.95,1482.12v85.75h39.89v21.24h-61.29v-106.99h21.4Z"/>
        </g>
      </g>
      <g>
        <rect class="cls-6" x="977.04" y="76.25" width="317.19" height="190.02" rx="19.61" ry="19.61"/>
        <g>
          <path class="cls-14" d="m1024.75,122.07h30.83c7.88,0,14.6,2.81,20.17,8.42,5.57,5.61,8.35,12.36,8.35,20.24s-2.78,14.6-8.35,20.17c-5.57,5.57-12.29,8.35-20.17,8.35h-11.82v38.03h-19.01v-95.21Zm19.01,38.17h11.82c2.63,0,4.87-.93,6.73-2.78,1.85-1.86,2.78-4.1,2.78-6.72s-.93-4.89-2.78-6.79c-1.86-1.9-4.1-2.85-6.73-2.85h-11.82v19.15Z"/>
          <path class="cls-14" d="m1153.23,158.6v-36.4h19.01v95.08h-19.01v-39.66h-35.18v39.66h-19.01v-95.08h19.01v36.4h35.18Z"/>
          <path class="cls-14" d="m1189.64,122.07h30.83c7.88,0,14.6,2.81,20.17,8.42,5.57,5.61,8.35,12.36,8.35,20.24s-2.78,14.6-8.35,20.17c-5.57,5.57-12.29,8.35-20.17,8.35h-11.82v38.03h-19.01v-95.21Zm19.01,38.17h11.82c2.63,0,4.87-.93,6.73-2.78,1.85-1.86,2.78-4.1,2.78-6.72s-.93-4.89-2.78-6.79c-1.86-1.9-4.1-2.85-6.73-2.85h-11.82v19.15Z"/>
        </g>
      </g>
      <g>
        <path class="cls-29" d="m236.36,149.92h229.28c6.11,0,11.07,4.96,11.07,11.07v229.28c0,6.11-4.96,11.07-11.07,11.07h-229.28c-6.11,0-11.07-4.96-11.07-11.07v-229.28c0-6.11,4.96-11.07,11.07-11.07Z"/>
        <rect class="cls-32" x="243.41" y="168.05" width="215.16" height="215.16"/>
        <g>
          <path class="cls-14" d="m288.62,213.27h45.35v75.31h-.16v.16c0,10.15-3.58,18.83-10.73,26.04-7.16,7.21-15.81,10.82-25.96,10.82s-18.83-3.6-26.04-10.82c-7.21-7.21-10.82-15.89-10.82-26.04v-.16h22.44v.16c0,3.95,1.39,7.32,4.16,10.09,2.89,2.89,6.3,4.33,10.26,4.33s7.21-1.44,10.09-4.33c2.78-2.78,4.17-6.14,4.17-10.09v-.16h.48v-54.96h-23.71l.48-20.35Z"/>
          <path class="cls-14" d="m388.94,278.16l-.8-.16c-7.16-1.82-12.82-4.17-16.98-7.05-9.08-5.98-13.89-14.42-14.42-25.32-.54-8.98,2.19-16.61,8.17-22.91,3.74-3.85,8.09-6.65,13.06-8.41,4.97-1.76,9.32-2.65,13.06-2.65,5.02,0,9.83.64,14.42,1.92,4.59,1.28,8.01,2.54,10.26,3.76,2.24,1.23,5.23,3.07,8.97,5.53l3.69,2.4-11.7,19.07-4.01-2.56c-3.1-1.92-5.39-3.31-6.89-4.17-1.49-.85-3.55-1.66-6.17-2.4-2.62-.75-5.48-1.12-8.57-1.12-1.07,0-2.67.38-4.81,1.12-2.14.75-3.84,1.76-5.13,3.04-1.39,1.39-2.03,3.53-1.92,6.41.11,2.89,1.26,5.21,3.45,6.97,2.19,1.76,5.85,3.29,10.98,4.57.85.22,1.92.54,3.21.96,10.79,3.74,19.07,8.71,24.84,14.9,5.87,6.52,8.81,13.84,8.81,21.95s-2.99,15.65-8.98,22.27c-6.84,7.69-15.44,11.54-25.8,11.54-7.05,0-13.62-.91-19.71-2.73-10.26-3.2-19.18-8.87-26.76-16.98l16.34-15.38c7.91,8.44,17.95,12.66,30.13,12.66,4.06,0,7.13-1.33,9.21-4,2.08-2.67,3.13-5.13,3.13-7.37,0-6.19-6.2-11.43-18.59-15.71l-.48-.16Z"/>
        </g>
      </g>
      <circle class="cls-34" cx="1472.48" cy="1514.01" r="43.46" transform="translate(-339.33 2599.25) rotate(-76.72)"/>
      <circle class="cls-34" cx="1351.91" cy="157.78" r="20.59" transform="translate(-.08 314.83) rotate(-13.28)"/>
      <circle class="cls-36" cx="1735.16" cy="1233.44" r="20.07"/>
      <path class="cls-35" d="m808.06,291.16c32.57,0,58.91-19.34,58.91-39.7s-38.57-39.44-70.93-43.14c-44.38-5.07-46.88,22.83-46.88,43.14s26.36,39.7,58.91,39.7Z"/>
      <path class="cls-35" d="m937.44,242.63c0,11.17-9.06,20.23-20.23,20.23s-20.23-9.06-20.23-20.23,9.06-20.23,20.23-20.23,20.23,9.06,20.23,20.23Z"/>
    </g>
  </g>
</svg>