<?xml version="1.0" encoding="UTF-8"?>
<svg id="Capa_2" data-name="Capa 2" xmlns="http://www.w3.org/2000/svg" viewBox="0 0 787.57 690.53">
  <defs>
    <style>
      .cls-1 {
        fill: #fff;
      }

      .cls-2 {
        fill: #e5ecfe;
      }

      .cls-3 {
        fill: #97b4fa;
      }

      .cls-4 {
        fill: #c8bffb;
      }
    </style>
  </defs>
  <g id="illustration">
    <g>
      <g>
        <path class="cls-3" d="m703.42,155.93c-25.73-15.24-53.62-24.82-78.11-30.86-8.74-2.17-17.07-3.88-24.69-5.22-17.5-3.12-31.37-4.36-38.59-4.92-70.9-5.46-135.88-2.2-193.27,11.35-13.68,3.22-26.93,7.04-39.73,11.47-41.64,14.38-78.45,35.18-109.66,63.15-73.39,65.72-153.32,213.42-51.44,333.83,60.9-38.38,129.51-62.26,200.45-57.37,41.5,3.06,78.94,24.54,111.74,51.1,33.92,29,113.84,80.87,140.83,114.39,128.03-66.91,255.57-384.41,82.45-486.91Z"/>
        <path class="cls-1" d="m191.22,479.86c4.32,2.64,5.89,7.15,3.52,10.07l-13.15,16.21c-2.38,2.93-7.8,3.17-12.12.53l-23.91-14.6c-4.32-2.63-5.9-7.14-3.52-10.07l13.15-16.21c2.38-2.93,7.8-3.17,12.12-.53l23.91,14.59Z"/>
        <path class="cls-1" d="m630.14,288.93c-52.68,41.65-64.3,59.13-109.43,61.1-45.66,1.99-85.99-21.49-88.48-78.52v-.32c-66.35,12.77-128.45,46.11-166.19,108.01l20.08-1c3.34.03,6.59,1.77,9.64,2.81.76.26,1.51.55,2.25.86,1.47.63,2.89,1.38,4.24,2.22.67.42,1.33.87,1.97,1.35,1.92,1.42,3.67,3.07,5.22,4.9,2.58,3.06,4.59,6.66,5.84,10.64l23.83,76.02h0s20.08,64.03,20.08,64.03c10.12-5.62,20.96-10.13,32.59-10.64,28.27-1.23,136.17,39.43,166.74,38.1,10.24-.45,19.07-12.77,26.72-30.51,54.28,18.43,87.02,48.63,106.31,71.76,36.76-67.12,37.45-155.76,36.23-183.62-1.79-41.12-11.95-78.43-36.13-100.59-15.59-14.29-36.76-26.76-61.5-36.6Z"/>
        <path class="cls-1" d="m509.71,228.89c56.33-2.46,52.18-46.22,61.65-77.97,2.41-2.69,4.91-4.99,7.35-6.9.01-.01.04-.03.05-.04,4.23-3.74,8.98-6.76,13.86-7.23,11.67-27.76,16.06-53.24,15.47-66.64-1.25-28.57-26.2-57.5-66.24-55.75-5.54.24-11.11.75-16.64.99-42.34,1.85-33.96-16.7-66.67-15.27h-.14c-25.34,1.18-44.62,16.34-43.52,41.7.73,16.8,11.79,36.17,26.77,41.59,2.94,1.07,6.05,1.59,9.25,1.45,24.7-1.08,43.97-20.04,65.81-20.99,19.24-.84,49.36,18.01,50.78,50.61,1.68,38.44-9.28,55.46-54.91,57.45-21.4.93-10.36-9.5-28.41-8.71-9.2.4-11.76,2.29-13.46,4.48-2.46,3.18-3.09,7.02-19.65,7.86-2.18.11-4.05.27-5.63.62-4.84,1.06-6.9,3.77-6.56,11.61.09,2.18.34,4.29.41,5.97,0,0,.16,4.3.25,6.45.93,21.42,7.92,31.13,29.66,30.18.13,0,26.14-.84,40.51-1.47Z"/>
        <path class="cls-2" d="m511.45,330.57c53.63-2.34,71.34-29.87,95.01-49.96-5.63-1.72-11.4-3.31-17.28-4.78-7.88-1.96-13.56-8.82-13.94-16.92-.69-14.7-1.17-39.01,1.42-63.26.43-4.11,2.53-7.89,5.83-10.39,11.56-8.7,23.63-22.69,23.15-33.62-.32-7.39-4.78-15.28-12.29-14.96-.24.01-.49.02-.73.06-.01.05-.04.11-.06.16-3.44.55-8.48,2.9-13.8,7.07-.01.01-.04.03-.05.04-2.43,1.91-4.93,4.21-7.35,6.9-9.47,31.75-5.32,75.51-61.65,77.97-14.38.63-37.73,1.33-40.12,1.45,0,6.8-.16,13.6-.52,20.39-.48,8.82-7.27,15.98-16.04,17.12-2.15.28-4.31.58-6.46.9-8.61,36.29,27.03,63.47,64.89,61.82Z"/>
        <path class="cls-1" d="m520.71,350.02c45.13-1.97,56.76-19.45,109.43-61.1-7.58-3.04-15.49-5.8-23.69-8.31-23.67,20.08-41.38,47.62-95.01,49.96-37.86,1.65-73.5-25.52-64.89-61.82-4.8.71-9.59,1.51-14.34,2.43v.32c2.5,57.03,42.84,80.51,88.49,78.52Z"/>
        <path class="cls-2" d="m470.71,167.67c1.7-2.19,4.25-4.08,13.46-4.48,18.05-.79,7,9.64,28.41,8.71,45.63-1.99,56.59-19.01,54.91-57.45-1.42-32.6-31.54-51.45-50.78-50.61-21.85.95-41.12,19.91-65.81,20.99-3.2.14-6.31-.38-9.25-1.45.94,23.48,3.24,83.15,3.79,92.78,1.57-.35,3.45-.51,5.63-.62,16.56-.84,17.19-4.68,19.65-7.86Z"/>
        <path d="m360.5,597.59c.19-.03.37-.06.56-.1.53-.1,1.06-.22,1.57-.38,2.52-.77,4.69-2.27,6.32-4.21.06-.07.11-.13.17-.2.21-.27.42-.54.61-.82.07-.11.14-.22.22-.33.17-.27.34-.54.49-.82.08-.14.14-.28.22-.42.14-.27.27-.53.39-.81.1-.23.17-.46.26-.69.13-.37.25-.74.35-1.11.07-.28.15-.55.2-.83.04-.2.06-.4.1-.61.04-.28.08-.57.1-.86.02-.2.03-.4.03-.61.01-.3.01-.61,0-.91,0-.19-.01-.39-.03-.58-.03-.34-.07-.67-.12-1.01-.03-.17-.04-.33-.07-.5-.1-.5-.22-1.01-.37-1.51l-32.38-103.26h0s-23.83-76.03-23.83-76.03c-1.25-3.99-3.26-7.58-5.84-10.64-1.55-1.84-3.3-3.48-5.22-4.9-.64-.47-1.3-.92-1.97-1.35-1.35-.85-2.77-1.59-4.24-2.22-.74-.32-1.49-.6-2.25-.86-3.05-1.03-6.29-2.78-9.64-2.81H15.53c-7.51-.07-13.25,4.73-13.53,11.69-.06,1.53.13,3.1.63,4.67l54.07,167.81-.1,1.39c31.11,2.2,64.46,11.58,94.67,28.22,88.08-79.62,141.8-43.8,203.58,5.7l3.66.04c.47,0,.93-.03,1.39-.07.2-.02.39-.04.59-.07Z"/>
        <path class="cls-2" d="m585.23,537.97c-7.65,17.74-16.48,30.07-26.72,30.51-30.57,1.33-138.47-39.33-166.74-38.1-11.62.51-22.47,5.02-32.59,10.64l12.31,39.25c.16.5.28,1.01.37,1.51.03.17.05.33.07.5.05.34.1.68.12,1.01.02.19.02.39.03.58,0,.31.01.61,0,.91,0,.2-.02.4-.03.61-.02.29-.06.58-.1.86-.03.2-.06.41-.1.61-.06.28-.13.56-.2.83-.1.38-.22.75-.35,1.11-.08.23-.16.46-.26.69-.12.28-.26.54-.39.81-.07.14-.14.29-.22.42-.15.28-.32.55-.49.82-.07.11-.14.22-.22.33-.19.28-.4.56-.61.82-.06.07-.11.13-.17.2-1.63,1.94-3.8,3.43-6.32,4.21-.51.16-1.03.28-1.57.38-.19.03-.37.07-.56.1-.19.03-.39.05-.59.07-.46.04-.92.07-1.39.07l-3.66-.04c54.17,43.4,114.35,93.63,209.46,89.49,63.92-2.79,103.29-33.74,127.23-77.43-19.29-23.14-52.04-53.33-106.31-71.76Z"/>
        <path class="cls-2" d="m372.09,583.88c.01.31.01.61,0,.91.01-.3.01-.61,0-.91Z"/>
        <path class="cls-2" d="m371.94,582.29c.05.34.1.68.12,1.01-.03-.34-.07-.67-.12-1.01Z"/>
        <path class="cls-2" d="m371.49,580.28c.16.5.28,1.01.37,1.51-.1-.5-.22-1.01-.37-1.51Z"/>
        <path class="cls-2" d="m361.06,597.49c-.19.03-.37.07-.56.1.19-.03.38-.06.56-.1Z"/>
        <path class="cls-2" d="m359.91,597.65c-.46.04-.92.07-1.39.07.47,0,.93-.02,1.39-.07Z"/>
        <path class="cls-2" d="m367.39,567.19l-8.2-26.16,8.2,26.16Z"/>
        <path class="cls-2" d="m369.12,592.7c-.05.07-.11.13-.17.2.06-.07.11-.13.17-.2Z"/>
        <path class="cls-2" d="m371.85,586.87c-.06.28-.13.56-.2.83.07-.28.15-.55.2-.83Z"/>
        <path class="cls-2" d="m369.94,591.55c-.07.11-.14.22-.22.33.07-.11.14-.22.22-.33Z"/>
        <path class="cls-2" d="m371.3,588.81c-.08.23-.16.46-.26.69.1-.23.17-.46.26-.69Z"/>
        <path class="cls-2" d="m372.05,585.4c-.02.29-.06.58-.1.86.04-.28.08-.57.1-.86Z"/>
        <path class="cls-2" d="m370.65,590.31c-.07.14-.14.29-.22.42.08-.14.14-.28.22-.42Z"/>
        <path d="m508.27,127.96c-.42-4.36,1.82-8.15,5.02-8.46,3.2-.31,6.13,2.97,6.56,7.34.42,4.36-1.82,8.15-5.02,8.46-3.2.31-6.13-2.97-6.56-7.34Z"/>
        <path d="m465.8,129.91c-.38-3.87,1.62-7.24,4.46-7.52,2.84-.28,5.45,2.64,5.83,6.52.38,3.87-1.62,7.24-4.46,7.52-2.84.28-5.45-2.64-5.83-6.52Z"/>
      </g>
      <g>
        <path d="m354.88,595.68c1.88-.05,3.91,0,5.36-.24,1.57-.26,3.06-.87,4.34-1.76,2.57-1.78,4.35-4.62,4.78-7.65.21-1.51.08-3.05-.37-4.5-.08-.33-.24-.8-.39-1.25,0,0-58.03-178.75-58.31-179.55-.26-.77-.64-1.5-.95-2.25-.38-.73-.75-1.45-1.16-2.17-.46-.68-.85-1.4-1.34-2.06-3.89-5.27-9.4-9.5-15.63-10.92-.39-.09-.77-.21-1.16-.27l-1.18-.17c-.79-.16-1.57-.13-2.36-.21-.36-.03-.87-.03-1.34-.03l-265.8-2.47c-1.86,0-3.9-.09-5.46.06-1.65.15-3.23.68-4.65,1.45-2.84,1.56-4.87,4.39-5.26,7.55-.2,1.58-.02,3.2.47,4.78l54.14,167.74c.34,1.05-.23,2.18-1.28,2.52-1.05.34-2.18-.23-2.52-1.28L.74,395.21c-.64-2.05-.91-4.28-.63-6.48.28-2.2,1.1-4.33,2.37-6.14,1.27-1.81,2.96-3.3,4.86-4.36,1.9-1.06,4.01-1.74,6.14-1.94,2.23-.2,3.98-.08,5.91-.11,0,0,265.3-.07,267.27.03,1.02.05,2.04.06,3.04.25l1.51.22c.5.08.99.22,1.49.33,7.96,1.8,14.73,6.98,19.49,13.41.6.81,1.1,1.68,1.65,2.52.5.87.97,1.76,1.43,2.65.39.92.85,1.82,1.19,2.77.33.94.71,1.92.96,2.8,0,0,55.98,178.57,56.13,179.13.53,2.1.71,4.32.35,6.48-.73,4.31-3.32,8.22-7,10.56-1.84,1.17-3.93,1.96-6.1,2.23-.53.12-1.08.09-1.62.13-.57.04-1.04.03-1.51.02l-2.84-.03c-1.1-.01-1.99-.92-1.98-2.02.01-1.08.87-1.95,1.94-1.98h.08Z"/>
        <path d="m151.41,594.05c-.33,0-.66-.08-.96-.25-39.71-21.89-87.64-32.14-128.23-27.44-1.1.14-2.09-.66-2.22-1.76-.13-1.1.66-2.09,1.76-2.22,41.38-4.81,90.22,5.63,130.62,27.91.97.53,1.32,1.75.79,2.72-.36.66-1.05,1.03-1.75,1.03Z"/>
        <path d="m279.11,362.11c-.42,0-.85-.13-1.21-.41-.88-.67-1.04-1.93-.37-2.8,49.55-64.66,122.65-86.28,175.24-93.03,2.75-.35,5.38-1.4,7.62-3.03.89-.65,2.14-.45,2.79.44.65.89.45,2.14-.44,2.79-2.78,2.02-6.05,3.32-9.46,3.76-51.84,6.65-123.86,27.92-172.57,91.49-.39.51-.99.78-1.59.78Z"/>
        <path d="m568.53,151.79c5.4-4.85,10.28-9.94,16.4-14.42,1.59-1.04,3.45-1.7,5.37-2.17.96-.23,1.97-.28,2.97-.35l1.57.08c.52.08,1.04.19,1.55.29,2.03.55,3.88,1.62,5.38,2.98,1.5,1.37,2.71,2.98,3.63,4.71.92,1.74,1.59,3.58,2,5.49.2.95.35,1.92.44,2.9.05.49.04,1.01.04,1.51,0,.5.05,1.03-.03,1.52-.32,4.02-1.66,7.71-3.37,11.08-3.43,6.76-8.21,12.51-13.54,17.61-1.33,1.28-2.71,2.51-4.12,3.71l-2.1,1.72c-.51.4-.98.85-1.4,1.34-.85.98-1.53,2.11-1.99,3.34-.23.61-.4,1.25-.54,1.89-.07.32-.12.64-.17.97l-.14,1.28c-.73,6.95-1.46,13.93-1.9,20.94-.44,7.01-.81,14.04-1,21.08-.09,3.52-.29,19.49-.21,20.98v.26c.07,1.1-.77,2.04-1.87,2.1-1.08.06-2-.75-2.1-1.81-.18-2.04-.14-3.69-.18-5.5-.04-1.78-.02-3.56-.06-5.33-.09-3.55-.09-7.11-.09-10.66,0-7.11.24-14.21.42-21.32.18-7.11.64-14.22,1.25-21.32l.12-1.34c.05-.49.12-.98.21-1.47.18-.97.46-1.93.81-2.87.7-1.86,1.74-3.6,3.05-5.12.66-.76,1.39-1.45,2.18-2.08.72-.58,1.38-1.08,2.06-1.63,1.35-1.08,2.67-2.2,3.95-3.37,5.1-4.65,9.8-9.88,13.13-15.77,1.65-2.93,2.92-6.06,3.3-9.19.09-.39.04-.77.07-1.16,0-.39.04-.76.01-1.16-.05-.8-.14-1.59-.28-2.38-.28-1.58-.79-3.11-1.47-4.53-1.36-2.82-3.61-5.15-6.33-5.76l-1.04-.17-1.06-.03c-.76.09-1.51.14-2.27.33-1.5.38-3.01.93-4.45,1.71-1.44.77-2.83,1.69-4.17,2.71-1.34,1.02-2.63,2.14-3.87,3.32-2.5,2.35-4.82,4.94-7.09,7.61l-.18.21c-.72.85-1.99.95-2.83.23-.85-.72-.95-1.99-.23-2.83.06-.07.13-.14.19-.2Z"/>
        <path d="m591.95,274.47c4.04,1.36,22.18,7.29,24.17,8.02,1.99.72,3.99,1.44,5.99,2.13,2.01.69,3.99,1.43,6,2.12,4.01,1.37,8.03,2.78,11.96,4.4,7.87,3.25,15.44,7.19,22.76,11.54l2.73,1.66c.91.55,1.84,1.07,2.73,1.65,1.79,1.16,3.62,2.25,5.39,3.43,1.77,1.18,3.59,2.31,5.33,3.55,1.74,1.24,3.5,2.46,5.2,3.75,3.4,2.6,6.74,5.27,9.91,8.2,3.19,2.94,6.16,6.12,8.87,9.51,5.42,6.78,9.87,14.29,13.47,22.15,3.61,7.86,6.42,16.04,8.62,24.37,2.2,8.33,3.69,16.8,4.79,25.31,1.1,8.5,1.79,17.05,1.98,25.6.18,8.54.08,17.06-.21,25.57-.57,17.03-2.41,34-5.11,50.82-2.7,16.82-6.42,33.51-11.66,49.74-1.31,4.06-2.5,8.15-4.09,12.11l-3.38,8.98c-.37,1-.84,1.96-1.25,2.94l-3.89,8.77c-.43.97-.86,1.95-1.37,2.89l-5.91,11.35c-.51.98-1.72,1.36-2.7.85-.97-.51-1.36-1.7-.86-2.68l5.72-11.25c.5-.92.91-1.89,1.32-2.85l3.74-8.66c.4-.97.85-1.92,1.2-2.91l3.23-8.87c1.53-3.91,2.66-7.96,3.91-11.97,5-16.04,8.53-32.55,10.95-49.2,2.41-16.65,3.95-33.45,4.45-50.26.25-8.41.32-16.82.06-25.22-.26-8.39-.81-16.76-1.79-25.08-1.96-16.61-5.53-33.14-12.21-48.38-3.33-7.61-7.45-14.86-12.5-21.4-2.52-3.27-5.29-6.33-8.26-9.17-2.98-2.86-6.2-5.55-9.47-8.12-13.12-10.31-27.93-18.42-43.24-25.21-15.33-6.8-31.33-12.05-47.58-16.27l-.16-.04c-1.07-.28-1.71-1.37-1.43-2.44.28-1.07,1.37-1.71,2.44-1.44.05.01.1.03.14.04Z"/>
        <path d="m666,645.38c-2.49,2.05-4.85,4.19-7.32,6.23-2.46,2.04-4.93,4.06-7.43,6.03-1.25.99-2.58,1.87-3.84,2.85-.63.49-1.25,1-1.89,1.46-.65.46-1.31.91-1.94,1.41-2.51,1.97-5.1,3.87-7.81,5.59-5.41,3.44-11.23,6.22-17.23,8.47l-2.23.89-6.76,2.48-6.83,2.27-6.94,1.94-4.68,1.07c-3.11.79-6.29,1.21-9.44,1.84-1.57.31-3.17.48-4.76.71-1.59.23-3.18.46-4.77.64l-4.79.45c-1.6.15-3.2.32-4.79.35l-12,.48c-.8.01-1.6-.02-2.4-.03l-4.81-.09c-6.43.07-12.83-.61-19.22-1.26-12.79-1.31-25.43-4.17-37.7-8.04-12.28-3.88-24.07-9.08-35.5-14.85-11.44-5.77-22.31-12.55-32.85-19.69l-3.95-2.68-3.88-2.78c-2.58-1.86-5.18-3.7-7.71-5.62-2.53-1.92-5.06-3.84-7.55-5.81l-7.48-5.97c-.86-.69-1.01-1.95-.32-2.81.68-.86,1.93-1,2.79-.33l7.47,5.8c2.5,1.92,5.04,3.79,7.57,5.66,2.54,1.87,5.13,3.65,7.71,5.46l3.88,2.7,3.94,2.6c10.52,6.91,21.29,13.47,32.64,18.9,11.34,5.43,22.97,10.25,34.97,13.91,12.01,3.66,24.29,6.38,36.72,7.9,6.22.76,12.45,1.45,18.72,1.57,0,0,6.26.3,7.04.3l11.75-.17c12.52-.33,24.96-2.11,37.02-5.28l2.27-.58,6.7-2.07,6.59-2.4,6.46-2.73,4.21-2.03c1.42-.65,2.78-1.4,4.14-2.15,1.36-.76,2.75-1.47,4.08-2.27,5.34-3.22,10.52-6.68,15.42-10.54,4.9-3.85,9.48-8.1,13.86-12.54l.17-.17c.78-.79,2.05-.8,2.84-.02s.8,2.05.02,2.84c-.05.05-.1.1-.16.14Z"/>
        <path d="m350.92,594.93c-4.24-3.98-8.71-7.69-13.3-11.22-2.29-1.77-4.61-3.51-7.06-5.06,0,0-6.19-3.77-7.4-4.55-1.21-.79-2.46-1.51-3.64-2.34l-3.64-2.34c-2.38-1.62-4.82-3.15-7.27-4.67-.61-.38-1.22-.77-1.84-1.14l-5.68-3.11c-1.29-.64-2.59-1.24-3.89-1.85-1.3-.61-2.59-1.24-3.91-1.78-10.59-4.33-21.54-7.9-32.79-8.86l-4.21-.34c-1.4-.12-2.81-.06-4.21-.1h-3.15l-5.24.34c-1.4.05-2.78.29-4.17.49l-4.16.55-4.11.86c-1.37.31-2.75.51-4.09.95-10.83,2.9-21.23,7.38-31.12,12.89-9.89,5.51-19.45,11.8-28.45,18.92-8.98,7.11-17.73,14.59-26.08,22.56-8.34,7.96-16.37,16.28-24.39,24.63l-.1.11c-.76.8-2.03.82-2.83.06-.79-.76-.82-2.01-.08-2.8,7.95-8.52,15.92-17.01,24.23-25.19,8.31-8.18,17.08-15.88,26.06-23.33,8.99-7.45,18.63-14.16,28.82-19.98,10.18-5.81,21.07-10.61,32.59-13.39,1.42-.43,2.89-.63,4.34-.93l4.36-.83,4.42-.51c1.47-.16,2.94-.38,4.43-.39l5.56-.21,3.33.12c1.48.08,2.97.06,4.44.22l4.42.49c1.48.12,2.93.4,4.39.67,1.46.27,2.92.52,4.37.81l6.45,1.62,6.33,2.01c1.39.49,2.75,1.05,4.14,1.56,2.77,1.02,5.43,2.28,8.14,3.44,1.36.58,2.65,1.27,3.97,1.92,1.32.65,2.64,1.3,3.93,1.98l3.85,2.13c1.29.7,2.57,1.42,3.82,2.18,2.5,1.52,5.04,2.99,7.48,4.6l3.69,2.37,3.62,2.46c9.65,6.59,18.92,13.66,28.07,20.83l.14.11c.87.68,1.02,1.94.34,2.81-.68.87-1.94,1.02-2.81.34-.05-.04-.1-.08-.14-.12Z"/>
        <path d="m346.87,465.94c-.12,0-.25-.01-.38-.04-1.09-.21-1.8-1.25-1.59-2.34,6.26-32.94,14.3-58.46,20.61-77.01.36-1.04,1.49-1.61,2.54-1.25,1.05.36,1.6,1.49,1.25,2.54-6.27,18.42-14.26,43.76-20.47,76.46-.18.96-1.02,1.63-1.96,1.63Z"/>
        <path d="m357.54,538.07c8.36-4.71,17.42-8.85,27.34-10.56,2.48-.43,4.96-.71,7.53-.74,1.3-.01,2.61-.01,3.84.1l1.87.13c.62.06,1.22.14,1.83.21,4.87.57,9.58,1.47,14.25,2.46,9.34,1.98,18.48,4.41,27.59,6.94,9.11,2.52,18.16,5.16,27.2,7.8,18.08,5.29,36.07,10.81,54.2,15.55,4.53,1.18,9.07,2.33,13.62,3.34,4.55,1.01,9.12,1.92,13.67,2.51l1.71.22,3.39.3,1.67.04c1.17.06,2.1,0,3.11-.17.99-.18,1.97-.51,2.92-.93,3.86-1.7,7.13-5.03,9.95-8.59l.04-.05c.61-.77,1.73-.9,2.49-.29.75.6.89,1.69.32,2.45-2.9,3.89-6.28,7.76-11.06,10.1-1.19.58-2.45,1.05-3.78,1.35-1.32.29-2.75.41-3.94.39h-1.86l-3.65-.2c-.6-.05-1.2-.13-1.8-.2-4.79-.53-9.48-1.39-14.13-2.35-4.65-.96-9.26-2.03-13.85-3.17-9.18-2.27-18.28-4.76-27.35-7.33s-45.18-13.28-54.23-15.85c-9.04-2.57-18.11-5.05-27.26-7.13-4.57-1.04-9.17-1.91-13.78-2.56-1.16-.16-2.31-.26-3.46-.36-1.16-.11-2.3-.14-3.44-.14-2.3,0-4.61.22-6.91.55-9.21,1.3-17.99,5-26.28,9.37h-.02c-.9.49-2.01.14-2.49-.75-.47-.88-.14-1.97.72-2.46Z"/>
        <path d="m582.28,536.26l3.01-7.78,2.74-7.92c1.75-5.32,3.5-10.64,5.06-16.04,0,0,3.89-13.5,4.63-16.22,1.48-5.43,18.25-68.34,18.69-69.7.44-1.36.85-2.72,1.35-4.07l1.47-4.06,1.78-4.02c.4-.9,1.44-1.3,2.34-.9.86.38,1.27,1.36.95,2.23l-1.46,3.93-1.21,3.99c-.77,2.68-1.47,5.4-2.17,8.12-1.4,5.45-9.31,38.45-12.22,49.41-1.45,5.48-6.07,21.86-6.88,24.58-.81,2.72-1.67,5.42-2.55,8.12-1.76,5.39-3.6,10.77-5.57,16.09l-3.16,7.91-3.44,7.78c-.41.93-1.5,1.35-2.43.94-.9-.4-1.32-1.43-.97-2.34l.02-.05Z"/>
        <path d="m585.87,536.08c10.31,3.57,20.42,7.69,30.26,12.43,9.83,4.74,19.32,10.2,28.4,16.27,9.08,6.07,17.73,12.78,25.86,20.08,8.13,7.3,15.68,15.23,22.7,23.59h.01c.96,1.16.81,2.86-.33,3.82-1.14.96-2.85.81-3.81-.33l-.03-.03c-6.74-8.27-13.99-16.14-21.83-23.4-7.84-7.26-16.22-13.96-25.03-20.05-8.81-6.09-18.05-11.59-27.66-16.41-9.6-4.81-19.52-9.03-29.64-12.71l-.05-.02c-.89-.33-1.36-1.31-1.03-2.21.32-.89,1.3-1.35,2.18-1.04Z"/>
        <path d="m445.07,171.39c-1.06,0-1.94-.83-2-1.9-.37-7.09-2.31-57.2-3.14-78.98-.04-1.1.82-2.03,1.92-2.07,1.14-.03,2.03.82,2.08,1.92.83,21.77,2.77,71.86,3.14,78.92.06,1.1-.79,2.04-1.89,2.1-.04,0-.07,0-.11,0Z"/>
        <path d="m508.15,332.64c-21.41,0-41.84-8.84-53.96-23.51-9.8-11.86-13.11-25.99-9.57-40.86.25-1.08,1.33-1.74,2.41-1.48,1.07.26,1.74,1.33,1.48,2.41-3.23,13.6-.2,26.53,8.77,37.39,11.97,14.49,32.69,22.91,54.09,21.98,43.17-1.88,62.51-20.22,81.2-37.96,4.07-3.86,8.27-7.85,12.6-11.52.84-.71,2.1-.61,2.82.23.71.84.61,2.1-.23,2.82-4.24,3.6-8.22,7.38-12.44,11.37-19.23,18.24-39.11,37.11-83.78,39.05-1.13.05-2.26.07-3.38.07Z"/>
        <path d="m571.35,150.92c7.71-8.57,16.18-13.19,21.2-14.01,11.7-27.83,16.12-53.37,15.53-66.8-1.25-28.57-26.21-57.5-66.24-55.75-5.54.24-11.11.75-16.64.99-42.33,1.85-33.97-16.7-66.67-15.27-.05,0-.09,0-.14,0-25.33,1.18-44.62,16.35-43.52,41.69.88,20.11,16.55,43.89,36.02,43.04,24.69-1.08,43.97-20.04,65.81-20.99,19.25-.84,49.36,18.01,50.78,50.61,1.68,38.44-9.28,55.46-54.91,57.45-21.41.93-10.36-9.5-28.41-8.71-22.59.99-5.17,10.92-33.1,12.34-8.87.45-12.64,1.83-12.19,12.23.09,2.17.34,4.29.41,5.97,0,0,.16,4.3.25,6.45.93,21.41,7.92,31.13,29.66,30.18,2.52-.11,26.13-.84,40.51-1.47,56.32-2.46,52.19-46.22,61.65-77.97Z"/>
        <path d="m481.97,108.4c1.19,1.03,2.33,2.13,3.37,3.34,1.03,1.21,1.97,2.51,2.79,3.88,1.64,2.74,2.79,5.72,3.6,8.74.82,3.02,1.26,6.09,1.6,9.14.08.77.13,1.53.19,2.29.06.76.1,1.52.11,2.36.02,1.63-.14,3.31-.55,4.99-.41,1.68-1.22,3.34-2.33,4.76-1.11,1.42-2.53,2.56-4,3.42-2.97,1.73-6.08,2.5-8.96,3.29-1.44.39-2.85.77-4.13,1.23-1.28.45-2.44,1.01-3.24,1.67-.81.67-1.24,1.38-1.41,2.37-.02.26-.09.5-.09.78v.84c.03.5.14.95.32,1.37.54,1.27-.04,2.74-1.31,3.28-1.27.54-2.74-.04-3.28-1.31,0-.02-.04-.09-.04-.09-.39-.97-.61-2.01-.63-3,0-.48.01-.94.03-1.41.02-.47.13-.97.21-1.45.08-.48.28-.98.44-1.46.2-.48.45-.95.71-1.4.58-.87,1.29-1.65,2.06-2.24,1.56-1.19,3.18-1.86,4.72-2.37,1.55-.51,3.05-.87,4.51-1.23,2.9-.71,5.67-1.4,7.93-2.64,2.25-1.24,3.83-3.05,4.5-5.5.33-1.22.5-2.52.51-3.89,0-.66-.01-1.39-.05-2.13-.04-.73-.07-1.46-.13-2.18-.25-2.9-.6-5.78-1.28-8.56-.68-2.77-1.65-5.45-3.03-7.89-.69-1.22-1.48-2.37-2.37-3.46-.88-1.09-1.88-2.09-2.93-3.05l-.02-.02c-.67-.61-.72-1.65-.11-2.32.6-.66,1.62-.72,2.29-.13Z"/>
        <path d="m501.01,100.61c1.06-.56,2.19-.83,3.31-.91,1.13-.08,2.24.04,3.35.13,2.22.18,4.4.63,6.54,1.2,2.13.57,4.22,1.3,6.24,2.22,1.01.46,2,.97,2.97,1.56.99.6,1.91,1.16,2.92,2.22.62.65.6,1.69-.06,2.31-.56.53-1.39.59-2.01.19l-.23-.15c-.55-.35-1.49-.81-2.37-1.18-.89-.37-1.84-.69-2.78-1.01-1.89-.64-3.84-1.13-5.79-1.53-1.95-.4-3.92-.71-5.89-.88l-2.94-.18c-.98-.13-1.95-.26-2.99-.72l-.16-.07c-.9-.4-1.31-1.45-.91-2.35.17-.38.45-.67.8-.85Z"/>
        <path d="m476.92,105.71c-.99.55-1.95.75-2.92.97l-2.92.43c-1.94.34-3.88.82-5.79,1.39-1.91.57-3.81,1.23-5.63,2.03-.91.4-1.82.8-2.68,1.25-.84.44-1.74.98-2.26,1.38l-.21.17c-.71.55-1.74.42-2.29-.29-.47-.61-.44-1.44.01-2.02.91-1.14,1.78-1.79,2.71-2.47.92-.67,1.85-1.27,2.82-1.81,1.93-1.09,3.94-2,6.02-2.75,2.08-.75,4.21-1.39,6.41-1.76,1.1-.18,2.2-.41,3.33-.42,1.12-.01,2.27.15,3.38.62.91.38,1.33,1.43.95,2.34-.16.38-.44.68-.78.87l-.15.08Z"/>
        <path d="m580.62,174.28c-.84,0-1.66-.43-2.14-1.2-.72-1.18-.35-2.72.83-3.44,2.33-1.42,5.26-4.91,6.16-6.55-.38-.08-.79-.14-1.23-.19-1.18-.16-2.51-.34-3.88-1.04-.67-.35-1.14-.97-1.3-1.71-.06-.29-.1-.58-.11-.88-.17-3.79,3.6-7.68,5.23-9.18,1.02-.93,2.6-.87,3.53.15s.87,2.6-.15,3.53c-1.6,1.47-2.73,2.98-3.27,4.09.19.03.39.06.6.08,1.22.16,2.75.37,4.22,1.25.5.3.88.76,1.07,1.3l.07.19c.17.47.41,1.11.44,1.87.15,3.37-5.7,9.47-8.8,11.36-.41.25-.86.37-1.3.37Z"/>
        <path d="m515.19,352.15c-44.12,0-74.94-23.43-82.95-63.49-.22-1.08.49-2.14,1.57-2.35,1.09-.22,2.14.49,2.35,1.57,7.93,39.63,39.47,62.11,84.46,60.15,36.19-1.58,49.89-12.87,82.98-40.14,5.1-4.2,10.88-8.96,17.17-14.04.86-.69,2.12-.56,2.81.3.69.86.56,2.12-.3,2.81-6.28,5.06-12.05,9.81-17.14,14.01-32.83,27.06-47.82,39.41-85.35,41.05-1.89.08-3.76.12-5.6.12Z"/>
        <path class="cls-4" d="m188.94,478.57c1.39.83,2.68,1.94,3.67,3.4.98,1.44,1.74,3.32,1.52,5.47-.11,1.06-.47,2.14-1.07,3.03-.14.21-.33.47-.44.62l-11.62,14.13c-.38.34-.77.67-1.19.92-.84.52-1.71.88-2.58,1.08-3.47.8-6.8-.13-9.43-1.79l-19.69-12.52c-1.3-.84-2.52-1.91-3.42-3.3-.89-1.37-1.53-3.12-1.31-5.03.11-.94.44-1.89.98-2.68.13-.19.29-.41.4-.55l11.56-14.06c.33-.31.68-.6,1.06-.84.75-.47,1.54-.83,2.34-1.03,3.19-.8,6.41-.04,9.01,1.49,0,0,15.76,9,20.21,11.66Zm-2.77,4.54l-19.61-12.64c-.93-.62-1.86-1.02-2.89-1.27-1.01-.24-2.07-.24-2.98-.04-.46.1-.88.27-1.22.49-.18.1-.32.24-.47.36-.06.07-.13.14-.19.2l-11.12,13.86c-.18.29-.28.6-.32.94-.07.69.22,1.53.76,2.3.54.77,1.33,1.44,2.21,1.97l20.14,11.79c.92.56,1.8.88,2.77,1.06.94.18,1.91.14,2.68-.07.39-.11.72-.26.98-.44.14-.08.23-.19.33-.27.04-.05.08-.1.13-.15l11.08-13.78c.12-.18.2-.36.23-.59.07-.45-.1-1.16-.55-1.86-.45-.69-1.15-1.35-1.96-1.87Z"/>
        <g>
          <path d="m251.51,245.95c-5.55,0-10.75-4.05-12.95-10.58-2.32-6.89-.95-15.62,6.16-18.98,1-.47,2.19-.04,2.66.95.47,1,.05,2.19-.95,2.66-4.94,2.34-5.79,9-4.08,14.08,2.23,6.62,7.64,8.78,11.6,7.45,3.22-1.08,4.61-4.47,5.14-6.39.91-3.24.82-7.07-.25-10.23-.71-2.1-1.79-3.76-3.14-4.81-.74-.58-1.55-.95-2.48-1.12-1.08-.21-1.79-1.26-1.58-2.34.21-1.08,1.26-1.79,2.34-1.58,1.53.3,2.93.93,4.17,1.89,1.97,1.53,3.52,3.84,4.48,6.69,1.31,3.89,1.42,8.59.31,12.58-1.3,4.63-4.04,7.87-7.72,9.11-1.24.42-2.49.62-3.72.62Z"/>
          <path class="cls-1" d="m353.37,203.98c-.46,0-.91-.03-1.38-.09-7.13-.95-11.67-7.96-10.56-16.3.52-3.93,2.25-7.68,4.75-10.3,2.9-3.04,6.67-4.43,10.62-3.9.28.04.56.08.85.14,3.35.67,7.45,1.98,9.5,6.18,1.09,2.24,1.46,5,1.06,7.98-1.07,8.04-7.31,16.28-14.85,16.28Zm1.79-26.7c-2.81,0-4.83,1.46-6.08,2.77-1.92,2.02-3.26,4.96-3.68,8.06-.92,6.93,2.98,11.25,7.12,11.8,5.55.74,10.86-6.25,11.73-12.75.29-2.2.05-4.17-.69-5.7-1.03-2.1-2.96-3.27-6.69-4.01-.2-.04-.4-.07-.59-.1-.39-.05-.76-.08-1.12-.08Z"/>
          <path d="m234.6,299.26c-.46,0-.91-.03-1.38-.09-7.13-.95-11.67-7.96-10.56-16.3.52-3.93,2.25-7.68,4.75-10.3,2.9-3.04,6.67-4.43,10.62-3.9.28.04.56.08.85.14,3.35.67,7.45,1.98,9.5,6.18,1.09,2.24,1.46,5,1.06,7.98-1.07,8.04-7.31,16.28-14.85,16.28Zm1.79-26.7c-2.81,0-4.83,1.46-6.08,2.77-1.92,2.02-3.26,4.96-3.68,8.06-.92,6.93,2.98,11.25,7.12,11.8,5.55.74,10.86-6.25,11.73-12.75.29-2.2.05-4.17-.69-5.7-1.03-2.1-2.96-3.27-6.69-4.01-.2-.04-.4-.07-.59-.1-.39-.05-.76-.08-1.12-.08Z"/>
          <path d="m289.32,144.07c-.45,0-.9-.03-1.36-.09-3.37-.45-6.31-2.32-8.29-5.26-2.01-3-2.82-6.92-2.27-11.04,1.03-7.74,6.77-15.34,15.37-14.2.28.04.57.09.85.14,3.35.67,7.45,1.98,9.5,6.18,1.09,2.24,1.46,5,1.06,7.98-.54,4.07-2.52,8.34-5.28,11.42-2.83,3.16-6.19,4.85-9.59,4.85Zm1.8-26.7c-5.4,0-9.02,5.39-9.75,10.84-.42,3.15.16,6.09,1.62,8.28,1.33,1.98,3.28,3.23,5.5,3.52,3.36.45,6.11-1.98,7.44-3.47,2.25-2.51,3.85-5.98,4.29-9.29.29-2.2.05-4.17-.69-5.7-1.03-2.1-2.96-3.26-6.69-4.01-.2-.04-.4-.07-.6-.1-.38-.05-.75-.08-1.12-.08Z"/>
          <path d="m162.71,330.91c-.74,0-1.5-.08-2.26-.24-7.32-1.57-10.6-11.17-8.96-18.8.57-2.67,1.74-4.93,3.36-6.52,3.06-2.99,6.98-2.86,10.06-2.4h0c.26.04.52.09.78.14,3.55.76,6.37,3.11,7.93,6.62,1.33,3,1.66,6.73.91,10.25-1.41,6.6-6.28,10.96-11.81,10.96Zm-.8-24.21c-1.9,0-3.21.48-4.26,1.51-1.06,1.04-1.84,2.59-2.25,4.49-1.21,5.66,1.1,13.03,5.89,14.05,3.57.76,8.04-1.66,9.33-7.65.58-2.71.34-5.54-.65-7.79-.72-1.63-2.2-3.71-5.11-4.33-.17-.04-.34-.07-.52-.09-.9-.13-1.7-.2-2.42-.2Z"/>
          <path d="m203.23,239.72c-2.65,0-5.19-.89-7.33-2.63-3.73-3.03-5.5-8.18-4.76-13.78,1.03-7.74,6.77-15.34,15.37-14.2.28.04.57.09.85.14,3.35.67,7.45,1.98,9.5,6.18,1.09,2.24,1.46,5,1.06,7.98-.48,3.61-2.08,7.39-4.39,10.36-.68.87-1.93,1.03-2.81.35-.87-.68-1.03-1.93-.35-2.81,1.89-2.43,3.19-5.5,3.58-8.43.29-2.2.05-4.17-.69-5.7-1.03-2.1-2.96-3.27-6.69-4.01-.2-.04-.4-.07-.6-.1-6.03-.81-10.1,4.95-10.87,10.76-.56,4.21.68,8,3.32,10.14,2.13,1.74,4.91,2.18,7.64,1.23,1.04-.37,2.18.18,2.55,1.23.37,1.04-.18,2.18-1.23,2.55-1.39.49-2.79.72-4.16.72Z"/>
          <path d="m262.86,194.71c-.09,0-.18,0-.27-.02-1.09-.15-1.86-1.16-1.71-2.25.73-5.36,1.85-10.71,2.84-15.42.67-3.18,1.3-6.22,1.75-8.91-3.07,1.07-6.16,2.21-9.11,3.52-1.01.45-2.19-.01-2.64-1.02-.45-1.01.01-2.19,1.02-2.64,4.06-1.79,8.29-3.25,12.37-4.66l.15-.05c.65-.22,1.38-.1,1.91.34.54.44.81,1.12.73,1.8-.05.38-.1.77-.15,1.15-.44,3.32-1.25,7.2-2.11,11.3-.97,4.65-2.08,9.92-2.79,15.15-.14,1-.99,1.73-1.98,1.73Z"/>
          <path d="m312.05,197.25c-.96,0-1.81-.7-1.97-1.68-.88-5.34-1.38-10.78-1.82-15.58-.3-3.23-.58-6.32-.95-9.03-2.61,1.93-5.24,3.92-7.68,6.04-.83.72-2.1.63-2.82-.2-.72-.83-.63-2.1.2-2.82,3.36-2.91,6.96-5.54,10.46-8.09l.13-.09c.56-.41,1.29-.5,1.93-.24.64.26,1.1.83,1.22,1.51.07.38.13.76.2,1.14.55,3.3.92,7.25,1.3,11.43.44,4.73.93,10.1,1.78,15.3.18,1.09-.56,2.12-1.65,2.3-.11.02-.22.03-.33.03Z"/>
          <path class="cls-1" d="m194.04,291.61c-.87,0-1.68-.58-1.92-1.46-1.47-5.21-2.57-10.56-3.55-15.28-.66-3.18-1.29-6.22-1.95-8.87-2.38,2.21-4.77,4.48-6.96,6.86-.75.81-2.01.86-2.83.11-.81-.75-.86-2.01-.11-2.83,3.01-3.26,6.3-6.28,9.48-9.2l.12-.11c.51-.47,1.22-.64,1.89-.45.67.18,1.19.7,1.38,1.36.11.37.22.74.32,1.11.92,3.22,1.72,7.1,2.57,11.21.96,4.65,2.05,9.93,3.48,15,.3,1.06-.32,2.17-1.38,2.47-.18.05-.36.08-.54.08Z"/>
          <path d="m156.78,232.77c-.09,0-.18,0-.27-.02-1.09-.15-1.86-1.16-1.71-2.25.73-5.36,1.85-10.71,2.84-15.43.66-3.18,1.3-6.22,1.75-8.91-3.07,1.07-6.16,2.21-9.11,3.52-1.01.45-2.19-.01-2.64-1.02-.45-1.01.01-2.19,1.02-2.64,4.06-1.79,8.28-3.25,12.37-4.66l.16-.05c.65-.22,1.38-.1,1.91.34.54.44.81,1.12.73,1.8-.05.38-.1.77-.15,1.15-.44,3.32-1.25,7.2-2.11,11.3-.97,4.65-2.08,9.92-2.79,15.15-.14,1-.99,1.73-1.98,1.73Z"/>
          <path class="cls-1" d="m294.31,251.87c-.09,0-.18,0-.27-.02-1.09-.15-1.86-1.16-1.71-2.25.73-5.37,1.85-10.71,2.84-15.43.66-3.18,1.3-6.21,1.75-8.91-3.07,1.07-6.16,2.21-9.11,3.52-1.01.45-2.19-.01-2.64-1.02-.45-1.01.01-2.19,1.02-2.64,4.06-1.79,8.29-3.25,12.38-4.66l.15-.05c.65-.22,1.38-.1,1.91.34.54.44.81,1.12.73,1.8l-.15,1.15c-.44,3.32-1.25,7.2-2.11,11.3-.97,4.65-2.08,9.92-2.79,15.15-.14,1-.99,1.73-1.98,1.73Z"/>
          <path d="m226.1,186.29c-.9,0-1.72-.61-1.94-1.53-1.28-5.26-2.2-10.64-3.01-15.39-.54-3.2-1.07-6.26-1.64-8.93-2.46,2.12-4.92,4.31-7.19,6.61-.78.79-2.04.79-2.83.02-.79-.78-.79-2.04-.02-2.83,3.12-3.15,6.51-6.05,9.79-8.85l.14-.12c.53-.45,1.24-.59,1.9-.39.66.21,1.16.74,1.33,1.41.1.37.19.75.28,1.12.8,3.25,1.47,7.16,2.17,11.29.8,4.68,1.7,9.99,2.95,15.12.26,1.07-.4,2.16-1.47,2.42-.16.04-.32.06-.48.06Z"/>
        </g>
        <path d="m523.69,531.3c-.65,0-1.28-.31-1.67-.89-.61-.92-.37-2.16.55-2.77,13.72-9.17,26.54-20.02,42.85-36.28.78-.78,2.05-.78,2.83,0,.78.78.78,2.05,0,2.83-11.64,11.61-25.91,25.06-43.45,36.77-.34.23-.73.34-1.11.34Z"/>
        <path d="m543.87,532.54c-.64,0-1.28-.31-1.66-.89-.62-.92-.37-2.16.55-2.78,8.69-5.83,15.73-12.7,20.92-20.42.62-.92,1.86-1.16,2.78-.54.92.62,1.16,1.86.54,2.78-5.48,8.15-12.88,15.39-22.01,21.51-.34.23-.73.34-1.11.34Z"/>
        <path class="cls-1" d="m425.52,46.94c-1.1-2.48-1.48-5.12-1.65-7.55l-.11-1.82c0-.64,0-1.28.03-1.92.02-.64-.01-1.28.09-1.92l.31-1.91c.85-5.14,3.87-9.73,7.61-13.11.44-.46.96-.82,1.46-1.21l1.5-1.15c1.07-.65,2.09-1.39,3.2-1.95,1.11-.56,2.2-1.18,3.35-1.62l1.71-.72,1.75-.6c1.16-.43,2.35-.72,3.53-1.05,1.18-.33,2.39-.53,3.59-.8.6-.13,1.21-.2,1.81-.31.6-.11,1.2-.23,1.81-.3,1.21-.15,2.43-.23,3.65-.33,1.09-.08,2.05.73,2.13,1.83.08,1.08-.72,2.03-1.79,2.13h-.12c-2.27.23-4.55.32-6.78.78-1.11.23-2.23.43-3.33.74-1.09.31-2.2.58-3.25.97l-1.6.55-1.55.66c-1.06.4-2.02.96-3.02,1.47-1,.51-1.89,1.17-2.84,1.74l-1.31,1.01c-.43.34-.89.66-1.26,1.05-3.2,2.94-5.66,6.69-6.34,10.94l-.25,1.59c-.09.53-.05,1.08-.07,1.61-.02.54-.03,1.08-.03,1.62l.11,1.72c.17,2.26.51,4.37,1.34,6.22.45,1.01,0,2.19-1.01,2.64s-2.19,0-2.64-1.01h0Z"/>
        <path class="cls-1" d="m473.78,10.58c1.4.46,2.79.98,4.14,1.6.68.31,1.35.64,2.01.99l.99.55c.08.04.16.1.25.14.1.02.19.05.27.1.17.09.33.19.48.3.9.64,1.1,1.88.47,2.78-.58.82-1.67,1.06-2.53.62l-.06-.03c-.14-.07-.28-.16-.41-.25-.07-.04-.13-.1-.18-.17-.07-.05-.14-.09-.21-.13-.28-.17-.57-.32-.86-.47-.58-.3-1.18-.58-1.79-.84-1.22-.52-2.47-.98-3.75-1.36-1.06-.32-1.65-1.44-1.33-2.49.32-1.06,1.44-1.65,2.49-1.33h.04Z"/>
        <path d="m129.97,263.7c-3.61,9.03-6.68,18.27-9.28,27.64-2.6,9.37-4.64,18.87-6.45,28.41-1.81,9.54-2.99,19.2-3.61,28.88-.62,9.68-.66,19.4.04,29.06.07,1-.68,1.86-1.67,1.94-1,.07-1.86-.68-1.94-1.67-1.4-19.71.33-39.47,3.65-58.84,1.66-9.7,4.1-19.25,6.95-28.66,2.85-9.41,6.21-18.66,10.1-27.68.26-.61.96-.89,1.57-.62.6.26.87.95.63,1.55Z"/>
        <path d="m213.89,346.58c-5.51,4.61-10.61,9.71-15.28,15.18-4.67,5.48-8.84,11.38-12.55,17.55-.46.76-1.45,1.01-2.21.55-.76-.46-1.01-1.44-.56-2.2,3.73-6.36,8.01-12.4,12.69-18.11,4.69-5.71,9.85-11.02,15.42-15.89.8-.7,2.01-.62,2.7.18.7.8.62,2.01-.18,2.7,0,0-.03.02-.04.03Z"/>
        <path d="m224.46,335.21c1.62-1.19,3.22-2.2,4.81-3.26,1.58-1.06,3.19-2.08,4.74-3.17,0,0,7.89-5.29,8.28-5.57l1.6-1.19c.94-.7,2.27-.5,2.97.44.7.94.5,2.27-.44,2.97-.33.24-.71.38-1.09.41-.28.02-.76.27-1.15.46-.41.21-.81.45-1.22.68-.8.48-1.6.97-2.4,1.46-1.61.97-3.18,2-4.76,3.02-1.58,1.02-3.11,2.1-4.62,3.21-1.5,1.1-2.97,2.29-4.28,3.49h-.02c-.78.73-2,.67-2.71-.11-.71-.78-.66-2,.13-2.71.05-.05.11-.09.16-.13Z"/>
      </g>
    </g>
  </g>
</svg>