<?xml version="1.0" encoding="UTF-8"?>
<svg id="Capa_2" data-name="Capa 2" xmlns="http://www.w3.org/2000/svg" xmlns:xlink="http://www.w3.org/1999/xlink" viewBox="0 0 747.27 650.83">
  <defs>
    <style>
      .cls-1 {
        clip-path: url(#clippath);
      }

      .cls-2 {
        fill: #fff;
      }

      .cls-3 {
        fill: #e5ecfe;
      }

      .cls-4 {
        fill: #97b4fa;
      }

      .cls-5 {
        fill: #c8bffb;
      }
    </style>
    <clipPath id="clippath">
      <path class="cls-4" d="m353.77,578.96c-38.56-2.5-57.68-4.02-95.69-5.1l4.33-79.36c28.49,2.45,56.9,2.69,96.33,4.09-2.59,21.92-4.56,49.48-4.97,80.37Z"/>
    </clipPath>
  </defs>
  <g id="illustration">
    <g>
      <g>
        <path class="cls-4" d="m257.82,590.03c-17.11-2.92-33.95-6.51-50.27-10.85-24.78-6.6-48.4-14.93-70.04-25.26C54.91,514.54.99,446.18,20.11,334.66,38.54,227.16,191.47,16.2,451.89,59.54c391.63,65.19,321.9,618.33-194.07,530.49Z"/>
        <path class="cls-5" d="m714.49,245.85l32.78,1.72c-3.35-39.97-35.78-72.32-76.95-74.48-5.28-.28-10.46-.04-15.51.66,7.02,10.31,13.2,21.05,18.57,32.09,21.05,3.14,37.48,19.5,41.11,40.01Z"/>
        <path d="m586.03,239.13l32.78,1.72c6.18-21.5,26.53-36.7,49.83-35.48,1.61.08,3.19.25,4.75.48-5.37-11.05-11.55-21.78-18.57-32.09-34.33,4.75-62.25,31.03-68.79,65.38Z"/>
        <path d="m543.98,23.19c-.26,9.51,7.11,17.53,16.66,18.03-9.76-.51-17.99,7-18.5,16.65.25-9.51-7.13-17.52-16.66-18.02,9.77.51,17.99-7.01,18.5-16.66Z"/>
        <path class="cls-2" d="m626.8,227.27c.07-.02.15-.05.22-.06-.06.11-.13.22-.18.32,0-.08-.02-.18-.04-.26Z"/>
        <path class="cls-3" d="m647.57,262.59l.16-3.02c.61-11.6-1.92-24.42-7.85-24.73-1.22-.06-2.33.24-3.3.74-.63-6.58-2.54-8.74-5.91-8.92-.9-.05-2.22.12-3.65.55-.06.11-.13.22-.18.32,0-.08-.02-.18-.04-.26-1.36-9.85-9.96-6.64-15.74,8.95-.9,2.42-1.73,5.15-2.46,8.17-4.78,19.85-9.15,34.77-12.67,42.25.25-15.99,1.79-32.86-9.35-37.86-2.98-1.34-6.39.75-6.73,4.01-1.84,17.58-6.6,41.35-17.04,51.37l-94.17,81.3c-5.21,4.51-13.24,3.14-16.67-2.83l-26.37-45.8c-24.63,16.15-54.41,38.83-82.57,67.98,8.31,13.4,16.95,25.91,26.2,38.17,5.82,7.72,11.88,15.33,18.25,23.02,4.72,5.7,9.62,11.42,14.72,17.27,18.17,20.81,49.17,24.51,71.68,8.49,3.12-2.22,6.18-4.43,9.19-6.59,174.46-126.42,162.41-182.32,164.52-222.57Z"/>
        <polygon class="cls-2" points="549.67 150.82 551.06 219.13 506.81 220.03 505.43 151.72 441 153.03 438.72 40.48 482.96 39.58 484.35 107.89 548.77 106.58 549.67 150.82"/>
        <path class="cls-2" d="m483.05,485.16l-6.32,120.79c-.43,8.3-7.52,14.68-15.83,14.25l-221.88-11.61c-8.3-.43-14.69-7.52-14.25-15.82l7.06-134.91,155.64,8.14c4.72,5.7,9.62,11.42,14.72,17.27,18.17,20.81,49.17,24.51,71.68,8.49,3.12-2.22,6.18-4.43,9.19-6.59Z"/>
        <g>
          <path class="cls-4" d="m353.77,578.96c-38.56-2.5-57.68-4.02-95.69-5.1l4.33-79.36c28.49,2.45,56.9,2.69,96.33,4.09-2.59,21.92-4.56,49.48-4.97,80.37Z"/>
          <g class="cls-1">
            <path class="cls-4" d="m353.77,578.96c-38.56-2.5-57.68-4.02-95.69-5.1l4.33-79.36c28.49,2.45,56.9,2.69,96.33,4.09-2.59,21.92-4.56,49.48-4.97,80.37Z"/>
            <path class="cls-2" d="m333.84,657.57c-1.07,0-1.96-.85-2-1.93-.97-29.11-83.61-136.13-117.16-143.3-1.08-.23-1.77-1.29-1.54-2.37.23-1.08,1.29-1.77,2.37-1.54,35.36,7.55,119.28,115.84,120.32,147.08.04,1.1-.83,2.03-1.93,2.07-.02,0-.04,0-.07,0Z"/>
            <path class="cls-2" d="m306.17,557.34c-.15,0-.3,0-.45-.01-10.84-.57-39.55-35.52-45.19-42.52-15.52-19.25-34.33-46-36.26-58.08-.17-1.09.57-2.12,1.66-2.29,1.09-.18,2.12.57,2.29,1.66,1.47,9.16,15.71,31.74,35.43,56.2,21.46,26.61,37.52,40.79,42.29,41.04,1.23.06,1.69-.36,1.96-.78,1.39-2.13,1.99-9.84-9.69-37.58-7.89-18.73-18.78-40.59-27.53-58.16-7-14.05-12.52-25.14-14.22-30.01-.36-1.04.19-2.18,1.23-2.55,1.05-.36,2.18.19,2.55,1.23,1.61,4.63,7.09,15.62,14.02,29.54,24.18,48.54,43.66,89.55,36.99,99.72-.79,1.2-2.3,2.59-5.07,2.59Z"/>
            <path class="cls-2" d="m366.5,633.82c-.47,0-.95-.17-1.33-.5-44.7-39.7-42.99-49.19-39.88-66.42,2.66-14.74,6.29-34.93-21.46-88.38-.51-.98-.13-2.19.85-2.7.99-.51,2.19-.12,2.7.85,28.38,54.67,24.6,75.63,21.85,90.94-2.85,15.81-4.42,24.52,38.6,62.73.83.73.9,2,.17,2.82-.39.45-.94.67-1.5.67Z"/>
            <path class="cls-2" d="m373.8,566.14c-.32,0-.65-.08-.95-.24-36.89-20.07-38.96-50.93-40.96-80.78-.11-1.58-.21-3.15-.32-4.73-.08-1.1.75-2.06,1.86-2.13,1.11-.08,2.06.75,2.13,1.86.11,1.58.22,3.16.32,4.74,2.01,30.09,3.92,58.51,38.88,77.53.97.53,1.33,1.74.8,2.71-.36.67-1.05,1.04-1.76,1.04Z"/>
          </g>
        </g>
        <path class="cls-2" d="m343.01,404.81c8.31,13.4,16.95,25.91,26.2,38.17l-121.19-6.34c-8.31-.43-15.39,5.96-15.82,14.26l-7.42,141.87c-.17,3.15.66,6.13,2.18,8.64-25.71-4.52-50.38-10.86-73.22-19.36,1.89-9.28,3.26-19.95,3.9-32.19.03-.59.06-1.16.07-1.76,1.81-46.36-22.18-77.12-36.38-117.85-4.94,3.98-9.52,7.7-13.39,11.28-22.15-20.3-42.87-42.5-63.12-64.72,20.07-20.23,40.02-37.89,60.14-53.46,11.33,23.68,35.09,40.48,63.25,41.54,39.11,1.47,72.8-28.73,75.59-67.76.06-.76.1-1.51.13-2.27.42-10.12-2.32-20.14-7.41-28.92-2.74-4.71-5.28-9.36-7.68-14.04,12.74-5.29,25.8-10.21,39.2-14.87.49-.17.98-.34,1.46-.51,47.7-16.43,100.36,3.5,125.54,47.22l30.57,53.09c-24.63,16.15-54.42,38.83-82.57,67.98Z"/>
        <path d="m387.47,466l-155.64-8.14.37-6.97c.43-8.3,7.52-14.68,15.83-14.25l121.19,6.34c5.82,7.72,11.88,15.33,18.25,23.02Z"/>
        <path d="m255.83,26.29c67.51-66.9,107.02,20.45,67.61,69.23-2.31-7.07-5.07-14.52-8.29-22.36-31.74,20.18-51.22,25.87-78.81,21.23,1.13,38.1-4.54,52.61-26.82,57.8,0,0-9.05-11.42-19.86-4.16-10.81,7.26-10.11,28.67,14.37,39.34,6.6,23.5,14.22,44.03,24.78,64.53,2.4,4.67,4.95,9.33,7.68,14.04,5.09,8.78,7.81,18.79,7.41,28.92-.03.76-.07,1.51-.13,2.27-3.02,39.01-36.48,69.22-75.59,67.76-28.16-1.05-51.92-17.86-63.25-41.54-5.09-10.65-7.67-22.69-7.01-35.3,1.19-22.72,12.64-42.48,29.63-55.01-17.05-24.41-10.97-57.13,11.87-72.04-8.68-51.6,24.6-124.87,96.69-126.55,7.38-.16,14.46-2.98,19.71-8.16Z"/>
        <path class="cls-3" d="m265.94,220.18c.39,5.66,1.06,11.31,2.08,16.85-13.41,4.65-26.46,9.59-39.2,14.87-10.56-20.5-18.18-41.04-24.78-64.53-24.48-10.67-25.18-32.08-14.37-39.34,10.81-7.26,19.86,4.16,19.86,4.16,22.28-5.2,27.95-19.7,26.82-57.8,27.59,4.65,47.07-1.04,78.81-21.23,3.23,7.84,5.98,15.29,8.29,22.36,30.81,93.99-15.48,121.69-57.51,124.66Z"/>
        <path class="cls-3" d="m157.69,548.1c0,.58-.04,1.17-.07,1.76-1.04,19.87-4,35.53-7.95,47.99-1.93-6.04-3.66-10.81-8.26-11.81-4.1-.88-6.2,1.38-7.09,5.49-1.84,8.51-1.05,16.72,1.64,24.43-6.9-10.27-7.94-22.16-15.67-22.98-4.17-.44-6.01,2.03-6.45,6.22-.02.22-.05.45-.07.68-48.53-33.26-80.04-65.45-103.02-109.71-15.32-29.51-10.57-65.5,11.85-90.04,7.43-8.14,14.83-15.91,22.2-23.32,20.26,22.22,40.96,44.42,63.12,64.72-6.72,6.24-11.22,12.05-11.54,18.15-.87,16.71,39.31,51.28,60.29,86.64.35.59.7,1.17,1.01,1.77Z"/>
        <path class="cls-3" d="m141.42,586.04c4.6,1,6.33,5.77,8.26,11.81-3.19,10.08-7.04,18.05-11.02,24.43-1.04-2.07-1.93-4.18-2.69-6.33-2.7-7.71-3.48-15.92-1.64-24.43.89-4.1,2.98-6.37,7.09-5.49Z"/>
        <path class="cls-3" d="m138.66,622.28c-3.84,6.16-7.82,10.85-11.49,14.55-2.75-3.14-5.17-6.46-7.18-9.95,0,0-.01,0-.01-.01-4.66-8.12-7.16-17.19-6.2-27,.02-.22.05-.45.07-.68.44-4.19,2.28-6.66,6.45-6.22,7.73.81,8.77,12.71,15.67,22.98.75,2.14,1.65,4.26,2.69,6.33Z"/>
        <path class="cls-3" d="m119.99,626.88c2,3.5,4.43,6.81,7.18,9.95-5.8,5.84-10.87,9.23-13.49,11.99-12.27-10.74-20.38-24.55-19.53-40.87.22-4.2,1.92-6.77,6.11-6.55,8.69.45,9.74,15.12,19.73,25.47,0,.01.01.01.01.01Z"/>
        <path d="m264.32,141.79c-.85,2.59-1.11,5.63-.67,8.48.71,4.55,3.52,8.89,7,8.35,3.99-.62,4.98-8.58,4.31-12.91-.89-5.73-4.3-7.78-6.79-7.39-.58.09-1.16.31-1.72.7-1.01.69-1.76,1.63-2.13,2.76Z"/>
        <path d="m308.9,131.42c-.6,2.15-.69,4.64-.22,6.96.75,3.69,3.22,7.13,6.04,6.55,3.23-.66,3.74-7.2,3.03-10.71-.95-4.65-3.81-6.19-5.83-5.78-.47.1-.93.3-1.38.64-.8.6-1.38,1.4-1.64,2.34Z"/>
        <path d="m611.92,81.88l-24.7,46.89c-2.04,4.07-4.15,8.37-6.37,13.02,28.38-2.12,45.08-4.71,73.87-7.74-15.95-21.01-28.46-34.78-42.8-52.17Z"/>
      </g>
      <g>
        <path d="m97.56,589.6c-16.07-11.51-31.42-24.14-45.27-38.39-13.83-14.24-26.1-30.08-36.13-47.24-1.25-2.14-2.53-4.28-3.72-6.46l-3.51-6.58c-2.2-4.55-4.19-9.21-5.59-14.07-2.78-9.71-3.99-19.9-3.01-29.96.97-10.04,3.64-19.94,8.23-28.9l1.75-3.34c.61-1.1,1.32-2.14,1.97-3.21l1.5-2.39,2.8-3.79c.38-.5.73-1.02,1.14-1.5l3.7-4.26,5.11-5.37c.45-.47,1.19-.49,1.66-.04.46.44.49,1.16.07,1.63l-4.9,5.54-3.46,4.22c-.38.47-.7.99-1.06,1.48l-2.6,3.72-1.38,2.35c-.6,1.05-1.26,2.07-1.81,3.14l-1.6,3.25c-4.27,8.68-6.68,18.2-7.42,27.79l-.15,1.8c-.05.6-.02,1.2-.04,1.8l-.06,3.61c-.04,1.2.09,2.4.16,3.61.07,1.2.09,2.41.26,3.6l.48,3.58c.09.59.14,1.19.26,1.79l1.13,5.29c.3,1.16.68,2.31,1,3.46,1.32,4.63,3.27,9.05,5.38,13.36l3.49,6.46c1.17,2.15,2.41,4.26,3.63,6.38,4.89,8.48,10.37,16.61,16.27,24.42,5.9,7.82,12.25,15.28,18.95,22.44,6.69,7.16,13.84,13.9,21.21,20.4,7.37,6.5,15.02,12.68,22.8,18.72.45.35.54,1,.19,1.45-.34.44-.97.53-1.42.21Z"/>
        <path d="m425.45,338.59c-.69,0-1.37-.36-1.74-1l-30.43-52.86c-24.71-42.92-76.5-62.39-123.14-46.32-9.44,3.25-18.67,6.64-27.44,10.06-1.03.4-2.19-.11-2.59-1.14-.4-1.03.11-2.19,1.14-2.59,8.81-3.44,18.1-6.84,27.59-10.11,48.45-16.7,102.25,3.54,127.91,48.11l30.43,52.86c.55.96.22,2.18-.74,2.73-.31.18-.66.27-1,.27Z"/>
        <path d="m437.71,353.89l15.89,27.59c.18.32.34.51.5.79.15.26.37.47.55.71.18.24.39.45.61.65,1.74,1.63,4.13,2.59,6.53,2.49,1.2-.05,2.38-.34,3.46-.84,1.12-.53,1.93-1.18,3.11-2.23l93.03-80.31c1.86-1.84,3.55-4.07,4.94-6.48,1.4-2.43,2.6-4.99,3.63-7.66,2.05-5.32,3.62-10.88,4.83-16.53,1.22-5.65,2.14-11.38,2.8-17.14l.24-2.16c.01-.15.06-.44.1-.68.04-.25.1-.5.18-.75.14-.49.35-.97.6-1.42,1.01-1.8,2.81-3.11,4.88-3.45,1.03-.17,2.12-.11,3.11.23.24.08.49.18.72.28l.56.28c.38.18.75.39,1.1.61,1.43.9,2.74,2.02,3.8,3.32,2.13,2.63,3.27,5.72,3.98,8.74.71,3.03,1,6.06,1.15,9.06.3,5.99,0,11.87-.09,17.69l-3.81-.88c1.26-2.48,2.34-5.15,3.34-7.84,1-2.69,1.94-5.42,2.82-8.18,1.76-5.51,3.32-11.1,4.83-16.7.75-2.8,1.5-5.61,2.19-8.43.71-2.84,1.53-5.7,2.57-8.47,1.04-2.77,2.22-5.52,3.79-8.08,1.56-2.55,3.35-5.09,6.25-6.76.76-.36,1.57-.71,2.54-.74.94-.03,1.97.22,2.74.81,1.53,1.19,2.12,2.86,2.46,4.38.71,3.08.51,6.12.13,9.06-.75,5.81-5.46,43.25-5.46,43.25l-.4,4.32-.14,2.14-.04,1.03v.46s0,.15,0,.13v-.08c-.02-.06-.03-.12-.05-.17.03.09-.1-.36-.3-.59-.2-.27-.48-.48-.74-.59,1,.47,1.43,1.66.96,2.66-.47,1-1.66,1.43-2.66.96-.27-.13-.57-.36-.78-.65-.21-.25-.35-.72-.32-.65-.03-.1-.05-.2-.07-.3l-.02-.15v-.2c-.02-.2-.01-.27,0-.41l.04-.63.12-1.14,7.63-49.65c.37-2.8.52-5.67-.05-8.29-.28-1.28-.82-2.51-1.62-3.13-.39-.3-.85-.4-1.35-.4-.5,0-1.07.25-1.61.5-1.09.61-2.09,1.54-2.98,2.58-.89,1.05-1.68,2.2-2.4,3.41-1.45,2.41-2.58,5.04-3.54,7.72-.96,2.69-1.71,5.44-2.37,8.25l-2,8.51c-1.35,5.67-2.8,11.32-4.37,16.95-1.57,5.64-3.13,11.27-5.54,16.82-.44,1.01-1.63,1.45-2.64,1-.75-.34-1.18-1.08-1.17-1.84v-.04c.09-5.89.38-11.72.1-17.43-.14-2.85-.42-5.67-1.05-8.34-.62-2.66-1.61-5.18-3.19-7.13-.79-.97-1.73-1.77-2.77-2.43-.26-.17-.53-.32-.81-.45l-.42-.21-.3-.11c-.4-.13-.81-.16-1.23-.09-.83.13-1.62.7-2.04,1.46-.11.19-.2.39-.25.6-.03.1-.07.21-.07.32-.02.11-.04.19-.06.4l-.25,2.2c-.67,5.87-1.61,11.72-2.86,17.52-1.25,5.8-2.86,11.54-5.02,17.15-1.08,2.8-2.37,5.56-3.89,8.2-1.53,2.66-3.38,5.15-5.7,7.43l-93.11,80.38c-1,.9-2.48,2.11-4.03,2.82-1.57.72-3.29,1.15-5.01,1.22-3.46.14-6.92-1.22-9.44-3.61-.32-.3-.62-.61-.89-.95-.27-.34-.56-.66-.79-1.03-.22-.35-.5-.75-.68-1.06l-15.89-27.59c-.55-.96-.22-2.18.74-2.73s2.18-.22,2.73.74Z"/>
        <path d="m626.54,226.45c1.55-.48,3.17-.88,4.97-.64.87.12,1.78.43,2.56.97.78.54,1.38,1.28,1.81,2.04.87,1.55,1.24,3.16,1.52,4.74.29,1.59.41,3.17.49,4.74.35,6.29,0,12.51-.37,18.72-.72,12.41-1.87,24.75-2.96,37.1-.1,1.1-1.07,1.91-2.17,1.82-1.1-.1-1.91-1.07-1.82-2.17,0-.02,0-.05,0-.07,1.47-12.3,3-24.59,4.1-36.9.55-6.14,1.08-12.32.93-18.41-.04-1.52-.11-3.04-.33-4.51-.21-1.46-.53-2.92-1.15-4.1-.63-1.2-1.59-1.93-2.91-2.16-1.29-.22-2.79.04-4.19.44h-.02c-.45.13-.92-.13-1.05-.58-.12-.45.13-.91.57-1.04Z"/>
        <path d="m636.11,234.66c.71-.37,1.49-.65,2.3-.79.81-.14,1.64-.16,2.53.06,1.76.43,3.03,1.71,3.89,2.97,1.74,2.58,2.54,5.44,3.14,8.27,1.2,5.65,1.2,11.5.9,17.14-.3,5.59-.25,11.23-.45,16.89-.2,5.66-.55,11.35-1.33,17-1.56,11.29-4.63,22.42-9.11,32.91-4.48,10.5-10.14,20.44-16.45,29.91-.61.92-1.85,1.17-2.77.55-.92-.61-1.17-1.85-.55-2.77l.02-.04c6.33-9.2,12-18.86,16.52-29.04,4.52-10.18,7.65-20.94,9.33-31.95.84-5.51,1.27-11.08,1.55-16.68.28-5.6.34-11.24.69-16.91.18-2.84.34-5.56.24-8.34-.09-2.76-.34-5.52-.86-8.21-.52-2.67-1.29-5.36-2.68-7.49-.69-1.06-1.6-1.88-2.6-2.15-.48-.13-1.09-.14-1.67-.05-.58.09-1.15.28-1.69.56-.51.26-1.13.06-1.39-.45-.26-.5-.06-1.12.44-1.38Z"/>
        <path d="m614.6,368.01c-8.76,11.47-18.35,22.25-28.38,32.57-10.02,10.33-20.51,20.18-31.3,29.68-10.79,9.5-21.87,18.66-33.12,27.59,0,0-45.55,34.99-47.07,36.03l-2.35,1.53c-.8.49-1.54,1.06-2.39,1.46-6.5,3.71-13.82,5.93-21.24,6.68-7.43.75-14.99,0-22.11-2.16-7.13-2.17-13.84-5.77-19.45-10.63-1.4-1.22-2.82-2.42-4.07-3.8-1.25-1.38-2.55-2.71-3.68-4.08-2.3-2.76-4.64-5.49-6.93-8.25-4.58-5.53-9.11-11.12-13.54-16.78-8.85-11.32-17.21-23.04-25.1-35.04-.37-.56-.22-1.32.34-1.69.55-.36,1.29-.22,1.66.32,8.12,11.76,16.79,23.14,25.77,34.26,4.49,5.56,9.08,11.05,13.73,16.49,2.32,2.72,4.7,5.4,7.03,8.11,1.18,1.38,2.4,2.58,3.57,3.84,1.17,1.27,2.5,2.37,3.81,3.48,5.24,4.45,11.48,7.72,18.09,9.65,6.6,1.93,13.58,2.54,20.4,1.78,6.82-.76,13.47-2.9,19.48-6.2.78-.35,1.47-.88,2.2-1.33l2.17-1.38c1.45-.97,2.91-2.07,4.36-3.09l8.74-6.24c23.26-16.7,46.02-34.11,67.68-52.84,21.63-18.71,42.25-38.77,59.76-61.42v-.02c.42-.53,1.18-.62,1.7-.22.52.41.62,1.16.22,1.68Z"/>
        <path d="m342.58,406.11c-.67,0-1.33-.34-1.7-.95-6.82-11.03-13.23-22.34-19.6-34.58-.51-.98-.13-2.19.85-2.7.98-.51,2.19-.13,2.7.85,6.32,12.15,12.69,23.38,19.45,34.32.58.94.29,2.17-.65,2.75-.33.2-.69.3-1.05.3Z"/>
        <path d="m268.02,239.03c-.95,0-1.79-.68-1.97-1.64-.98-5.35-1.67-10.93-2.1-17.06-.08-1.1.75-2.06,1.85-2.14,1.12-.07,2.06.75,2.14,1.85.43,5.98,1.1,11.42,2.05,16.63.2,1.09-.52,2.13-1.61,2.33-.12.02-.24.03-.36.03Z"/>
        <path d="m251.94,218.3c6.54.36,13.12.21,19.62-.57,6.5-.77,12.9-2.25,19.06-4.4,12.29-4.29,23.39-12.14,30.61-22.98,3.6-5.41,6.2-11.46,7.97-17.75,1.77-6.3,2.6-12.86,2.84-19.43l.11-2.47c0-.82-.01-1.65-.03-2.47-.03-1.65,0-3.3-.12-4.95-.22-3.29-.47-6.59-.89-9.87-.84-6.57-2.09-13.08-3.53-19.55v-.03c-.14-.59.23-1.17.82-1.3.58-.13,1.16.24,1.3.82,1.52,6.53,2.87,13.1,3.8,19.76.46,3.33.75,6.68,1.02,10.04.13,1.68.13,3.37.18,5.05.02.84.06,1.68.06,2.53l-.08,2.53c-.17,6.74-.95,13.52-2.72,20.1-1.76,6.56-4.42,12.94-8.15,18.7-7.48,11.53-19.18,19.99-31.98,24.61-6.41,2.32-13.06,3.93-19.79,4.81-6.73.88-13.54,1.12-20.31.82-1.1-.05-1.96-.98-1.91-2.09.05-1.1.98-1.96,2.09-1.91h.04Z"/>
        <path d="m170.94,366.94c-.94,0-1.87-.02-2.81-.05-20.27-.76-38.96-9.41-52.62-24.37-13.67-14.96-20.62-34.34-19.56-54.58,1.14-21.88,11.65-41.95,28.91-55.36-7.94-12.19-10.8-26.55-8.07-40.63,2.57-13.26,9.83-24.54,20.48-31.9-4.82-31.17,5.31-67.24,25.99-92.28,12.92-15.64,36.05-34.47,72.83-35.32,7.06-.16,13.57-2.86,18.34-7.58,14.01-13.88,27.61-22.04,40.44-24.26,11.43-1.98,21.84.92,30.09,8.38,19.2,17.34,23.43,58.04.66,87.03,0,.84-.54,1.63-1.38,1.9-1.05.34-2.18-.23-2.52-1.28-.04-.12-.08-.25-.12-.37-.03-.07-.05-.15-.07-.23-2.1-6.4-4.55-13.08-7.31-19.9-30.81,19.31-49.86,24.52-75.79,20.62.76,33.49-3.72,51.63-28.43,57.39-.75.18-1.54-.1-2.02-.71-.32-.4-8.06-9.87-17.18-3.74-4.08,2.74-6.22,7.74-5.71,13.37.82,9.04,8.2,17.44,19.76,22.48.55.24.96.71,1.13,1.29,8.51,30.24,18.46,54.33,32.27,78.11,5.45,9.38,8.1,19.75,7.68,30-.03.77-.08,1.56-.13,2.33-1.39,19.4-10.21,37.3-24.84,50.41-13.92,12.48-31.58,19.26-50,19.26ZM301.76,3.91c-13.28,0-28.64,8.06-44.52,23.79-5.5,5.45-12.98,8.55-21.07,8.74-35.28.82-57.45,18.87-69.84,33.87-20.25,24.52-30.04,59.98-24.92,90.34.13.78-.21,1.57-.88,2.01-10.33,6.74-17.37,17.41-19.82,30.04-2.64,13.63.37,27.54,8.5,39.18.62.89.42,2.11-.45,2.75-17.2,12.69-27.7,32.19-28.82,53.51-1,19.16,5.58,37.51,18.52,51.67,12.94,14.16,30.64,22.35,49.82,23.07,37.81,1.42,70.81-28.15,73.52-65.91.05-.74.1-1.48.13-2.21.39-9.49-2.08-19.11-7.14-27.83-13.85-23.84-23.86-47.98-32.41-78.13-12.6-5.75-20.33-14.96-21.28-25.4-.64-7.11,2.15-13.48,7.46-17.05,9.06-6.08,17.68-.76,21.69,3.59,19.54-5.01,25.2-18.26,24.1-55.51-.02-.6.23-1.17.69-1.57.45-.39,1.05-.56,1.65-.46,26.6,4.49,45.41-.6,77.4-20.94.5-.32,1.12-.4,1.68-.22.56.18,1.02.6,1.25,1.15,2.65,6.45,5.05,12.79,7.14,18.91,19.56-27.11,15.53-63.64-1.87-79.36-5.96-5.38-12.89-8.04-20.51-8.04Z"/>
        <path d="m113.67,650.83c-.46,0-.93-.16-1.3-.48l-.13-.11c-.83-.73-.9-2-.17-2.82.2-.22.43-.39.69-.5,1.14-1.11,2.58-2.3,4.21-3.65,11.45-9.45,35.29-29.12,38.66-93.51,1.71-32.66-9.56-57.42-21.5-83.62-12.89-28.3-26.21-57.56-24.81-99.47.04-1.1.96-1.95,2.07-1.93,1.1.04,1.97.96,1.93,2.07-1.37,40.97,11.76,69.8,24.45,97.67,12.14,26.67,23.61,51.85,21.85,85.49-3.46,66.15-28.21,86.57-40.1,96.39-1.8,1.49-3.36,2.77-4.4,3.86-.39.41-.92.62-1.45.62Z"/>
        <path d="m103.48,639.79c-.62,0-1.23-.29-1.62-.82-7.02-9.65-10.29-20.12-9.71-31.11.4-7.7,5.31-8.61,8.21-8.45,6.12.32,8.93,5.89,12.18,12.34,2.26,4.47,4.81,9.53,8.89,13.75.77.79.75,2.06-.05,2.83-.79.77-2.06.75-2.83-.05-4.5-4.65-7.2-10.01-9.58-14.73-3.21-6.35-5.2-9.96-8.82-10.14-1.81-.09-3.77.18-4.01,4.66-.53,10.06,2.49,19.66,8.95,28.55.65.89.45,2.14-.44,2.79-.35.26-.77.38-1.17.38Z"/>
        <path d="m127.17,638.83c-.56,0-1.11-.23-1.5-.68-10.48-11.94-15.25-25.49-13.8-39.16.28-2.67,1.06-4.64,2.37-6.01,1.52-1.6,3.64-2.26,6.28-1.99,4.92.52,7.5,4.48,9.56,8.68.49.99.07,2.19-.92,2.67-.99.48-2.19.07-2.67-.92-2.15-4.39-3.94-6.2-6.38-6.46-1.82-.2-2.56.34-2.96.77-.67.7-1.1,1.94-1.29,3.67-1.35,12.72,2.97,24.87,12.83,36.11.73.83.65,2.09-.19,2.82-.38.33-.85.5-1.32.5Z"/>
        <path d="m138.66,624.28c-.73,0-1.44-.4-1.79-1.11-5.3-10.59-6.81-21.38-4.5-32.07,1.63-7.54,6.63-7.63,9.47-7.02,5.96,1.29,7.97,7.6,9.74,13.17.34,1.05-.25,2.18-1.3,2.51-1.05.33-2.18-.25-2.51-1.3-1.86-5.84-3.33-9.73-6.77-10.47-1.78-.38-3.76-.43-4.71,3.96-2.12,9.78-.72,19.68,4.17,29.44.49.99.09,2.19-.89,2.68-.29.14-.59.21-.89.21Z"/>
        <path d="m109.11,442.46c-.55,0-1.09-.22-1.49-.66-.74-.82-.67-2.08.15-2.83,3.52-3.17,7.47-6.39,12.29-10.27.86-.69,2.12-.56,2.81.3.69.86.56,2.12-.3,2.81-4.76,3.84-8.68,7.03-12.12,10.13-.38.34-.86.51-1.34.51Z"/>
        <path d="m157.71,550.12c-.7,0-1.38-.37-1.74-1.02-.33-.59-.67-1.18-1.01-1.76-8.99-15.31-21.82-30.63-33.13-44.14-12.18-14.55-22.7-27.12-26.2-36.71-.38-1.04.16-2.19,1.19-2.56,1.04-.38,2.19.16,2.56,1.19,3.25,8.94,13.57,21.26,25.51,35.52,11.42,13.63,24.35,29.09,33.52,44.69.35.61.7,1.21,1.05,1.82.54.96.2,2.18-.76,2.72-.31.17-.65.26-.98.26Z"/>
        <path d="m343.01,406.81c-.5,0-1-.19-1.39-.56-.79-.77-.82-2.03-.05-2.83,30.26-31.32,61.79-54.41,82.92-68.26.92-.61,2.16-.35,2.77.58.61.92.35,2.16-.58,2.77-20.96,13.74-52.23,36.64-82.23,67.69-.39.41-.91.61-1.44.61Z"/>
        <path d="m46.12,375.62c20.47,22.1,41.19,43.97,63.49,64.09,1.02.92,1.1,2.49.18,3.51-.92,1.02-2.49,1.1-3.51.18l-.03-.03c-22.16-20.65-42.61-42.92-62.75-65.36-.65-.73-.59-1.85.14-2.5.72-.65,1.83-.59,2.48.12Z"/>
        <path d="m294.17,174c-.88,0-1.69-.59-1.93-1.48-.29-1.07.34-2.16,1.4-2.46,8.7-2.37,12.76-5.27,12.85-6.96-.15-.51-2-1.67-3.34-2.52-5.7-3.61-15.25-9.64-14.33-27.12.36-6.88,2.79-13.97,7.02-20.5.6-.93,1.84-1.19,2.77-.59.93.6,1.19,1.84.59,2.77-3.85,5.94-6.06,12.35-6.38,18.54-.79,15.14,7.19,20.19,12.48,23.53,2.87,1.81,5.34,3.38,5.2,6.11-.28,5.29-8.74,8.69-15.79,10.61-.18.05-.35.07-.53.07Z"/>
        <path d="m251.23,134.57c-.48,0-.97-.18-1.36-.53-.81-.75-.86-2.01-.11-2.83,6.65-7.2,11.88-12.08,23.63-14.15,1.09-.19,2.13.54,2.32,1.62.19,1.09-.54,2.12-1.62,2.32-10.53,1.86-15.11,6.12-21.38,12.92-.39.43-.93.64-1.47.64Z"/>
        <path d="m483.39,503.81s-5.22,102.34-5.29,103.06c-.14,1.39-.46,2.76-.93,4.07-1.87,5.28-6.71,9.28-12.22,10.42-1.37.28-2.78.35-4.17.32,0,0-222.59-11.36-223.28-11.44-.71-.08-1.41-.24-2.1-.42-5.55-1.4-10.09-5.93-11.75-11.43-.41-1.37-.66-2.79-.71-4.21-.05-1.49.07-2.7.13-3.98l5.83-114.43c.06-1.1,1-1.95,2.1-1.9,1.1.06,1.95,1,1.9,2.1,0,0-6.32,117.02-6.28,118.07.04,1.12.23,2.22.55,3.3,1.29,4.3,4.85,7.9,9.19,8.99.54.14,1.09.27,1.65.33.57.06,1.08.13,1.75.15l221.2,11.88c1.15.02,2.3-.02,3.43-.26,4.51-.93,8.52-4.2,10.06-8.53.38-1.08.68-2.2.77-3.35.07-.55.1-1.19.14-1.83l5.43-101.06c.04-.73.66-1.28,1.39-1.24.73.04,1.28.66,1.25,1.38Z"/>
        <path d="m231.78,460.88s-.07,0-.11,0c-1.1-.06-1.95-1-1.89-2.1l.42-8c.24-4.55,2.23-8.73,5.62-11.78,3.39-3.05,7.76-4.61,12.31-4.36l121.2,6.34c1.1.06,1.95,1,1.89,2.1-.06,1.1-1.01,1.95-2.1,1.89l-121.2-6.34c-3.49-.17-6.83,1-9.42,3.34-2.59,2.33-4.12,5.54-4.3,9.02l-.42,8c-.06,1.07-.94,1.9-2,1.9Z"/>
        <path d="m387.47,468s-.07,0-.11,0l-155.64-8.14c-1.1-.06-1.95-1-1.89-2.1.06-1.1,1.01-1.96,2.1-1.89l155.64,8.14c1.1.06,1.95,1,1.89,2.1-.06,1.07-.94,1.9-2,1.9Z"/>
        <g>
          <path d="m396.65,519.02s-.07,0-.11,0l-16.91-.88c-1.1-.06-1.95-1-1.89-2.1.06-1.1,1.01-1.96,2.1-1.89l16.91.88c1.1.06,1.95,1,1.89,2.1-.06,1.07-.94,1.9-2,1.9Z"/>
          <path d="m443.84,521.49s-.07,0-.11,0l-29.49-1.54c-1.1-.06-1.95-1-1.89-2.1.06-1.1,1.01-1.95,2.1-1.89l29.49,1.54c1.1.06,1.95,1,1.89,2.1-.06,1.07-.94,1.9-2,1.9Z"/>
          <path d="m442.93,538.77s-.07,0-.11,0l-64.09-3.35c-1.1-.06-1.95-1-1.89-2.1.06-1.1,1-1.96,2.1-1.89l64.09,3.35c1.1.06,1.95,1,1.89,2.1-.06,1.07-.94,1.9-2,1.9Z"/>
          <path d="m398.78,553.8s-.07,0-.11,0l-20.84-1.09c-1.1-.06-1.95-1-1.89-2.1.06-1.1,1-1.96,2.1-1.89l20.84,1.09c1.1.06,1.95,1,1.89,2.1-.06,1.07-.94,1.9-2,1.9Z"/>
          <path d="m442.03,556.06s-.07,0-.11,0l-31.06-1.62c-1.1-.06-1.95-1-1.89-2.1.06-1.1,1-1.96,2.1-1.89l31.06,1.62c1.1.06,1.95,1,1.89,2.1-.06,1.07-.94,1.9-2,1.9Z"/>
          <path d="m417.14,572.09s-.07,0-.11,0l-40.1-2.1c-1.1-.06-1.95-1-1.89-2.1.06-1.1.99-1.96,2.1-1.89l40.1,2.1c1.1.06,1.95,1,1.89,2.1-.06,1.07-.94,1.9-2,1.9Z"/>
        </g>
        <path d="m441,155.03c-1.09,0-1.98-.87-2-1.96l-1.41-69.26c-.02-1.1.86-2.02,1.96-2.04.01,0,.03,0,.04,0,1.09,0,1.98.87,2,1.96l1.37,67.26,12.19-.25c1.11-.02,2.02.86,2.04,1.96.02,1.1-.86,2.02-1.96,2.04,0,0-14.21.29-14.23.29Z"/>
        <path d="m506.81,222.03c-1.09,0-1.98-.87-2-1.96l-1.35-66.31-26.69.54c-1.11.07-2.02-.85-2.04-1.96-.02-1.1.85-2.02,1.96-2.04l28.69-.58c.52-.01,1.04.19,1.43.56.38.37.6.87.62,1.4l1.35,66.31,40.25-.82-.75-37.14c-.02-1.1.86-2.02,1.96-2.04.01,0,.03,0,.04,0,1.09,0,1.98.87,2,1.96l.79,39.14c.02,1.1-.86,2.02-1.96,2.04,0,0-44.27.9-44.29.9Z"/>
        <path d="m549.8,158.98c-1.09,0-1.98-.87-2-1.96l-.98-48.4s-62.45,1.27-62.46,1.27c-1.09,0-1.98-.87-2-1.96l-1.35-66.31-40.25.82.37,18.09c.02,1.1-.86,2.02-1.96,2.04-.01,0-.03,0-.04,0-1.09,0-1.98-.87-2-1.96l-.41-20.09c-.02-1.1.86-2.02,1.96-2.04,0,0,44.27-.9,44.29-.9,1.09,0,1.98.87,2,1.96l1.35,66.31s62.45-1.27,62.46-1.27c1.09,0,1.98.87,2,1.96l1.02,50.4c.02,1.1-.86,2.02-1.96,2.04-.01,0-.03,0-.04,0Z"/>
        <path d="m439.32,71.72c-.47,0-.94-.22-1.23-.64-.48-.68-.31-1.61.37-2.09,12.2-8.53,25.5-17.98,43.16-30.61.67-.48,1.61-.33,2.09.35.48.67.33,1.61-.35,2.09-17.66,12.64-30.98,22.09-43.18,30.63-.26.18-.56.27-.86.27Z"/>
        <path d="m439.8,95.04c-.47,0-.93-.22-1.22-.63-.48-.68-.32-1.61.35-2.09l43.63-31c.67-.48,1.61-.32,2.09.35.48.68.32,1.61-.35,2.09l-43.63,31c-.26.19-.57.28-.87.28Z"/>
        <path d="m440.28,118.83c-.47,0-.93-.22-1.22-.63-.48-.67-.33-1.61.35-2.09,14.75-10.54,29.43-20.98,43.64-31.01.67-.48,1.61-.32,2.09.36.48.68.32,1.61-.36,2.09-14.2,10.03-28.88,20.46-43.63,31-.26.19-.57.28-.87.28Z"/>
        <path d="m440.86,147.44c-.46,0-.92-.21-1.21-.61-.49-.67-.34-1.61.32-2.1,14.47-10.6,51.01-38.19,51.01-38.19.66-.5,1.6-.37,2.1.29.5.66.37,1.6-.29,2.1,0,0-36.55,27.6-51.04,38.21-.27.2-.58.29-.88.29Z"/>
        <path d="m464.68,154.05c-.47,0-.93-.22-1.23-.64-.48-.68-.32-1.61.36-2.09l64.23-45.28c.68-.48,1.61-.32,2.09.36.48.68.32,1.61-.36,2.09l-64.23,45.27c-.26.19-.56.27-.86.27Z"/>
        <path d="m500.37,153.33c-.47,0-.94-.23-1.23-.64-.47-.68-.3-1.62.38-2.09l48.64-33.74c.68-.47,1.62-.3,2.09.38.47.68.3,1.62-.38,2.09l-48.64,33.74c-.26.18-.56.27-.85.27Z"/>
        <path d="m505.87,174.98c-.47,0-.94-.22-1.23-.64-.48-.68-.31-1.61.36-2.09,15.58-10.96,30.26-21.24,43.65-30.54.68-.47,1.62-.31,2.09.38.47.68.3,1.61-.38,2.09-13.38,9.3-28.07,19.57-43.64,30.53-.26.18-.56.27-.86.27Z"/>
        <path d="m506.41,201.38c-.47,0-.93-.22-1.22-.63-.48-.68-.32-1.61.36-2.09,16.19-11.49,30.46-21.68,43.62-31.15.67-.48,1.61-.33,2.09.34.48.67.33,1.61-.34,2.09-13.17,9.47-27.44,19.67-43.64,31.16-.26.19-.57.28-.87.28Z"/>
        <path d="m514.71,221.37c-.47,0-.94-.22-1.23-.64-.48-.68-.31-1.61.37-2.09l35.85-25.19c.68-.48,1.61-.31,2.09.37.48.68.31,1.61-.37,2.09l-35.85,25.19c-.26.18-.56.27-.86.27Z"/>
        <g>
          <path class="cls-2" d="m518.88,278.78c-.74,0-1.45-.41-1.79-1.11-.49-.99-.09-2.19.9-2.68l1.65-.82c6.13-3.04,12.48-6.18,18.6-9.45.98-.52,2.19-.15,2.71.82.52.97.15,2.19-.82,2.71-6.18,3.3-12.55,6.46-18.71,9.51l-1.65.82c-.29.14-.59.21-.89.21Z"/>
          <path class="cls-2" d="m535.01,282.92c-.67,0-1.33-.34-1.71-.96l-12.45-20.43c-.57-.94-.28-2.17.67-2.75.94-.57,2.17-.28,2.75.67l12.45,20.43c.57.94.28,2.17-.67,2.75-.33.2-.68.29-1.04.29Z"/>
        </g>
        <g>
          <path class="cls-2" d="m256.93,449.11c-.11,2.13-1.93,3.77-4.07,3.66-2.13-.11-3.77-1.93-3.66-4.07.11-2.13,1.93-3.77,4.07-3.66,2.13.11,3.77,1.93,3.66,4.07Z"/>
          <circle class="cls-2" cx="272.08" cy="449.9" r="3.87"/>
          <circle class="cls-2" cx="291.09" cy="450.9" r="3.87"/>
        </g>
        <path d="m431.39,313.74c-.94,0-1.89-.02-2.84-.07-2.95-.15-5.9-.55-8.76-1.18-1.08-.24-1.76-1.3-1.53-2.38.24-1.08,1.31-1.76,2.38-1.53,2.65.58,5.38.95,8.11,1.09,27.38,1.44,50.81-19.67,52.24-47.05.69-13.26-3.82-26-12.7-35.86-8.89-9.87-21.08-15.68-34.34-16.38-3.5-.18-7.02,0-10.45.55-1.08.18-2.11-.57-2.29-1.66-.17-1.09.57-2.12,1.66-2.29,3.71-.59,7.5-.79,11.28-.59,14.33.75,27.5,7.03,37.11,17.69,9.6,10.66,14.48,24.42,13.73,38.75-1.5,28.62-25.26,50.91-53.6,50.91Z"/>
        <path d="m379.74,265.16c-1.05,0-1.93-.82-1.99-1.88-.12-2-.13-4.04-.02-6.06.61-11.72,4.91-22.66,12.41-31.63.71-.85,1.97-.96,2.82-.25.85.71.96,1.97.25,2.82-6.95,8.31-10.92,18.43-11.49,29.27-.1,1.87-.09,3.76.02,5.61.07,1.1-.77,2.05-1.88,2.12-.04,0-.08,0-.12,0Z"/>
        <g>
          <path class="cls-2" d="m451.32,278.69s-.09,0-.13,0l-41.28-2.16c-1.38-.07-2.44-1.25-2.37-2.63.07-1.38,1.24-2.45,2.63-2.37l41.28,2.16c1.38.07,2.44,1.25,2.37,2.63-.07,1.33-1.17,2.37-2.5,2.37Z"/>
          <path class="cls-2" d="m445.58,266.07s-.09,0-.13,0l-28.5-1.49c-1.38-.07-2.44-1.25-2.37-2.63.07-1.38,1.24-2.44,2.63-2.37l28.5,1.49c1.38.07,2.44,1.25,2.37,2.63-.07,1.33-1.17,2.37-2.5,2.37Z"/>
          <path class="cls-2" d="m440.04,253.46s-.09,0-.13,0l-16.13-.84c-1.38-.07-2.44-1.25-2.37-2.63.07-1.38,1.24-2.44,2.63-2.37l16.13.84c1.38.07,2.44,1.25,2.37,2.63-.07,1.33-1.17,2.37-2.5,2.37Z"/>
          <path class="cls-2" d="m434.49,240.85s-.09,0-.13,0l-3.75-.2c-1.38-.07-2.44-1.25-2.37-2.63.07-1.38,1.24-2.45,2.63-2.37l3.75.2c1.38.07,2.44,1.25,2.37,2.63-.07,1.33-1.17,2.37-2.5,2.37Z"/>
        </g>
        <path class="cls-2" d="m154.79,112.38c-.14,0-.29-.02-.43-.05-1.08-.24-1.76-1.31-1.52-2.38,7.47-33.76,32.17-57.24,67.76-64.42,1.09-.22,2.14.48,2.36,1.57.22,1.08-.48,2.14-1.57,2.36-33.97,6.85-57.53,29.21-64.64,61.36-.21.93-1.03,1.57-1.95,1.57Z"/>
        <path class="cls-2" d="m124.85,200.81s-.07,0-.11,0c-1.1-.06-1.95-1-1.89-2.1.04-.71.05-1.44.07-2.18.02-.79.03-1.58.07-2.37.44-8.47,5.45-16.21,15.3-23.67.88-.67,2.13-.49,2.8.39.67.88.49,2.14-.39,2.8-8.86,6.7-13.35,13.47-13.72,20.69-.04.75-.05,1.5-.07,2.24-.02.78-.03,1.55-.07,2.31-.06,1.07-.94,1.89-2,1.89Z"/>
        <path class="cls-2" d="m110.01,278.31s-.07,0-.11,0c-1.1-.06-1.95-1-1.89-2.1.04-.67.15-3.39.19-4.08.54-10.41,3.53-18.59,16.75-27.2.93-.6,2.16-.34,2.77.58.6.93.34,2.16-.58,2.77-11.84,7.72-14.44,14.67-14.93,24.06-.04.67-.15,3.39-.19,4.08-.06,1.07-.94,1.9-2,1.9Z"/>
        <path class="cls-2" d="m256.17,38c-.63,0-1.24-.29-1.63-.84-.64-.9-.43-2.15.47-2.79,3.77-2.68,7.27-5.45,11.02-8.73.83-.73,2.09-.65,2.82.19.73.83.64,2.09-.19,2.82-3.85,3.37-7.45,6.23-11.34,8.99-.35.25-.76.37-1.16.37Z"/>
        <path class="cls-2" d="m277.37,19.99c-.55,0-1.09-.22-1.49-.66-.74-.82-.67-2.09.15-2.82,7.13-6.42,14.21-11.74,28.54-11.74,1.1,0,2,.89,2,2s-.89,2-2,2c-11.88,0-17.81,3.46-25.87,10.71-.38.34-.86.51-1.34.51Z"/>
        <path d="m521.5,591.33c1.03.25,2.08.42,3.15.49.54.04,1.07.02,1.61.05.54.02,1.08.02,1.62-.02l1.64-.09,1.65-.2c1.1-.1,2.21-.34,3.31-.54,1.11-.2,2.21-.47,3.31-.75,1.1-.28,2.2-.59,3.29-.92,2.18-.67,4.37-1.37,6.52-2.17,8.63-3.23,16.99-7.34,25.13-11.81,16.31-8.96,31.9-19.29,47.04-30.18.73-.53,1.75-.36,2.28.37s.36,1.75-.37,2.28c-7.6,5.5-15.31,10.84-23.17,15.97-7.86,5.13-15.84,10.08-24.04,14.7-8.19,4.62-16.58,8.95-25.4,12.51-4.41,1.78-8.91,3.45-13.66,4.43-1.19.25-2.37.53-3.6.68l-1.83.27-1.86.15c-.62.07-1.24.08-1.88.08-.63,0-1.27.02-1.9,0-1.26-.05-2.53-.18-3.8-.37h-.02c-1.37-.21-2.31-1.48-2.11-2.85.2-1.37,1.48-2.31,2.84-2.11.07.01.15.03.22.04Z"/>
        <path d="m535.34,610.07c3.52.31,7.06.03,10.58-.42,3.52-.45,6.99-1.36,10.36-2.55,6.73-2.38,13.01-6.06,18.36-10.78.68-.6,1.71-.53,2.3.14.59.67.53,1.7-.13,2.3-5.64,5.05-12.24,8.96-19.28,11.71-3.52,1.37-7.18,2.41-10.89,3.23-3.72.83-7.53,1.15-11.37,1.36h-.01c-1.38.08-2.57-.98-2.64-2.36s.98-2.57,2.37-2.64c.12,0,.25,0,.37,0Z"/>
        <path d="m580.84,143.79c-.66,0-1.28-.32-1.65-.87-.4-.59-.46-1.35-.15-1.99,2.14-4.47,4.23-8.74,6.39-13.05l24.72-46.92c.31-.59.9-.99,1.57-1.06.67-.06,1.32.2,1.75.72,4.48,5.43,8.85,10.59,13.07,15.57,9.24,10.91,18.79,22.19,29.78,36.66.44.58.53,1.34.24,2-.29.66-.91,1.12-1.63,1.2-9.97,1.05-18.41,2.03-26.56,2.99-15.45,1.81-28.79,3.36-47.37,4.75-.05,0-.1,0-.15,0Zm31.44-58.32s-26.53,50.73-28.14,54.06c16.73-1.32,29.32-2.79,43.75-4.47,7.19-.84,14.59-1.7,23.07-2.62-10.03-13.06-18.9-23.53-27.49-33.67-3.63-4.28-7.36-8.69-11.19-13.3Z"/>
      </g>
    </g>
  </g>
</svg>