<?xml version="1.0" encoding="UTF-8"?>
<svg id="Capa_2" data-name="Capa 2" xmlns="http://www.w3.org/2000/svg" viewBox="0 0 870.61 665.93">
  <defs>
    <style>
      .cls-1 {
        fill: #fff;
      }

      .cls-2 {
        fill: #e5ecfe;
      }

      .cls-3 {
        fill: #97b4fa;
      }

      .cls-4 {
        fill: #c8bffb;
      }
    </style>
  </defs>
  <g id="illustration">
    <g>
      <g>
        <path class="cls-3" d="m714.12,406.76c-6.44,23.76-16.7,45.13-30.49,64.27-22.16,30.79-53.45,55.79-92.7,75.55-8.21,4.14-16.77,8.04-25.67,11.72-4.18,1.73-8.42,3.42-12.75,5.05-27.54,10.39-58.07,18.81-91.3,25.37-35.19,6.97-73.4,11.87-114.31,14.86-8.09.59-23.72,1.56-44.08,1.36-8.87-.08-18.65-.39-29.09-1.06-10.18-.65-20.98-1.63-32.21-3.07-.73-.09-3.66-.48-4.38-.59-13.65-1.86-27.86-4.44-42.25-7.88-6.38-1.55-12.8-3.26-19.23-5.15-30.86-9.14-57.42-21.62-79.84-36.7C-139.07,392.76,77.85-48,529.17,99.23c76.93,25.1,178.67,108.89,190.51,204.47,4.75,38.42,2.71,72.68-5.57,103.06Z"/>
        <path d="m749.97,286.38v.43c-.35.01-.72.01-1.08.01-65.63,0-119.24-47.83-123.91-109.91l55.14,1.76c5.12,31.66,33.52,55.37,67.88,55.37.3,0,.61,0,.9-.01.49,22.46,1.06,51.2,1.06,52.35Z"/>
        <path d="m454.65,128.87c0,56.26-29.23,69.86-29.23,121.37,0,1.9.05,3.76.16,5.6h0c-17.61-2.89-34.9-3.48-50.13-3.15h-.01c-4.79-10.68-9.63-24.33-14.25-42.58,45.32-8.6,71.7-42.98,67.25-94.68-4.36-50.87-42.71-69.83-83.43-65.27.11,1.91.15,4.15.18,6.84.52,46.94-35.36,39.99-50.5,61.82-3.66-1.15-7.37-1.77-10.49-1.77-16.19,0-26.57,12.29-26.57,24.59,0,9.74,8.56,18.65,18.15,23.97-2.05,24.58-9.22,66.15-15.33,97.83-35.02,6.69-73.45,19.15-95.88,42.8-15.17,15.98-26.02,35.05-34.75,60.69h-.01c-.58.03-1.09.04-1.56.04-28.32,0-55.5-27.61-55.5-52.72,0-16.47,8.64-37.2,27.86-48.76-3.28-6.74-5.68-13.71-5.68-20.75,0-33.84,30.82-47.81,64.65-51.32-1.46-4.4-2.43-9.79-2.43-17.03,0-31.47,19.8-46.07,47.93-48.55C236.07,57.57,281.37,0,358.34,0c58.77,0,96.31,65.35,96.31,128.87Z"/>
        <path class="cls-1" d="m747.68,45.06c-78.3,0-123.05,58.47-123.05,123.03,0,2.98.11,5.92.34,8.83l55.14,1.76c-.54-3.34-.82-6.78-.82-10.29,0-35.7,24.74-68.02,68.03-68.02,10.5,0,20.14,1.93,28.64,5.4.29.12.58.25.87.38,6.61-17.65,12.63-34.98,19.5-52.54-14.58-5.51-30.93-8.55-48.66-8.55Z"/>
        <path class="cls-4" d="m805.77,69.65c-.23-.09-.47-.17-.7-.26-6.19,15.82-11.61,31.41-17.55,47.3,20.88,8.88,33.89,28.29,33.89,51.17,0,33.71-22.49,63.52-59.05,63.95.44,20.22.96,47.39.96,47.51,66.42-.51,107.29-54.54,107.29-115.67,0-42.66-25-78.65-64.84-94Z"/>
        <path class="cls-2" d="m855.2,326.14c-.56-1.47-1.84-2.55-3.38-2.85-3.47,0-6.55.71-9.33,1.95-2.33-2.95-5.57-5.08-9.75-5.91-4.89,0-9,1.42-12.59,3.71-1.8-1.63-4.41-3-9.01-3-26.1,0-29.96,40.3-51.39,40.3-2.85,0-5.39-.85-7.77-2.48-8.88-6.04-20.34-6.96-30.07-2.39-10.39,4.87-21.46,10.2-32.74,15.86,11.39,16.1,22.71,32.02,33.72,48.13,20.66-21.54,49.1-36.74,94.16-36.74,1.53,0,3.08.01,4.63.05,5.98.11,11.76-2.18,16.04-6.37,4.27-4.19,6.69-9.93,6.69-15.92,0-1.42-.04-2.84-.04-4.26,0-6.36,2.39-15.37,10.21-25.7.95-1.25,1.18-2.91.62-4.38Z"/>
        <path class="cls-2" d="m247.38,617.02c3.8-3.8,1.27-10.14-1.27-12.67-2.53-1.27-5.07-6.33-8.87-2.53,0-6.33-5.07-12.67-8.87-13.94-20.27-3.8-38.01,7.61-58.28,12.67-45.17,8.69-55.39-54.37-98.92-40.82-6.61,2.07-7.72,11.09-1.83,14.75,38.02,23.6,31.7,91.44,95.67,91.44,14.16,0,34.5-7.46,50.7-18.05.59.17,1.21.34,1.84.52,5.8-5.58,11.8-11.08,18.42-16.17,5.07-3.8,6.33-10.14,11.4-15.2Z"/>
        <path class="cls-2" d="m270.18,293.95c34.91,23.67,81.08,17.74,108.96-15.2,7.37-9.22.67-17.09-3.04-26.07-.21,0-.65,0-.65,0-4.79-10.68-9.63-24.33-14.25-42.58,45.32-8.6,71.7-42.98,67.25-94.68-4.36-50.87-42.71-69.83-83.43-65.27.11,1.91.15,4.15.18,6.84.52,46.94-35.36,39.99-50.5,61.82-3.66-1.15-7.37-1.77-10.49-1.77-16.19,0-26.57,12.29-26.57,24.59,0,9.74,8.56,18.65,18.15,23.97-2.05,24.58-9.22,66.15-15.33,97.83-.63.12-1.26.25-1.88.37-.66,11.36.35,22.5,11.61,30.14Z"/>
        <path class="cls-1" d="m714.12,406.76c-8.21-11.81-16.57-23.57-24.96-35.42-.12.06-.25.12-.38.19-38.4,20.09-79.95,42.63-104.51,64.25-15.52-43.44-45.49-99.64-59.19-117.81-23.63-39.62-62.27-55.99-99.5-62.1-17.36-2.85-34.42-3.47-49.5-3.17,3.72,8.98,10.43,16.85,3.04,26.07-27.86,32.95-74.05,38.87-108.96,15.2-11.25-7.63-12.27-18.78-11.61-30.14-34.5,6.77-71.96,19.21-94,42.43-15.16,15.97-26.02,35.05-34.75,60.69h-.01c-13.75,40.38-22.26,97.04-33.99,183.56-.4,2.88-.79,5.78-1.19,8.72,1.98,1,3.93,2.09,5.79,3.33,22.8,12.67,36.74,44.35,69.68,38.01,8.59-2.15,16.73-5.42,24.79-8.21,10.96-3.8,21.8-6.66,33.49-4.47,3.99,1.34,8.87,7.82,8.87,13.94,1.28-1.28,3.86-.89,5.49-.08,70.26,9,149.27,1.88,218.47-11.83,2.09-38.14,24.68-57.59,25.77-108.13h.01c20.21,29.1,44.34,66.11,78.26,76.53,5.97,1.84,12.24,2.85,18.85,2.85,84.09,0,88.6-89.08,138.46-141.37.11-.12.21-.22.32-.33-2.9-4.25-5.83-8.48-8.76-12.7Zm-368.81,102.45c-25.12,49.86-83.47,71.01-131.61,46.76-.88-.44-1.76-.91-2.63-1.38-17.48-9.39-31.87-23.06-41.33-39.52l30.77-22.86c3.56,7.62,8.76,14.42,15.18,20.06,4.28,3.8,9.12,7.06,14.39,9.71,29.87,15.04,66.05,1.93,81.65-29.01,13.65-27.11,5.32-54.73-14.62-72.5l30.42-22.59c27.88,28.64,38.42,70.35,17.79,111.31Z"/>
        <path d="m350.95,123.99c-1.25,2.45-1.99,5.44-1.99,8.36,0,4.65,2.13,9.42,5.69,9.42,4.08,0,6.31-7.78,6.31-12.21,0-5.86-3.08-8.43-5.62-8.43-.59,0-1.2.13-1.83.43-1.11.53-2.01,1.35-2.56,2.42Z"/>
        <path d="m397.12,119.7c-.99,2.17-1.5,4.8-1.38,7.33.19,4.03,2.23,8.08,5.31,7.94,3.53-.16,5.15-7,4.97-10.84-.24-5.08-3.01-7.18-5.21-7.08-.51.02-1.04.16-1.57.45-.94.5-1.69,1.25-2.12,2.2Z"/>
        <g>
          <path class="cls-1" d="m331.43,472.7c25.16-21.04,52.82-39.66,81.23-54.87l-13.56.25c-25.07,14.26-49.38,31.06-71.74,49.76-10.29,8.61-19.82,17.34-28.28,25.84l.21,8.8c8.89-9.25,19.6-19.29,32.14-29.78Z"/>
          <path class="cls-1" d="m404.77,524.4c4.1-7.68,7.02-15.36,7.02-21.69,0-8.18-3.83-13.26-10-13.26-9.62,0-25.69,14.24-36.06,36.38l7.18-.26c9.59-18.65,22.99-29.78,28.89-29.78,3.3,0,3.66,4.84,3.66,6.92,0,5.76-3.31,13.67-8.09,21.96l7.41-.27Z"/>
          <path class="cls-1" d="m381.8,469.75c-19.89,15.94-33.18,35.01-39.75,56.95l6.66-.24c10.36-32.4,35.36-54.61,65.03-69.84.01-2.52.03-4.85.06-7.02-11.99,5.96-22.67,12.68-32,20.15Z"/>
          <path class="cls-1" d="m351.51,418.97l-7.65.14c-12.53,19.92-27.75,37.09-45.58,41.08l.16,6.46c21.72-4.08,39.11-24.44,53.08-47.69Z"/>
        </g>
        <path d="m327.52,397.9c27.89,28.65,38.41,70.35,17.79,111.31-25.12,49.87-83.44,70.94-131.61,46.76-.89-.44-1.76-.91-2.63-1.38,3.09-11.96,4.73-24.27,4.73-36.51,0-2.14-.04-4.07-.1-5.8,4.28,3.8,9.12,7.05,14.39,9.71,29.86,15.04,66.06,1.93,81.65-29.01,13.66-27.1,5.32-54.73-14.62-72.5l30.42-22.59Z"/>
      </g>
      <g>
        <path d="m97.91,537.09c-.09,0-.18,0-.27-.02-1.09-.15-1.86-1.16-1.71-2.25,18.16-132.22,29.32-190.04,67.2-229.95,18.96-19.97,51.18-34.49,95.77-43.15,1.09-.21,2.13.5,2.34,1.58.21,1.08-.5,2.13-1.58,2.34-43.76,8.5-75.26,22.62-93.63,41.98-37.07,39.06-48.1,96.43-66.13,227.74-.14,1-1,1.73-1.98,1.73Z"/>
        <path d="m452.68,260.19c15.07,4.93,29.53,12,42.26,21.56,6.36,4.78,12.28,10.15,17.59,16.08,5.31,5.93,10.06,12.35,14.21,19.15l-.12-.17c6.68,9.02,12.3,18.53,17.82,28.12,5.52,9.58,10.75,19.32,15.74,29.18,4.99,9.86,9.8,19.81,14.29,29.92,2.25,5.05,4.41,10.15,6.52,15.27l4.54,11.62c.49,1.3.83,2.65.62,4.2-.17,1.23-1.3,2.1-2.53,1.93-.46-.06-.87-.26-1.2-.55l-.04-.03c-1.16-1.04-1.77-2.27-2.24-3.55l-4.38-11.5c-2.05-5.08-4.13-10.14-6.33-15.17-4.39-10.04-8.93-20.04-13.72-29.91-4.79-9.87-9.79-19.65-15.06-29.28-5.26-9.61-10.8-19.14-17.11-27.92l-.04-.05s-.05-.08-.08-.12c-3.94-6.64-8.46-12.94-13.61-18.7-5.14-5.76-10.84-11.02-17.02-15.66-6.18-4.64-12.82-8.65-19.75-12.08-6.94-3.43-14.19-6.21-21.59-8.5-1.06-.33-1.65-1.45-1.33-2.5.33-1.06,1.45-1.65,2.5-1.32h.03Z"/>
        <path d="m563.64,463.58c-.24,0-.48-.04-.71-.13-1.03-.39-1.55-1.55-1.16-2.58,8.32-21.82,47.32-50.75,115.93-85.97.98-.51,2.19-.12,2.69.87.5.98.12,2.19-.87,2.69-66.74,34.27-106.17,63.25-114.02,83.83-.3.8-1.06,1.29-1.87,1.29Z"/>
        <path d="m710.22,363.02c-.75,0-1.46-.42-1.8-1.14-.48-1-.06-2.19.94-2.67,3.98-1.91,7.88-3.76,11.7-5.55,10.34-4.85,22.62-3.88,32.05,2.55,2.11,1.44,4.28,2.13,6.64,2.13,9.13,0,15.03-8.64,21.27-17.79,7.2-10.55,15.36-22.51,30.11-22.51,4.41,0,7.7,1.12,10.35,3.51.82.74.88,2.01.14,2.82-.74.82-2,.88-2.82.14-1.18-1.06-3.26-2.48-7.67-2.48-12.63,0-19.84,10.56-26.81,20.76-6.56,9.6-13.34,19.53-24.58,19.53-3.19,0-6.1-.92-8.89-2.83-8.26-5.63-19.03-6.49-28.1-2.23-3.81,1.79-7.7,3.63-11.67,5.53-.28.13-.57.2-.86.2Z"/>
        <path d="m259,273.01c-.13,0-.26-.01-.39-.04-1.08-.21-1.79-1.26-1.58-2.35,6.6-33.58,14.37-78.21,16.64-103.9-8.93-5.27-18.05-14.41-18.05-25.07,0-13.07,10.69-26.59,28.57-26.59,2.91,0,6.31.51,9.7,1.45,5.58-7.34,13.45-11.45,21.07-15.42,14.67-7.65,28.54-14.88,28.22-44.06-.03-2.56-.06-4.83-.17-6.75-.06-1.06.72-1.99,1.77-2.11,23.92-2.68,45.53,2.75,60.84,15.3,14.33,11.75,22.91,29.66,24.81,51.79,2.47,28.77-4.45,53.2-20.01,70.65-15.71,17.63-39.43,27.4-68.59,28.25-1.11.02-2.03-.84-2.06-1.94-.03-1.1.84-2.03,1.94-2.06,28.04-.82,50.76-10.13,65.72-26.92,14.81-16.62,21.38-40.01,19.01-67.65-1.83-21.33-9.69-37.82-23.36-49.03-14.07-11.54-33.89-16.7-55.99-14.61.05,1.53.07,3.21.09,5.03.35,31.63-15.27,39.78-30.37,47.65-7.94,4.14-15.44,8.05-20.49,15.33-.5.72-1.41,1.03-2.24.77-3.46-1.08-6.97-1.68-9.89-1.68-15.38,0-24.57,11.49-24.57,22.59,0,9.37,8.85,17.62,17.12,22.22.69.38,1.09,1.13,1.02,1.91-2.69,32.27-13.55,88.99-16.81,105.61-.19.95-1.02,1.61-1.96,1.61Z"/>
        <path d="m275.34,294.12c8.25,4.84,17.52,8.02,26.98,9.58,4.74.78,9.51,1.13,14.29.96,4.8-.17,9.59-.64,14.3-1.58,4.7-.94,9.36-2.16,13.84-3.84,4.48-1.68,8.83-3.69,12.94-6.11,4.11-2.41,7.94-5.26,11.47-8.41l2.58-2.43,3.01-3.25,2.76-3.45.99-1.54c.83-1.3,2.56-1.67,3.86-.84,1.3.83,1.67,2.56.84,3.86-.4.63-.82,1.28-1.24,1.87l-3.06,3.73-3.31,3.49-2.83,2.6c-3.86,3.36-8.02,6.36-12.45,8.88-4.43,2.52-9.08,4.59-13.85,6.31-4.77,1.72-9.7,2.94-14.67,3.86-4.97.92-10.02,1.35-15.07,1.46-5.07.11-10.18-.33-15.14-1.23-9.95-1.78-19.6-5.23-28.3-10.49-.95-.57-1.25-1.8-.68-2.75.57-.94,1.78-1.24,2.72-.69h.02Z"/>
        <path d="m378.47,261.06c-.73,0-1.44-.4-1.79-1.1-6.7-13.37-12.4-29.51-17.43-49.35-.27-1.07.38-2.16,1.45-2.43,1.07-.27,2.16.38,2.43,1.45,4.95,19.56,10.55,35.44,17.13,48.54.49.99.1,2.19-.89,2.68-.29.14-.59.21-.9.21Z"/>
        <path d="m211.94,488.22c-.99,0-1.85-.73-1.98-1.74-1.11-8.38-1.62-18.99-1.62-33.38,0-38.61,3.5-53.25,6.31-65.02.85-3.56,1.65-6.92,2.24-10.55.18-1.09,1.2-1.83,2.29-1.66,1.09.18,1.83,1.2,1.66,2.29-.61,3.77-1.43,7.2-2.3,10.84-2.76,11.56-6.2,25.95-6.2,64.09,0,14.21.5,24.65,1.59,32.85.14,1.09-.63,2.1-1.72,2.24-.09.01-.18.02-.26.02Z"/>
        <path d="m461.06,595.24h-.02c-1.1-.01-1.99-.92-1.98-2.02.22-19.93,5.87-34.39,11.85-49.71,6.95-17.78,14.13-36.17,14.13-65.67,0-38.82-8.72-55.76-18.82-75.37-7.63-14.81-16.27-31.61-21.82-60.39-.21-1.08.5-2.13,1.59-2.34,1.09-.2,2.13.5,2.34,1.59,5.44,28.22,13.58,44.03,21.45,59.32,10.33,20.07,19.26,37.41,19.26,77.2,0,30.25-7.32,49-14.4,67.13-5.85,14.96-11.37,29.1-11.58,48.29-.01,1.1-.91,1.98-2,1.98Z"/>
        <path d="m791.46,358.16c-.62,0-1.23-.29-1.62-.82-.65-.89-.45-2.14.44-2.79,4.55-3.31,8.33-8.85,12.34-14.71,7.2-10.55,15.37-22.5,30.11-22.5.13,0,.26.01.39.04,4.42.87,8.2,3.16,10.94,6.63.68.87.53,2.12-.33,2.81-.87.68-2.12.53-2.81-.33-2.13-2.7-4.94-4.43-8.38-5.14-12.51.11-19.68,10.61-26.61,20.76-4.2,6.16-8.17,11.97-13.29,15.69-.36.26-.77.38-1.17.38Z"/>
        <path d="m488.64,480.64l11.66,16.31c3.92,5.39,7.9,10.73,12.01,15.93,8.23,10.39,17.15,20.26,27.38,28.4,5.11,4.06,10.55,7.7,16.37,10.49l2.18,1.04,2.23.93c1.47.66,3.01,1.12,4.52,1.67,3.07.94,6.18,1.72,9.34,2.24,3.16.52,6.36.81,9.56.83,1.62.01,6.52-.16,7.34-.21l4.86-.46c.81-.07,1.62-.15,2.42-.3l4.81-.78c3.16-.72,6.32-1.44,9.39-2.47,12.28-4.1,23.42-11.24,32.47-20.64,9.06-9.42,16.51-20.42,23.23-31.86,6.73-11.46,12.83-23.36,19.38-35.07,6.54-11.71,13.5-23.29,21.65-34.08.6-.79,1.73-.95,2.52-.35.79.59.95,1.71.37,2.5h0c-7.81,10.72-14.5,22.23-20.79,33.98-6.29,11.76-12.32,23.72-19.02,35.4-6.69,11.66-14.16,23.12-23.66,33.03-4.74,4.94-10.03,9.43-15.83,13.18-5.8,3.75-12.12,6.69-18.66,8.91-3.28,1.11-6.63,1.89-9.99,2.67l-5.09.85c-.85.16-1.7.25-2.56.33l-5.13.5c-.85.06-1.71.07-2.57.1-1.71.06-3.42.16-5.14.15-3.48,0-6.97-.3-10.41-.86-3.44-.56-6.85-1.35-10.14-2.47-1.64-.56-3.3-1.11-4.88-1.82l-2.4-1.01-2.34-1.13c-6.24-3.02-11.96-6.91-17.31-11.17-5.36-4.27-10.27-9.01-14.88-13.99-4.61-4.98-8.92-10.2-13.04-15.53-8.24-10.68-15.66-21.88-23.12-32.96-.62-.92-.37-2.16.54-2.78.9-.61,2.12-.38,2.74.5Z"/>
        <path d="m738.43,407.75c-.61,0-1.22-.28-1.61-.82-.65-.89-.46-2.14.43-2.8,21.43-15.76,47.53-23.42,79.79-23.42,1.54,0,3.1.02,4.67.05,5.42.13,10.73-2.01,14.6-5.8,3.87-3.8,6.09-9.08,6.09-14.49,0-.7-.04-3.54-.04-4.26,0-5.87,1.84-15.31,10.62-26.9.53-.7.66-1.64.35-2.46-.3-.78-.94-1.35-1.73-1.56-12.5.12-19.66,10.61-26.59,20.76-4.2,6.16-8.17,11.97-13.29,15.69-.89.65-2.14.45-2.79-.44-.65-.89-.45-2.14.44-2.79,4.55-3.31,8.33-8.85,12.34-14.71,7.2-10.55,15.36-22.51,30.11-22.51.13,0,.26.01.39.04,2.24.44,4.05,1.97,4.86,4.1.81,2.13.48,4.48-.9,6.3-8.53,11.28-9.81,20.18-9.81,24.49,0,.7.04,3.54.04,4.26,0,6.48-2.66,12.81-7.29,17.35-4.63,4.54-10.97,7.07-17.48,6.95-1.55-.03-3.08-.05-4.6-.05-31.38,0-56.7,7.41-77.42,22.64-.36.26-.77.39-1.18.39Z"/>
        <path d="m695.26,376.94l29.45,41.43c.82,1.16.55,2.76-.61,3.58-1.16.82-2.76.55-3.58-.61,0-.01-28.55-42.13-28.55-42.13-.62-.91-.38-2.16.53-2.78.9-.61,2.12-.39,2.75.5Z"/>
        <path d="m624.93,161.17s-.09,0-.13,0c-1.1-.07-1.94-1.02-1.87-2.12,2.03-31.49,14.61-60.33,35.43-81.19,22.71-22.76,53.6-34.79,89.32-34.79,17.84,0,34.71,3.02,50.16,8.97,1.03.4,1.54,1.55,1.15,2.59-.4,1.03-1.56,1.55-2.59,1.15-14.99-5.78-31.38-8.71-48.72-8.71-78,0-117.28,58.18-120.76,112.24-.07,1.06-.95,1.87-1.99,1.87Z"/>
        <path d="m679.58,163.83c-.06,0-.12,0-.17,0-1.1-.09-1.92-1.06-1.82-2.16,1.98-22.96,13.34-41.89,32-53.28,19.62-11.98,44.72-13.64,67.14-4.46,1.02.42,1.51,1.59,1.09,2.61-.42,1.02-1.59,1.51-2.61,1.09-21.26-8.7-45.01-7.14-63.54,4.17-17.55,10.71-28.24,28.54-30.1,50.21-.09,1.04-.96,1.83-1.99,1.83Z"/>
        <path d="m179.96,665.84c-.9,0-1.71-.6-1.94-1.51-.27-1.07.38-2.16,1.45-2.43,23.55-5.92,52.96-23.89,59.21-41.2.37-1.04,1.52-1.57,2.56-1.2,1.04.38,1.58,1.52,1.2,2.56-6.89,19.11-37.55,37.58-61.99,43.72-.16.04-.33.06-.49.06Z"/>
        <path d="m138.26,662.76c-.27,0-.55-.06-.82-.18-19.99-8.96-29.58-27.84-38.86-46.1-8.21-16.14-15.96-31.39-30.29-40.29-3.41-2.12-5.21-5.93-4.7-9.96.51-4,3.18-7.22,6.99-8.41,4.2-1.31,8.39-1.98,12.47-1.98,18.97,0,28.42,10.72,37.56,21.09,2.69,3.06,5.48,6.22,8.44,8.97,10.19,9.77,16.45,13.01,33.47,13.01,5.53,0,16-3.42,26.11-6.72,11.55-3.77,23.5-7.68,31.04-7.68,10.32,0,16.65,7.58,16.65,13.02,0,9.05-12.62,13.04-33.53,19.66-10.8,3.42-24.24,7.67-38.93,13.61-1.02.42-2.19-.08-2.6-1.1-.41-1.02.08-2.19,1.1-2.6,14.84-6.01,28.36-10.28,39.22-13.72,17.84-5.64,30.74-9.72,30.74-15.84,0-3.06-4.47-9.02-12.65-9.02-6.9,0-18.54,3.8-29.79,7.48-10.89,3.56-21.18,6.92-27.36,6.92-18.25,0-25.35-3.7-36.22-14.1-3.08-2.87-5.93-6.1-8.69-9.23-8.95-10.15-17.4-19.73-34.56-19.73-3.67,0-7.47.6-11.28,1.79-2.32.73-3.9,2.63-4.21,5.09-.24,1.92.37,4.52,2.84,6.05,15.28,9.49,23.65,25.95,31.74,41.88,8.96,17.64,18.23,35.88,36.93,44.26,1.01.45,1.46,1.64,1.01,2.64-.33.74-1.06,1.18-1.83,1.18Z"/>
        <path d="m176.34,646.76c-.73,0-1.43-.4-1.78-1.09-.5-.98-.11-2.19.87-2.69,12.6-6.43,26.48-10.56,38.73-14.2,18.37-5.47,32.88-9.78,32.88-18.51,0-4.83-6.26-8.72-11.44-8.72h-.14c-.12,0-.39.02-.92.12-1.09.2-2.13-.53-2.32-1.61-.2-1.09.53-2.13,1.61-2.32.63-.11,1.14-.17,1.57-.18h.21c7.29,0,15.44,5.44,15.44,12.72,0,11.72-15.77,16.41-35.74,22.35-12.08,3.59-25.77,7.67-38.05,13.93-.29.15-.6.22-.91.22Z"/>
        <path d="m379.33,367.55c-10.46,0-18.96-8.79-18.96-19.6,0-9.82,6.58-17.3,17.62-20.03h0c1.25-.31,2.56-.47,3.88-.47,9.85,0,18.18,8.21,18.18,17.93,0,10.46-8.86,22.17-20.71,22.17Zm-.39-35.75c-9.26,2.29-14.57,8.17-14.57,16.14s5.6,15.6,14.96,15.6,16.71-9.77,16.71-18.17-7.33-13.93-14.18-13.93c-1,0-1.99.12-2.92.35Z"/>
        <path d="m343.79,385.15c-4.55,0-7.99-3.28-7.99-7.64,0-1.59.48-3.23,1.47-5,.87-1.56,2.38-3.72,5.47-4.48.73-.18,1.46-.27,2.18-.27,4.59,0,8.19,3.73,8.19,8.49s-4.1,8.9-9.33,8.9Zm1.13-13.39c-.39,0-.81.05-1.22.16-1.26.31-2.08,1.02-2.93,2.54h0c-.65,1.16-.96,2.16-.96,3.05,0,1.81,1.23,3.64,3.99,3.64,3.04,0,5.33-2.11,5.33-4.9,0-2.21-1.57-4.49-4.19-4.49Z"/>
        <path d="m413.91,326.02c-.6,0-1.19-.27-1.59-.78-.67-.88-.51-2.13.37-2.8l20.24-15.54-8.78-3.21c-1.04-.38-1.57-1.53-1.19-2.57.38-1.04,1.53-1.57,2.57-1.19l12.2,4.45c.69.25,1.18.85,1.29,1.58.11.72-.18,1.45-.76,1.89l-23.13,17.75c-.36.28-.79.41-1.22.41Z"/>
        <path d="m405.56,99.81c-3.9,1.28-7.66,3-11.11,5.17-3.44,2.17-6.63,4.76-9.16,7.86-2.53,3.09-4.45,6.65-5.29,10.45-.83,3.78-.75,7.89.77,11.17,1.54,3.31,4.61,5.64,8.17,7.44,1.79.91,3.68,1.7,5.65,2.67.99.48,2,1,3.04,1.72,1.01.71,2.12,1.68,2.88,3.23.18.38.28.81.4,1.23.06.44.13.81.11,1.31-.03,1.19-.49,2.02-.91,2.67-.85,1.31-1.82,2.09-2.77,2.82-1.88,1.44-3.82,2.49-5.78,3.48-1.95.99-3.93,1.85-5.94,2.66-1.01.4-2.02.78-3.05,1.15-.52.18-1.04.36-1.57.53-.56.17-1.03.33-1.85.49-1.47.3-2.9-.66-3.19-2.12-.3-1.47.66-2.9,2.12-3.19.04,0,.08-.02.12-.02h.05c.22-.04.76-.17,1.2-.3.47-.13.94-.28,1.42-.43.96-.3,1.92-.63,2.87-.98,1.91-.69,3.8-1.46,5.62-2.3,1.81-.84,3.59-1.78,5.09-2.83.73-.52,1.39-1.12,1.71-1.56.15-.21.2-.36.17-.24,0-.02-.01-.17,0-.25-.05-.08-.02-.18-.08-.27-.13-.36-.58-.89-1.27-1.39-.68-.5-1.52-.98-2.4-1.45-1.77-.93-3.72-1.82-5.64-2.88-1.92-1.06-3.84-2.3-5.56-3.88-1.71-1.57-3.18-3.54-4.13-5.73-.94-2.19-1.31-4.55-1.39-6.83-.02-.57,0-1.14.05-1.7l.12-1.69c.14-1.12.35-2.23.61-3.32,1.04-4.39,3.43-8.32,6.32-11.63,2.89-3.32,6.39-5.98,10.11-8.15,3.72-2.18,7.71-3.85,11.82-5.06.6-.18,1.22.17,1.4.76.17.59-.15,1.2-.73,1.39h-.01Z"/>
        <path d="m334.31,119.32c-.65,0-1.29-.32-1.68-.91-.6-.92-.35-2.14.56-2.75.13-.1.37-.3.71-.59,9.09-7.7,18.34-12.81,27.5-15.2,1.07-.28,2.16.36,2.44,1.43.28,1.07-.36,2.16-1.43,2.44-8.58,2.24-17.3,7.08-25.93,14.38-.58.5-.85.72-1.09.87-.34.22-.72.32-1.09.32Z"/>
        <path d="m278.7,153.3c-.37,0-.74-.1-1.07-.31-.93-.59-1.21-1.83-.62-2.76.48-.87,2.08-5.27,2.08-6.27h0c-.19-.01-.54.03-.92.07-.6.07-1.35.16-2.13.16-3.51,0-5.78-2.11-5.78-5.38,0-3.54,2.18-7.52,3.83-10.19.58-.94,1.81-1.23,2.75-.66.94.58,1.24,1.81.66,2.75-.8,1.31-3.24,5.28-3.24,8.1,0,.62,0,1.38,1.78,1.38.55,0,1.14-.07,1.67-.13.48-.06.9-.1,1.29-.1,2.45,0,4.09,1.61,4.09,4,0,2.13-2.22,7.65-2.7,8.41-.38.6-1.03.93-1.69.93Z"/>
        <g>
          <g>
            <path class="cls-1" d="m501.43,241.35h-20.88c-1.1,0-2-.9-2-2s.9-2,2-2h20.88c1.1,0,2,.9,2,2s-.9,2-2,2Z"/>
            <path class="cls-1" d="m493.2,250.25c-.46,0-.92-.16-1.3-.48-.84-.72-.94-1.98-.22-2.82,1.78-2.09,4.98-5.49,6.85-7.45-2.13-1.9-3.74-3.66-5.43-5.5-.66-.72-1.34-1.46-2.09-2.25-.76-.8-.73-2.07.08-2.83.8-.76,2.07-.73,2.83.08.76.8,1.46,1.56,2.13,2.29,2.09,2.27,3.89,4.23,6.67,6.52.43.35.69.87.72,1.43.03.56-.17,1.1-.55,1.5-.06.06-5.66,5.89-8.15,8.81-.4.46-.96.7-1.52.7Z"/>
          </g>
          <path class="cls-1" d="m520.97,244.69c-.52,0-1.02-.2-1.39-.56-.39-.37-.61-.88-.61-1.42l-.54-60.18c0-1.1.88-2.01,1.98-2.02h.02c1.1,0,1.99.88,2,1.98l.52,58.14,15.22-.38c-3.1-34.7-4.16-64.06-2.89-79.75h-13.04l.11,12.02c0,1.1-.88,2.01-1.98,2.02h-.02c-1.1,0-1.99-.88-2-1.98l-.12-14.04c0-.53.2-1.05.58-1.43.38-.38.89-.59,1.42-.59h17.26c.57,0,1.11.24,1.49.66.38.42.56.98.5,1.55-1.58,15.08-.5,46.22,2.88,83.31.05.55-.13,1.1-.5,1.51-.37.41-.89.66-1.44.67,0,0-19.42.49-19.43.49Z"/>
          <path class="cls-1" d="m574.42,243.32h-17.86c-1.09,0-1.98-.88-2-1.97l-.41-28.62c-.02-1.1.86-2.01,1.96-2.03l17.75-.32c1.12-.06,2.02.86,2.04,1.96l.53,28.94c0,.54-.2,1.05-.57,1.44-.38.38-.89.6-1.43.6Zm-15.89-4h13.85l-.46-24.91-13.75.25.36,24.66Z"/>
        </g>
        <path class="cls-1" d="m167.51,162.98c-.15,0-.3-.02-.45-.05-1.08-.25-1.75-1.32-1.5-2.4,3.52-15.15,17.88-24.08,30.56-26.21,1.09-.19,2.12.55,2.3,1.64.18,1.09-.55,2.12-1.64,2.3-11.37,1.91-24.22,9.82-27.32,23.17-.21.92-1.04,1.55-1.95,1.55Z"/>
        <path class="cls-1" d="m106.24,237.48s-.08,0-.12,0c-1.1-.07-1.94-1.01-1.88-2.12.96-16.01,16.98-28.28,42.85-32.84,1.09-.19,2.12.54,2.32,1.62.19,1.09-.54,2.12-1.62,2.32-8.96,1.58-38.31,8.34-39.55,29.14-.06,1.06-.94,1.88-1.99,1.88Z"/>
        <path class="cls-1" d="m236.49,89.68c-.39,0-.78-.11-1.13-.35-.91-.62-1.14-1.87-.52-2.78,24.27-35.4,65.93-71.75,104.27-73.13,1.1-.05,2.03.82,2.07,1.93.04,1.1-.82,2.03-1.93,2.07-36.95,1.33-77.41,36.82-101.12,71.39-.39.57-1.01.87-1.65.87Z"/>
        <path d="m586.89,102.77c-.38-.1-.69-.18-1.13-.27l-.08-.02-.21-.06c-.1-.03-.19-.07-.28-.11-.18-.08-.38-.2-.49-.3-.09-.08-.17-.17-.25-.26-.05-.04.12.12.11.09l-.32-.21-.93-.51-1.02-.5c-1.36-.66-2.78-1.29-4.2-1.91l-8.58-3.65c-5.76-2.36-11.56-4.65-17.38-6.89-11.64-4.48-35.07-13.09-35.07-13.09-.68-.25-1.02-1-.77-1.67.25-.68,1-1.02,1.67-.77l67.01,25.08,1.14.57.68.41c.15.09.46.38.55.47-.05-.05-.1-.1-.16-.14-.07-.06-.22-.18-.36-.25-.07-.03-.14-.06-.21-.09-.06-.02-.19-.05-.14-.04l1.23.19c1.09.17,1.84,1.19,1.68,2.28-.17,1.09-1.19,1.84-2.28,1.68-.07-.01-.14-.03-.21-.04Z"/>
        <path d="m589.55,89.55c-.52-.42-.97-.88-1.62-1.29-.32-.2-.6-.42-.93-.62l-1.01-.57c-1.36-.74-2.81-1.4-4.29-2.02-2.95-1.25-6.01-2.32-9.1-3.31-3.09-.99-6.23-1.87-9.38-2.72-3.15-.85-6.31-1.63-9.5-2.39-.79-.19-1.28-.98-1.09-1.77s.98-1.28,1.77-1.09c6.38,1.53,12.77,3.1,19.11,4.96,3.17.93,6.33,1.93,9.47,3.1,1.57.58,3.13,1.23,4.68,1.99l1.17.57c.39.2.77.46,1.16.67.76.42,1.54,1.06,2.3,1.66.85.67,1,1.9.33,2.75-.67.85-1.9,1-2.75.33l-.32-.26Z"/>
      </g>
    </g>
  </g>
</svg>