<?xml version="1.0" encoding="UTF-8"?>
<svg id="Capa_2" data-name="Capa 2" xmlns="http://www.w3.org/2000/svg" viewBox="0 0 1884.9 1787.81">
  <defs>
    <style>
      .cls-1, .cls-2, .cls-3 {
        fill: none;
      }

      .cls-4 {
        fill: #f7f5e8;
      }

      .cls-5 {
        fill: #f2eabf;
      }

      .cls-6 {
        fill: #f2edd1;
      }

      .cls-7 {
        fill: #0090b8;
      }

      .cls-8 {
        fill: #f79123;
      }

      .cls-9 {
        fill: #eb1e1e;
      }

      .cls-10 {
        fill: #fff;
      }

      .cls-11 {
        fill: #ffa024;
      }

      .cls-12, .cls-13 {
        fill: #ffc800;
      }

      .cls-14 {
        fill: #ffa929;
      }

      .cls-15 {
        fill: #ffc229;
      }

      .cls-16 {
        fill: #ffce4f;
      }

      .cls-17 {
        fill: #f23e22;
      }

      .cls-18 {
        fill: #ff931e;
      }

      .cls-19 {
        fill: #ff8f29;
      }

      .cls-20 {
        fill: #969696;
      }

      .cls-21 {
        fill: #91e6d7;
      }

      .cls-22 {
        fill: #9cd0d1;
      }

      .cls-23 {
        fill: #9cd1ca;
      }

      .cls-24 {
        fill: #c2c2c2;
      }

      .cls-25 {
        fill: #b3b3b3;
      }

      .cls-26 {
        fill: #333;
      }

      .cls-27 {
        fill: #8c8c8c;
      }

      .cls-28 {
        fill: #bdbdbd;
      }

      .cls-29 {
        fill: #ccc;
      }

      .cls-30 {
        fill: #e01d1d;
      }

      .cls-31 {
        fill: #d1d1d1;
      }

      .cls-32 {
        fill: #c6c8c9;
      }

      .cls-33 {
        fill: #174eb5;
      }

      .cls-34 {
        fill: #1caed6;
      }

      .cls-35 {
        fill: #212121;
      }

      .cls-36 {
        fill: #13afba;
      }

      .cls-37 {
        fill: #145c9c;
      }

      .cls-38 {
        fill: #1c80d9;
      }

      .cls-39 {
        fill: #18c7aa;
      }

      .cls-40 {
        fill: #176bb5;
      }

      .cls-41 {
        fill: #196da6;
      }

      .cls-42 {
        fill: #6e6e6e;
      }

      .cls-43 {
        fill: gray;
      }

      .cls-44 {
        fill: #292929;
      }

      .cls-45 {
        fill: #828282;
      }

      .cls-2 {
        stroke-width: 21.88px;
      }

      .cls-2, .cls-3 {
        stroke: #ffc800;
        stroke-miterlimit: 10;
      }

      .cls-3 {
        stroke-width: 14.34px;
      }

      .cls-46 {
        fill: #ffe900;
        opacity: .56;
      }

      .cls-47 {
        fill: #ffec54;
        opacity: .9;
      }

      .cls-13, .cls-48, .cls-49 {
        opacity: .84;
      }

      .cls-48 {
        fill: #ffd500;
      }

      .cls-49 {
        fill: #ffb700;
      }
    </style>
  </defs>
  <g id="Layer_1" data-name="Layer 1">
    <path class="cls-2" d="m492.9,417.23c183.71-384.92,389.47-691.14,923.54,28.49,493.41,664.85,633.6,1118.51,191.9,1298.35C1210.26,1906.16,106.6,1430.22,31.13,1132.38c-112.44-443.78,272.86-319.34,461.77-715.14Z"/>
    <path class="cls-13" d="m76.86,1010.19c0-307.35,1002.31-863.66,1479.76-712.14,279.93,88.83,90.7,270.25,15.51,591.78-88,376.31,133.54,280.94,147.38,521.78,15.52,270.25-259.33,373.3-736.78,221.78C505.28,1481.87,76.86,1280.06,76.86,1010.19Z"/>
    <path class="cls-47" d="m1375.3,306.18c317.93,159.14,27.57,1151.48-333.98,1293.66-361.55,142.18-739.19-134.18-857.31-434.55-118.12-300.37,197.49-284.7,559.04-426.88,361.55-142.18,360.23-568.39,632.25-432.23Z"/>
    <path class="cls-49" d="m1661.5,1099.66c74.93,190.54-8.1,442.92-209.33,480.66-242.32,45.45-605.49-45.49-680.41-236.02-74.93-190.53,224.5-345.13,415.03-420.05,190.53-74.93,399.78-15.12,474.71,175.41Z"/>
    <circle class="cls-11" cx="411.37" cy="665.94" r="114.71" transform="translate(-350.4 485.94) rotate(-45)"/>
    <g>
      <g>
        <path class="cls-9" d="m1258.06,107.68v364.77h.05v40.84h0v.02c0,7.97-6.47,14.43-14.43,14.43s-14.41-6.46-14.41-14.43h-22.91c0,20.61,16.72,37.33,37.32,37.33s37.34-16.71,37.34-37.33v-.02h0V107.42c6.24-4.57-29.27-4.47-22.96.26Z"/>
        <path class="cls-8" d="m1266.98,128.98c-101.66,0-184.9,75.4-198.98,173.17,11-11.11,26.24-18.08,43.09-18.08,22.91,0,42.09,13.18,52.44,31.91,10.34-18.73,29.53-31.91,52.42-31.91,13.24,0,25.18,4.52,34.95,11.84l35.55-.4c9.66-7.08,21.39-11.44,34.38-11.44,22.9,0,42.09,13.18,52.41,31.91,10.36-18.73,29.55-31.91,52.44-31.91,15.5,0,29.33,6.3,40.08,15.86-15-96.66-97.85-170.95-198.77-170.95Z"/>
        <path class="cls-34" d="m1266.98,128.98c-101.66,0-184.9,75.4-198.98,173.17,11-11.11,26.24-18.08,43.09-18.08,22.91,0,42.09,13.18,52.44,31.91,10.34-18.73,29.53-31.91,52.42-31.91,13.24,0,25.18,4.52,34.95,11.84l18.41,16.61,17.14-17.01c9.66-7.08,21.39-11.44,34.38-11.44,22.9,0,42.09,13.18,52.41,31.91,10.36-18.73,29.55-31.91,52.44-31.91,15.5,0,29.33,6.3,40.08,15.86-15-96.66-97.85-170.95-198.77-170.95Z"/>
        <path class="cls-7" d="m1269.35,100.73c-11.32,0-20.53,9.11-20.68,20.43h41.33c-.13-11.32-9.32-20.43-20.65-20.43Z"/>
      </g>
      <path class="cls-7" d="m1269.33,129.09v183.41l17.12-16.99c9.66-7.08,21.39-11.44,34.38-11.44,22.9,0,42.09,13.18,52.41,31.91,10.36-18.73,29.55-31.91,52.44-31.91,15.5,0,29.33,6.3,40.07,15.86-14.88-95.9-96.58-169.69-196.43-170.84Z"/>
    </g>
    <path class="cls-9" d="m458,1182.05c-35.08-35.08-91.95-35.08-127.03,0-35.08,35.08-35.08,91.95,0,127.03,35.08,35.08,91.95,35.08,127.03,0,35.08-35.08,35.08-91.95,0-127.03Zm-101.2,101.2c-20.81-20.81-20.81-54.56,0-75.38,20.81-20.82,54.56-20.82,75.38,0,20.81,20.82,20.82,54.56,0,75.38-20.82,20.81-54.56,20.81-75.38,0Z"/>
    <g>
      <path class="cls-29" d="m295.47,1552.48h1118.2c60.42,0,110.28-36.71,120.42-85.07H175.03c10.1,48.36,60.03,85.07,120.44,85.07Z"/>
      <path class="cls-26" d="m321.34,733.43h1091.6c19.91,0,36.07,16.16,36.07,36.07v662.89c0,19.91-16.16,36.07-36.07,36.07H321.34c-19.91,0-36.07-16.16-36.07-36.07v-662.89c0-19.91,16.16-36.07,36.07-36.07Z"/>
      <rect class="cls-17" x="334.49" y="789.83" width="532.85" height="639.96"/>
      <rect class="cls-9" x="863.5" y="789.83" width="532.85" height="639.96"/>
      <path class="cls-24" d="m879.89,761.73c0,9.07-7.37,16.42-16.46,16.42s-16.41-7.35-16.41-16.42,7.37-16.46,16.41-16.46,16.46,7.37,16.46,16.46Z"/>
    </g>
    <g>
      <path class="cls-9" d="m560.47,918.23c3.13-2.18,6-4.59,8.73-7.12-2.77,2.47-5.66,4.84-8.73,7.12Z"/>
      <path class="cls-9" d="m576.44,904.01c-1.44,1.5-2.94,2.96-4.46,4.4,1.31-1.34,2.87-2.49,4.07-3.94,0,0,.16-.22.39-.46Z"/>
      <path class="cls-9" d="m585.18,901.2c-1.05-1.25-2.12-2.48-3.11-3.77-1.72,2.14-3.45,4.25-5.35,6.28,1.01-1.06,3.21-2.87,6.51-2.87.71,0,1.29.21,1.95.36Z"/>
      <path class="cls-9" d="m585.18,901.2c-.66-.15-1.24-.36-1.95-.36-3.3,0-5.49,1.81-6.51,2.87-.1.1-.19.2-.29.3-.23.25-.39.46-.39.46-1.2,1.45-2.76,2.59-4.07,3.94-.95.89-1.8,1.82-2.79,2.7-2.73,2.53-5.6,4.93-8.73,7.12-26.11,19.45-62.27,31.5-102.25,31.5-27.43,0-52.96-5.77-74.77-15.61-15.59,32.5-16.62,73.96-10.5,128.66,19.33,172.37,185.43,283.05,210.54,283.05,23.35,0,181.29-101.29,210.54-283.05,8.52-52.85,4.14-94.43-10.4-126.73-22.04,10.1-47.93,16.03-75.74,16.03-51.94,0-97.29-20.38-122.69-50.88Zm166.03,172.1c-7.31,44.05-16.69,49.75-16.69,49.75h-150.85v170.51c-.13.03-.47.18-.68.18-15.78,0-109.59-84-141.12-171.65h141.55v-163.02c2.11.73,3.78,1.99,3.78,1.99,31.34,21.08,63.56,32.68,104.76,32.68,14.19,0,41.7-1.59,54.22-4.96,7.97,28.35,11.45,45.85,5.03,84.52Z"/>
    </g>
    <g>
      <path class="cls-39" d="m493.44,650.6h332.17v-281.56c0-20.69-3.96-24.66-24.69-24.66h-308.52c-20.71,0-24.71,3.97-24.71,24.66v281.56h25.75Z"/>
      <polygon class="cls-6" points="614.91 567.77 634.34 567.77 663.74 468.03 644.32 468.03 614.91 567.77"/>
      <polygon class="cls-6" points="531.01 527.05 602.9 560.47 602.9 539.99 555.36 519.69 602.9 498.86 602.9 478.4 531.01 511.83 531.01 527.05"/>
      <polygon class="cls-6" points="674.58 478.42 674.58 498.89 723.16 519.16 674.58 539.97 674.58 560.46 746.48 527.47 746.48 511.37 674.58 478.42"/>
      <path class="cls-5" d="m493.44,650.6h332.17v-281.56c0-20.69-3.96-24.66-24.69-24.66h-308.52c-20.71,0-24.71,3.97-24.71,24.66v281.56h25.75Zm0-30.51v-203.07h306.41v203.07h-306.41Zm266.83-237.42c0,8.16-6.62,14.77-14.78,14.77s-14.77-6.62-14.77-14.77,6.59-14.77,14.77-14.77,14.78,6.62,14.78,14.77Zm28.71-14.77c8.15,0,14.79,6.62,14.79,14.77s-6.64,14.77-14.79,14.77-14.76-6.62-14.76-14.77,6.62-14.77,14.76-14.77Zm-298.54.86h129.04v28.61h-129.04v-28.61Z"/>
    </g>
    <g>
      <g>
        <path class="cls-18" d="m1372.24,779.38h339.54v-287.78c0-21.18-4.05-25.23-25.25-25.23h-315.35c-21.18,0-25.23,4.05-25.23,25.23v287.78h26.3Z"/>
        <path class="cls-5" d="m1372.24,779.38h339.54v-287.78c0-21.18-4.05-25.23-25.25-25.23h-315.35c-21.18,0-25.23,4.05-25.23,25.23v287.78h26.3Zm0-31.18v-207.57h313.19v207.57h-313.19Zm272.72-242.67c0,8.33-6.76,15.08-15.08,15.08s-15.11-6.76-15.11-15.08,6.76-15.12,15.11-15.12,15.08,6.76,15.08,15.12Zm29.39-15.12c8.33,0,15.08,6.76,15.08,15.12s-6.76,15.08-15.08,15.08-15.13-6.76-15.13-15.08,6.8-15.12,15.13-15.12Zm-305.19.89h131.93v29.23h-131.93v-29.23Z"/>
        <polygon class="cls-6" points="1649.64 611.62 1649.1 554.78 1594.82 571.58 1615.38 586.61 1563.95 658.99 1521.56 582.82 1478.27 685.47 1448.08 644.2 1398.47 711.21 1413.28 722.16 1447.99 675.25 1482.59 722.58 1523.86 624.83 1562.08 693.48 1630.24 597.45 1649.64 611.62"/>
      </g>
      <g>
        <path class="cls-42" d="m1283.87,811.92l-69.15,67.37,33.03,33.34,73.08-71.26c-13.15-8.19-25.58-17.97-36.95-29.46Z"/>
        <path class="cls-28" d="m1169.72,989.77c-15.41,3.47-30.71-6.21-34.18-21.62-3.47-15.41,6.21-30.71,21.61-34.18,15.41-3.47,30.71,6.21,34.19,21.62,3.47,15.41-6.21,30.71-21.62,34.18Z"/>
        <path class="cls-27" d="m1176.48,995.21l-22.74-22.95,101.49-99.36h0c-7.83-7.91-14.48-16.53-20.03-25.63l-102.38,100.24c-1,.99-1.01,2.6-.02,3.6l43.68,44.1Z"/>
        <path class="cls-42" d="m1255.23,872.89l-101.49,99.36,20.74,20.94c1.1,1.11,2.9,1.12,4.01.02l102.17-100.04c-9.05-5.64-17.61-12.37-25.44-20.28Z"/>
        <path class="cls-20" d="m1286.35,895.89c2.26,2.38,5.9,2.46,7.92.22,9.91-11.02,6.73-14.03-19.1-39.95-27.34-27.44-29.77-31.42-40.13-22.07-2.15,1.94-2.18,5.4,0,7.69l51.32,54.11Z"/>
        <path class="cls-28" d="m1240.86,829.81c-2.56-2.59-6.6-2.58-8.77-.03-10.67,12.5-14.48,24.38,13.98,52.78,30.4,30.34,41.99,25.18,53.21,14.52,2.33-2.21,2.26-6.06-.2-8.54l-58.22-58.73Z"/>
        <path class="cls-46" d="m1408.15,837.66c-52.3,11.78-104.25-21.07-116.03-73.37-11.78-52.3,21.07-104.25,73.37-116.03,52.3-11.78,104.25,21.07,116.03,73.37,11.78,52.3-21.07,104.25-73.37,116.03Z"/>
        <path class="cls-27" d="m1300.27,828.68c6.84,6.9,14.31,12.78,22.21,17.7,46.81,29.17,109.15,23.62,150.04-16.89,47.79-47.34,48.15-124.46.82-172.24-47.34-47.79-124.45-48.15-172.24-.82-40.89,40.5-47.03,102.79-18.31,149.87,4.85,7.95,10.65,15.47,17.49,22.37h0Zm26.97-145.84c33.21-32.89,86.79-32.64,119.68.57,32.89,33.21,32.64,86.79-.57,119.68-33.21,32.89-86.79,32.64-119.68-.57-32.89-33.2-32.64-86.79.57-119.68Z"/>
        <path class="cls-42" d="m1294.2,834.7c7.32,7.38,15.31,13.68,23.76,18.94,50.09,31.21,116.82,25.27,160.58-18.07,51.15-50.66,51.54-133.2.87-184.34-50.66-51.15-133.2-51.54-184.34-.87-43.76,43.35-50.33,110.01-19.59,160.4,5.19,8.5,11.4,16.56,18.72,23.94h0Zm25.98-159c37.15-36.8,97.1-36.51,133.89.63,36.8,37.15,36.51,97.1-.63,133.89-37.15,36.8-97.1,36.51-133.89-.63-36.8-37.15-36.51-97.1.63-133.89Z"/>
        <path class="cls-29" d="m1287.68,841.15c7.83,7.9,16.39,14.64,25.44,20.28,53.62,33.41,125.03,27.05,171.87-19.34,54.74-54.23,55.16-142.56.93-197.31-54.23-54.74-142.56-55.16-197.31-.93-46.84,46.4-53.87,117.75-20.97,171.68,5.55,9.1,12.2,17.72,20.03,25.63h0Zm27.8-170.18c39.76-39.39,103.92-39.08,143.31.68,39.39,39.76,39.08,103.93-.68,143.31-39.76,39.39-103.92,39.08-143.31-.68-39.39-39.76-39.08-103.92.68-143.31Z"/>
      </g>
    </g>
    <g>
      <g>
        <g>
          <path class="cls-28" d="m1636.98,1013.57l-163.44-81.92-175.76,350.64,284.28,142.49,130.42-260.2-75.51-151.02Zm-61.38,360.47l-229.85-115.21,142.89-285.09,91.4,45.82c35.93,18.01,40.09,55.56,24.74,86.19l-2.26,3.92c.18.09,3.13.75,3.13.75,17.31,3.07,32.68,9.64,46.3,24.59,19.15,21.04,19.11,48.58,10.8,65.14l-87.16,173.9Z"/>
          <path class="cls-6" d="m1576.93,1397.88l-250.77-125.69,155.9-311.03,99.72,49.99c39.2,19.65,43.74,60.62,26.99,94.03l-2.47,4.27c.19.1,3.42.82,3.42.82,18.88,3.35,35.65,10.52,50.51,26.83,20.9,22.96,20.84,53,11.78,71.07l-95.1,189.72Z"/>
          <g>
            <polygon class="cls-23" points="1575.16 1157.63 1499.28 1119.53 1490.37 1137.33 1567.91 1176.26 1614.92 1199.87 1623.82 1182.08 1575.16 1157.63"/>
            <polygon class="cls-19" points="1525.16 1096.49 1564.7 1116.31 1580.14 1084.83 1486.46 1037.88 1471.02 1069.35 1525.16 1096.49"/>
            <polygon class="cls-23" points="1482.22 1153.61 1473.31 1171.41 1597.86 1233.96 1602.06 1225.57 1606.77 1216.16 1571.15 1198.27 1482.22 1153.61"/>
            <polygon class="cls-23" points="1448.11 1221.78 1439.2 1239.58 1516.74 1278.51 1563.75 1302.13 1572.66 1284.33 1523.99 1259.88 1448.11 1221.78"/>
            <polygon class="cls-23" points="1536.77 1223.65 1521.98 1216.23 1465.16 1187.7 1456.27 1205.47 1456.27 1205.47 1456.26 1205.49 1499.42 1227.16 1527.87 1241.45 1527.88 1241.43 1580.81 1268.02 1589.71 1250.25 1536.77 1223.65 1536.77 1223.65"/>
            <polygon class="cls-23" points="1431.05 1255.86 1422.14 1273.66 1546.69 1336.21 1550.89 1327.82 1555.6 1318.41 1519.99 1300.52 1431.05 1255.86"/>
            <path class="cls-36" d="m1482.35,1122.45c-4.23,8.5-14.55,11.95-23.05,7.72-8.5-4.23-11.95-14.55-7.72-23.05s14.55-11.95,23.05-7.72c8.5,4.23,11.95,14.55,7.72,23.05Z"/>
            <path class="cls-22" d="m1473.5,1118.04c-1.8,3.61-6.18,5.08-9.79,3.28-3.61-1.8-5.08-6.18-3.28-9.79s6.18-5.08,9.79-3.28c3.61,1.8,5.08,6.18,3.28,9.79Z"/>
            <path class="cls-39" d="m1465.35,1156.56c-4.23,8.5-14.55,11.95-23.05,7.72-8.5-4.23-11.95-14.55-7.72-23.05,4.23-8.5,14.55-11.95,23.05-7.72,8.5,4.23,11.95,14.55,7.72,23.05Z"/>
            <path class="cls-21" d="m1455.73,1151.76c-1.59,3.18-5.45,4.48-8.64,2.89-3.18-1.59-4.48-5.45-2.89-8.64,1.59-3.18,5.45-4.48,8.64-2.89,3.18,1.59,4.48,5.45,2.89,8.64Z"/>
            <path class="cls-32" d="m1448.35,1190.66c-4.23,8.5-14.55,11.95-23.05,7.72-8.5-4.23-11.95-14.55-7.72-23.05s14.55-11.95,23.05-7.72c8.5,4.23,11.95,14.55,7.72,23.05Z"/>
            <path class="cls-6" d="m1438.8,1185.9c-1.6,3.22-5.51,4.53-8.73,2.92-3.22-1.6-4.53-5.51-2.92-8.73,1.6-3.22,5.51-4.53,8.73-2.92,3.22,1.6,4.53,5.51,2.92,8.73Z"/>
            <path class="cls-15" d="m1431.35,1224.78c-4.23,8.5-14.55,11.95-23.05,7.72-8.5-4.23-11.95-14.55-7.72-23.05s14.55-11.95,23.05-7.72c8.5,4.23,11.95,14.55,7.72,23.05Z"/>
            <path class="cls-8" d="m1414.34,1258.9c-4.23,8.5-14.55,11.95-23.05,7.72-8.5-4.23-11.95-14.55-7.72-23.05,4.23-8.5,14.55-11.95,23.05-7.72,8.5,4.23,11.95,14.55,7.72,23.05Z"/>
          </g>
        </g>
        <polygon class="cls-4" points="1636.67 1014.25 1602.54 1109.69 1712.49 1164.63 1636.67 1014.25"/>
      </g>
      <g>
        <g>
          <g>
            <path class="cls-1" d="m1759.05,1197.09c-4.74-.5-9.44,7.49-10.48,17.82-1.05,10.33,1.96,19.09,6.7,19.58,4.74.47,9.42-7.51,10.47-17.84,1.04-10.33-1.95-19.09-6.68-19.57Z"/>
            <path class="cls-1" d="m1498.63,1197.38c-.35,3.48-.22,6.82.18,10.02l-33.28-19.12.46-4.23,36.48-11.96c-1.08,3.17-1.94,6.54-2.29,10.16l-1.54,15.13Z"/>
          </g>
          <g>
            <path class="cls-1" d="m1759.05,1197.09c-4.74-.5-9.44,7.49-10.48,17.82-1.05,10.33,1.96,19.09,6.7,19.58,4.74.47,9.42-7.51,10.47-17.84,1.04-10.33-1.95-19.09-6.68-19.57Z"/>
            <path class="cls-1" d="m1498.63,1197.38c-.35,3.48-.22,6.82.18,10.02l-33.28-19.12.46-4.23,36.48-11.96c-1.08,3.17-1.94,6.54-2.29,10.16l-1.54,15.13Z"/>
            <path class="cls-37" d="m1734.75,1182.99l-230.52-22.97c-1.05-.1-3.14-.06-3.14-.06l-40.22,13.32h0s-28.62,9.38-28.62,9.38l63.59,36.23s1.68-.11,2.45-.03l229.51,22.87c-2.96-7.13-5.07-17.17-3.1-30.5,2.02-13.72,6.26-22.68,10.05-28.25Zm-266.37,1.09l-.45,4.19,32.97,18.94c-.39-3.17-.53-6.47-.18-9.92l1.53-14.99c.35-3.59,1.21-6.93,2.27-10.07l-36.14,11.85Z"/>
            <path class="cls-38" d="m1734.59,1182.92l-232.42-23.16c-1.05-.11-3.17-.06-3.17-.06l-13.13,6.22s-2.04,13.45-2.31,16.11l241.44,26.12c2.2-11.98,6.07-20.08,9.58-25.24Z"/>
            <path class="cls-44" d="m1759.06,1185.39l-12.8-1.3c-2.59,2.43-9.43,10.37-12.15,28.77-2.25,15.28,1.61,25.18,4.9,30.52l14.03,1.42c8.94.89,14.95-58.52,6.01-59.42Zm-3.8,49.1c-4.73-.5-7.74-9.25-6.7-19.58,1.05-10.33,5.74-18.32,10.48-17.82,4.73.48,7.73,9.24,6.68,19.57-1.05,10.33-5.73,18.31-10.47,17.84Z"/>
            <path class="cls-4" d="m1755.26,1234.49c-4.73-.5-7.74-9.25-6.7-19.58,1.05-10.33,5.74-18.32,10.48-17.82,4.73.48,7.73,9.24,6.68,19.57-1.05,10.33-5.73,18.31-10.47,17.84Z"/>
          </g>
          <polygon class="cls-40" points="1481.93 1175.52 1731.58 1201.57 1728.15 1223.43 1479.41 1198.15 1481.93 1175.52"/>
        </g>
        <path class="cls-14" d="m1452.08,1176.15l-1.45,16.98,45.21,25.77c-.52-4.16-3.03-14.63-2.02-22.47l1.26-13.35c.54-7.7,2.52-19.26,3.92-23.38l-46.93,16.46Z"/>
        <path class="cls-31" d="m1734.11,1212.87c2.72-18.4,9.56-26.34,12.15-28.77l-11.67-1.18c-3.83,5.62-8.11,14.67-10.15,28.52-1.99,13.46.14,23.59,3.13,30.79l11.44,1.16c-3.29-5.34-7.15-15.24-4.9-30.52Z"/>
      </g>
    </g>
    <g>
      <path class="cls-48" d="m154.15,533.95C51.01,492.24,1.03,374.4,42.74,271.26c41.71-103.13,159.55-153.11,262.69-111.4,103.14,41.71,153.11,159.54,111.4,262.67-41.71,103.14-159.54,153.12-262.68,111.41Z"/>
      <path class="cls-10" d="m291.84,193.45c-84.62-34.22-181.3,6.78-215.52,91.39-34.22,84.62,6.78,181.3,91.41,215.52,84.61,34.22,181.29-6.79,215.51-91.41,34.22-84.62-6.79-181.29-91.4-215.51Z"/>
      <path class="cls-5" d="m284.59,211.38c-74.73-30.22-160.1,6-190.31,80.72-30.22,74.73,5.98,160.09,80.71,190.31,74.72,30.22,160.1-5.98,190.32-80.71,30.22-74.72-5.99-160.1-80.71-190.32Z"/>
      <g>
        <g>
          <path class="cls-34" d="m217.22,341.68l-9.83-116.51c-.38-4.07,2.8-7.71,7.1-8.11l3.77-.35c4.32-.37,8.09,2.62,8.47,6.72l9.81,116.52c.39,4.08-18.95,5.84-19.32,1.74Z"/>
          <path class="cls-30" d="m146.32,373.38c-1.13-3.04.3-6.38,3.2-7.45l50.53-18.87c2.88-1.09,6.16.51,7.29,3.57l1,2.65c1.12,3.07-.31,6.4-3.21,7.47l-50.53,18.88c-2.88,1.07-6.15-.52-7.28-3.56l-.99-2.68Z"/>
          <path class="cls-25" d="m223.9,338.93c3.86-4.97,11.02-5.86,15.99-2l81.23,60.77c4.94,3.85,5.88,11,2.01,15.98l-3.4,4.35c-3.83,4.99-11.02,5.88-15.95,2.03l-81.26-60.75c-5-3.85-5.86-11.03-2-15.98l3.36-4.4Z"/>
        </g>
        <path class="cls-15" d="m256.15,358.15c-5.91,14.61-22.55,21.66-37.17,15.76-14.6-5.9-21.65-22.54-15.75-37.16,5.9-14.6,22.54-21.65,37.14-15.75,14.61,5.91,21.68,22.54,15.77,37.14Z"/>
        <path class="cls-16" d="m248.98,355.25c-4.31,10.65-16.44,15.79-27.09,11.48-10.64-4.3-15.78-16.43-11.48-27.08,4.3-10.64,16.43-15.78,27.07-11.48,10.65,4.31,15.8,16.43,11.5,27.07Z"/>
      </g>
    </g>
    <g>
      <rect class="cls-43" x="816.86" y="568.8" width="12.27" height="620.03" transform="translate(-380.43 916.28) rotate(-48.66)"/>
      <rect class="cls-43" x="758.86" y="873.14" width="727.17" height="12.28" transform="translate(165.82 1936.58) rotate(-85.94)"/>
      <rect class="cls-43" x="594.89" y="768.84" width="679.31" height="12.28" transform="translate(-69.16 1458.02) rotate(-73.9)"/>
      <rect class="cls-43" x="594.85" y="859.93" width="12.28" height="673.14" transform="translate(-729.97 1342.62) rotate(-69.6)"/>
      <rect class="cls-43" x="300.8" y="1134.5" width="422.56" height="12.27" transform="translate(-682.6 1509.42) rotate(-82.98)"/>
      <rect class="cls-43" x="313.81" y="900.52" width="12.27" height="469.54" transform="translate(-225.37 89.4) rotate(-11.8)"/>
      <g>
        <polygon class="cls-5" points="651.58 820.65 646.69 795.25 442.18 834.62 558.95 662.17 537.53 647.66 420.76 820.11 381.38 615.61 355.98 620.5 395.35 825 222.9 708.24 208.4 729.66 380.85 846.43 176.34 885.8 181.23 911.21 385.74 871.83 268.97 1044.28 290.4 1058.79 407.16 886.34 446.54 1090.85 471.94 1085.95 432.57 881.45 605.02 998.21 619.52 976.79 447.07 860.03 651.58 820.65"/>
        <path class="cls-41" d="m571.43,620.67c-130.25-88.19-307.33-54.1-395.53,76.15-88.19,130.25-54.1,307.33,76.15,395.53,130.25,88.19,307.33,54.1,395.53-76.15,88.19-130.25,54.1-307.33-76.15-395.53Zm-280.4,414.11c-98.46-66.67-124.23-200.53-57.56-298.98,66.67-98.46,200.53-124.23,298.98-57.56,98.46,66.67,124.23,200.53,57.56,298.98-66.67,98.46-200.53,124.23-298.98,57.56Z"/>
        <path class="cls-33" d="m562.36,634.06c-122.85-83.18-289.88-51.03-373.06,71.83-83.18,122.85-51.03,289.88,71.83,373.06,122.85,83.18,289.88,51.03,373.06-71.83,83.18-122.85,51.03-289.88-71.83-373.06Zm-280.57,414.37c-106-71.77-133.75-215.88-61.97-321.88,71.77-106,215.88-133.75,321.88-61.97,106,71.77,133.75,215.88,61.97,321.88-71.77,106-215.89,133.74-321.88,61.97Z"/>
        <path class="cls-26" d="m497.83,729.36c-70.22-47.55-165.69-29.17-213.24,41.06-47.55,70.22-29.17,165.69,41.05,213.24,70.22,47.55,165.69,29.17,213.24-41.06,47.55-70.22,29.17-165.69-41.06-213.24Zm-163.45,241.39c-63.09-42.72-79.61-128.5-36.89-191.6,42.72-63.09,128.5-79.61,191.59-36.89,63.09,42.72,79.61,128.5,36.89,191.6-42.72,63.09-128.5,79.61-191.6,36.89Z"/>
        <path class="cls-26" d="m441.35,812.78c-24.15-16.35-56.98-10.03-73.33,14.12-16.35,24.15-10.03,56.98,14.12,73.33,24.15,16.35,56.98,10.03,73.33-14.12,16.35-24.15,10.03-56.98-14.12-73.33Z"/>
        <path class="cls-4" d="m430.48,828.83c-15.29-10.35-36.07-6.35-46.42,8.94-10.35,15.29-6.35,36.07,8.94,46.42,15.29,10.35,36.07,6.35,46.42-8.94,10.35-15.29,6.35-36.07-8.94-46.42Z"/>
      </g>
      <g>
        <rect class="cls-42" x="953.79" y="1045.07" width="14.64" height="271.08"/>
        <rect class="cls-42" x="953.79" y="1045.07" width="14.64" height="271.08" transform="translate(2141.72 219.5) rotate(90)"/>
        <rect class="cls-42" x="953.79" y="1045.07" width="14.64" height="271.08" transform="translate(-553.31 1025.34) rotate(-45)"/>
        <rect class="cls-42" x="953.79" y="1045.07" width="14.64" height="271.08" transform="translate(1116.27 -333.82) rotate(45)"/>
        <path class="cls-42" d="m961.11,1018.5c-90.77,0-164.35,73.58-164.35,164.35s73.58,164.35,164.35,164.35,164.35-73.58,164.35-164.35-73.58-164.35-164.35-164.35Zm0,268.47c-57.51,0-104.12-46.62-104.12-104.13s46.62-104.12,104.12-104.12,104.13,46.62,104.13,104.12-46.62,104.13-104.13,104.13Z"/>
        <path class="cls-6" d="m961.11,1030.81c-83.97,0-152.04,68.07-152.04,152.04s68.07,152.04,152.04,152.04,152.04-68.07,152.04-152.04-68.07-152.04-152.04-152.04Zm0,269.54c-64.89,0-117.5-52.61-117.5-117.5s52.61-117.5,117.5-117.5,117.5,52.61,117.5,117.5-52.61,117.5-117.5,117.5Z"/>
        <path class="cls-26" d="m961.11,1142.95c-22.03,0-39.89,17.86-39.89,39.89s17.86,39.89,39.89,39.89,39.89-17.86,39.89-39.89-17.86-39.89-39.89-39.89Z"/>
        <path class="cls-6" d="m961.11,1163.41c-10.73,0-19.44,8.7-19.44,19.44s8.7,19.44,19.44,19.44,19.44-8.7,19.44-19.44-8.7-19.44-19.44-19.44Z"/>
      </g>
      <g>
        <rect class="cls-42" x="423.75" y="1287.28" width="6.5" height="120.34" transform="translate(1077.83 92.71) rotate(45)"/>
        <rect class="cls-42" x="423.75" y="1287.28" width="6.5" height="120.34" transform="translate(1681.72 1998.33) rotate(135)"/>
        <path class="cls-26" d="m474.21,1300.24c-26.58-26.58-69.67-26.58-96.25,0-26.58,26.58-26.58,69.67,0,96.25,26.58,26.58,69.67,26.58,96.25,0,26.58-26.58,26.58-69.67,0-96.25Zm-76.68,76.68c-15.77-15.77-15.77-41.34,0-57.11,15.77-15.77,41.34-15.77,57.11,0,15.77,15.77,15.77,41.34,0,57.11-15.77,15.77-41.34,15.77-57.11,0Z"/>
      </g>
      <g>
        <rect class="cls-42" x="424.56" y="1301.39" width="5.07" height="93.95" transform="translate(1775.46 921.27) rotate(90)"/>
        <rect class="cls-42" x="424.56" y="1301.39" width="5.07" height="93.95" transform="translate(854.19 2696.73) rotate(180)"/>
        <path class="cls-39" d="m479.22,1348.37c0-29.34-23.79-53.13-53.13-53.13s-53.13,23.79-53.13,53.13,23.79,53.13,53.13,53.13,53.13-23.79,53.13-53.13Zm-91.09,0c0-20.96,17-37.96,37.96-37.96s37.96,16.99,37.96,37.96-16.99,37.96-37.96,37.96-37.96-16.99-37.96-37.96Z"/>
        <path class="cls-35" d="m435.37,1348.37c0-5.12-4.15-9.28-9.28-9.28s-9.28,4.15-9.28,9.28,4.15,9.28,9.28,9.28,9.28-4.15,9.28-9.28Z"/>
      </g>
      <g>
        <path class="cls-32" d="m1174.3,468.91l-49.79-12.97,44.38-26.04c3.25-1.91,4.34-6.09,2.43-9.34l-4.27-7.28c-1.91-3.25-6.09-4.34-9.34-2.43l-44.38,26.04,12.97-49.8c.95-3.65-1.23-7.37-4.88-8.32l-8.16-2.13c-3.65-.95-7.37,1.23-8.32,4.88l-12.97,49.8-26.04-44.38c-1.91-3.25-6.09-4.34-9.34-2.43l-7.28,4.27c-3.25,1.91-4.34,6.09-2.43,9.34l26.04,44.38-49.79-12.97c-3.65-.95-7.37,1.23-8.32,4.88l-2.13,8.17c-.95,3.65,1.23,7.37,4.88,8.32l49.79,12.97-44.38,26.04c-3.25,1.91-4.34,6.09-2.43,9.34l4.27,7.28c.92,1.56,2.41,2.69,4.17,3.15,1.75.46,3.61.2,5.17-.72l44.38-26.04-12.97,49.79c-.95,3.65,1.23,7.37,4.88,8.32l8.16,2.13c3.65.95,7.37-1.23,8.32-4.88l12.97-49.79,26.04,44.38c.92,1.56,2.42,2.7,4.17,3.15,1.75.46,3.61.2,5.17-.72l7.28-4.27c3.25-1.91,4.34-6.09,2.43-9.34l-26.04-44.38,49.79,12.97c3.65.95,7.37-1.23,8.32-4.88l2.13-8.17c.95-3.65-1.23-7.37-4.88-8.32Z"/>
        <path class="cls-45" d="m1095.92,367.66c-51.66,0-93.54,41.88-93.54,93.54s41.88,93.54,93.54,93.54,93.54-41.88,93.54-93.54-41.88-93.54-93.54-93.54Zm0,158.36c-35.8,0-64.82-29.02-64.82-64.82s29.02-64.82,64.82-64.82,64.82,29.02,64.82,64.82-29.02,64.82-64.82,64.82Z"/>
        <path class="cls-26" d="m1095.92,432.37c-15.92,0-28.82,12.9-28.82,28.82s12.9,28.82,28.82,28.82,28.82-12.9,28.82-28.82-12.9-28.82-28.82-28.82Z"/>
        <path class="cls-4" d="m1095.92,445.73c-8.54,0-15.47,6.93-15.47,15.47s6.93,15.47,15.47,15.47,15.47-6.93,15.47-15.47-6.93-15.47-15.47-15.47Z"/>
      </g>
    </g>
    <path class="cls-13" d="m821.55,276.3c2.91,7.39-.73,15.74-8.12,18.64-7.39,2.91-15.74-.73-18.64-8.12-2.91-7.39.73-15.74,8.12-18.64,7.39-2.91,15.74.73,18.64,8.12Z"/>
    <path class="cls-3" d="m1818.38,1314.56c1.73,19.39-12.58,36.5-31.96,38.23-19.39,1.73-36.5-12.58-38.23-31.96-1.73-19.38,12.58-36.5,31.97-38.23,19.38-1.73,36.5,12.58,38.23,31.96Z"/>
    <path class="cls-3" d="m1803.81,1452.57c.92,10.27-6.67,19.35-16.94,20.26-10.27.92-19.35-6.67-20.26-16.94-.92-10.27,6.67-19.35,16.94-20.26,10.27-.92,19.35,6.67,20.26,16.94Z"/>
    <path class="cls-12" d="m800.88,176.07c6.94,17.65-1.74,37.59-19.39,44.53-17.65,6.94-37.59-1.74-44.53-19.39-6.94-17.65,1.74-37.59,19.39-44.53,17.65-6.94,37.59,1.74,44.53,19.39Z"/>
    <circle class="cls-12" cx="951.6" cy="207.68" r="111.31" transform="translate(672.55 1140.85) rotate(-85.66)"/>
  </g>
</svg>