<?xml version="1.0" encoding="UTF-8"?>
<svg id="Capa_2" data-name="Capa 2" xmlns="http://www.w3.org/2000/svg" viewBox="0 0 1818.2 1691.88">
  <defs>
    <style>
      .cls-1 {
        fill: #f7a705;
      }

      .cls-2 {
        fill: #f7f5e8;
      }

      .cls-3 {
        fill: #f2f2f2;
      }

      .cls-4 {
        fill: #f5850c;
      }

      .cls-5 {
        fill: #f2edd1;
      }

      .cls-6 {
        fill: #fc4c20;
      }

      .cls-7 {
        fill: #ededed;
      }

      .cls-8 {
        fill: #fff;
      }

      .cls-9 {
        fill: #f74d23;
      }

      .cls-10 {
        fill: #ffe629;
      }

      .cls-11 {
        fill: #ffc229;
      }

      .cls-12 {
        fill: #ffc312;
      }

      .cls-13 {
        fill: #ff931e;
      }

      .cls-14 {
        fill: #fde219;
      }

      .cls-15 {
        fill: #979799;
      }

      .cls-16 {
        fill: #9cd1ca;
      }

      .cls-17 {
        fill: #918f85;
      }

      .cls-18 {
        fill: #666;
      }

      .cls-19 {
        fill: #737373;
      }

      .cls-20 {
        fill: #bab7a9;
      }

      .cls-21 {
        fill: #333;
      }

      .cls-22 {
        fill: #bdbdbd;
      }

      .cls-23 {
        fill: #ccc;
      }

      .cls-24 {
        fill: #d1d1d1;
      }

      .cls-25 {
        fill: #dbdbdb;
      }

      .cls-26 {
        fill: #1cb2ba;
      }

      .cls-27 {
        fill: #119aa3;
      }

      .cls-28 {
        fill: #212121;
      }

      .cls-29 {
        fill: #21bbcf;
      }

      .cls-30 {
        fill: #093a96;
      }

      .cls-31 {
        fill: #949494;
      }

      .cls-32 {
        fill: #6bc6d6;
      }

      .cls-33 {
        fill: gray;
      }

      .cls-34 {
        fill: #27c29d;
      }

      .cls-35 {
        fill: #787878;
      }

      .cls-36 {
        fill: #4d4d4d;
      }

      .cls-37 {
        stroke-width: 20.02px;
      }

      .cls-37, .cls-38 {
        fill: none;
        stroke: #ef1580;
        stroke-miterlimit: 10;
      }

      .cls-38 {
        stroke-width: 17.59px;
      }

      .cls-39 {
        fill: #ff82c0;
        opacity: .83;
      }

      .cls-40 {
        fill: #ef1580;
        opacity: .82;
      }
    </style>
  </defs>
  <g id="Layer_1" data-name="Layer 1">
    <g>
      <path class="cls-37" d="m1535.78,116.5c264.98,247.96,85.18,1177.77-292.91,1430.64-221.68,148.26-350.19-134.64-592.82-307.24-171.2-121.79-459.33-121.87-558.51-216.06-234.81-223,75.14-369.88,453.23-622.74C922.85,148.24,1294.97-108.84,1535.78,116.5Z"/>
      <path class="cls-39" d="m682.99,889.97c-259.5-29.77-569.03-259.72-623.43,214.43-53.9,469.86,171.8,650.93,536.3,568.07,254.7-57.9,717.1-317.68,746.87-577.17,29.77-259.5-400.25-175.55-659.75-205.32Z"/>
      <path class="cls-40" d="m1755.04,155.91c282.41,305.74-447.09,1265.73-908.79,1265.73S75.53,964.2,75.53,591.06c0-415,295.92-495.05,730.82-231.82,394.98,239.07,707.07-464.91,948.7-203.32Z"/>
      <g>
        <g>
          <path class="cls-22" d="m1297.87,0l-169.9.52,1.12,364.5,295.52-.91-.83-270.48L1297.87,0Zm100.11,324.73l-238.93.73-.91-296.35,95.01-.29c37.35-.11,56.53,29.29,56.63,61.13l-.23,4.2c.18,0,2.91-.69,2.91-.69,15.64-4.7,31.14-5.69,48.71,1,24.7,9.43,36.2,32.29,36.25,49.51l.55,180.77Z"/>
          <path class="cls-5" d="m1409.08,343.95l-260.67.8-.99-323.32,103.66-.32c40.75-.13,61.68,31.96,61.78,66.69l-.26,4.58c.2,0,3.18-.76,3.18-.76,17.07-5.13,33.98-6.21,53.14,1.09,26.95,10.29,39.49,35.23,39.55,54.02l.6,197.22Z"/>
          <g>
            <polygon class="cls-16" points="1266.04 79.84 1228.03 79.8 1228.11 98.3 1266.95 98.33 1290.5 98.36 1290.41 79.87 1266.04 79.84"/>
            <polygon class="cls-16" points="1228.17 115.22 1228.25 133.72 1357.76 133.42 1357.73 124.7 1357.69 114.93 1320.66 115.01 1228.17 115.22"/>
            <polygon class="cls-16" points="1228.44 186.06 1228.51 204.56 1309.14 204.37 1358.03 204.26 1357.96 185.76 1307.35 185.87 1228.44 186.06"/>
            <polygon class="cls-16" points="1302.77 150.47 1287.39 150.5 1228.31 150.65 1228.38 169.12 1228.38 169.12 1228.38 169.14 1273.25 169.02 1302.84 168.96 1302.84 168.94 1357.89 168.82 1357.82 150.35 1302.77 150.47 1302.77 150.47"/>
            <polygon class="cls-16" points="1228.57 221.48 1228.64 239.97 1358.16 239.68 1358.12 230.96 1358.09 221.18 1321.05 221.26 1228.57 221.48"/>
          </g>
          <g>
            <polygon class="cls-16" points="1184.98 80.27 1201.45 79.95 1201.56 98.44 1184.73 98.77 1174.53 98.98 1174.42 80.48 1184.98 80.27"/>
            <polygon class="cls-16" points="1201.65 115.37 1201.76 133.86 1174.73 134.4 1174.68 125.68 1174.62 115.9 1182.35 115.75 1201.65 115.37"/>
            <polygon class="cls-16" points="1202.05 186.2 1202.16 204.7 1185.33 205.03 1175.13 205.24 1175.02 186.74 1185.59 186.52 1202.05 186.2"/>
            <polygon class="cls-16" points="1186.31 151.09 1189.52 151.03 1201.85 150.79 1201.96 169.26 1201.96 169.26 1201.96 169.28 1192.59 169.45 1186.42 169.58 1186.42 169.56 1174.93 169.8 1174.82 151.33 1186.31 151.09 1186.31 151.09"/>
            <polygon class="cls-16" points="1202.25 221.62 1202.36 240.11 1175.33 240.65 1175.28 231.93 1175.23 222.16 1182.95 222 1202.25 221.62"/>
          </g>
        </g>
        <polygon class="cls-2" points="1297.9 .7 1309.58 94.16 1423.8 93.67 1297.9 .7"/>
      </g>
      <g>
        <path class="cls-14" d="m915.57,273.6h460.4v-64.2c0-15.72-12.74-28.46-28.46-28.46h-249.5v-.33l-29.25-42.07c-5.33-7.67-14.08-12.24-23.43-12.24h-101.24c-15.76,0-28.53,12.77-28.53,28.53v118.77Z"/>
        <rect class="cls-12" x="915.6" y="239.32" width="460.07" height="237.81"/>
      </g>
      <g>
        <path d="m1623.8,1162.14h-73.18V490.23c0-36.77-29.9-66.69-66.69-66.69H425.18c-36.79,0-66.7,29.92-66.7,66.69v671.92h-118.24v28.28c0,2.03,12.91,28.11,49.8,28.11h1334.29c36.9,0,48.61-24.01,48.61-26.03v-30.35h-49.13Z"/>
        <path class="cls-33" d="m954.74,445.45c5.15,0,9.34,4.25,9.34,9.47s-4.19,9.47-9.34,9.47-9.35-4.25-9.35-9.47,4.19-9.47,9.35-9.47Z"/>
        <path class="cls-33" d="m1432.5,1192.4c-5.15,0-9.35-4.26-9.35-9.48s4.2-9.48,9.35-9.48,9.32,4.25,9.32,9.48-4.18,9.48-9.32,9.48Z"/>
        <path class="cls-33" d="m1462.32,1192.4c-5.15,0-9.35-4.26-9.35-9.48s4.2-9.48,9.35-9.48,9.33,4.25,9.33,9.48-4.19,9.48-9.33,9.48Z"/>
        <path class="cls-33" d="m1492.1,1192.4c-5.15,0-9.35-4.26-9.35-9.48s4.2-9.48,9.35-9.48,9.34,4.25,9.34,9.48-4.19,9.48-9.34,9.48Z"/>
        <path class="cls-26" d="m1504.29,1100.74c0,.94-.75,1.72-1.69,1.72H410.22c-.94,0-1.71-.78-1.71-1.72V486.23c0-.93.77-1.72,1.71-1.72h1092.38c.94,0,1.69.79,1.69,1.72v614.51Z"/>
        <path class="cls-32" d="m958.56,1100.74c0,.94-.38,1.72-.85,1.72H409.36c-.47,0-.86-.78-.86-1.72V486.23c0-.93.39-1.72.86-1.72h548.34c.47,0,.85.79.85,1.72v614.51Z"/>
        <path class="cls-29" d="m920.97,589.47s.34.07,0,.07h-426.22c-.34,0-.62-.03-.62-.07v-26.32s.28-.07.62-.07h426.22c.34,0,0,.03,0,.07v26.32Z"/>
        <path class="cls-29" d="m920.97,687.96s.34.07,0,.07h-426.22c-.34,0-.62-.03-.62-.07v-26.32s.28-.07.62-.07h426.22c.34,0,0,.03,0,.07v26.32Z"/>
        <path class="cls-29" d="m920.97,835.69s.33.07,0,.07h-426.23c-.33,0-.61-.03-.61-.07v-26.32s.27-.07.61-.07h426.23c.33,0,0,.03,0,.07v26.32Z"/>
        <path class="cls-29" d="m920.97,884.94s.33.07,0,.07h-426.24c-.33,0-.6-.03-.6-.07v-26.32s.27-.07.6-.07h426.24c.33,0,0,.03,0,.07v26.32Z"/>
        <path class="cls-29" d="m723.9,737.2s-.16.07-.36.07h-229.05c-.2,0-.36-.03-.36-.07v-26.32s.16-.07.36-.07h229.05c.2,0,.36.03.36.07v26.32Z"/>
        <path class="cls-29" d="m806.34,540.22s-.21.07-.48.07h-311.24c-.27,0-.49-.03-.49-.07v-26.32s.22-.07.49-.07h311.24c.27,0,.48.03.48.07v26.32Z"/>
        <path class="cls-29" d="m670.37,638.71s-.12.07-.27.07h-175.69c-.15,0-.28-.03-.28-.07v-26.32s.12-.07.28-.07h175.69c.15,0,.27.03.27.07v26.32Z"/>
        <path class="cls-29" d="m576.15,786.45s-.06.07-.13.07h-81.76c-.07,0-.13-.03-.13-.07v-26.32s.06-.07.13-.07h81.76c.07,0,.13.03.13.07v26.32Z"/>
        <path class="cls-29" d="m691.78,934.18s-.14.07-.31.07h-197.03c-.17,0-.31-.03-.31-.07v-26.32s.14-.07.31-.07h197.03c.17,0,.31.03.31.07v26.32Z"/>
        <path class="cls-29" d="m914.48,983.43s-.29.07-.65.07h-419.04c-.36,0-.66-.03-.66-.07v-26.32s.3-.07.66-.07h419.04c.36,0,.65.03.65.07v26.32Z"/>
        <path class="cls-29" d="m799.92,1032.67s-.21.07-.47.07h-304.83c-.26,0-.48-.03-.48-.07v-26.32s.21-.07.48-.07h304.83c.26,0,.47.03.47.07v26.32Z"/>
        <path class="cls-29" d="m695,1081.92s-.14.07-.31.07h-200.23c-.17,0-.31-.03-.31-.07v-26.32s.14-.07.31-.07h200.23c.17,0,.31.03.31.07v26.32Z"/>
        <g>
          <path class="cls-29" d="m462.53,589.47s-.02.07-.05.07h-32.66s-.05-.03-.05-.07v-26.32s.02-.07.05-.07h32.66s.05.03.05.07v26.32Z"/>
          <path class="cls-29" d="m462.53,687.96s-.02.07-.05.07h-32.66s-.05-.03-.05-.07v-26.32s.02-.07.05-.07h32.66s.05.03.05.07v26.32Z"/>
          <path class="cls-29" d="m462.53,835.69s-.02.07-.05.07h-32.66s-.05-.03-.05-.07v-26.32s.02-.07.05-.07h32.66s.05.03.05.07v26.32Z"/>
          <path class="cls-29" d="m462.53,884.94s-.02.07-.05.07h-32.66s-.05-.03-.05-.07v-26.32s.02-.07.05-.07h32.66s.05.03.05.07v26.32Z"/>
          <path class="cls-29" d="m462.53,737.2s-.02.07-.05.07h-32.66s-.05-.03-.05-.07v-26.32s.02-.07.05-.07h32.66s.05.03.05.07v26.32Z"/>
          <path class="cls-29" d="m462.53,540.22s-.02.07-.05.07h-32.66s-.05-.03-.05-.07v-26.32s.02-.07.05-.07h32.66s.05.03.05.07v26.32Z"/>
          <path class="cls-29" d="m462.53,638.71s-.02.07-.05.07h-32.66s-.05-.03-.05-.07v-26.32s.02-.07.05-.07h32.66s.05.03.05.07v26.32Z"/>
          <path class="cls-29" d="m462.53,786.45s-.02.07-.05.07h-32.66s-.05-.03-.05-.07v-26.32s.02-.07.05-.07h32.66s.05.03.05.07v26.32Z"/>
          <path class="cls-29" d="m462.53,934.18s-.02.07-.05.07h-32.66s-.05-.03-.05-.07v-26.32s.02-.07.05-.07h32.66s.05.03.05.07v26.32Z"/>
          <path class="cls-29" d="m462.53,983.43s-.02.07-.05.07h-32.66s-.05-.03-.05-.07v-26.32s.02-.07.05-.07h32.66s.05.03.05.07v26.32Z"/>
          <path class="cls-29" d="m462.53,1032.67s-.02.07-.05.07h-32.66s-.05-.03-.05-.07v-26.32s.02-.07.05-.07h32.66s.05.03.05.07v26.32Z"/>
          <path class="cls-29" d="m462.53,1081.92s-.02.07-.05.07h-32.66s-.05-.03-.05-.07v-26.32s.02-.07.05-.07h32.66s.05.03.05.07v26.32Z"/>
        </g>
        <g>
          <rect class="cls-3" x="1002.99" y="730.27" width="415.18" height="19.71"/>
          <rect class="cls-6" x="1046.11" y="730.27" width="46.31" height="19.71"/>
          <rect class="cls-11" x="1169.3" y="730.27" width="46.31" height="19.71"/>
          <rect class="cls-23" x="1002.99" y="773.6" width="388.08" height="19.71"/>
          <rect class="cls-23" x="1002.99" y="816.93" width="449.21" height="19.71"/>
          <rect class="cls-3" x="1002.99" y="555.18" width="415.18" height="19.71"/>
          <rect class="cls-23" x="1002.99" y="598.51" width="327.86" height="19.71"/>
          <rect class="cls-23" x="1002.99" y="641.84" width="136.61" height="19.71"/>
          <rect class="cls-13" x="1262.49" y="816.93" width="86.74" height="19.71"/>
          <rect class="cls-23" x="1002.99" y="860.26" width="184.31" height="19.71"/>
          <rect class="cls-3" x="1002.99" y="906.91" width="273.23" height="19.71"/>
          <rect class="cls-10" x="1002.99" y="906.91" width="46.31" height="19.71"/>
          <rect class="cls-23" x="1002.99" y="950.25" width="405.91" height="19.71"/>
          <rect class="cls-23" x="1002.99" y="993.58" width="303.79" height="19.71"/>
          <rect class="cls-11" x="1166.61" y="993.58" width="72" height="19.71"/>
        </g>
      </g>
      <g>
        <path class="cls-15" d="m1218.32,1374.71c0-28.2-22.87-51.06-51.06-51.06s-51.05,22.86-51.05,51.06,22.86,51.06,51.05,51.06,51.06-22.87,51.06-51.06Z"/>
        <path class="cls-24" d="m1505.65,1326.25h-192.06c-18.02-38.14-56.7-64.58-101.65-64.58-62.17,0-112.5,50.37-112.5,112.5s50.33,112.5,112.5,112.5c49.86,0,92.08-32.49,106.85-77.42h12.39c1.19,12.71,11.77,22.7,24.83,22.7s23.59-9.98,24.81-22.7h13.27c1.24,12.71,11.79,22.7,24.83,22.7s23.61-9.98,24.84-22.7h13.77c1.22,12.71,11.82,22.7,24.84,22.7s23.72-10.07,24.86-22.86c15.4-.81,27.66-13.45,27.66-29.06v-24.54c0-16.14-13.07-29.23-29.21-29.23Zm-369.75,47.92c0-17.82,14.43-32.26,32.26-32.26s32.27,14.44,32.27,32.26-14.45,32.26-32.27,32.26-32.26-14.44-32.26-32.26Z"/>
        <path class="cls-7" d="m1303.99,1376.18c0-51.08-41.44-92.51-92.53-92.51s-92.53,41.43-92.53,92.51,41.44,92.54,92.53,92.54,92.53-41.43,92.53-92.54Z"/>
        <g>
          <path class="cls-31" d="m1168.16,1406.43c17.82,0,32.27-14.44,32.27-32.26,0-.13-.04-.24-.04-.38h-64.44c0,.13-.04.25-.04.38,0,17.82,14.43,32.26,32.26,32.26Z"/>
          <path class="cls-19" d="m1168.18,1341.47c-17.83,0-32.28,14.44-32.28,32.26,0,.13.04.24.04.37h64.44c0-.13.04-.24.04-.37,0-17.82-14.43-32.26-32.25-32.26Z"/>
        </g>
        <path class="cls-7" d="m1514.5,1368.83c0,12.89-6.47,23.34-14.45,23.34h-226.94c-7.99,0-14.45-10.45-14.45-23.34h0c0-12.89,6.46-23.34,14.45-23.34h226.94c7.99,0,14.45,10.45,14.45,23.34h0Z"/>
        <path class="cls-24" d="m1200.42,1374.17c0,17.82-14.45,32.26-32.27,32.26s-32.26-14.44-32.26-32.26c0-.13.04-.24.04-.38h-36.48c0,.13-.03.25-.03.38,0,62.12,50.33,112.5,112.5,112.5,49.86,0,92.08-32.49,106.85-77.42h12.39c1.19,12.71,11.77,22.7,24.83,22.7s23.59-9.98,24.81-22.7h13.27c1.24,12.71,11.79,22.7,24.83,22.7s23.61-9.98,24.84-22.7h13.77c1.22,12.71,11.82,22.7,24.84,22.7s23.72-10.07,24.86-22.86c15.4-.81,27.66-13.45,27.66-29.06v-6.23h-334.48c0,.13.04.25.04.38Z"/>
      </g>
      <g>
        <rect class="cls-18" x="1633.51" y="353.07" width="84.87" height="487.5"/>
        <rect class="cls-36" x="1673.87" y="353.07" width="44.51" height="487.5"/>
        <path class="cls-21" d="m1718.38,177.26v89.61l-41.98,31.04-42.89-31.04v-89.61c-35.23,16.13-59.76,51.6-59.76,92.88,0,56.44,45.75,102.19,102.19,102.19s102.19-45.75,102.19-102.19c0-41.28-24.53-76.76-59.76-92.88Z"/>
        <path class="cls-21" d="m1676.71,811.01c-46.36,0-83.94,37.58-83.94,83.94s37.58,83.93,83.94,83.93,83.94-37.58,83.94-83.93-37.58-83.94-83.94-83.94Zm29.16,134.44h-58.32l-29.16-50.5,29.16-50.5h58.32l29.16,50.5-29.16,50.5Z"/>
      </g>
      <g>
        <rect class="cls-1" x="849.29" y="1149.47" width="82.26" height="134.14"/>
        <rect class="cls-4" x="851.66" y="570.59" width="77.53" height="99.52"/>
        <rect class="cls-28" x="874.42" y="732.1" width="32" height="420.99"/>
        <path class="cls-11" d="m958.32,1586.39c0,13.75-7.34,26.58-19.43,33.15-12.22,6.64-29.48,12.95-50.66,12.5-18.87-.41-34.32-6.04-45.63-12.1-12.36-6.62-20.07-19.49-20.07-33.51v-292.72c0-25.82,18.05-48.28,43.36-53.41,7.74-1.57,16.28-2.53,25.53-2.46,8.67.07,16.7,1.04,24,2.55,25.11,5.18,42.9,27.66,42.9,53.3v292.7Z"/>
        <path class="cls-13" d="m903.28,1567.04c0,8.44-1.41,9.79-3.74,13.82-2.35,4.08-5.68,4.69-9.75,4.41-3.63-.25-6.61-.45-8.79-4.16-2.38-4.06-3.87-5.44-3.87-14.04v-238.38c0-15.85,3.48-19.84,8.35-22.99,1.49-.96,3.14-1.55,4.92-1.51,1.67.04,3.22.64,4.62,1.56,4.84,3.18,8.26,7.19,8.26,22.92v238.36Z"/>
        <path class="cls-13" d="m957.66,1553.99c0,8.44-1.41,9.79-3.74,13.82-2.35,4.08-5.68,4.69-9.75,4.41-3.63-.25-6.61-.45-8.79-4.16-2.38-4.06-3.87-5.44-3.87-14.04v-218.8c0-15.85,3.48-19.84,8.35-22.99,1.49-.96,3.14-1.55,4.92-1.51,1.67.04,3.21.64,4.62,1.56,4.84,3.18,8.26,7.19,8.26,22.92v218.79Z"/>
        <path class="cls-13" d="m848.91,1553.99c0,8.44-1.41,9.79-3.74,13.82-2.35,4.08-5.68,4.69-9.75,4.41-3.63-.25-6.61-.45-8.79-4.16-2.38-4.06-3.87-5.44-3.87-14.04v-218.8c0-15.85,3.48-19.84,8.35-22.99,1.49-.96,3.14-1.55,4.92-1.51,1.67.04,3.21.64,4.62,1.56,4.84,3.18,8.26,7.19,8.26,22.92v218.79Z"/>
        <polygon class="cls-28" points="906.35 741.89 874.5 741.89 851.66 699.48 929.19 699.48 906.35 741.89"/>
        <rect class="cls-28" x="851.66" y="603.22" width="77.53" height="99.52"/>
        <path class="cls-4" d="m958.32,1137.13c0,21.22-14.6,39.72-35.29,44.44-10.44,2.38-22.76,3.98-36.59,3.61-10.55-.28-20.07-1.65-28.41-3.53-20.78-4.69-35.5-23.19-35.5-44.49v-19.54h135.79v19.51Z"/>
      </g>
      <g>
        <path class="cls-23" d="m304.31,250.95l18.92,5.18c7.34,2.01,15.21-.77,19.49-7.05,2.68-3.93,5.58-7.68,8.7-11.21,5.04-5.72,5.8-14.04,2.02-20.67l-9.72-17.04c-3.43-6.02-1.31-13.75,4.7-17.18l22.16-12.63c6.02-3.43,13.75-1.31,17.18,4.7l9.72,17.04c3.78,6.62,11.33,10.21,18.82,8.78,4.63-.88,9.33-1.48,14.08-1.78,7.59-.48,13.99-5.85,16-13.18l5.18-18.92c1.83-6.68,8.79-10.65,15.47-8.82l24.6,6.73c6.68,1.83,10.65,8.79,8.82,15.47l-5.18,18.92c-2.01,7.34.77,15.21,7.05,19.49,3.93,2.68,7.68,5.59,11.21,8.7,5.72,5.04,14.04,5.8,20.67,2.02l17.04-9.72c6.02-3.43,13.74-1.31,17.18,4.7l12.63,22.16c3.43,6.02,1.31,13.75-4.7,17.18l-17.04,9.72c-6.62,3.78-10.21,11.33-8.78,18.82.88,4.63,1.48,9.33,1.78,14.08.48,7.59,5.85,13.99,13.18,16l18.92,5.18c6.68,1.83,10.65,8.79,8.82,15.47l-6.73,24.6c-1.83,6.68-8.79,10.65-15.47,8.82l-18.92-5.18c-7.34-2.01-15.21.77-19.49,7.05-2.68,3.93-5.59,7.68-8.7,11.21-5.04,5.72-5.8,14.04-2.02,20.67l9.72,17.04c3.43,6.02,1.31,13.74-4.7,17.17l-22.16,12.63c-6.02,3.43-13.74,1.31-17.17-4.7l-9.72-17.04c-3.78-6.62-11.33-10.21-18.82-8.78-4.63.88-9.33,1.48-14.08,1.78-7.59.48-13.99,5.85-16,13.18l-5.18,18.92c-1.83,6.68-8.79,10.65-15.47,8.82l-24.6-6.73c-6.68-1.83-10.65-8.79-8.82-15.47l5.18-18.92c2.01-7.34-.77-15.21-7.05-19.49-3.93-2.68-7.67-5.59-11.21-8.7-5.72-5.04-14.04-5.8-20.67-2.02l-17.04,9.72c-6.02,3.43-13.74,1.31-17.18-4.7l-12.63-22.16c-3.43-6.02-1.31-13.75,4.7-17.18l17.04-9.72c6.62-3.78,10.21-11.33,8.78-18.82-.88-4.63-1.48-9.33-1.78-14.08-.48-7.59-5.85-13.99-13.18-16l-18.92-5.18c-6.68-1.83-10.65-8.79-8.82-15.47l6.73-24.6c1.83-6.68,8.79-10.65,15.47-8.82Z"/>
        <path class="cls-31" d="m123.6,451.1l15.54,3.87c6.03,1.5,12.4-.91,15.78-6.12,2.11-3.26,4.42-6.37,6.89-9.31,4.01-4.76,4.47-11.57,1.27-16.91l-8.25-13.73c-2.91-4.85-1.33-11.2,3.52-14.11l17.85-10.73c4.85-2.91,11.2-1.33,14.11,3.52l8.25,13.73c3.21,5.34,9.44,8.12,15.52,6.82,3.76-.8,7.59-1.38,11.46-1.71,6.19-.53,11.31-5.03,12.81-11.06l3.87-15.54c1.37-5.49,6.98-8.86,12.46-7.49l20.21,5.04c5.49,1.37,8.86,6.98,7.49,12.46l-3.87,15.54c-1.5,6.03.91,12.4,6.12,15.78,3.26,2.11,6.37,4.42,9.31,6.89,4.76,4.01,11.57,4.47,16.91,1.27l13.73-8.25c4.85-2.91,11.2-1.33,14.11,3.52l10.73,17.85c2.91,4.85,1.33,11.2-3.52,14.11l-13.73,8.25c-5.34,3.21-8.12,9.44-6.82,15.52.8,3.76,1.38,7.59,1.71,11.46.53,6.19,5.03,11.31,11.06,12.81l15.54,3.87c5.49,1.37,8.86,6.98,7.49,12.46l-5.04,20.21c-1.37,5.49-6.98,8.86-12.46,7.49l-15.54-3.87c-6.03-1.5-12.4.91-15.78,6.12-2.11,3.26-4.42,6.37-6.89,9.31-4.01,4.76-4.47,11.57-1.27,16.91l8.25,13.73c2.91,4.85,1.33,11.2-3.52,14.11l-17.85,10.73c-4.85,2.91-11.2,1.33-14.11-3.52l-8.25-13.73c-3.21-5.34-9.44-8.12-15.52-6.82-3.76.8-7.59,1.38-11.46,1.71-6.19.53-11.31,5.03-12.81,11.06l-3.87,15.54c-1.37,5.49-6.98,8.86-12.46,7.49l-20.21-5.04c-5.49-1.37-8.86-6.98-7.49-12.46l3.87-15.54c1.5-6.03-.91-12.4-6.12-15.78-3.26-2.11-6.37-4.42-9.31-6.89-4.76-4.01-11.57-4.47-16.91-1.27l-13.73,8.25c-4.85,2.91-11.2,1.33-14.11-3.52l-10.73-17.85c-2.91-4.85-1.33-11.2,3.52-14.11l13.73-8.25c5.34-3.21,8.12-9.44,6.82-15.52-.8-3.76-1.38-7.59-1.71-11.46-.53-6.19-5.03-11.31-11.06-12.81l-15.54-3.87c-5.49-1.37-8.86-6.98-7.49-12.46l5.04-20.21c1.37-5.49,6.98-8.86,12.46-7.49Z"/>
        <path class="cls-25" d="m437.65,196.95c-2.2,1.21-4.66,1.99-7.29,2.16-4.75.3-9.45.9-14.08,1.78-7.49,1.42-15.04-2.16-18.82-8.78l-9.72-17.04c-3.43-6.02-11.16-8.13-17.18-4.7l-22.16,12.63c-6.02,3.43-8.13,11.16-4.7,17.18l9.72,17.04c3.78,6.62,3.01,14.95-2.02,20.67-3.11,3.53-6.02,7.27-8.7,11.21-4.28,6.29-12.16,9.06-19.49,7.05l-18.92-5.18c-6.68-1.83-13.64,2.14-15.47,8.82l-6.73,24.6c-1.83,6.68,2.14,13.64,8.82,15.47l18.92,5.18c7.34,2.01,12.7,8.41,13.18,16,.3,4.75.9,9.45,1.78,14.08,1.42,7.49-2.16,15.04-8.78,18.82l-17.04,9.72c-6.02,3.43-8.13,11.16-4.7,17.18l12.63,22.16c3.43,6.02,11.16,8.13,17.17,4.7l17.04-9.72c6.62-3.78,14.95-3.01,20.67,2.03,3.53,3.11,7.27,6.02,11.21,8.7,6.29,4.28,9.06,12.16,7.05,19.49l-5.18,18.92c-1.83,6.68,2.14,13.64,8.82,15.47l24.6,6.73c6.68,1.83,13.64-2.14,15.47-8.82l5.18-18.92c1.31-4.8,4.53-8.73,8.71-11.02v-233.57Z"/>
        <path class="cls-8" d="m355.49,291.24c-12.42,45.38,14.29,92.24,59.67,104.66,45.38,12.42,92.24-14.29,104.66-59.67,12.42-45.38-14.29-92.24-59.67-104.66-45.38-12.42-92.24,14.29-104.66,59.67Z"/>
        <path class="cls-24" d="m399.44,303.27c-5.78,21.1,6.65,42.9,27.75,48.67,21.1,5.78,42.9-6.65,48.67-27.75,5.78-21.1-6.65-42.9-27.75-48.67-21.1-5.78-42.9,6.65-48.67,27.75Z"/>
        <path class="cls-8" d="m423.57,309.88c-2.13,7.77,2.45,15.8,10.22,17.93,7.77,2.13,15.8-2.45,17.93-10.22,2.13-7.77-2.45-15.8-10.22-17.93-7.77-2.13-15.8,2.45-17.93,10.22Z"/>
        <path class="cls-35" d="m353.65,508.45l-15.54-3.87c-6.03-1.5-10.52-6.62-11.06-12.81-.33-3.87-.91-7.7-1.71-11.46-1.3-6.09,1.48-12.32,6.82-15.52l13.73-8.25c4.85-2.91,6.43-9.26,3.52-14.11l-10.73-17.85c-2.91-4.85-9.26-6.43-14.11-3.52l-13.73,8.25c-5.34,3.21-12.14,2.74-16.91-1.27-2.94-2.48-6.05-4.78-9.31-6.89-5.21-3.38-7.62-9.75-6.12-15.78l3.87-15.54c1.37-5.49-2-11.1-7.49-12.46l-20.21-5.04c-5.49-1.37-11.1,2-12.46,7.49l-3.87,15.54c-.76,3.04-2.45,5.69-4.72,7.64v193.7c2.23-1.91,5.03-3.15,8.09-3.42,3.87-.33,7.7-.91,11.46-1.71,6.09-1.3,12.32,1.48,15.52,6.82l8.25,13.73c2.91,4.85,9.26,6.43,14.11,3.52l17.85-10.73c4.85-2.91,6.43-9.26,3.52-14.11l-8.25-13.73c-3.21-5.34-2.74-12.14,1.27-16.91,2.48-2.94,4.78-6.05,6.89-9.31,3.38-5.21,9.75-7.62,15.78-6.12l15.54,3.87c5.49,1.37,11.1-2,12.46-7.49l5.04-20.21c1.37-5.49-2-11.1-7.49-12.46Z"/>
        <path class="cls-8" d="m173.26,484.81c-8.31,33.34,11.98,67.1,45.31,75.41,33.34,8.31,67.1-11.98,75.41-45.31,8.31-33.34-11.98-67.1-45.31-75.41-33.34-8.31-67.1,11.98-75.41,45.31Z"/>
        <path class="cls-35" d="m207.81,493.42c-3.55,14.26,5.12,28.69,19.38,32.25,14.26,3.55,28.7-5.12,32.25-19.38,3.55-14.26-5.12-28.69-19.38-32.25-14.26-3.55-28.69,5.12-32.25,19.38Z"/>
      </g>
      <g>
        <path class="cls-30" d="m752.24,1552.25v-500.88c0-24.81-4.75-29.57-29.6-29.57H218.93c-24.83,0-29.62,4.76-29.62,29.57v500.88h562.93Z"/>
        <rect class="cls-20" x="231.36" y="1170.37" width="104.47" height="87.07"/>
        <g>
          <rect class="cls-9" x="382.81" y="1171.7" width="177.16" height="14.33"/>
          <rect class="cls-23" x="382.81" y="1171.7" width="57.91" height="14.33"/>
          <rect class="cls-18" x="382.81" y="1219.84" width="335" height="14.33"/>
          <rect class="cls-11" x="556.7" y="1219.84" width="110.39" height="14.33"/>
          <rect class="cls-18" x="382.81" y="1243.91" width="143.35" height="14.33"/>
          <rect class="cls-34" x="382.81" y="1195.77" width="264.35" height="14.33"/>
        </g>
        <g>
          <rect class="cls-9" x="382.81" y="1287.63" width="300.58" height="14.33"/>
          <rect class="cls-23" x="382.81" y="1287.63" width="115.82" height="14.33"/>
          <rect class="cls-34" x="382.81" y="1335.77" width="184.65" height="14.33"/>
          <rect class="cls-18" x="382.81" y="1359.83" width="235.37" height="14.33"/>
          <rect class="cls-18" x="382.81" y="1311.7" width="264.35" height="14.33"/>
          <rect class="cls-27" x="588.95" y="1312.24" width="58.21" height="13.81"/>
        </g>
        <g>
          <rect class="cls-9" x="382.81" y="1403.56" width="259.28" height="14.33"/>
          <rect class="cls-23" x="382.81" y="1403.56" width="25.98" height="14.33"/>
          <rect class="cls-18" x="382.81" y="1451.69" width="264.35" height="14.33"/>
          <rect class="cls-18" x="385.7" y="1475.76" width="170.16" height="14.33"/>
          <rect class="cls-13" x="498.63" y="1478.93" width="57.23" height="11.16"/>
          <rect class="cls-34" x="382.81" y="1427.63" width="288.26" height="14.33"/>
        </g>
        <rect class="cls-20" x="231.36" y="1286.29" width="104.47" height="87.07"/>
        <rect class="cls-20" x="231.36" y="1402.22" width="104.47" height="87.07"/>
        <polygon class="cls-17" points="335.82 1257.44 231.36 1257.44 335.82 1170.37 335.82 1257.44"/>
        <polygon class="cls-17" points="335.82 1373.36 231.36 1373.36 335.82 1286.29 335.82 1373.36"/>
        <polygon class="cls-17" points="335.82 1489.29 231.36 1489.29 335.82 1402.22 335.82 1489.29"/>
        <path class="cls-9" d="m737.52,1059.83c0,11.82-9.58,21.4-21.4,21.4s-21.4-9.58-21.4-21.4,9.58-21.4,21.4-21.4,21.4,9.58,21.4,21.4Z"/>
        <path class="cls-5" d="m752.24,1095.67v-49.31c0-20.61-3.95-24.56-24.59-24.56H213.92c-20.62,0-24.6,3.95-24.6,24.56v49.31h562.93Zm-65.07-35.73c0,8.12-6.59,14.71-14.72,14.71s-14.71-6.59-14.71-14.71,6.56-14.71,14.71-14.71,14.72,6.59,14.72,14.71Zm28.6-14.71c8.11,0,14.73,6.59,14.73,14.71s-6.62,14.71-14.73,14.71-14.7-6.59-14.7-14.71,6.59-14.71,14.7-14.71Zm-503.79.85h128.52v28.49h-128.52v-28.49Z"/>
      </g>
      <line class="cls-37" x1="1331.21" y1="1286.29" x2="1407.65" y2="1286.29"/>
      <g>
        <line class="cls-37" x1="1074.29" y1="1514.79" x2="1150.73" y2="1514.79"/>
        <line class="cls-37" x1="1112.51" y1="1476.57" x2="1112.51" y2="1553"/>
      </g>
      <path class="cls-38" d="m884.75,292.79c0,19.59-14.81,35.47-33.09,35.47s-33.09-15.88-33.09-35.47,14.81-35.47,33.09-35.47,33.09,15.88,33.09,35.47Z"/>
    </g>
  </g>
</svg>