<?xml version="1.0" encoding="UTF-8"?>
<svg id="Capa_2" data-name="Capa 2" xmlns="http://www.w3.org/2000/svg" xmlns:xlink="http://www.w3.org/1999/xlink" viewBox="0 0 1596.33 1323.61">
  <defs>
    <style>
      .cls-1 {
        fill: url(#linear-gradient);
      }

      .cls-2 {
        fill: #e6e7e8;
      }

      .cls-3 {
        fill: #fff;
      }

      .cls-4 {
        fill: #b7e4f8;
      }

      .cls-5 {
        fill: #bcbec0;
      }

      .cls-6 {
        fill: #a7a9ac;
      }

      .cls-7 {
        fill: #d1d3d4;
      }

      .cls-8 {
        fill: url(#linear-gradient-8);
      }

      .cls-9 {
        fill: url(#linear-gradient-9);
      }

      .cls-10 {
        fill: url(#linear-gradient-3);
      }

      .cls-11 {
        fill: url(#linear-gradient-4);
      }

      .cls-12 {
        fill: url(#linear-gradient-2);
      }

      .cls-13 {
        fill: url(#linear-gradient-6);
      }

      .cls-14 {
        fill: url(#linear-gradient-7);
      }

      .cls-15 {
        fill: url(#linear-gradient-5);
      }

      .cls-16 {
        fill: url(#linear-gradient-55);
      }

      .cls-17 {
        fill: url(#linear-gradient-53);
      }

      .cls-18 {
        fill: url(#linear-gradient-54);
      }

      .cls-19 {
        fill: url(#linear-gradient-51);
      }

      .cls-20 {
        fill: url(#linear-gradient-52);
      }

      .cls-21 {
        fill: url(#linear-gradient-50);
      }

      .cls-22 {
        fill: url(#linear-gradient-41);
      }

      .cls-23 {
        fill: url(#linear-gradient-40);
      }

      .cls-24 {
        fill: url(#linear-gradient-43);
      }

      .cls-25 {
        fill: url(#linear-gradient-42);
      }

      .cls-26 {
        fill: url(#linear-gradient-45);
      }

      .cls-27 {
        fill: url(#linear-gradient-46);
      }

      .cls-28 {
        fill: url(#linear-gradient-44);
      }

      .cls-29 {
        fill: url(#linear-gradient-49);
      }

      .cls-30 {
        fill: url(#linear-gradient-47);
      }

      .cls-31 {
        fill: url(#linear-gradient-48);
      }

      .cls-32 {
        fill: url(#linear-gradient-14);
      }

      .cls-33 {
        fill: url(#linear-gradient-18);
      }

      .cls-34 {
        fill: url(#linear-gradient-22);
      }

      .cls-35 {
        fill: url(#linear-gradient-20);
      }

      .cls-36 {
        fill: url(#linear-gradient-21);
      }

      .cls-37 {
        fill: url(#linear-gradient-23);
      }

      .cls-38 {
        fill: url(#linear-gradient-15);
      }

      .cls-39 {
        fill: url(#linear-gradient-19);
      }

      .cls-40 {
        fill: url(#linear-gradient-16);
      }

      .cls-41 {
        fill: url(#linear-gradient-17);
      }

      .cls-42 {
        fill: url(#linear-gradient-13);
      }

      .cls-43 {
        fill: url(#linear-gradient-12);
      }

      .cls-44 {
        fill: url(#linear-gradient-10);
      }

      .cls-45 {
        fill: url(#linear-gradient-11);
      }

      .cls-46 {
        fill: url(#linear-gradient-27);
      }

      .cls-47 {
        fill: url(#linear-gradient-24);
      }

      .cls-48 {
        fill: url(#linear-gradient-26);
      }

      .cls-49 {
        fill: url(#linear-gradient-38);
      }

      .cls-50 {
        fill: url(#linear-gradient-35);
      }

      .cls-51 {
        fill: url(#linear-gradient-37);
      }

      .cls-52 {
        fill: url(#linear-gradient-34);
      }

      .cls-53 {
        fill: url(#linear-gradient-39);
      }

      .cls-54 {
        fill: url(#linear-gradient-36);
      }

      .cls-55 {
        fill: url(#linear-gradient-25);
      }

      .cls-56 {
        fill: url(#linear-gradient-28);
      }

      .cls-57 {
        fill: url(#linear-gradient-29);
      }

      .cls-58 {
        fill: url(#linear-gradient-33);
      }

      .cls-59 {
        fill: url(#linear-gradient-30);
      }

      .cls-60 {
        fill: url(#linear-gradient-32);
      }

      .cls-61 {
        fill: url(#linear-gradient-31);
      }
    </style>
    <linearGradient id="linear-gradient" x1="109.32" y1="670.45" x2="1500.73" y2="670.45" gradientUnits="userSpaceOnUse">
      <stop offset="0" stop-color="#482d9d"/>
      <stop offset=".21" stop-color="#3e50b3"/>
      <stop offset=".75" stop-color="#26a6e9"/>
      <stop offset="1" stop-color="#1dc9ff"/>
    </linearGradient>
    <linearGradient id="linear-gradient-2" x1="641.74" y1="1577.9" x2="1226.36" y2="297.88" xlink:href="#linear-gradient"/>
    <linearGradient id="linear-gradient-3" x1="806.9" y1="1612.51" x2="1391.49" y2="332.57" gradientTransform="translate(11.09 43.87)" xlink:href="#linear-gradient"/>
    <linearGradient id="linear-gradient-4" x1="1140.82" y1="481.8" x2="1499.67" y2="481.8" xlink:href="#linear-gradient"/>
    <linearGradient id="linear-gradient-5" x1="142.33" y1="1127.64" x2="393.98" y2="1127.64" xlink:href="#linear-gradient"/>
    <linearGradient id="linear-gradient-6" x1="606.57" y1="89.98" x2="790.77" y2="89.98" xlink:href="#linear-gradient"/>
    <linearGradient id="linear-gradient-7" x1="751.51" y1="187.08" x2="1140.82" y2="187.08" xlink:href="#linear-gradient"/>
    <linearGradient id="linear-gradient-8" x1="1027.91" y1="192.11" x2="1176.94" y2="192.11" xlink:href="#linear-gradient"/>
    <linearGradient id="linear-gradient-9" x1="319.78" y1="146.31" x2="751.51" y2="146.31" xlink:href="#linear-gradient"/>
    <linearGradient id="linear-gradient-10" x1="1270.68" y1="1058.12" x2="1354.48" y2="1058.12" xlink:href="#linear-gradient"/>
    <linearGradient id="linear-gradient-11" x1="204.21" y1="1232.39" x2="430.39" y2="1232.39" xlink:href="#linear-gradient"/>
    <linearGradient id="linear-gradient-12" x1="905.08" y1="1077.87" x2="1301.86" y2="1077.87" xlink:href="#linear-gradient"/>
    <linearGradient id="linear-gradient-13" x1="1301.86" y1="952.14" x2="1474.28" y2="952.14" xlink:href="#linear-gradient"/>
    <linearGradient id="linear-gradient-14" x1="393.98" y1="1225.03" x2="725.54" y2="1225.03" xlink:href="#linear-gradient"/>
    <linearGradient id="linear-gradient-15" x1="1294.08" y1="1179.78" x2="1214.01" y2="1179.78" gradientTransform="translate(957.51 -1350.84) rotate(29.58)" gradientUnits="userSpaceOnUse">
      <stop offset="0" stop-color="#f1f2f2"/>
      <stop offset="1" stop-color="#fff"/>
    </linearGradient>
    <linearGradient id="linear-gradient-16" x1="1175.39" y1="1180.14" x2="1417.77" y2="1180.14" gradientTransform="translate(957.51 -1350.84) rotate(29.58)" gradientUnits="userSpaceOnUse">
      <stop offset="0" stop-color="#ffde39"/>
      <stop offset=".09" stop-color="#fec63c"/>
      <stop offset=".29" stop-color="#fe9843"/>
      <stop offset=".42" stop-color="#fe7d4b"/>
      <stop offset=".65" stop-color="#fe4f59"/>
      <stop offset="1" stop-color="#ed327f"/>
    </linearGradient>
    <linearGradient id="linear-gradient-17" x1="1085.88" y1="1180.14" x2="1326.54" y2="1180.14" xlink:href="#linear-gradient-16"/>
    <linearGradient id="linear-gradient-18" x1="933.03" y1="1179.77" x2="1026.02" y2="1179.77" gradientTransform="translate(957.51 -1350.84) rotate(29.58)" gradientUnits="userSpaceOnUse">
      <stop offset="0" stop-color="#fc9e18"/>
      <stop offset=".31" stop-color="#fcaf18"/>
      <stop offset="1" stop-color="#fcd118"/>
    </linearGradient>
    <linearGradient id="linear-gradient-19" x1="1003.12" y1="1179.78" x2="1269.08" y2="1179.78" gradientTransform="translate(2545.75 -901.82) rotate(90)" xlink:href="#linear-gradient-18"/>
    <linearGradient id="linear-gradient-20" x1="1139.32" y1="1057.18" x2="1139.32" y2="1132.33" gradientTransform="translate(957.51 -1350.84) rotate(29.58)" gradientUnits="userSpaceOnUse">
      <stop offset="0" stop-color="#a7a9ac"/>
      <stop offset="1" stop-color="#808285"/>
    </linearGradient>
    <linearGradient id="linear-gradient-21" x1="1162.77" y1="1057.17" x2="1162.77" y2="1132.32" xlink:href="#linear-gradient-20"/>
    <linearGradient id="linear-gradient-22" x1="1090.93" y1="1057.17" x2="1090.93" y2="1132.3" xlink:href="#linear-gradient-20"/>
    <linearGradient id="linear-gradient-23" x1="1195.07" y1="1057.18" x2="1195.07" y2="1132.3" xlink:href="#linear-gradient-20"/>
    <linearGradient id="linear-gradient-24" x1="1137.3" y1="1057.16" x2="1137.3" y2="1132.31" xlink:href="#linear-gradient-20"/>
    <linearGradient id="linear-gradient-25" x1="1081.01" y1="1057.17" x2="1081.01" y2="1132.29" xlink:href="#linear-gradient-20"/>
    <linearGradient id="linear-gradient-26" x1="839.4" y1="1136.48" x2="841.33" y2="889.66" gradientUnits="userSpaceOnUse">
      <stop offset="0" stop-color="#d1d3d4"/>
      <stop offset="1" stop-color="#9d9e9f"/>
    </linearGradient>
    <linearGradient id="linear-gradient-27" x1="514.04" y1="954" x2="775.07" y2="954" gradientUnits="userSpaceOnUse">
      <stop offset="0" stop-color="#9d9e9f"/>
      <stop offset="1" stop-color="#d1d3d4"/>
    </linearGradient>
    <linearGradient id="linear-gradient-28" x1="840" y1="1119.68" x2="840" y2="1175.48" xlink:href="#linear-gradient-26"/>
    <linearGradient id="linear-gradient-29" x1="840" y1="1135.18" x2="840" y2="1230.31" xlink:href="#linear-gradient-26"/>
    <linearGradient id="linear-gradient-30" x1="623.94" y1="812.92" x2="1142.91" y2="805.42" gradientUnits="userSpaceOnUse">
      <stop offset="0" stop-color="#42e397"/>
      <stop offset="1" stop-color="#3cb6b5"/>
    </linearGradient>
    <linearGradient id="linear-gradient-31" x1="623.99" y1="816.68" x2="1142.96" y2="809.18" xlink:href="#linear-gradient-30"/>
    <linearGradient id="linear-gradient-32" x1="624.04" y1="820.44" x2="1143.02" y2="812.95" xlink:href="#linear-gradient-30"/>
    <linearGradient id="linear-gradient-33" x1="840" y1="879.95" x2="840" y2="1063.28" xlink:href="#linear-gradient-30"/>
    <linearGradient id="linear-gradient-34" x1="1257.24" y1="370.12" x2="862.91" y2="370.12" xlink:href="#linear-gradient-30"/>
    <linearGradient id="linear-gradient-35" x1="1257.24" y1="370.12" x2="862.91" y2="370.12" xlink:href="#linear-gradient-30"/>
    <linearGradient id="linear-gradient-36" x1="1257.24" y1="370.12" x2="862.91" y2="370.12" xlink:href="#linear-gradient-30"/>
    <linearGradient id="linear-gradient-37" x1="427.74" y1="-222.53" x2="427.74" y2="164.59" gradientTransform="translate(-65.06 553.18) rotate(-11)" xlink:href="#linear-gradient-30"/>
    <linearGradient id="linear-gradient-38" x1="427.48" y1="97.23" x2="427.48" y2="189.73" gradientTransform="translate(-65.06 553.18) rotate(-11)" xlink:href="#linear-gradient-30"/>
    <linearGradient id="linear-gradient-39" x1="569.43" y1="-168.75" x2="414.1" y2="-168.75" gradientTransform="translate(-56.23 614.73) rotate(-11)" gradientUnits="userSpaceOnUse">
      <stop offset="0" stop-color="#fff"/>
      <stop offset="1" stop-color="#f1f2f2"/>
    </linearGradient>
    <linearGradient id="linear-gradient-40" x1="136.64" y1="-314.86" x2="325.76" y2="-314.86" gradientTransform="translate(-56.23 614.73) rotate(-11)" xlink:href="#linear-gradient-30"/>
    <linearGradient id="linear-gradient-41" x1="293.84" y1="35.61" x2="293.84" y2="-252.72" gradientTransform="translate(-80.12 560.44)" gradientUnits="userSpaceOnUse">
      <stop offset="0" stop-color="#bbb"/>
      <stop offset=".05" stop-color="#ccc"/>
      <stop offset=".11" stop-color="#dcdddd"/>
      <stop offset=".19" stop-color="#e8e9e9"/>
      <stop offset=".3" stop-color="#eff0f0"/>
      <stop offset=".6" stop-color="#f1f2f2"/>
      <stop offset="1" stop-color="#fff"/>
    </linearGradient>
    <linearGradient id="linear-gradient-42" x1="408.24" y1="-67.31" x2="237.2" y2="-67.31" gradientTransform="translate(-73.18 573.35)" xlink:href="#linear-gradient-16"/>
    <linearGradient id="linear-gradient-43" x1="408.23" y1="-55.53" x2="237.2" y2="-55.53" gradientTransform="translate(-71.79 564.16)" xlink:href="#linear-gradient-16"/>
    <linearGradient id="linear-gradient-44" x1="408.24" y1="-79.79" x2="237.2" y2="-79.79" gradientTransform="translate(-77.29 555.64)" xlink:href="#linear-gradient-16"/>
    <linearGradient id="linear-gradient-45" x1="408.23" y1="-90.99" x2="237.2" y2="-90.99" gradientTransform="translate(-80.29 546.88)" xlink:href="#linear-gradient-16"/>
    <linearGradient id="linear-gradient-46" x1="408.23" y1="-30.92" x2="237.2" y2="-30.92" gradientTransform="translate(-67.53 559.27)" xlink:href="#linear-gradient-16"/>
    <linearGradient id="linear-gradient-47" x1="621.76" y1="-178.68" x2="667.35" y2="-228.17" gradientTransform="translate(-56.23 614.73) rotate(-11)" xlink:href="#linear-gradient-16"/>
    <linearGradient id="linear-gradient-48" x1="617.75" y1="-155.22" x2="666.1" y2="-76.1" gradientTransform="translate(-56.23 614.73) rotate(-11)" xlink:href="#linear-gradient-16"/>
    <linearGradient id="linear-gradient-49" x1="523.49" y1="-199.79" x2="624.1" y2="-152.9" gradientTransform="translate(-56.23 614.73) rotate(-11)" xlink:href="#linear-gradient-16"/>
    <linearGradient id="linear-gradient-50" x1="484.24" y1="-220.16" x2="484.24" y2="-110.06" gradientTransform="translate(-103.22 526)" xlink:href="#linear-gradient-16"/>
    <linearGradient id="linear-gradient-51" x1="484.24" y1="-220.16" x2="484.24" y2="-110.06" gradientTransform="translate(-95.84 525.29)" xlink:href="#linear-gradient-16"/>
    <linearGradient id="linear-gradient-52" x1="484.24" y1="-220.16" x2="484.24" y2="-110.06" gradientTransform="translate(-88.46 524.58)" xlink:href="#linear-gradient-16"/>
    <linearGradient id="linear-gradient-53" x1="544.33" y1="-17.69" x2="544.33" y2="93.14" gradientTransform="translate(-56.23 614.73) rotate(-11)" xlink:href="#linear-gradient-16"/>
    <linearGradient id="linear-gradient-54" x1="588.63" y1="-260.21" x2="588.63" y2="-486.23" gradientTransform="translate(-56.23 614.73) rotate(-11)" xlink:href="#linear-gradient-16"/>
    <linearGradient id="linear-gradient-55" x1="621.28" y1="-260.21" x2="621.28" y2="-486.23" gradientTransform="translate(-56.23 614.73) rotate(-11)" xlink:href="#linear-gradient-16"/>
  </defs>
  <g id="WEBSITE">
    <g>
      <path class="cls-1" d="m147.63,730.89c-2.09-14.19-4.7-28.55-7.94-43.13-14-63.15-30.41-126.53-30.37-191.22.16-265.27,330.46-380.72,544.36-423.49,71.7-14.34,144.91-21.18,218.02-20.09,65.25.97,153.68-3.89,203.96,45.26,28.68,28.04,38.43,69.51,49.36,108.11,16.93,59.78,46.88,96.51,101.37,125.99,59.55,32.21,129.97,48.08,180.28,95.69,87.02,82.36,103.99,229.71,89.39,342.8-11.55,89.52-49.23,176.47-111.48,241.83-85.99,90.3-214.27,132.77-337.44,121.14-49.82-4.71-98.07-26.49-148.67-19.58-92.59,12.65-172.25,90.54-258.3,124.85-87.39,34.85-192.43,56.62-286.49,46.5-76.87-8.27-154.89-47.16-189.5-116.29-34.15-68.22-19.73-146.62-13.22-219.21,6.46-71.98,7.18-147.58-3.35-219.15Z"/>
      <circle class="cls-12" cx="1273.34" cy="195.01" r="109.21"/>
      <ellipse class="cls-10" cx="1002.37" cy="1252.89" rx="104.61" ry="67.6" transform="translate(-290.36 302.46) rotate(-15.01)"/>
    </g>
    <g>
      <path class="cls-11" d="m1164.68,351.66c15.39,67.57-5.33,115.87,39.9,177.67,32.24,44.05,73.07,82.46,121.5,107.67,55.71,29,114.66,33.82,173.6,25.95-5.4-87.45-31.97-177.18-92.99-234.94-50.31-47.61-120.73-63.48-180.28-95.69-19.44-10.52-35.74-21.96-49.45-35.04-11.9,4.18-23.93,7.95-36.11,11.21,11.3,12.49,20.04,26.43,23.85,43.17Z"/>
      <path class="cls-15" d="m384.92,1180.34c3.03.6,6.05,1.29,9.06,2.02-17.04-30.12-39.17-57.33-65.64-79.68-52.11-43.99-118.04-66.76-185.06-69.19-2.8,46.63-.4,93.18,20.91,135.77,10.04,20.06,23.75,37.57,40.02,52.53,56.19-32.75,118.25-53.85,180.72-41.45Z"/>
      <path class="cls-13" d="m647.71,110.05c27.95,6.38,57.64,1.35,85.43,8.42,6.45,1.64,12.56,3.83,18.37,6.5,10.19-11.85,18.79-25.21,25.88-39.13,5.1-10.01,9.47-20.33,13.38-30.84-46.03,2.97-91.86,9.02-137.09,18.07-15.17,3.03-30.93,6.43-47.11,10.23,9.24,13.07,25.19,23.12,41.15,26.77Z"/>
      <path class="cls-14" d="m751.51,124.97c55.45,25.4,84.14,93.7,130.48,137.13,58.61,54.94,146.93,68.21,225.96,53.82,11.09-2.02,22.04-4.53,32.88-7.43-34.55-38.2-93.15-62.92-108.79-113.02-12.08-38.69,5.69-79.3,11.4-119.74-50.69-25.01-118.83-21.97-171.73-22.76-26.99-.4-53.99.29-80.93,2.02-3.92,10.51-8.29,20.83-13.38,30.84-7.09,13.92-15.69,27.28-25.88,39.13Z"/>
      <path class="cls-8" d="m1032.03,195.47c15.65,50.11,74.24,74.82,108.79,113.02,12.18-3.26,24.21-7.02,36.11-11.21-24.73-23.59-41.03-52.5-51.92-90.95-10.93-38.59-20.68-80.07-49.36-108.11-9.51-9.3-20.39-16.66-32.22-22.5-5.71,40.45-23.48,81.05-11.4,119.74Z"/>
      <path class="cls-9" d="m415.71,205.26c15.98-4.45,30.83-12.18,46.51-17.59,80.4-27.75,174.84,10.79,250.8-30.86,14.73-8.08,27.53-19.09,38.49-31.84-5.81-2.66-11.92-4.86-18.37-6.5-27.78-7.07-57.48-2.04-85.43-8.42-15.95-3.64-31.91-13.7-41.15-26.77-91.57,21.46-196.78,55.51-286.78,107.13,28.17,17.69,63.79,23.79,95.93,14.84Z"/>
      <path class="cls-44" d="m1270.68,1094.58c30-14.28,58.24-32.21,83.79-53.67-16.06-9.78-34.06-16.41-52.62-19.26-12.7,23.19-23.11,47.67-31.17,72.93Z"/>
      <path class="cls-45" d="m384.92,1180.34c-62.47-12.4-124.53,8.71-180.72,41.45,39.79,36.59,94.92,57.89,149.48,63.76,24.97,2.69,50.72,3.1,76.71,1.65-5.66-36.73-18.1-72.47-36.41-104.84-3.01-.74-6.03-1.42-9.06-2.02Z"/>
      <path class="cls-43" d="m1272.37,1020.38c-85.71,5.94-156.81,89.5-241.98,78.16-14.89-1.98-29.28-6.89-44.18-8.79-28.87-3.67-58.2,5.93-81.14,23.72,48.21-4.3,94.42,15.8,142.08,20.3,76.3,7.21,154.57-6.36,223.53-39.2,8.06-25.26,18.48-49.74,31.17-72.93-9.74-1.49-19.63-1.96-29.48-1.27Z"/>
      <path class="cls-42" d="m1384.59,1012.64c40.38-42.4,70.41-93.9,89.69-149.28-39.41,16.52-75.8,40.67-106.36,70.55-26.33,25.74-48.4,55.48-66.06,87.74,18.56,2.85,36.56,9.48,52.62,19.26,10.51-8.83,20.57-18.25,30.11-28.27Z"/>
      <path class="cls-32" d="m639.03,1162.9c-58.59,1.7-112.36,41.1-170.84,37.12-25.42-1.73-49.43-11.6-74.2-17.67,18.31,32.36,30.76,68.1,36.41,104.84,71.89-4.03,145.6-22.55,209.79-48.15,28.93-11.54,57.14-28,85.36-45.25-24.39-19.82-54.96-31.81-86.51-30.9Z"/>
    </g>
    <g>
      <path class="cls-38" d="m1393.5,477.98l-204.49-116.08L1382.04,21.84l204.49,116.08c9.29,5.27,12.55,17.08,7.27,26.37l-173.93,306.41c-5.27,9.29-17.08,12.55-26.37,7.27Z"/>
      <path class="cls-40" d="m1543.26,246.11l-11.51-6.53,40.56-71.46c2.45-4.31.94-9.79-3.37-12.23l-41.31-23.45-169.38,298.41,41.31,23.45c4.31,2.45,9.79.94,12.23-3.37l72.32-127.41,11.51,6.53c5.83,3.31,13.24,1.27,16.55-4.57l35.65-62.81c3.31-5.83,1.27-13.24-4.57-16.55Z"/>
      <path class="cls-41" d="m1468.47,344.41l-12.05-6.84,105.77-186.34c2.54-4.47.97-10.14-3.5-12.68l-43.89-24.91-179.27,315.81,43.89,24.91c4.47,2.54,10.14.97,12.68-3.5l13.9-24.48,12.05,6.84c6.24,3.54,14.18,1.36,17.72-4.89l37.59-66.22c3.54-6.24,1.36-14.18-4.89-17.72Z"/>
      <g>
        <path class="cls-33" d="m1329.86,6.61l-180.68,318.3c-3.41,6.01-1.3,13.64,4.7,17.05l20.83,11.82L1367.74,13.73l-20.83-11.82c-6.01-3.41-13.64-1.3-17.05,4.7Z"/>
        <rect class="cls-39" x="1170.52" y="128.56" width="391.03" height="218.03" transform="translate(485.09 1308.28) rotate(-60.42)"/>
        <g>
          <path class="cls-3" d="m1463.12,220.76l-132.43-75.17c-2.91-1.65-3.94-5.36-2.28-8.27l31.56-55.59c1.65-2.91,5.36-3.94,8.27-2.28l132.43,75.17c2.91,1.65,3.94,5.36,2.28,8.27l-31.56,55.59c-1.65,2.91-5.36,3.94-8.27,2.28Z"/>
          <g>
            <path class="cls-35" d="m1458.69,156.33l-70.41-39.96c-2.06-1.17-2.78-3.79-1.61-5.85s3.79-2.78,5.85-1.61l70.41,39.96c2.06,1.17,2.78,3.79,1.61,5.85-1.17,2.06-3.79,2.78-5.85,1.61Z"/>
            <g>
              <path class="cls-36" d="m1469.52,187.75l-72.97-41.42c-2.06-1.17-2.78-3.79-1.61-5.85,1.17-2.06,3.79-2.78,5.85-1.61l72.97,41.42c2.06,1.17,2.78,3.79,1.61,5.85-1.17,2.06-3.79,2.78-5.85,1.61Z"/>
              <path class="cls-34" d="m1385.36,139.98l-29.61-16.81c-2.06-1.17-2.78-3.79-1.61-5.85,1.17-2.06,3.79-2.78,5.85-1.61l29.61,16.81c2.06,1.17,2.78,3.79,1.61,5.85-1.17,2.06-3.79,2.78-5.85,1.61Z"/>
              <path class="cls-37" d="m1460.52,203.61l-16.79-9.53c-2.06-1.17-2.78-3.79-1.61-5.85,1.17-2.06,3.79-2.78,5.85-1.61l16.79,9.53c2.06,1.17,2.78,3.79,1.61,5.85-1.17,2.06-3.79,2.78-5.85,1.61Z"/>
              <path class="cls-47" d="m1434.64,188.92l-65.51-37.19c-2.06-1.17-2.78-3.79-1.61-5.85,1.17-2.06,3.79-2.78,5.85-1.61l65.51,37.19c2.06,1.17,2.78,3.79,1.61,5.85-1.17,2.06-3.79,2.78-5.85,1.61Z"/>
              <path class="cls-55" d="m1359.11,146.04l-12.36-7.01c-2.06-1.17-2.78-3.79-1.61-5.85,1.17-2.06,3.79-2.78,5.85-1.61l12.36,7.01c2.06,1.17,2.78,3.79,1.61,5.85-1.17,2.06-3.79,2.78-5.85,1.61Z"/>
            </g>
          </g>
        </g>
        <g>
          <path class="cls-7" d="m1303.76,78.23l-22.02-12.5c-3.02-1.71-4.07-5.55-2.36-8.56h0c1.71-3.02,5.55-4.07,8.56-2.36l22.02,12.5c3.02,1.71,4.07,5.55,2.36,8.56h0c-1.71,3.02-5.55,4.07-8.56,2.36Z"/>
          <path class="cls-7" d="m1266.21,144.39l-22.02-12.5c-3.02-1.71-4.07-5.55-2.36-8.56h0c1.71-3.02,5.55-4.07,8.56-2.36l22.02,12.5c3.02,1.71,4.07,5.55,2.36,8.56h0c-1.71,3.02-5.55,4.07-8.56,2.36Z"/>
          <path class="cls-7" d="m1228.65,210.56l-22.02-12.5c-3.02-1.71-4.07-5.55-2.36-8.56h0c1.71-3.02,5.55-4.07,8.56-2.36l22.02,12.5c3.02,1.71,4.07,5.55,2.36,8.56h0c-1.71,3.02-5.55,4.07-8.56,2.36Z"/>
          <path class="cls-7" d="m1191.09,276.72l-22.02-12.5c-3.02-1.71-4.07-5.55-2.36-8.56h0c1.71-3.02,5.55-4.07,8.56-2.36l22.02,12.5c3.02,1.71,4.07,5.55,2.36,8.56h0c-1.71,3.02-5.55,4.07-8.56,2.36Z"/>
        </g>
      </g>
    </g>
    <g>
      <g>
        <g>
          <g>
            <path class="cls-48" d="m752.27,981.8c.09,49.16.27,155.18.27,155.18h175.18v-155.18h-175.46Z"/>
            <path class="cls-46" d="m441.39,921.21v16.88c0,26.9,21.81,48.71,48.71,48.71h699.82c26.9,0,48.71-21.81,48.71-48.71v-16.88H441.39Z"/>
            <g>
              <polygon class="cls-56" points="966.64 1129.29 713.37 1129.29 692.7 1152.23 987.31 1152.23 966.64 1129.29"/>
              <rect class="cls-57" x="692.7" y="1152.23" width="294.6" height="27.9"/>
            </g>
          </g>
          <path class="cls-3" d="m1189.91,451.05H490.09c-26.9,0-48.71,21.81-48.71,48.71v421.45h797.23v-421.45c0-26.9-21.81-48.71-48.71-48.71Z"/>
          <rect class="cls-4" x="474" y="483.95" width="732.01" height="64.86" rx="17" ry="17"/>
          <rect class="cls-4" x="474" y="569.45" width="732.01" height="166.14" rx="17" ry="17"/>
          <g>
            <path class="cls-2" d="m491,755.07h177.03c9.38,0,17,7.62,17,17v149.14h-211.03v-149.14c0-9.38,7.62-17,17-17Z"/>
            <path class="cls-2" d="m751.49,755.07h177.03c9.38,0,17,7.62,17,17v149.14h-211.03v-149.14c0-9.38,7.62-17,17-17Z"/>
            <path class="cls-2" d="m1011.97,755.07h177.03c9.38,0,17,7.62,17,17v149.14h-211.03v-149.14c0-9.38,7.62-17,17-17Z"/>
            <rect class="cls-59" x="491.01" y="770.45" width="177.5" height="86.22" rx="7.75" ry="7.75"/>
            <rect class="cls-61" x="751.25" y="770.45" width="177.5" height="86.22" rx="7.75" ry="7.75"/>
            <rect class="cls-60" x="1011.74" y="770.45" width="177.5" height="86.22" rx="7.75" ry="7.75"/>
            <g>
              <rect class="cls-3" x="491.01" y="870.62" width="177.5" height="8.44"/>
              <rect class="cls-3" x="491.01" y="888.18" width="177.5" height="8.44"/>
            </g>
            <g>
              <rect class="cls-3" x="751.25" y="870.62" width="177.5" height="8.44"/>
              <rect class="cls-3" x="751.25" y="888.18" width="177.5" height="8.44"/>
            </g>
            <g>
              <rect class="cls-3" x="1011.74" y="870.62" width="177.5" height="8.44"/>
              <rect class="cls-3" x="1011.74" y="888.18" width="177.5" height="8.44"/>
            </g>
          </g>
          <rect class="cls-3" x="499.01" y="497.45" width="116" height="37.86" rx="5.5" ry="5.5"/>
          <g>
            <path class="cls-3" d="m847.3,524.38h-86.52c-4.29,0-7.78-3.48-7.78-7.78h0c0-4.29,3.48-7.78,7.78-7.78h86.52c4.3,0,7.78,3.48,7.78,7.78h0c0,4.29-3.48,7.78-7.78,7.78Z"/>
            <path class="cls-3" d="m987.77,524.38h-86.52c-4.29,0-7.78-3.48-7.78-7.78h0c0-4.29,3.48-7.78,7.78-7.78h86.52c4.29,0,7.78,3.48,7.78,7.78h0c0,4.29-3.48,7.78-7.78,7.78Z"/>
            <path class="cls-3" d="m1128.23,524.38h-86.52c-4.29,0-7.78-3.48-7.78-7.78h0c0-4.29,3.48-7.78,7.78-7.78h86.52c4.29,0,7.78,3.48,7.78,7.78h0c0,4.29-3.48,7.78-7.78,7.78Z"/>
          </g>
          <g>
            <g>
              <rect class="cls-3" x="744.5" y="585.68" width="191" height="30"/>
              <g>
                <g>
                  <path class="cls-3" d="m1025.16,650.18h-120.15c-2.49,0-4.5-2.01-4.5-4.5s2.01-4.5,4.5-4.5h120.15c2.49,0,4.5,2.01,4.5,4.5s-2.01,4.5-4.5,4.5Z"/>
                  <path class="cls-3" d="m891.01,650.18h-15.43c-2.49,0-4.5-2.01-4.5-4.5s2.01-4.5,4.5-4.5h15.43c2.49,0,4.5,2.01,4.5,4.5s-2.01,4.5-4.5,4.5Z"/>
                  <path class="cls-3" d="m860.01,650.18h-205.16c-2.49,0-4.5-2.01-4.5-4.5s2.01-4.5,4.5-4.5h205.16c2.49,0,4.5,2.01,4.5,4.5s-2.01,4.5-4.5,4.5Z"/>
                </g>
                <g>
                  <path class="cls-3" d="m1025.16,676.36h-210.15c-2.49,0-4.5-2.01-4.5-4.5s2.01-4.5,4.5-4.5h210.15c2.49,0,4.5,2.01,4.5,4.5s-2.01,4.5-4.5,4.5Z"/>
                  <path class="cls-3" d="m801.01,676.36h-125.43c-2.49,0-4.5-2.01-4.5-4.5s2.01-4.5,4.5-4.5h125.43c2.49,0,4.5,2.01,4.5,4.5s-2.01,4.5-4.5,4.5Z"/>
                  <path class="cls-3" d="m660.01,676.36h-5.16c-2.49,0-4.5-2.01-4.5-4.5s2.01-4.5,4.5-4.5h5.16c2.49,0,4.5,2.01,4.5,4.5s-2.01,4.5-4.5,4.5Z"/>
                </g>
              </g>
            </g>
            <path class="cls-58" d="m910.37,719.35h-140.73c-7.18,0-13-5.82-13-13h0c0-7.18,5.82-13,13-13h140.73c7.18,0,13,5.82,13,13h0c0,7.18-5.82,13-13,13Z"/>
          </g>
        </g>
        <path class="cls-3" d="m868.82,961.65h-57.64c-4.28,0-7.75-3.47-7.75-7.75s3.47-7.75,7.75-7.75h57.64c4.28,0,7.75,3.47,7.75,7.75s-3.47,7.75-7.75,7.75Z"/>
      </g>
      <g>
        <path class="cls-4" d="m1257.11,305.28h-344.28c-17.97,0-32.54,14.57-32.54,32.54v64.58c0,17.97,14.57,32.54,32.54,32.54h151.05l21.09,36.54,21.09-36.54h151.05c17.97,0,32.54-14.57,32.54-32.54v-64.58c0-17.97-14.57-32.54-32.54-32.54Z"/>
        <g>
          <rect class="cls-52" x="924.72" y="326.87" width="86.5" height="86.5" rx="5.87" ry="5.87"/>
          <rect class="cls-50" x="1041.72" y="326.87" width="86.5" height="86.5" rx="5.87" ry="5.87"/>
          <rect class="cls-54" x="1158.72" y="326.87" width="86.5" height="86.5" rx="5.87" ry="5.87"/>
        </g>
      </g>
    </g>
    <g>
      <g>
        <path class="cls-51" d="m665.36,535.26l-258.64,49.85-34.39-33.28-23.72,44.52-258.64,49.84c-10.44,2.01-20.53-4.82-22.54-15.26L.35,282.98c-2.01-10.44,4.82-20.53,15.26-22.54l575.39-110.92c10.44-2.01,20.53,4.82,22.54,15.26l67.08,347.95c2.01,10.44-4.82,20.53-15.26,22.54Z"/>
        <path class="cls-49" d="m406.72,585.12c-4.77-1.79-16.66-5.53-31.46-2.45-13.85,2.88-22.88,10.2-26.65,13.65-3.43-17.81-6.87-35.62-10.3-53.44l58.11-11.2,10.3,53.44Z"/>
      </g>
      <g>
        <path class="cls-3" d="m369.95,550.76l-268.42,52.18L30.01,235.04l245.84-47.79c12.47-2.42,24.55,5.72,26.98,18.19l67.13,345.32Z"/>
        <path class="cls-53" d="m370.11,550.98l268.42-52.18-71.56-368.14-245.84,47.79c-12.47,2.42-20.62,14.5-18.19,26.98l67.17,345.56Z"/>
        <g>
          <path class="cls-23" d="m200.74,253.53l-122.79,23.87c-5.06.98-9.95-2.32-10.94-7.38h0c-.98-5.06,2.32-9.95,7.38-10.94l122.79-23.87c5.06-.98,9.95,2.32,10.94,7.38h0c.98,5.06-2.32,9.95-7.38,10.94Z"/>
          <g>
            <path class="cls-5" d="m280.91,272.96l-24.17,4.7c-2.58.5-5.07-1.18-5.58-3.76-.5-2.58,1.18-5.07,3.76-5.58l24.17-4.7c2.58-.5,5.07,1.18,5.58,3.76.5,2.58-1.18,5.07-3.76,5.58Z"/>
            <path class="cls-5" d="m243.81,280.17l-109.63,21.31c-2.58.5-5.07-1.18-5.58-3.76s1.18-5.07,3.76-5.57l109.63-21.31c2.58-.5,5.07,1.18,5.58,3.76s-1.18,5.07-3.76,5.58Z"/>
            <path class="cls-5" d="m120.64,304.11l-40.62,7.9c-2.58.5-5.07-1.18-5.58-3.76s1.18-5.07,3.76-5.57l40.62-7.9c2.58-.5,5.07,1.18,5.58,3.76.5,2.58-1.18,5.07-3.76,5.58Z"/>
            <path class="cls-5" d="m286.77,303.12l-94.54,18.38c-2.58.5-5.07-1.18-5.58-3.76-.5-2.58,1.18-5.07,3.76-5.58l94.54-18.38c2.58-.5,5.07,1.18,5.58,3.76s-1.18,5.07-3.76,5.58Z"/>
            <path class="cls-5" d="m177.87,324.29l-91.98,17.88c-2.58.5-5.07-1.18-5.58-3.76s1.18-5.07,3.76-5.58l91.98-17.88c2.58-.5,5.07,1.18,5.58,3.76s-1.18,5.07-3.76,5.58Z"/>
            <path class="cls-5" d="m292.64,333.28l-37.09,7.21c-2.58.5-5.07-1.18-5.58-3.76-.5-2.58,1.18-5.07,3.76-5.58l37.09-7.21c2.58-.5,5.07,1.18,5.58,3.76.5,2.58-1.18,5.07-3.76,5.58Z"/>
            <path class="cls-5" d="m243.57,342.82l-112.98,21.96c-2.58.5-5.07-1.18-5.58-3.76s1.18-5.07,3.76-5.58l112.98-21.96c2.58-.5,5.07,1.18,5.58,3.76.5,2.58-1.18,5.07-3.76,5.58Z"/>
            <path class="cls-5" d="m117.66,367.29l-25.92,5.04c-2.58.5-5.07-1.18-5.58-3.76-.5-2.58,1.18-5.07,3.76-5.58l25.92-5.04c2.58-.5,5.07,1.18,5.58,3.76s-1.18,5.07-3.76,5.58Z"/>
            <path class="cls-5" d="m298.5,363.44l-118.96,23.12c-2.58.5-5.07-1.18-5.58-3.76s1.18-5.07,3.76-5.57l118.96-23.12c2.58-.5,5.07,1.18,5.58,3.76.5,2.58-1.18,5.07-3.76,5.58Z"/>
            <path class="cls-5" d="m166.13,389.17l-13.4,2.61c-2.58.5-5.07-1.18-5.58-3.76-.5-2.58,1.18-5.07,3.76-5.58l13.4-2.61c2.58-.5,5.07,1.18,5.58,3.76.5,2.58-1.18,5.07-3.76,5.57Z"/>
            <path class="cls-5" d="m138.23,394.59l-40.62,7.9c-2.58.5-5.07-1.18-5.58-3.76s1.18-5.07,3.76-5.58l40.62-7.9c2.58-.5,5.07,1.18,5.58,3.76.5,2.58-1.18,5.07-3.76,5.58Z"/>
          </g>
          <g>
            <rect class="cls-22" x="106.64" y="400.06" width="214.16" height="126.96" transform="translate(-84.52 49.3) rotate(-11)"/>
            <g>
              <rect class="cls-25" x="131.42" y="469.39" width="37.46" height="73.3" transform="translate(-93.8 37.95) rotate(-11)"/>
              <rect class="cls-24" x="179.81" y="486.54" width="37.46" height="44.21" transform="translate(-93.41 47.23) rotate(-11)"/>
              <rect class="cls-28" x="221.32" y="429.49" width="37.46" height="92.73" transform="translate(-86.39 54.55) rotate(-11)"/>
              <rect class="cls-26" x="265.33" y="398.33" width="37.46" height="115.13" transform="translate(-81.77 62.58) rotate(-11)"/>
            </g>
            <rect class="cls-27" x="119.23" y="525.85" width="213.73" height="4.99" transform="translate(-96.66 52.85) rotate(-11)"/>
          </g>
        </g>
        <rect class="cls-2" x="364.17" y="288.54" width="214.16" height="132.39" transform="translate(-59.03 96.44) rotate(-11)"/>
        <g>
          <g>
            <path class="cls-5" d="m548.22,214.48l-24.17,4.7c-2.58.5-5.07-1.18-5.58-3.76-.5-2.58,1.18-5.07,3.76-5.58l24.17-4.7c2.58-.5,5.07,1.18,5.57,3.76.5,2.58-1.18,5.07-3.76,5.58Z"/>
            <path class="cls-5" d="m511.13,221.69l-141.12,27.43c-2.58.5-5.07-1.18-5.58-3.76-.5-2.58,1.18-5.07,3.76-5.57l141.12-27.43c2.58-.5,5.07,1.18,5.58,3.76.5,2.58-1.18,5.07-3.76,5.58Z"/>
            <path class="cls-5" d="m356.47,251.76l-9.13,1.78c-2.58.5-5.07-1.18-5.58-3.76-.5-2.58,1.18-5.07,3.76-5.58l9.13-1.78c2.58-.5,5.07,1.18,5.58,3.76s-1.18,5.07-3.76,5.58Z"/>
            <path class="cls-5" d="m554.09,244.64l-157.53,30.62c-2.58.5-5.07-1.18-5.58-3.76s1.18-5.07,3.76-5.58l157.53-30.62c2.58-.5,5.07,1.18,5.57,3.76s-1.18,5.07-3.76,5.57Z"/>
            <path class="cls-5" d="m382.2,278.06l-29,5.64c-2.58.5-5.07-1.18-5.58-3.76s1.18-5.07,3.76-5.58l29-5.64c2.58-.5,5.07,1.18,5.58,3.76.5,2.58-1.18,5.07-3.76,5.58Z"/>
            <g>
              <path class="cls-5" d="m588.68,422.6l-107.95,20.98c-2.58.5-5.07-1.18-5.58-3.76s1.18-5.07,3.76-5.58l107.95-20.98c2.58-.5,5.07,1.18,5.58,3.76.5,2.58-1.18,5.07-3.76,5.58Z"/>
              <path class="cls-5" d="m468.76,445.91l-10.64,2.07c-2.58.5-5.07-1.18-5.57-3.76s1.18-5.07,3.76-5.58l10.64-2.07c2.58-.5,5.07,1.18,5.58,3.76s-1.18,5.07-3.76,5.58Z"/>
              <path class="cls-5" d="m445.2,450.49l-57.41,11.16c-2.58.5-5.07-1.18-5.58-3.76s1.18-5.07,3.76-5.58l57.41-11.16c2.58-.5,5.07,1.18,5.58,3.76s-1.18,5.07-3.76,5.57Z"/>
              <path class="cls-5" d="m594.54,452.76l-24.49,4.76c-2.58.5-5.07-1.18-5.58-3.76s1.18-5.07,3.76-5.57l24.49-4.76c2.58-.5,5.07,1.18,5.58,3.76.5,2.58-1.18,5.07-3.76,5.58Z"/>
              <path class="cls-5" d="m556.65,460.12l-13.4,2.61c-2.58.5-5.07-1.18-5.58-3.76-.5-2.58,1.18-5.07,3.76-5.58l13.4-2.61c2.58-.5,5.07,1.18,5.58,3.76s-1.18,5.07-3.76,5.58Z"/>
              <path class="cls-5" d="m528.75,465.55l-135.1,26.26c-2.58.5-5.07-1.18-5.58-3.76-.5-2.58,1.18-5.07,3.76-5.57l135.1-26.26c2.58-.5,5.07,1.18,5.58,3.76s-1.18,5.07-3.76,5.58Z"/>
            </g>
          </g>
          <g>
            <path class="cls-5" d="m542.36,184.32l-24.17,4.7c-2.58.5-5.07-1.18-5.57-3.76s1.18-5.07,3.76-5.58l24.17-4.7c2.58-.5,5.07,1.18,5.57,3.76s-1.18,5.07-3.76,5.58Z"/>
            <path class="cls-5" d="m505.27,191.53l-78.14,15.19c-2.58.5-5.07-1.18-5.58-3.76-.5-2.58,1.18-5.07,3.76-5.58l78.14-15.19c2.58-.5,5.07,1.18,5.58,3.76s-1.18,5.07-3.76,5.57Z"/>
            <path class="cls-5" d="m413.59,209.35l-72.11,14.02c-2.58.5-5.07-1.18-5.58-3.76s1.18-5.07,3.76-5.58l72.11-14.02c2.58-.5,5.07,1.18,5.58,3.76s-1.18,5.07-3.76,5.58Z"/>
          </g>
          <g>
            <g>
              <path class="cls-30" d="m508.21,311.69c12.86-2.5,25.37,3.97,31.09,15.05l18.37-11.25c-10.3-18.5-31.65-29.16-53.56-24.9h0l4.1,21.1h0Z"/>
              <path class="cls-31" d="m539.3,326.74c1.23,2.38,2.15,4.97,2.69,7.73,3.04,15.62-7.16,30.74-22.78,33.77-5.12,1-10.19.56-14.79-1.02l-8.73,19.71c8.51,3.28,18.01,4.28,27.62,2.41,27.27-5.3,45.08-31.71,39.78-58.98-1.04-5.36-2.9-10.35-5.42-14.88l-18.37,11.25Z"/>
              <path class="cls-29" d="m485.43,345.46c-3.04-15.62,7.16-30.74,22.78-33.77l-4.1-21.1c-27.27,5.3-45.08,31.71-39.78,58.98,3.43,17.66,15.72,31.35,31.35,37.37l8.73-19.71c-9.44-3.23-16.94-11.27-18.98-21.76Z"/>
            </g>
            <g>
              <rect class="cls-21" x="369.37" y="314.74" width="23.26" height="23.26" transform="translate(-55.27 78.7) rotate(-11)"/>
              <rect class="cls-19" x="376.75" y="352.7" width="23.26" height="23.26" transform="translate(-62.38 80.8) rotate(-11)"/>
              <rect class="cls-20" x="384.13" y="390.66" width="23.26" height="23.26" transform="translate(-69.49 82.91) rotate(-11)"/>
            </g>
            <g>
              <g>
                <path class="cls-3" d="m412.3,317.15l-13.38,2.6c-1.09.21-2.14-.5-2.35-1.59-.21-1.09.5-2.14,1.59-2.35l13.38-2.6c1.09-.21,2.14.5,2.35,1.59.21,1.09-.5,2.14-1.59,2.35Z"/>
                <path class="cls-3" d="m439.21,322.27l-38.35,7.46c-1.09.21-2.14-.5-2.35-1.59-.21-1.09.5-2.14,1.59-2.35l38.35-7.46c1.09-.21,2.14.5,2.35,1.59.21,1.09-.5,2.14-1.59,2.35Z"/>
              </g>
              <g>
                <path class="cls-3" d="m439.65,351.23l-33.36,6.48c-1.09.21-2.14-.5-2.35-1.59-.21-1.09.5-2.14,1.59-2.35l33.36-6.48c1.09-.21,2.14.5,2.35,1.59.21,1.09-.5,2.14-1.59,2.35Z"/>
                <path class="cls-3" d="m446.59,360.23l-19.18,3.73c-1.09.21-2.14-.5-2.35-1.59-.21-1.09.5-2.14,1.59-2.35l19.18-3.73c1.09-.21,2.14.5,2.35,1.59.21,1.09-.5,2.14-1.59,2.35Z"/>
                <path class="cls-3" d="m419.78,365.44l-11.55,2.24c-1.09.21-2.14-.5-2.35-1.59-.21-1.09.5-2.14,1.59-2.35l11.55-2.24c1.09-.21,2.14.5,2.35,1.59.21,1.09-.5,2.14-1.59,2.35Z"/>
              </g>
              <g>
                <path class="cls-3" d="m447.03,389.19l-18.93,3.68c-1.09.21-2.14-.5-2.35-1.59-.21-1.09.5-2.14,1.59-2.35l18.93-3.68c1.09-.21,2.14.5,2.35,1.59.21,1.09-.5,2.14-1.59,2.35Z"/>
                <path class="cls-3" d="m421.81,394.1l-8.14,1.58c-1.09.21-2.14-.5-2.35-1.59-.21-1.09.5-2.14,1.59-2.35l8.14-1.58c1.09-.21,2.14.5,2.35,1.59s-.5,2.14-1.59,2.35Z"/>
                <path class="cls-3" d="m453.97,398.2l-3.43.67c-1.09.21-2.14-.5-2.35-1.59s.5-2.14,1.59-2.35l3.43-.67c1.09-.21,2.14.5,2.35,1.59s-.5,2.14-1.59,2.35Z"/>
                <path class="cls-3" d="m442.9,400.35l-27.29,5.31c-1.09.21-2.14-.5-2.35-1.59-.21-1.09.5-2.14,1.59-2.35l27.29-5.31c1.09-.21,2.14.5,2.35,1.59.21,1.09-.5,2.14-1.59,2.35Z"/>
              </g>
            </g>
          </g>
        </g>
      </g>
      <g>
        <path class="cls-7" d="m372.56,564.18l-268.42,52.18-8.78-45.17,245.84-47.79c12.47-2.42,24.55,5.72,26.98,18.19l4.39,22.59Z"/>
        <path class="cls-2" d="m372.67,564.16l268.42-52.18-8.78-45.17-245.84,47.79c-12.47,2.42-20.62,14.5-18.19,26.98l4.39,22.59Z"/>
      </g>
      <g>
        <path class="cls-6" d="m173.09,579.47c-2.61.51-4.31,3.03-3.81,5.64.51,2.61,3.03,4.31,5.64,3.81l195.13-37.93-1.84-9.45-195.12,37.93Z"/>
        <path class="cls-7" d="m563.73,503.54l-195.51,38,1.84,9.45,195.51-38c2.61-.51,4.31-3.03,3.81-5.64-.51-2.61-3.03-4.31-5.64-3.81Z"/>
      </g>
      <path class="cls-17" d="m508.27,567.11l-21.2-9.97-15.92,17.18-8.85-45.54c-.57-2.94,1.35-5.79,4.29-6.37l26.45-5.14c2.94-.57,5.79,1.35,6.37,4.29l8.85,45.54Z"/>
      <g>
        <path class="cls-18" d="m513.5,167.27l-110,21.38c-45.76,8.89-90.06-20.99-98.96-66.75h0c-8.89-45.76,20.99-90.06,66.75-98.96L481.29,1.57c45.76-8.89,90.06,20.99,98.96,66.75h0c8.89,45.76-20.99,90.06-66.75,98.96Z"/>
        <g>
          <path class="cls-3" d="m325.75,81.35c-.59.12-1.23.06-1.83-.18-1.64-.68-2.42-2.55-1.74-4.19,3.14-7.62,7.49-14.62,12.94-20.82,1.17-1.33,3.2-1.46,4.53-.29,1.33,1.17,1.46,3.2.29,4.53-4.98,5.66-8.96,12.06-11.83,19.02-.43,1.04-1.33,1.73-2.36,1.93Z"/>
          <path class="cls-3" d="m325.9,135.64c-1.46.28-2.97-.49-3.57-1.92-1.92-4.62-3.39-9.48-4.35-14.43-2.18-11.22-1.79-22.47,1.18-33.43.46-1.71,2.22-2.72,3.93-2.26,1.71.46,2.72,2.22,2.26,3.93-2.7,10.01-3.06,20.28-1.07,30.53.88,4.53,2.22,8.97,3.98,13.19.68,1.64-.09,3.51-1.73,4.19-.21.09-.41.15-.62.19Z"/>
          <path class="cls-3" d="m340.62,157.86c-1.02.2-2.12-.1-2.91-.9-3.56-3.63-6.74-7.64-9.47-11.92-.95-1.49-.52-3.48.98-4.43,1.49-.95,3.48-.52,4.43.98,2.49,3.9,5.4,7.56,8.65,10.88,1.24,1.27,1.22,3.3-.05,4.54-.47.46-1.03.74-1.63.86Z"/>
          <path class="cls-3" d="m562.06,66.14c-1.57.3-3.15-.6-3.66-2.16-2.54-7.78-6.42-14.95-11.54-21.32-1.11-1.38-.89-3.4.49-4.51,1.38-1.11,3.4-.89,4.51.49,5.61,6.98,9.87,14.83,12.65,23.35.55,1.68-.37,3.5-2.06,4.04-.13.04-.26.08-.39.1Z"/>
          <path class="cls-3" d="m540.27,33.91c-.92.18-1.9-.04-2.68-.69-10.32-8.65-22.8-14-36.11-15.46-1.76-.19-3.03-1.78-2.84-3.54.19-1.76,1.78-3.03,3.54-2.84,14.57,1.6,28.24,7.45,39.53,16.92,1.36,1.14,1.54,3.16.4,4.52-.49.59-1.15.95-1.84,1.09Z"/>
        </g>
        <g>
          <path class="cls-3" d="m404.53,102.47c1.21,6.22-2.85,12.24-9.07,13.45-6.22,1.21-12.24-2.85-13.45-9.07s2.85-12.24,9.07-13.45c6.22-1.21,12.24,2.85,13.45,9.07Z"/>
          <path class="cls-3" d="m453.65,92.92c1.21,6.22-2.85,12.24-9.07,13.45-6.22,1.21-12.24-2.85-13.45-9.07-1.21-6.22,2.85-12.24,9.07-13.45,6.22-1.21,12.24,2.85,13.45,9.07Z"/>
          <path class="cls-3" d="m502.78,83.37c1.21,6.22-2.85,12.24-9.07,13.45-6.22,1.21-12.24-2.85-13.45-9.07-1.21-6.22,2.85-12.24,9.07-13.45,6.22-1.21,12.24,2.85,13.45,9.07Z"/>
        </g>
        <path class="cls-16" d="m464.91,167.24c2.57,1.24,12.73,6.47,15.96,17.44,4.02,13.66-5.94,25.1-7.38,26.69,7.12-4.08,18.61-11.72,28.14-23.88,6.93-8.83,10.44-17.01,12.32-22.79l-49.04,2.53Z"/>
      </g>
    </g>
    <g>
      <g>
        <g>
          <path class="cls-3" d="m1372.8,755.81c-2.13-.5-3.45-2.64-2.95-4.76l2.3-9.75c.5-2.13,2.63-3.45,4.76-2.95,2.13.5,3.45,2.63,2.95,4.76l-2.3,9.75c-.5,2.13-2.64,3.45-4.76,2.95Z"/>
          <path class="cls-3" d="m1366.52,782.45c-2.13-.5-3.45-2.64-2.95-4.76l2.3-9.75c.5-2.13,2.63-3.45,4.76-2.95,2.13.5,3.45,2.63,2.95,4.76l-2.3,9.75c-.5,2.13-2.63,3.45-4.76,2.95Z"/>
        </g>
        <g>
          <path class="cls-3" d="m1389,768.54l-9.75-2.3c-2.13-.5-3.45-2.64-2.95-4.76.5-2.13,2.63-3.45,4.76-2.95l9.75,2.3c2.13.5,3.45,2.64,2.95,4.76-.5,2.13-2.64,3.45-4.76,2.95Z"/>
          <path class="cls-3" d="m1362.36,762.26l-9.75-2.3c-2.13-.5-3.45-2.64-2.95-4.76.5-2.13,2.63-3.45,4.76-2.95l9.75,2.3c2.13.5,3.45,2.64,2.95,4.76-.5,2.13-2.64,3.45-4.76,2.95Z"/>
        </g>
      </g>
      <g>
        <g>
          <path class="cls-3" d="m1452.69,751.03c-.52.47-1.32.43-1.79-.09l-2.15-2.38c-.47-.52-.43-1.32.09-1.79.52-.47,1.32-.43,1.79.09l2.15,2.38c.47.52.43,1.32-.09,1.79Z"/>
          <path class="cls-3" d="m1458.57,757.53c-.52.47-1.32.43-1.79-.09l-2.15-2.38c-.47-.52-.43-1.32.09-1.79s1.32-.43,1.79.09l2.15,2.38c.47.52.43,1.32-.09,1.79Z"/>
        </g>
        <g>
          <path class="cls-3" d="m1459,749.08l-2.38,2.15c-.52.47-1.32.43-1.79-.09-.47-.52-.43-1.32.09-1.79l2.38-2.15c.52-.47,1.32-.43,1.79.09.47.52.43,1.32-.09,1.79Z"/>
          <path class="cls-3" d="m1452.49,754.95l-2.38,2.15c-.52.47-1.32.43-1.79-.09-.47-.52-.43-1.32.09-1.79l2.38-2.15c.52-.47,1.32-.43,1.79.09.47.52.43,1.32-.09,1.79Z"/>
        </g>
      </g>
      <g>
        <g>
          <path class="cls-3" d="m1317.51,796.57c-.52.47-1.32.43-1.79-.09l-2.15-2.38c-.47-.52-.43-1.32.09-1.79s1.32-.43,1.79.09l2.15,2.38c.47.52.43,1.32-.09,1.79Z"/>
          <path class="cls-3" d="m1323.38,803.07c-.52.47-1.32.43-1.79-.09l-2.15-2.38c-.47-.52-.43-1.32.09-1.79s1.32-.43,1.79.09l2.15,2.38c.47.52.43,1.32-.09,1.79Z"/>
        </g>
        <g>
          <path class="cls-3" d="m1323.81,794.62l-2.38,2.15c-.52.47-1.32.43-1.79-.09-.47-.52-.43-1.32.09-1.79l2.38-2.15c.52-.47,1.32-.43,1.79.09.47.52.43,1.32-.09,1.79Z"/>
          <path class="cls-3" d="m1317.31,800.49l-2.38,2.15c-.52.47-1.32.43-1.79-.09-.47-.52-.43-1.32.09-1.79l2.38-2.15c.52-.47,1.32-.43,1.79.09.47.52.43,1.32-.09,1.79Z"/>
        </g>
      </g>
      <g>
        <g>
          <path class="cls-3" d="m1423.24,781.43c-.52.47-1.32.43-1.79-.09l-2.15-2.38c-.47-.52-.43-1.32.09-1.79.52-.47,1.32-.43,1.79.09l2.15,2.38c.47.52.43,1.32-.09,1.79Z"/>
          <path class="cls-3" d="m1429.11,787.94c-.52.47-1.32.43-1.79-.09l-2.15-2.38c-.47-.52-.43-1.32.09-1.79.52-.47,1.32-.43,1.79.09l2.15,2.38c.47.52.43,1.32-.09,1.79Z"/>
        </g>
        <g>
          <path class="cls-3" d="m1429.54,779.48l-2.38,2.15c-.52.47-1.32.43-1.79-.09-.47-.52-.43-1.32.09-1.79l2.38-2.15c.52-.47,1.32-.43,1.79.09s.43,1.32-.09,1.79Z"/>
          <path class="cls-3" d="m1423.04,785.36l-2.38,2.15c-.52.47-1.32.43-1.79-.09-.47-.52-.43-1.32.09-1.79l2.38-2.15c.52-.47,1.32-.43,1.79.09.47.52.43,1.32-.09,1.79Z"/>
        </g>
      </g>
    </g>
    <g>
      <g>
        <g>
          <path class="cls-3" d="m1365.04,634.08c-2.13-.5-3.45-2.64-2.95-4.76l2.3-9.75c.5-2.13,2.64-3.45,4.76-2.95,2.13.5,3.45,2.64,2.95,4.76l-2.3,9.75c-.5,2.13-2.64,3.45-4.76,2.95Z"/>
          <path class="cls-3" d="m1358.76,660.72c-2.13-.5-3.45-2.64-2.95-4.76l2.3-9.75c.5-2.13,2.64-3.45,4.76-2.95,2.13.5,3.45,2.64,2.95,4.76l-2.3,9.75c-.5,2.13-2.63,3.45-4.76,2.95Z"/>
        </g>
        <g>
          <path class="cls-3" d="m1381.24,646.81l-9.75-2.3c-2.13-.5-3.45-2.64-2.95-4.76.5-2.13,2.63-3.45,4.76-2.95l9.75,2.3c2.13.5,3.45,2.64,2.95,4.76-.5,2.13-2.64,3.45-4.76,2.95Z"/>
          <path class="cls-3" d="m1354.6,640.53l-9.75-2.3c-2.13-.5-3.45-2.63-2.95-4.76.5-2.13,2.64-3.45,4.76-2.95l9.75,2.3c2.13.5,3.45,2.64,2.95,4.76-.5,2.13-2.64,3.45-4.76,2.95Z"/>
        </g>
      </g>
      <g>
        <g>
          <path class="cls-3" d="m1443.49,600.66c-1.28.66-2.86.15-3.51-1.14l-3-5.88c-.66-1.28-.15-2.86,1.14-3.51,1.28-.66,2.86-.15,3.51,1.14l3,5.88c.66,1.28.15,2.86-1.14,3.51Z"/>
          <path class="cls-3" d="m1451.7,616.72c-1.28.66-2.86.15-3.51-1.14l-3-5.88c-.66-1.28-.15-2.86,1.14-3.51,1.28-.66,2.86-.15,3.51,1.14l3,5.88c.66,1.28.15,2.86-1.14,3.51Z"/>
        </g>
        <g>
          <path class="cls-3" d="m1457.06,600.15l-5.88,3c-1.28.66-2.86.15-3.51-1.14s-.15-2.86,1.14-3.51l5.88-3c1.28-.66,2.86-.15,3.51,1.14.66,1.28.15,2.86-1.14,3.51Z"/>
          <path class="cls-3" d="m1441,608.36l-5.88,3c-1.28.66-2.86.15-3.51-1.14s-.15-2.86,1.14-3.51l5.88-3c1.28-.66,2.86-.15,3.51,1.14s.15,2.86-1.14,3.51Z"/>
        </g>
      </g>
      <g>
        <g>
          <path class="cls-3" d="m1425.32,644.73c-.52.47-1.32.43-1.79-.09l-2.15-2.38c-.47-.52-.43-1.32.09-1.79.52-.47,1.32-.43,1.79.09l2.15,2.38c.47.52.43,1.32-.09,1.79Z"/>
          <path class="cls-3" d="m1431.19,651.24c-.52.47-1.32.43-1.79-.09l-2.15-2.38c-.47-.52-.43-1.32.09-1.79.52-.47,1.32-.43,1.79.09l2.15,2.38c.47.52.43,1.32-.09,1.79Z"/>
        </g>
        <g>
          <path class="cls-3" d="m1431.62,642.79l-2.38,2.15c-.52.47-1.32.43-1.79-.09-.47-.52-.43-1.32.09-1.79l2.38-2.15c.52-.47,1.32-.43,1.79.09s.43,1.32-.09,1.79Z"/>
          <path class="cls-3" d="m1425.12,648.66l-2.38,2.15c-.52.47-1.32.43-1.79-.09-.47-.52-.43-1.32.09-1.79l2.38-2.15c.52-.47,1.32-.43,1.79.09.47.52.43,1.32-.09,1.79Z"/>
        </g>
      </g>
      <g>
        <g>
          <path class="cls-3" d="m1397.71,689.18c-.52.47-1.32.43-1.79-.09l-2.15-2.38c-.47-.52-.43-1.32.09-1.79.52-.47,1.32-.43,1.79.09l2.15,2.38c.47.52.43,1.32-.09,1.79Z"/>
          <path class="cls-3" d="m1403.58,695.68c-.52.47-1.32.43-1.79-.09l-2.15-2.38c-.47-.52-.43-1.32.09-1.79.52-.47,1.32-.43,1.79.09l2.15,2.38c.47.52.43,1.32-.09,1.79Z"/>
        </g>
        <g>
          <path class="cls-3" d="m1404.01,687.23l-2.38,2.15c-.52.47-1.32.43-1.79-.09-.47-.52-.43-1.32.09-1.79l2.38-2.15c.52-.47,1.32-.43,1.79.09.47.52.43,1.32-.09,1.79Z"/>
          <path class="cls-3" d="m1397.5,693.1l-2.38,2.15c-.52.47-1.32.43-1.79-.09-.47-.52-.43-1.32.09-1.79l2.38-2.15c.52-.47,1.32-.43,1.79.09.47.52.43,1.32-.09,1.79Z"/>
        </g>
      </g>
    </g>
    <g>
      <g>
        <g>
          <path class="cls-3" d="m758.66,245.24c-2.13-.5-3.45-2.64-2.95-4.76l2.3-9.75c.5-2.13,2.64-3.45,4.76-2.95,2.13.5,3.45,2.64,2.95,4.76l-2.3,9.75c-.5,2.13-2.63,3.45-4.76,2.95Z"/>
          <path class="cls-3" d="m752.38,271.88c-2.13-.5-3.45-2.64-2.95-4.76l2.3-9.75c.5-2.13,2.63-3.45,4.76-2.95,2.13.5,3.45,2.64,2.95,4.76l-2.3,9.75c-.5,2.13-2.63,3.45-4.76,2.95Z"/>
        </g>
        <g>
          <path class="cls-3" d="m774.86,257.97l-9.75-2.3c-2.13-.5-3.45-2.64-2.95-4.76.5-2.13,2.64-3.45,4.76-2.95l9.75,2.3c2.13.5,3.45,2.63,2.95,4.76-.5,2.13-2.63,3.45-4.76,2.95Z"/>
          <path class="cls-3" d="m748.22,251.69l-9.75-2.3c-2.13-.5-3.45-2.64-2.95-4.76.5-2.13,2.63-3.45,4.76-2.95l9.75,2.3c2.13.5,3.45,2.64,2.95,4.76-.5,2.13-2.63,3.45-4.76,2.95Z"/>
        </g>
      </g>
      <g>
        <g>
          <path class="cls-3" d="m838.56,240.46c-.52.47-1.32.43-1.79-.09l-2.15-2.38c-.47-.52-.43-1.32.09-1.79s1.32-.43,1.79.09l2.15,2.38c.47.52.43,1.32-.09,1.79Z"/>
          <path class="cls-3" d="m844.43,246.96c-.52.47-1.32.43-1.79-.09l-2.15-2.38c-.47-.52-.43-1.32.09-1.79.52-.47,1.32-.43,1.79.09l2.15,2.38c.47.52.43,1.32-.09,1.79Z"/>
        </g>
        <g>
          <path class="cls-3" d="m844.86,238.51l-2.38,2.15c-.52.47-1.32.43-1.79-.09-.47-.52-.43-1.32.09-1.79l2.38-2.15c.52-.47,1.32-.43,1.79.09.47.52.43,1.32-.09,1.79Z"/>
          <path class="cls-3" d="m838.35,244.38l-2.38,2.15c-.52.47-1.32.43-1.79-.09s-.43-1.32.09-1.79l2.38-2.15c.52-.47,1.32-.43,1.79.09s.43,1.32-.09,1.79Z"/>
        </g>
      </g>
      <g>
        <g>
          <path class="cls-3" d="m703.37,286c-.52.47-1.32.43-1.79-.09l-2.15-2.38c-.47-.52-.43-1.32.09-1.79.52-.47,1.32-.43,1.79.09l2.15,2.38c.47.52.43,1.32-.09,1.79Z"/>
          <path class="cls-3" d="m709.24,292.51c-.52.47-1.32.43-1.79-.09l-2.15-2.38c-.47-.52-.43-1.32.09-1.79s1.32-.43,1.79.09l2.15,2.38c.47.52.43,1.32-.09,1.79Z"/>
        </g>
        <g>
          <path class="cls-3" d="m709.67,284.05l-2.38,2.15c-.52.47-1.32.43-1.79-.09s-.43-1.32.09-1.79l2.38-2.15c.52-.47,1.32-.43,1.79.09.47.52.43,1.32-.09,1.79Z"/>
          <path class="cls-3" d="m703.17,289.92l-2.38,2.15c-.52.47-1.32.43-1.79-.09s-.43-1.32.09-1.79l2.38-2.15c.52-.47,1.32-.43,1.79.09s.43,1.32-.09,1.79Z"/>
        </g>
      </g>
      <g>
        <g>
          <path class="cls-3" d="m809.1,270.86c-.52.47-1.32.43-1.79-.09l-2.15-2.38c-.47-.52-.43-1.32.09-1.79s1.32-.43,1.79.09l2.15,2.38c.47.52.43,1.32-.09,1.79Z"/>
          <path class="cls-3" d="m814.97,277.37c-.52.47-1.32.43-1.79-.09l-2.15-2.38c-.47-.52-.43-1.32.09-1.79.52-.47,1.32-.43,1.79.09l2.15,2.38c.47.52.43,1.32-.09,1.79Z"/>
        </g>
        <g>
          <path class="cls-3" d="m815.4,268.92l-2.38,2.15c-.52.47-1.32.43-1.79-.09-.47-.52-.43-1.32.09-1.79l2.38-2.15c.52-.47,1.32-.43,1.79.09.47.52.43,1.32-.09,1.79Z"/>
          <path class="cls-3" d="m808.9,274.79l-2.38,2.15c-.52.47-1.32.43-1.79-.09-.47-.52-.43-1.32.09-1.79l2.38-2.15c.52-.47,1.32-.43,1.79.09s.43,1.32-.09,1.79Z"/>
        </g>
      </g>
    </g>
    <g>
      <g>
        <g>
          <path class="cls-3" d="m750.9,123.51c-2.13-.5-3.45-2.63-2.95-4.76l2.3-9.75c.5-2.13,2.64-3.45,4.76-2.95,2.13.5,3.45,2.64,2.95,4.76l-2.3,9.75c-.5,2.13-2.64,3.45-4.76,2.95Z"/>
          <path class="cls-3" d="m744.62,150.15c-2.13-.5-3.45-2.63-2.95-4.76l2.3-9.75c.5-2.13,2.63-3.45,4.76-2.95,2.13.5,3.45,2.64,2.95,4.76l-2.3,9.75c-.5,2.13-2.64,3.45-4.76,2.95Z"/>
        </g>
        <g>
          <path class="cls-3" d="m767.1,136.24l-9.75-2.3c-2.13-.5-3.45-2.64-2.95-4.76.5-2.13,2.64-3.45,4.76-2.95l9.75,2.3c2.13.5,3.45,2.63,2.95,4.76-.5,2.13-2.63,3.45-4.76,2.95Z"/>
          <path class="cls-3" d="m740.46,129.97l-9.75-2.3c-2.13-.5-3.45-2.64-2.95-4.76.5-2.13,2.64-3.45,4.76-2.95l9.75,2.3c2.13.5,3.45,2.63,2.95,4.76-.5,2.13-2.63,3.45-4.76,2.95Z"/>
        </g>
      </g>
      <g>
        <g>
          <path class="cls-3" d="m829.35,90.09c-1.28.66-2.86.15-3.51-1.14l-3-5.88c-.66-1.28-.15-2.86,1.14-3.51s2.86-.15,3.51,1.14l3,5.88c.66,1.28.15,2.86-1.14,3.51Z"/>
          <path class="cls-3" d="m837.56,106.15c-1.28.66-2.86.15-3.51-1.14l-3-5.88c-.66-1.28-.15-2.86,1.14-3.51,1.28-.66,2.86-.15,3.51,1.14l3,5.88c.66,1.28.15,2.86-1.14,3.51Z"/>
        </g>
        <g>
          <path class="cls-3" d="m842.92,89.58l-5.88,3c-1.28.66-2.86.15-3.51-1.14-.66-1.28-.15-2.86,1.14-3.51l5.88-3c1.28-.66,2.86-.15,3.51,1.14.66,1.28.15,2.86-1.14,3.51Z"/>
          <path class="cls-3" d="m826.86,97.79l-5.88,3c-1.28.66-2.86.15-3.51-1.14-.66-1.28-.15-2.86,1.14-3.51l5.88-3c1.28-.66,2.86-.15,3.51,1.14.66,1.28.15,2.86-1.14,3.51Z"/>
        </g>
      </g>
      <g>
        <g>
          <path class="cls-3" d="m811.18,134.16c-.52.47-1.32.43-1.79-.09l-2.15-2.38c-.47-.52-.43-1.32.09-1.79.52-.47,1.32-.43,1.79.09l2.15,2.38c.47.52.43,1.32-.09,1.79Z"/>
          <path class="cls-3" d="m817.05,140.67c-.52.47-1.32.43-1.79-.09l-2.15-2.38c-.47-.52-.43-1.32.09-1.79.52-.47,1.32-.43,1.79.09l2.15,2.38c.47.52.43,1.32-.09,1.79Z"/>
        </g>
        <g>
          <path class="cls-3" d="m817.48,132.22l-2.38,2.15c-.52.47-1.32.43-1.79-.09-.47-.52-.43-1.32.09-1.79l2.38-2.15c.52-.47,1.32-.43,1.79.09.47.52.43,1.32-.09,1.79Z"/>
          <path class="cls-3" d="m810.98,138.09l-2.38,2.15c-.52.47-1.32.43-1.79-.09-.47-.52-.43-1.32.09-1.79l2.38-2.15c.52-.47,1.32-.43,1.79.09s.43,1.32-.09,1.79Z"/>
        </g>
      </g>
      <g>
        <g>
          <path class="cls-3" d="m783.57,178.61c-.52.47-1.32.43-1.79-.09l-2.15-2.38c-.47-.52-.43-1.32.09-1.79s1.32-.43,1.79.09l2.15,2.38c.47.52.43,1.32-.09,1.79Z"/>
          <path class="cls-3" d="m789.44,185.11c-.52.47-1.32.43-1.79-.09l-2.15-2.38c-.47-.52-.43-1.32.09-1.79.52-.47,1.32-.43,1.79.09l2.15,2.38c.47.52.43,1.32-.09,1.79Z"/>
        </g>
        <g>
          <path class="cls-3" d="m789.87,176.66l-2.38,2.15c-.52.47-1.32.43-1.79-.09-.47-.52-.43-1.32.09-1.79l2.38-2.15c.52-.47,1.32-.43,1.79.09.47.52.43,1.32-.09,1.79Z"/>
          <path class="cls-3" d="m783.37,182.53l-2.38,2.15c-.52.47-1.32.43-1.79-.09s-.43-1.32.09-1.79l2.38-2.15c.52-.47,1.32-.43,1.79.09s.43,1.32-.09,1.79Z"/>
        </g>
      </g>
    </g>
    <g>
      <g>
        <g>
          <path class="cls-3" d="m294.21,1005.33c-2.13-.5-3.45-2.64-2.95-4.76l2.3-9.75c.5-2.13,2.63-3.45,4.76-2.95,2.13.5,3.45,2.63,2.95,4.76l-2.3,9.75c-.5,2.13-2.63,3.45-4.76,2.95Z"/>
          <path class="cls-3" d="m287.94,1031.97c-2.13-.5-3.45-2.64-2.95-4.76l2.3-9.75c.5-2.13,2.63-3.45,4.76-2.95,2.13.5,3.45,2.63,2.95,4.76l-2.3,9.75c-.5,2.13-2.63,3.45-4.76,2.95Z"/>
        </g>
        <g>
          <path class="cls-3" d="m310.42,1018.07l-9.75-2.3c-2.13-.5-3.45-2.64-2.95-4.76.5-2.13,2.63-3.45,4.76-2.95l9.75,2.3c2.13.5,3.45,2.64,2.95,4.76-.5,2.13-2.64,3.45-4.76,2.95Z"/>
          <path class="cls-3" d="m283.78,1011.79l-9.75-2.3c-2.13-.5-3.45-2.63-2.95-4.76.5-2.13,2.63-3.45,4.76-2.95l9.75,2.3c2.13.5,3.45,2.64,2.95,4.76-.5,2.13-2.63,3.45-4.76,2.95Z"/>
        </g>
      </g>
      <g>
        <g>
          <path class="cls-3" d="m374.11,1000.55c-.52.47-1.32.43-1.79-.09l-2.15-2.38c-.47-.52-.43-1.32.09-1.79.52-.47,1.32-.43,1.79.09l2.15,2.38c.47.52.43,1.32-.09,1.79Z"/>
          <path class="cls-3" d="m379.98,1007.06c-.52.47-1.32.43-1.79-.09l-2.15-2.38c-.47-.52-.43-1.32.09-1.79.52-.47,1.32-.43,1.79.09l2.15,2.38c.47.52.43,1.32-.09,1.79Z"/>
        </g>
        <g>
          <path class="cls-3" d="m380.42,998.61l-2.38,2.15c-.52.47-1.32.43-1.79-.09-.47-.52-.43-1.32.09-1.79l2.38-2.15c.52-.47,1.32-.43,1.79.09.47.52.43,1.32-.09,1.79Z"/>
          <path class="cls-3" d="m373.91,1004.48l-2.38,2.15c-.52.47-1.32.43-1.79-.09s-.43-1.32.09-1.79l2.38-2.15c.52-.47,1.32-.43,1.79.09.47.52.43,1.32-.09,1.79Z"/>
        </g>
      </g>
      <g>
        <g>
          <path class="cls-3" d="m238.92,1046.09c-.52.47-1.32.43-1.79-.09l-2.15-2.38c-.47-.52-.43-1.32.09-1.79.52-.47,1.32-.43,1.79.09l2.15,2.38c.47.52.43,1.32-.09,1.79Z"/>
          <path class="cls-3" d="m244.8,1052.6c-.52.47-1.32.43-1.79-.09l-2.15-2.38c-.47-.52-.43-1.32.09-1.79s1.32-.43,1.79.09l2.15,2.38c.47.52.43,1.32-.09,1.79Z"/>
        </g>
        <g>
          <path class="cls-3" d="m245.23,1044.15l-2.38,2.15c-.52.47-1.32.43-1.79-.09-.47-.52-.43-1.32.09-1.79l2.38-2.15c.52-.47,1.32-.43,1.79.09.47.52.43,1.32-.09,1.79Z"/>
          <path class="cls-3" d="m238.72,1050.02l-2.38,2.15c-.52.47-1.32.43-1.79-.09-.47-.52-.43-1.32.09-1.79l2.38-2.15c.52-.47,1.32-.43,1.79.09s.43,1.32-.09,1.79Z"/>
        </g>
      </g>
      <g>
        <g>
          <path class="cls-3" d="m344.65,1030.96c-.52.47-1.32.43-1.79-.09l-2.15-2.38c-.47-.52-.43-1.32.09-1.79s1.32-.43,1.79.09l2.15,2.38c.47.52.43,1.32-.09,1.79Z"/>
          <path class="cls-3" d="m350.53,1037.46c-.52.47-1.32.43-1.79-.09l-2.15-2.38c-.47-.52-.43-1.32.09-1.79.52-.47,1.32-.43,1.79.09l2.15,2.38c.47.52.43,1.32-.09,1.79Z"/>
        </g>
        <g>
          <path class="cls-3" d="m350.96,1029.01l-2.38,2.15c-.52.47-1.32.43-1.79-.09-.47-.52-.43-1.32.09-1.79l2.38-2.15c.52-.47,1.32-.43,1.79.09.47.52.43,1.32-.09,1.79Z"/>
          <path class="cls-3" d="m344.45,1034.88l-2.38,2.15c-.52.47-1.32.43-1.79-.09-.47-.52-.43-1.32.09-1.79l2.38-2.15c.52-.47,1.32-.43,1.79.09.47.52.43,1.32-.09,1.79Z"/>
        </g>
      </g>
    </g>
    <g>
      <g>
        <g>
          <path class="cls-3" d="m286.46,883.6c-2.13-.5-3.45-2.64-2.95-4.76l2.3-9.75c.5-2.13,2.63-3.45,4.76-2.95,2.13.5,3.45,2.64,2.95,4.76l-2.3,9.75c-.5,2.13-2.64,3.45-4.76,2.95Z"/>
          <path class="cls-3" d="m280.18,910.24c-2.13-.5-3.45-2.64-2.95-4.76l2.3-9.75c.5-2.13,2.64-3.45,4.76-2.95,2.13.5,3.45,2.64,2.95,4.76l-2.3,9.75c-.5,2.13-2.63,3.45-4.76,2.95Z"/>
        </g>
        <g>
          <path class="cls-3" d="m302.66,896.34l-9.75-2.3c-2.13-.5-3.45-2.64-2.95-4.76.5-2.13,2.63-3.45,4.76-2.95l9.75,2.3c2.13.5,3.45,2.64,2.95,4.76-.5,2.13-2.63,3.45-4.76,2.95Z"/>
          <path class="cls-3" d="m276.02,890.06l-9.75-2.3c-2.13-.5-3.45-2.64-2.95-4.76.5-2.13,2.63-3.45,4.76-2.95l9.75,2.3c2.13.5,3.45,2.64,2.95,4.76-.5,2.13-2.63,3.45-4.76,2.95Z"/>
        </g>
      </g>
      <g>
        <g>
          <path class="cls-3" d="m364.91,850.19c-1.28.66-2.86.15-3.51-1.14l-3-5.88c-.66-1.28-.15-2.86,1.14-3.51s2.86-.15,3.51,1.14l3,5.88c.66,1.28.15,2.86-1.14,3.51Z"/>
          <path class="cls-3" d="m373.12,866.25c-1.28.66-2.86.15-3.51-1.14l-3-5.88c-.66-1.28-.15-2.86,1.14-3.51,1.28-.66,2.86-.15,3.51,1.14l3,5.88c.66,1.28.15,2.86-1.14,3.51Z"/>
        </g>
        <g>
          <path class="cls-3" d="m378.48,849.67l-5.88,3c-1.28.66-2.86.15-3.51-1.14-.66-1.28-.15-2.86,1.14-3.51l5.88-3c1.28-.66,2.86-.15,3.51,1.14.66,1.28.15,2.86-1.14,3.51Z"/>
          <path class="cls-3" d="m362.42,857.88l-5.88,3c-1.28.66-2.86.15-3.51-1.14-.66-1.28-.15-2.86,1.14-3.51l5.88-3c1.28-.66,2.86-.15,3.51,1.14s.15,2.86-1.14,3.51Z"/>
        </g>
      </g>
      <g>
        <g>
          <path class="cls-3" d="m346.73,894.26c-.52.47-1.32.43-1.79-.09l-2.15-2.38c-.47-.52-.43-1.32.09-1.79s1.32-.43,1.79.09l2.15,2.38c.47.52.43,1.32-.09,1.79Z"/>
          <path class="cls-3" d="m352.61,900.77c-.52.47-1.32.43-1.79-.09l-2.15-2.38c-.47-.52-.43-1.32.09-1.79.52-.47,1.32-.43,1.79.09l2.15,2.38c.47.52.43,1.32-.09,1.79Z"/>
        </g>
        <g>
          <path class="cls-3" d="m353.04,892.31l-2.38,2.15c-.52.47-1.32.43-1.79-.09-.47-.52-.43-1.32.09-1.79l2.38-2.15c.52-.47,1.32-.43,1.79.09.47.52.43,1.32-.09,1.79Z"/>
          <path class="cls-3" d="m346.53,898.18l-2.38,2.15c-.52.47-1.32.43-1.79-.09-.47-.52-.43-1.32.09-1.79l2.38-2.15c.52-.47,1.32-.43,1.79.09.47.52.43,1.32-.09,1.79Z"/>
        </g>
      </g>
      <g>
        <g>
          <path class="cls-3" d="m319.12,938.7c-.52.47-1.32.43-1.79-.09l-2.15-2.38c-.47-.52-.43-1.32.09-1.79.52-.47,1.32-.43,1.79.09l2.15,2.38c.47.52.43,1.32-.09,1.79Z"/>
          <path class="cls-3" d="m324.99,945.21c-.52.47-1.32.43-1.79-.09l-2.15-2.38c-.47-.52-.43-1.32.09-1.79.52-.47,1.32-.43,1.79.09l2.15,2.38c.47.52.43,1.32-.09,1.79Z"/>
        </g>
        <g>
          <path class="cls-3" d="m325.43,936.76l-2.38,2.15c-.52.47-1.32.43-1.79-.09-.47-.52-.43-1.32.09-1.79l2.38-2.15c.52-.47,1.32-.43,1.79.09.47.52.43,1.32-.09,1.79Z"/>
          <path class="cls-3" d="m318.92,942.63l-2.38,2.15c-.52.47-1.32.43-1.79-.09s-.43-1.32.09-1.79l2.38-2.15c.52-.47,1.32-.43,1.79.09.47.52.43,1.32-.09,1.79Z"/>
        </g>
      </g>
    </g>
  </g>
</svg>