<?xml version="1.0" encoding="UTF-8"?>
<svg id="Capa_2" data-name="Capa 2" xmlns="http://www.w3.org/2000/svg" xmlns:xlink="http://www.w3.org/1999/xlink" viewBox="0 0 1450.65 1176.76">
  <defs>
    <style>
      .cls-1 {
        fill: url(#linear-gradient);
      }

      .cls-2 {
        fill: #fff;
      }

      .cls-3 {
        fill: #f1f2f2;
      }

      .cls-4 {
        fill: #fcd118;
      }

      .cls-5 {
        fill: #8b5e3c;
      }

      .cls-6 {
        fill: #a97c50;
      }

      .cls-7 {
        fill: #d1d3d4;
      }

      .cls-8 {
        fill: url(#linear-gradient-8);
      }

      .cls-9 {
        fill: url(#linear-gradient-9);
      }

      .cls-10 {
        fill: url(#linear-gradient-3);
      }

      .cls-11 {
        fill: url(#linear-gradient-4);
      }

      .cls-12 {
        fill: url(#linear-gradient-2);
      }

      .cls-13 {
        fill: url(#linear-gradient-6);
      }

      .cls-14 {
        fill: url(#linear-gradient-7);
      }

      .cls-15 {
        fill: url(#linear-gradient-5);
      }

      .cls-16 {
        fill: url(#linear-gradient-53);
      }

      .cls-17 {
        fill: url(#linear-gradient-51);
      }

      .cls-18 {
        fill: url(#linear-gradient-52);
      }

      .cls-19 {
        fill: url(#linear-gradient-50);
      }

      .cls-20 {
        fill: url(#linear-gradient-41);
      }

      .cls-21 {
        fill: url(#linear-gradient-40);
      }

      .cls-22 {
        fill: url(#linear-gradient-43);
      }

      .cls-23 {
        fill: url(#linear-gradient-42);
      }

      .cls-24 {
        fill: url(#linear-gradient-45);
      }

      .cls-25 {
        fill: url(#linear-gradient-46);
      }

      .cls-26 {
        fill: url(#linear-gradient-44);
      }

      .cls-27 {
        fill: url(#linear-gradient-49);
      }

      .cls-28 {
        fill: url(#linear-gradient-47);
      }

      .cls-29 {
        fill: url(#linear-gradient-48);
      }

      .cls-30 {
        fill: url(#linear-gradient-14);
      }

      .cls-31 {
        fill: url(#linear-gradient-18);
      }

      .cls-32 {
        fill: url(#linear-gradient-22);
      }

      .cls-33 {
        fill: url(#linear-gradient-20);
      }

      .cls-34 {
        fill: url(#linear-gradient-21);
      }

      .cls-35 {
        fill: url(#linear-gradient-23);
      }

      .cls-36 {
        fill: url(#linear-gradient-15);
      }

      .cls-37 {
        fill: url(#linear-gradient-19);
      }

      .cls-38 {
        fill: url(#linear-gradient-16);
      }

      .cls-39 {
        fill: url(#linear-gradient-17);
      }

      .cls-40 {
        fill: url(#linear-gradient-13);
      }

      .cls-41 {
        fill: url(#linear-gradient-12);
      }

      .cls-42 {
        fill: url(#linear-gradient-10);
      }

      .cls-43 {
        fill: url(#linear-gradient-11);
      }

      .cls-44 {
        fill: url(#linear-gradient-27);
      }

      .cls-45 {
        fill: url(#linear-gradient-24);
      }

      .cls-46 {
        fill: url(#linear-gradient-26);
      }

      .cls-47 {
        fill: url(#linear-gradient-38);
      }

      .cls-48 {
        fill: url(#linear-gradient-35);
      }

      .cls-49 {
        fill: url(#linear-gradient-37);
      }

      .cls-50 {
        fill: url(#linear-gradient-34);
      }

      .cls-51 {
        fill: url(#linear-gradient-39);
      }

      .cls-52 {
        fill: url(#linear-gradient-36);
      }

      .cls-53 {
        fill: url(#linear-gradient-25);
      }

      .cls-54 {
        fill: url(#linear-gradient-28);
      }

      .cls-55 {
        fill: url(#linear-gradient-29);
      }

      .cls-56 {
        fill: url(#linear-gradient-33);
      }

      .cls-57 {
        fill: url(#linear-gradient-30);
      }

      .cls-58 {
        fill: url(#linear-gradient-32);
      }

      .cls-59 {
        fill: url(#linear-gradient-31);
      }
    </style>
    <linearGradient id="linear-gradient" x1="0" y1="593.19" x2="1429.16" y2="593.19" gradientUnits="userSpaceOnUse">
      <stop offset="0" stop-color="#482d9d"/>
      <stop offset=".21" stop-color="#3e50b3"/>
      <stop offset=".75" stop-color="#26a6e9"/>
      <stop offset="1" stop-color="#1dc9ff"/>
    </linearGradient>
    <linearGradient id="linear-gradient-2" x1="-12.32" y1="504.9" x2="1636.44" y2="504.9" xlink:href="#linear-gradient"/>
    <linearGradient id="linear-gradient-3" x1="-9.68" y1="510.56" x2="1639.08" y2="510.56" gradientTransform="translate(1902.24 -909.76) rotate(90)" xlink:href="#linear-gradient"/>
    <linearGradient id="linear-gradient-4" x1="61.33" y1="701.97" x2="102.38" y2="701.97" xlink:href="#linear-gradient"/>
    <linearGradient id="linear-gradient-5" x1="89.7" y1="426.1" x2="364.81" y2="426.1" xlink:href="#linear-gradient"/>
    <linearGradient id="linear-gradient-6" x1="1239.08" y1="116.3" x2="1359.59" y2="116.3" xlink:href="#linear-gradient"/>
    <linearGradient id="linear-gradient-7" x1="1204.31" y1="360.27" x2="1393.36" y2="360.27" xlink:href="#linear-gradient"/>
    <linearGradient id="linear-gradient-8" x1="979.68" y1="87.4" x2="1254.66" y2="87.4" xlink:href="#linear-gradient"/>
    <linearGradient id="linear-gradient-9" x1="0" y1="901.92" x2="204.06" y2="901.92" xlink:href="#linear-gradient"/>
    <linearGradient id="linear-gradient-10" x1="1192.3" y1="1038.01" x2="1397.26" y2="1038.01" xlink:href="#linear-gradient"/>
    <linearGradient id="linear-gradient-11" x1="1192.6" y1="865.89" x2="1429.15" y2="865.89" xlink:href="#linear-gradient"/>
    <linearGradient id="linear-gradient-12" x1="106.9" y1="1104.79" x2="219.74" y2="1104.79" xlink:href="#linear-gradient"/>
    <linearGradient id="linear-gradient-13" x1="1015.58" y1="1108.15" x2="1194.4" y2="1108.15" xlink:href="#linear-gradient"/>
    <linearGradient id="linear-gradient-14" x1="204.06" y1="1106.54" x2="735.11" y2="1106.54" xlink:href="#linear-gradient"/>
    <linearGradient id="linear-gradient-15" x1="415.73" y1="335.16" x2="587.15" y2="335.16" gradientUnits="userSpaceOnUse">
      <stop offset="0" stop-color="#582d7f"/>
      <stop offset=".21" stop-color="#4a5094"/>
      <stop offset=".75" stop-color="#29a6c7"/>
      <stop offset="1" stop-color="#1dc9dc"/>
    </linearGradient>
    <linearGradient id="linear-gradient-16" x1="642.81" y1="163.05" x2="550.66" y2="255.2" xlink:href="#linear-gradient-15"/>
    <linearGradient id="linear-gradient-17" x1="463.41" y1="1101.62" x2="463.41" y2="209.11" gradientUnits="userSpaceOnUse">
      <stop offset="0" stop-color="#42e397"/>
      <stop offset="1" stop-color="#3cb6b5"/>
    </linearGradient>
    <linearGradient id="linear-gradient-18" x1="463.41" y1="534.58" x2="463.41" y2="396.48" xlink:href="#linear-gradient-15"/>
    <linearGradient id="linear-gradient-19" x1="544.99" y1="602.57" x2="845.49" y2="602.57" xlink:href="#linear-gradient-17"/>
    <linearGradient id="linear-gradient-20" x1="17437.32" y1="852.6" x2="17437.32" y2="476.05" gradientTransform="translate(18195.96) rotate(-180) scale(1 -1)" gradientUnits="userSpaceOnUse">
      <stop offset="0" stop-color="#bbb"/>
      <stop offset=".05" stop-color="#ccc"/>
      <stop offset=".11" stop-color="#dcdddd"/>
      <stop offset=".19" stop-color="#e8e9e9"/>
      <stop offset=".3" stop-color="#eff0f0"/>
      <stop offset=".6" stop-color="#f1f2f2"/>
      <stop offset="1" stop-color="#fff"/>
    </linearGradient>
    <linearGradient id="linear-gradient-21" x1="898.52" y1="1093.91" x2="898.52" y2="917.9" gradientTransform="matrix(1,0,0,1,0,0)" xlink:href="#linear-gradient-20"/>
    <linearGradient id="linear-gradient-22" x1="17450.83" y1="-5428.18" x2="17828.69" y2="-5286.49" gradientTransform="translate(-17598.52 1315.7) rotate(-18.1) scale(1 -1)" xlink:href="#linear-gradient-15"/>
    <linearGradient id="linear-gradient-23" x1="17333.59" y1="-1046.48" x2="17189.18" y2="-1092.86" gradientTransform="translate(18155.14 293.11) rotate(174.44) scale(1 -1)" gradientUnits="userSpaceOnUse">
      <stop offset="0" stop-color="#9d9e9f"/>
      <stop offset="1" stop-color="#d1d3d4"/>
    </linearGradient>
    <linearGradient id="linear-gradient-24" x1="17959.84" y1="-5205.73" x2="17833.58" y2="-5251.79" gradientTransform="translate(19421.61 355.17) rotate(161.9) scale(1 -1)" xlink:href="#linear-gradient-23"/>
    <linearGradient id="linear-gradient-25" x1="313.29" y1="-16.25" x2="313.29" y2="242.29" gradientTransform="translate(-23.7 198.84) rotate(-20.65)" gradientUnits="userSpaceOnUse">
      <stop offset="0" stop-color="#ffde39"/>
      <stop offset=".09" stop-color="#fec63c"/>
      <stop offset=".29" stop-color="#fe9843"/>
      <stop offset=".42" stop-color="#fe7d4b"/>
      <stop offset=".65" stop-color="#fe4f59"/>
      <stop offset="1" stop-color="#ed327f"/>
    </linearGradient>
    <linearGradient id="linear-gradient-26" x1="209.58" y1="155.3" x2="283.88" y2="26.77" gradientTransform="translate(-23.7 198.84) rotate(-20.65)" xlink:href="#linear-gradient-15"/>
    <linearGradient id="linear-gradient-27" x1="380.08" y1="115.32" x2="362.18" y2="45.9" gradientTransform="translate(-23.7 198.84) rotate(-20.65)" xlink:href="#linear-gradient-15"/>
    <linearGradient id="linear-gradient-28" x1="256.01" y1="106.85" x2="290.17" y2="75.93" gradientTransform="translate(-23.7 198.84) rotate(-20.65)" xlink:href="#linear-gradient-15"/>
    <linearGradient id="linear-gradient-29" x1="380.91" y1="-151.4" x2="385.79" y2="27.02" gradientTransform="translate(-23.7 198.84) rotate(-20.65)" xlink:href="#linear-gradient-15"/>
    <linearGradient id="linear-gradient-30" x1="234.61" y1="-147.4" x2="239.49" y2="31.03" gradientTransform="translate(-23.7 198.84) rotate(-20.65)" xlink:href="#linear-gradient-15"/>
    <linearGradient id="linear-gradient-31" x1="276.05" y1="-118" x2="276.05" y2="-34.96" gradientTransform="translate(-23.7 198.84) rotate(-20.65)" xlink:href="#linear-gradient-15"/>
    <linearGradient id="linear-gradient-32" x1="306.44" y1="-149.36" x2="311.32" y2="29.06" gradientTransform="translate(-23.7 198.84) rotate(-20.65)" xlink:href="#linear-gradient-15"/>
    <linearGradient id="linear-gradient-33" x1="202.05" y1="-66.12" x2="424.54" y2="-66.12" gradientTransform="translate(-23.7 198.84) rotate(-20.65)" xlink:href="#linear-gradient-15"/>
    <linearGradient id="linear-gradient-34" x1="350.44" y1="-118" x2="350.44" y2="-34.96" gradientTransform="translate(-23.7 198.84) rotate(-20.65)" gradientUnits="userSpaceOnUse">
      <stop offset="0" stop-color="#582d7f"/>
      <stop offset=".4" stop-color="#3f6fa6"/>
      <stop offset=".75" stop-color="#29a6c7"/>
      <stop offset="1" stop-color="#1dc9dc"/>
    </linearGradient>
    <linearGradient id="linear-gradient-35" x1="1528.93" y1="105.75" x2="1306.84" y2="111.5" gradientUnits="userSpaceOnUse">
      <stop offset="0" stop-color="#ffde39"/>
      <stop offset=".33" stop-color="#fec63c"/>
      <stop offset="1" stop-color="#fe9843"/>
    </linearGradient>
    <linearGradient id="linear-gradient-36" x1="1063.28" y1="96.54" x2="1163.63" y2="108.88" xlink:href="#linear-gradient-35"/>
    <linearGradient id="linear-gradient-37" x1="1029.86" y1="253.59" x2="1123.31" y2="197.63" xlink:href="#linear-gradient-35"/>
    <linearGradient id="linear-gradient-38" x1="1165.41" y1="132.1" x2="1343.91" y2="132.1" xlink:href="#linear-gradient-35"/>
    <linearGradient id="linear-gradient-39" x1="1186.4" y1="132.1" x2="1364.9" y2="132.1" xlink:href="#linear-gradient-35"/>
    <linearGradient id="linear-gradient-40" x1="1240.3" y1="271.66" x2="1269.03" y2="271.66" xlink:href="#linear-gradient-35"/>
    <linearGradient id="linear-gradient-41" x1="1302.27" y1="193.98" x2="1270.94" y2="221.68" gradientUnits="userSpaceOnUse">
      <stop offset="0" stop-color="#ffde39"/>
      <stop offset=".1" stop-color="#fed63a"/>
      <stop offset=".94" stop-color="#fe9c42"/>
      <stop offset="1" stop-color="#fe9843"/>
    </linearGradient>
    <linearGradient id="linear-gradient-42" x1="1223.19" y1="244.71" x2="1286.14" y2="244.71" xlink:href="#linear-gradient-35"/>
    <linearGradient id="linear-gradient-43" x1="1237.55" y1="244.71" x2="1300.5" y2="244.71" xlink:href="#linear-gradient-35"/>
    <linearGradient id="linear-gradient-44" x1="1301.39" y1="311.77" x2="1168.52" y2="311.77" xlink:href="#linear-gradient-35"/>
    <linearGradient id="linear-gradient-45" x1="1223.19" y1="311.77" x2="1286.14" y2="311.77" xlink:href="#linear-gradient-35"/>
    <linearGradient id="linear-gradient-46" x1="1241.93" y1="311.77" x2="1304.88" y2="311.77" xlink:href="#linear-gradient-35"/>
    <linearGradient id="linear-gradient-47" x1="1260.62" y1="403.53" x2="1260.62" y2="275.46" gradientUnits="userSpaceOnUse">
      <stop offset="0" stop-color="#a97c50"/>
      <stop offset="1" stop-color="#c49a6c"/>
    </linearGradient>
    <linearGradient id="linear-gradient-48" x1="1257.46" y1="432.26" x2="1257.46" y2="350.02" gradientUnits="userSpaceOnUse">
      <stop offset="0" stop-color="#a97c50"/>
      <stop offset="1" stop-color="#8b5e3c"/>
    </linearGradient>
    <linearGradient id="linear-gradient-49" x1="1264.5" y1="-69.81" x2="1185.76" y2=".91" xlink:href="#linear-gradient-35"/>
    <linearGradient id="linear-gradient-50" x1="1271.05" y1="35.9" x2="1271.05" y2="-30.71" xlink:href="#linear-gradient-35"/>
    <linearGradient id="linear-gradient-51" x1="1271.05" y1="35.9" x2="1271.05" y2="-30.71" xlink:href="#linear-gradient-35"/>
    <linearGradient id="linear-gradient-52" x1="1351.93" y1="35.53" x2="1299.34" y2="88.12" xlink:href="#linear-gradient-35"/>
    <linearGradient id="linear-gradient-53" x1="1217.77" y1="174.58" x2="1107.53" y2="297.13" xlink:href="#linear-gradient-35"/>
  </defs>
  <g id="CLEAN">
    <g>
      <path class="cls-1" d="m215.74,243.18c46.24-68.64,144.59-120.22,226.99-149.8C640.01,22.57,877.02-6.77,1088.35,18.67c83.44,10.04,166.65,37.34,227.14,89.68,77.08,66.69,101.37,154.67,52.77,240.68-21.66,38.33-48.43,76.03-53.48,118.73-12.78,108.22,100.85,194.62,112.18,300.84,12.29,115.29-26.23,237.86-135.52,308.54-69.89,45.2-151.99,55.49-235.19,68.1-94.95,14.4-190.83,23.87-287.01,28.4-155.19,7.31-311.15,1.76-465.18-16.72-125.13-15.02-233.01-61.65-282.49-172.94-29.98-67.44-28.19-145.11,2.09-212.21,34.23-75.86,101.85-109.67,172.55-155.73,90.79-59.15,74.31-128,22.78-204.76-42.49-63.3-35.72-119.9-3.26-168.1Z"/>
      <circle class="cls-12" cx="148.68" cy="504.9" r="84"/>
      <ellipse class="cls-10" cx="1391.63" cy="486.9" rx="109.74" ry="58.76" transform="translate(822.16 1846.83) rotate(-86.56)"/>
    </g>
    <g>
      <path class="cls-11" d="m102.38,715.78c-2.76-9.91-7.04-19.42-12.67-27.74-10.08,8.35-19.59,17.19-28.37,26.81,13.69.88,27.39,1.27,41.05.93Z"/>
      <path class="cls-15" d="m141.35,712.56c52.87-7.71,105.66-32.35,135.43-76.72,20.57-30.67,28.68-69.45,22.12-105.79-4.8-26.61-16.97-54.49-6.59-79.46,8.44-20.29,29.31-31.99,44.5-47.87,23.36-24.41,33.23-60.99,25.32-93.84-5.36-22.28-18.08-42.08-25.43-63.78-12-35.41-8.22-75.52,8.83-108.69-52.47,28.26-101.13,64.23-129.78,106.76-32.47,48.2-39.24,104.8,3.26,168.1,51.53,76.76,68.01,145.61-22.78,204.76-37.95,24.73-75.02,45.93-106.51,71.99,5.63,8.32,9.91,17.82,12.67,27.74,13.03-.33,26.03-1.32,38.98-3.21Z"/>
      <path class="cls-13" d="m1241.52,158.17c-.82,2.06-1.64,4.14-2.44,6.22,40.05,2.84,80.6-.19,120.51-7.58-11.82-17.07-26.6-33.31-44.1-48.46-18.49-16-39.1-29.64-61.19-41.18,1.46,31.21-1.25,62.14-12.78,91Z"/>
      <path class="cls-14" d="m1239.08,164.39c-39.72,102.6-55.2,222.96,7.11,320.36,20,31.27,51.01,60.75,86.51,78.99-13.62-30.72-21.9-62.29-17.92-95.98,5.04-42.7,31.82-80.41,53.48-118.73,37.57-66.48,31.58-134.13-8.67-192.22-39.91,7.39-80.46,10.42-120.51,7.58Z"/>
      <path class="cls-8" d="m1166.31,152.22c23.89,6.49,48.24,10.43,72.78,12.17.8-2.08,1.62-4.15,2.44-6.22,11.52-28.86,14.24-59.79,12.78-91-50.19-26.22-108.01-41.53-165.95-48.5-35.6-4.28-71.93-7.01-108.68-8.25,37.83,69.59,109.21,120.78,186.63,141.8Z"/>
      <path class="cls-9" d="m204.06,1068.87c-.7-1.39-1.42-2.78-2.17-4.15-27.59-50.19-89.27-70.87-115.06-121.55-15.82-31.1-10.71-68.57-1.56-102.25,9.15-33.67,22.06-67.25,20.74-102.12-.29-7.67-1.52-15.47-3.63-23.03-13.66.34-27.35-.05-41.05-.93-14.89,16.3-27.69,34.83-37.66,56.92-30.27,67.1-32.07,144.77-2.09,212.21,19.89,44.74,49.23,79.03,85.33,105.01,23.29-9.8,48.81-15.45,72.17-18.62,8.27-1.12,16.68-1.87,24.99-1.51Z"/>
      <path class="cls-42" d="m1192.6,1065.21c-.75,18.03-.02,36.09,1.8,54.1,34.04-9.51,66.69-22.55,97.04-42.17,48.79-31.55,83.47-73.45,105.83-120.43-56.26.77-113.42,24.3-156.02,62.12-16.7,14.82-31.85,31.78-48.65,46.38Z"/>
      <path class="cls-43" d="m1426.96,768.6c-3.81-35.73-19.2-69.21-37.45-102.04-7.41,11.8-10.93,27.35-10.78,41.47.28,25.66,7.51,52.1-.5,76.48-8.87,27-34.04,44.6-56.5,62.02-65.28,50.61-117.76,111.54-127.41,196.48-.84,7.4-1.4,14.8-1.71,22.22,16.79-14.61,31.95-31.56,48.65-46.38,42.6-37.82,99.76-61.35,156.02-62.12,27.72-58.24,36.5-124.29,29.7-188.11Z"/>
      <path class="cls-41" d="m179.07,1070.38c-23.36,3.17-48.88,8.82-72.17,18.62,32.72,23.56,70.99,40.3,112.84,51.81-.65-24.93-4.48-49.57-15.68-71.93-8.31-.36-16.72.39-24.99,1.51Z"/>
      <path class="cls-40" d="m1192.6,1065.21c-9.77,8.5-20.1,16.2-31.61,22.23-29.73,15.56-64.5,18.35-95.55,31.05-18.5,7.56-35.44,18.76-49.86,32.6,13.57-1.85,27.13-3.79,40.67-5.85,47.07-7.14,93.79-13.54,138.15-25.93-1.83-18.01-2.56-36.07-1.8-54.1Z"/>
      <path class="cls-30" d="m680.2,1127.23c-44.91-32.17-92.81-61.32-145.58-77.64-49.31-15.26-104.39-19.07-153.85-2.23-40.92,13.93-83.6,51.23-129.22,35.58-11.24-3.86-21.87-9.55-33.44-12.22-4.63-1.07-9.33-1.63-14.06-1.84,11.2,22.36,15.03,47.01,15.68,71.93,26.82,7.38,55.1,12.61,84.32,16.12,142.74,17.13,287.14,23.14,431.05,18.11-16.01-19.03-37.15-35.08-54.91-47.8Z"/>
    </g>
    <g>
      <g>
        <g>
          <path class="cls-2" d="m760.13,81.6c-2.13-.5-3.45-2.64-2.95-4.76l2.3-9.75c.5-2.13,2.64-3.45,4.76-2.95,2.13.5,3.45,2.64,2.95,4.76l-2.3,9.75c-.5,2.13-2.63,3.45-4.76,2.95Z"/>
          <path class="cls-2" d="m753.85,108.24c-2.13-.5-3.45-2.64-2.95-4.76l2.3-9.75c.5-2.13,2.63-3.45,4.76-2.95s3.45,2.64,2.95,4.76l-2.3,9.75c-.5,2.13-2.63,3.45-4.76,2.95Z"/>
        </g>
        <g>
          <path class="cls-2" d="m776.33,94.33l-9.75-2.3c-2.13-.5-3.45-2.63-2.95-4.76.5-2.13,2.64-3.45,4.76-2.95l9.75,2.3c2.13.5,3.45,2.64,2.95,4.76-.5,2.13-2.64,3.45-4.76,2.95Z"/>
          <path class="cls-2" d="m749.69,88.05l-9.75-2.3c-2.13-.5-3.45-2.64-2.95-4.76.5-2.13,2.63-3.45,4.76-2.95l9.75,2.3c2.13.5,3.45,2.63,2.95,4.76-.5,2.13-2.64,3.45-4.76,2.95Z"/>
        </g>
      </g>
      <g>
        <g>
          <path class="cls-2" d="m838.58,48.18c-1.28.66-2.86.15-3.51-1.14l-3-5.88c-.66-1.28-.15-2.86,1.14-3.51s2.86-.15,3.51,1.14l3,5.88c.66,1.28.15,2.86-1.14,3.51Z"/>
          <path class="cls-2" d="m846.79,64.24c-1.28.66-2.86.15-3.51-1.14l-3-5.88c-.66-1.28-.15-2.86,1.14-3.51,1.28-.66,2.86-.15,3.51,1.14l3,5.88c.66,1.28.15,2.86-1.14,3.51Z"/>
        </g>
        <g>
          <path class="cls-2" d="m852.15,47.66l-5.88,3c-1.28.66-2.86.15-3.51-1.14-.66-1.28-.15-2.86,1.14-3.51l5.88-3c1.28-.66,2.86-.15,3.51,1.14.66,1.28.15,2.86-1.14,3.51Z"/>
          <path class="cls-2" d="m836.09,55.88l-5.88,3c-1.28.66-2.86.15-3.51-1.14-.66-1.28-.15-2.86,1.14-3.51l5.88-3c1.28-.66,2.86-.15,3.51,1.14.66,1.28.15,2.86-1.14,3.51Z"/>
        </g>
      </g>
      <g>
        <g>
          <path class="cls-2" d="m820.41,92.25c-.52.47-1.32.43-1.79-.09l-2.15-2.38c-.47-.52-.43-1.32.09-1.79.52-.47,1.32-.43,1.79.09l2.15,2.38c.47.52.43,1.32-.09,1.79Z"/>
          <path class="cls-2" d="m826.28,98.76c-.52.47-1.32.43-1.79-.09l-2.15-2.38c-.47-.52-.43-1.32.09-1.79s1.32-.43,1.79.09l2.15,2.38c.47.52.43,1.32-.09,1.79Z"/>
        </g>
        <g>
          <path class="cls-2" d="m826.72,90.3l-2.38,2.15c-.52.47-1.32.43-1.79-.09-.47-.52-.43-1.32.09-1.79l2.38-2.15c.52-.47,1.32-.43,1.79.09.47.52.43,1.32-.09,1.79Z"/>
          <path class="cls-2" d="m820.21,96.18l-2.38,2.15c-.52.47-1.32.43-1.79-.09-.47-.52-.43-1.32.09-1.79l2.38-2.15c.52-.47,1.32-.43,1.79.09.47.52.43,1.32-.09,1.79Z"/>
        </g>
      </g>
      <g>
        <g>
          <path class="cls-2" d="m792.8,136.69c-.52.47-1.32.43-1.79-.09l-2.15-2.38c-.47-.52-.43-1.32.09-1.79s1.32-.43,1.79.09l2.15,2.38c.47.52.43,1.32-.09,1.79Z"/>
          <path class="cls-2" d="m798.67,143.2c-.52.47-1.32.43-1.79-.09l-2.15-2.38c-.47-.52-.43-1.32.09-1.79.52-.47,1.32-.43,1.79.09l2.15,2.38c.47.52.43,1.32-.09,1.79Z"/>
        </g>
        <g>
          <path class="cls-2" d="m799.1,134.75l-2.38,2.15c-.52.47-1.32.43-1.79-.09-.47-.52-.43-1.32.09-1.79l2.38-2.15c.52-.47,1.32-.43,1.79.09.47.52.43,1.32-.09,1.79Z"/>
          <path class="cls-2" d="m792.6,140.62l-2.38,2.15c-.52.47-1.32.43-1.79-.09-.47-.52-.43-1.32.09-1.79l2.38-2.15c.52-.47,1.32-.43,1.79.09.47.52.43,1.32-.09,1.79Z"/>
        </g>
      </g>
    </g>
    <g>
      <g>
        <g>
          <path class="cls-2" d="m1168.39,569.67c-2.13-.5-3.45-2.64-2.95-4.76l2.3-9.75c.5-2.13,2.64-3.45,4.76-2.95,2.13.5,3.45,2.63,2.95,4.76l-2.3,9.75c-.5,2.13-2.64,3.45-4.76,2.95Z"/>
          <path class="cls-2" d="m1162.11,596.31c-2.13-.5-3.45-2.63-2.95-4.76l2.3-9.75c.5-2.13,2.63-3.45,4.76-2.95,2.13.5,3.45,2.63,2.95,4.76l-2.3,9.75c-.5,2.13-2.64,3.45-4.76,2.95Z"/>
        </g>
        <g>
          <path class="cls-2" d="m1184.59,582.4l-9.75-2.3c-2.13-.5-3.45-2.64-2.95-4.76.5-2.13,2.64-3.45,4.76-2.95l9.75,2.3c2.13.5,3.45,2.64,2.95,4.76-.5,2.13-2.63,3.45-4.76,2.95Z"/>
          <path class="cls-2" d="m1157.95,576.12l-9.75-2.3c-2.13-.5-3.45-2.63-2.95-4.76.5-2.13,2.64-3.45,4.76-2.95l9.75,2.3c2.13.5,3.45,2.64,2.95,4.76-.5,2.13-2.64,3.45-4.76,2.95Z"/>
        </g>
      </g>
      <g>
        <g>
          <path class="cls-2" d="m1246.84,536.25c-1.28.66-2.86.15-3.51-1.14l-3-5.88c-.66-1.28-.15-2.86,1.14-3.51,1.28-.66,2.86-.15,3.51,1.14l3,5.88c.66,1.28.15,2.86-1.14,3.51Z"/>
          <path class="cls-2" d="m1255.05,552.31c-1.28.66-2.86.15-3.51-1.14l-3-5.88c-.66-1.28-.15-2.86,1.14-3.51,1.28-.66,2.86-.15,3.51,1.14l3,5.88c.66,1.28.15,2.86-1.14,3.51Z"/>
        </g>
        <g>
          <path class="cls-2" d="m1260.41,535.73l-5.88,3c-1.28.66-2.86.15-3.51-1.14-.66-1.28-.15-2.86,1.14-3.51l5.88-3c1.28-.66,2.86-.15,3.51,1.14.66,1.28.15,2.86-1.14,3.51Z"/>
          <path class="cls-2" d="m1244.35,543.95l-5.88,3c-1.28.66-2.86.15-3.51-1.14-.66-1.28-.15-2.86,1.14-3.51l5.88-3c1.28-.66,2.86-.15,3.51,1.14.66,1.28.15,2.86-1.14,3.51Z"/>
        </g>
      </g>
      <g>
        <g>
          <path class="cls-2" d="m1228.67,580.32c-.52.47-1.32.43-1.79-.09l-2.15-2.38c-.47-.52-.43-1.32.09-1.79.52-.47,1.32-.43,1.79.09l2.15,2.38c.47.52.43,1.32-.09,1.79Z"/>
          <path class="cls-2" d="m1234.54,586.83c-.52.47-1.32.43-1.79-.09l-2.15-2.38c-.47-.52-.43-1.32.09-1.79.52-.47,1.32-.43,1.79.09l2.15,2.38c.47.52.43,1.32-.09,1.79Z"/>
        </g>
        <g>
          <path class="cls-2" d="m1234.98,578.37l-2.38,2.15c-.52.47-1.32.43-1.79-.09s-.43-1.32.09-1.79l2.38-2.15c.52-.47,1.32-.43,1.79.09.47.52.43,1.32-.09,1.79Z"/>
          <path class="cls-2" d="m1228.47,584.25l-2.38,2.15c-.52.47-1.32.43-1.79-.09-.47-.52-.43-1.32.09-1.79l2.38-2.15c.52-.47,1.32-.43,1.79.09.47.52.43,1.32-.09,1.79Z"/>
        </g>
      </g>
      <g>
        <g>
          <path class="cls-2" d="m1201.06,624.77c-.52.47-1.32.43-1.79-.09l-2.15-2.38c-.47-.52-.43-1.32.09-1.79s1.32-.43,1.79.09l2.15,2.38c.47.52.43,1.32-.09,1.79Z"/>
          <path class="cls-2" d="m1206.93,631.27c-.52.47-1.32.43-1.79-.09l-2.15-2.38c-.47-.52-.43-1.32.09-1.79.52-.47,1.32-.43,1.79.09l2.15,2.38c.47.52.43,1.32-.09,1.79Z"/>
        </g>
        <g>
          <path class="cls-2" d="m1207.36,622.82l-2.38,2.15c-.52.47-1.32.43-1.79-.09-.47-.52-.43-1.32.09-1.79l2.38-2.15c.52-.47,1.32-.43,1.79.09s.43,1.32-.09,1.79Z"/>
          <path class="cls-2" d="m1200.86,628.69l-2.38,2.15c-.52.47-1.32.43-1.79-.09-.47-.52-.43-1.32.09-1.79l2.38-2.15c.52-.47,1.32-.43,1.79.09.47.52.43,1.32-.09,1.79Z"/>
        </g>
      </g>
    </g>
    <g>
      <g>
        <g>
          <path class="cls-2" d="m1251.04,825.44c-2.13-.5-3.45-2.64-2.95-4.76l2.3-9.75c.5-2.13,2.64-3.45,4.76-2.95,2.13.5,3.45,2.63,2.95,4.76l-2.3,9.75c-.5,2.13-2.63,3.45-4.76,2.95Z"/>
          <path class="cls-2" d="m1244.76,852.08c-2.13-.5-3.45-2.64-2.95-4.76l2.3-9.75c.5-2.13,2.63-3.45,4.76-2.95,2.13.5,3.45,2.64,2.95,4.76l-2.3,9.75c-.5,2.13-2.63,3.45-4.76,2.95Z"/>
        </g>
        <g>
          <path class="cls-2" d="m1267.24,838.17l-9.75-2.3c-2.13-.5-3.45-2.64-2.95-4.76.5-2.13,2.63-3.45,4.76-2.95l9.75,2.3c2.13.5,3.45,2.64,2.95,4.76-.5,2.13-2.63,3.45-4.76,2.95Z"/>
          <path class="cls-2" d="m1240.6,831.89l-9.75-2.3c-2.13-.5-3.45-2.63-2.95-4.76.5-2.13,2.63-3.45,4.76-2.95l9.75,2.3c2.13.5,3.45,2.64,2.95,4.76-.5,2.13-2.63,3.45-4.76,2.95Z"/>
        </g>
      </g>
      <g>
        <g>
          <path class="cls-2" d="m1329.49,792.02c-1.28.66-2.86.15-3.51-1.14l-3-5.88c-.66-1.28-.15-2.86,1.14-3.51s2.86-.15,3.51,1.14l3,5.88c.66,1.28.15,2.86-1.14,3.51Z"/>
          <path class="cls-2" d="m1337.7,808.08c-1.28.66-2.86.15-3.51-1.14l-3-5.88c-.66-1.28-.15-2.86,1.14-3.51,1.28-.66,2.86-.15,3.51,1.14l3,5.88c.66,1.28.15,2.86-1.14,3.51Z"/>
        </g>
        <g>
          <path class="cls-2" d="m1343.06,791.5l-5.88,3c-1.28.66-2.86.15-3.51-1.14-.66-1.28-.15-2.86,1.14-3.51l5.88-3c1.28-.66,2.86-.15,3.51,1.14.66,1.28.15,2.86-1.14,3.51Z"/>
          <path class="cls-2" d="m1327,799.72l-5.88,3c-1.28.66-2.86.15-3.51-1.14-.66-1.28-.15-2.86,1.14-3.51l5.88-3c1.28-.66,2.86-.15,3.51,1.14.66,1.28.15,2.86-1.14,3.51Z"/>
        </g>
      </g>
      <g>
        <g>
          <path class="cls-2" d="m1311.31,836.09c-.52.47-1.32.43-1.79-.09l-2.15-2.38c-.47-.52-.43-1.32.09-1.79.52-.47,1.32-.43,1.79.09l2.15,2.38c.47.52.43,1.32-.09,1.79Z"/>
          <path class="cls-2" d="m1317.19,842.6c-.52.47-1.32.43-1.79-.09l-2.15-2.38c-.47-.52-.43-1.32.09-1.79s1.32-.43,1.79.09l2.15,2.38c.47.52.43,1.32-.09,1.79Z"/>
        </g>
        <g>
          <path class="cls-2" d="m1317.62,834.14l-2.38,2.15c-.52.47-1.32.43-1.79-.09-.47-.52-.43-1.32.09-1.79l2.38-2.15c.52-.47,1.32-.43,1.79.09.47.52.43,1.32-.09,1.79Z"/>
          <path class="cls-2" d="m1311.11,840.02l-2.38,2.15c-.52.47-1.32.43-1.79-.09-.47-.52-.43-1.32.09-1.79l2.38-2.15c.52-.47,1.32-.43,1.79.09.47.52.43,1.32-.09,1.79Z"/>
        </g>
      </g>
      <g>
        <g>
          <path class="cls-2" d="m1283.7,880.54c-.52.47-1.32.43-1.79-.09l-2.15-2.38c-.47-.52-.43-1.32.09-1.79s1.32-.43,1.79.09l2.15,2.38c.47.52.43,1.32-.09,1.79Z"/>
          <path class="cls-2" d="m1289.57,887.04c-.52.47-1.32.43-1.79-.09l-2.15-2.38c-.47-.52-.43-1.32.09-1.79.52-.47,1.32-.43,1.79.09l2.15,2.38c.47.52.43,1.32-.09,1.79Z"/>
        </g>
        <g>
          <path class="cls-2" d="m1290.01,878.59l-2.38,2.15c-.52.47-1.32.43-1.79-.09-.47-.52-.43-1.32.09-1.79l2.38-2.15c.52-.47,1.32-.43,1.79.09.47.52.43,1.32-.09,1.79Z"/>
          <path class="cls-2" d="m1283.5,884.46l-2.38,2.15c-.52.47-1.32.43-1.79-.09s-.43-1.32.09-1.79l2.38-2.15c.52-.47,1.32-.43,1.79.09s.43,1.32-.09,1.79Z"/>
        </g>
      </g>
    </g>
    <g>
      <g>
        <g>
          <path class="cls-2" d="m386.71,1029.16c-2.13-.5-3.45-2.64-2.95-4.76l2.3-9.75c.5-2.13,2.64-3.45,4.76-2.95,2.13.5,3.45,2.64,2.95,4.76l-2.3,9.75c-.5,2.13-2.63,3.45-4.76,2.95Z"/>
          <path class="cls-2" d="m380.43,1055.8c-2.13-.5-3.45-2.63-2.95-4.76l2.3-9.75c.5-2.13,2.63-3.45,4.76-2.95s3.45,2.64,2.95,4.76l-2.3,9.75c-.5,2.13-2.63,3.45-4.76,2.95Z"/>
        </g>
        <g>
          <path class="cls-2" d="m402.91,1041.89l-9.75-2.3c-2.13-.5-3.45-2.64-2.95-4.76.5-2.13,2.64-3.45,4.76-2.95l9.75,2.3c2.13.5,3.45,2.64,2.95,4.76-.5,2.13-2.64,3.45-4.76,2.95Z"/>
          <path class="cls-2" d="m376.27,1035.62l-9.75-2.3c-2.13-.5-3.45-2.64-2.95-4.76.5-2.13,2.63-3.45,4.76-2.95l9.75,2.3c2.13.5,3.45,2.63,2.95,4.76-.5,2.13-2.64,3.45-4.76,2.95Z"/>
        </g>
      </g>
      <g>
        <g>
          <path class="cls-2" d="m465.16,995.74c-1.28.66-2.86.15-3.51-1.14l-3-5.88c-.66-1.28-.15-2.86,1.14-3.51s2.86-.15,3.51,1.14l3,5.88c.66,1.28.15,2.86-1.14,3.51Z"/>
          <path class="cls-2" d="m473.37,1011.8c-1.28.66-2.86.15-3.51-1.14l-3-5.88c-.66-1.28-.15-2.86,1.14-3.51,1.28-.66,2.86-.15,3.51,1.14l3,5.88c.66,1.28.15,2.86-1.14,3.51Z"/>
        </g>
        <g>
          <path class="cls-2" d="m478.73,995.23l-5.88,3c-1.28.66-2.86.15-3.51-1.14-.66-1.28-.15-2.86,1.14-3.51l5.88-3c1.28-.66,2.86-.15,3.51,1.14.66,1.28.15,2.86-1.14,3.51Z"/>
          <path class="cls-2" d="m462.67,1003.44l-5.88,3c-1.28.66-2.86.15-3.51-1.14-.66-1.28-.15-2.86,1.14-3.51l5.88-3c1.28-.66,2.86-.15,3.51,1.14.66,1.28.15,2.86-1.14,3.51Z"/>
        </g>
      </g>
      <g>
        <g>
          <path class="cls-2" d="m446.98,1039.81c-.52.47-1.32.43-1.79-.09l-2.15-2.38c-.47-.52-.43-1.32.09-1.79.52-.47,1.32-.43,1.79.09l2.15,2.38c.47.52.43,1.32-.09,1.79Z"/>
          <path class="cls-2" d="m452.86,1046.32c-.52.47-1.32.43-1.79-.09l-2.15-2.38c-.47-.52-.43-1.32.09-1.79s1.32-.43,1.79.09l2.15,2.38c.47.52.43,1.32-.09,1.79Z"/>
        </g>
        <g>
          <path class="cls-2" d="m453.29,1037.87l-2.38,2.15c-.52.47-1.32.43-1.79-.09-.47-.52-.43-1.32.09-1.79l2.38-2.15c.52-.47,1.32-.43,1.79.09.47.52.43,1.32-.09,1.79Z"/>
          <path class="cls-2" d="m446.78,1043.74l-2.38,2.15c-.52.47-1.32.43-1.79-.09s-.43-1.32.09-1.79l2.38-2.15c.52-.47,1.32-.43,1.79.09.47.52.43,1.32-.09,1.79Z"/>
        </g>
      </g>
      <g>
        <g>
          <path class="cls-2" d="m419.37,1084.26c-.52.47-1.32.43-1.79-.09l-2.15-2.38c-.47-.52-.43-1.32.09-1.79s1.32-.43,1.79.09l2.15,2.38c.47.52.43,1.32-.09,1.79Z"/>
          <path class="cls-2" d="m425.24,1090.76c-.52.47-1.32.43-1.79-.09l-2.15-2.38c-.47-.52-.43-1.32.09-1.79.52-.47,1.32-.43,1.79.09l2.15,2.38c.47.52.43,1.32-.09,1.79Z"/>
        </g>
        <g>
          <path class="cls-2" d="m425.68,1082.31l-2.38,2.15c-.52.47-1.32.43-1.79-.09-.47-.52-.43-1.32.09-1.79l2.38-2.15c.52-.47,1.32-.43,1.79.09.47.52.43,1.32-.09,1.79Z"/>
          <path class="cls-2" d="m419.17,1088.18l-2.38,2.15c-.52.47-1.32.43-1.79-.09s-.43-1.32.09-1.79l2.38-2.15c.52-.47,1.32-.43,1.79.09s.43,1.32-.09,1.79Z"/>
        </g>
      </g>
    </g>
    <g>
      <g>
        <g>
          <path class="cls-36" d="m1060.79,339.8c0-12.71-10.3-23.01-23.01-23.01H511.6l.02,36.72h549.17v-13.72Z"/>
          <path class="cls-38" d="m420.61,316.79c-15.06,0-27.26,10.3-27.26,23.01v13.72h140.11l-.02-36.72h-112.83Z"/>
          <g>
            <circle class="cls-2" cx="440.1" cy="335.16" r="9.98"/>
            <path class="cls-2" d="m486.72,325.17c-5.5,0-9.98,4.48-9.98,9.98s4.48,9.98,9.98,9.98,9.98-4.48,9.98-9.98-4.48-9.98-9.98-9.98Z"/>
          </g>
        </g>
        <g>
          <polygon class="cls-39" points="393.35 353.52 393.35 851.72 533.47 851.61 533.47 353.52 393.35 353.52"/>
          <polygon class="cls-3" points="726.98 353.52 533.47 353.52 533.47 851.61 726.98 851.47 1060.79 851.21 1060.79 353.52 726.98 353.52"/>
          <path class="cls-2" d="m498.63,839.07h-70.45c-2.64,0-4.78-2.14-4.78-4.78s2.14-4.78,4.78-4.78h70.45c2.64,0,4.78,2.14,4.78,4.78s-2.14,4.78-4.78,4.78Z"/>
          <g>
            <path class="cls-2" d="m426.7,503.07h-9.79c-2.64,0-4.78-2.14-4.78-4.78s2.14-4.78,4.78-4.78h9.79c2.64,0,4.78,2.14,4.78,4.78s-2.14,4.78-4.78,4.78Z"/>
            <path class="cls-2" d="m509.91,503.07h-70.45c-2.64,0-4.78-2.14-4.78-4.78s2.14-4.78,4.78-4.78h70.45c2.64,0,4.78,2.14,4.78,4.78s-2.14,4.78-4.78,4.78Z"/>
            <path class="cls-2" d="m509.91,526.62h-25.12c-2.64,0-4.78-2.14-4.78-4.78s2.14-4.78,4.78-4.78h25.12c2.64,0,4.78,2.14,4.78,4.78s-2.14,4.78-4.78,4.78Z"/>
            <path class="cls-2" d="m470.71,526.62h-53.8c-2.64,0-4.78-2.14-4.78-4.78s2.14-4.78,4.78-4.78h53.8c2.64,0,4.78,2.14,4.78,4.78s-2.14,4.78-4.78,4.78Z"/>
            <path class="cls-2" d="m509.91,550.17h-46.5c-2.64,0-4.78-2.14-4.78-4.78s2.14-4.78,4.78-4.78h46.5c2.64,0,4.78,2.14,4.78,4.78s-2.14,4.78-4.78,4.78Z"/>
            <path class="cls-2" d="m448.4,550.17h-31.48c-2.64,0-4.78-2.14-4.78-4.78s2.14-4.78,4.78-4.78h31.48c2.64,0,4.78,2.14,4.78,4.78s-2.14,4.78-4.78,4.78Z"/>
            <g>
              <path class="cls-2" d="m496.78,379.71h-66.75c-7.25,0-13.12,5.88-13.12,13.12v66.75c0,7.25,5.88,13.12,13.12,13.12h1.29v-1.84c0-16.58,10.08-28.59,25.31-31.32-8.05-2.81-13.84-10.44-13.84-19.45,0-11.39,9.23-20.62,20.62-20.62s20.62,9.23,20.62,20.62c0,9.01-5.79,16.65-13.84,19.45,15.22,2.73,25.31,14.74,25.31,31.32v1.84h1.29c7.25,0,13.12-5.88,13.12-13.12v-66.75c0-7.25-5.88-13.12-13.12-13.12Z"/>
              <path class="cls-31" d="m470.19,439.54c8.05-2.81,13.84-10.44,13.84-19.45,0-11.39-9.23-20.62-20.62-20.62s-20.62,9.23-20.62,20.62c0,9.01,5.79,16.65,13.84,19.45-15.22,2.73-25.31,14.74-25.31,31.32v1.84h64.17v-1.84c0-16.58-10.08-28.59-25.31-31.32Z"/>
            </g>
          </g>
          <path class="cls-37" d="m828.25,379.84h-229.93c-9.52,0-17.24,7.72-17.24,17.24v9.52l-36.09,19.6,36.09,19.6v362.25c0,9.52,7.72,17.24,17.24,17.24h229.93c9.52,0,17.24-7.72,17.24-17.24v-410.97c0-9.52-7.72-17.24-17.24-17.24Z"/>
        </g>
      </g>
      <g>
        <g>
          <path class="cls-33" d="m908.01,621.01v-194.55l-298.74.14.3,229.4c0,26.77,17.89,48.46,39.96,48.46h222.71l35.76-83.46Z"/>
          <path class="cls-34" d="m729.05,606.15h298.99c22.07,0,39.96,20.82,39.96,46.51v.25l-.36,44.85.13,248.28v115.23h-254.72c-24.18,0-43.79-19.6-43.79-43.78v-316.96l-40.21-94.35Z"/>
          <g>
            <rect class="cls-32" x="795.23" y="780.17" width="246.79" height="156.36" transform="translate(1837.26 1716.71) rotate(180)"/>
            <polygon class="cls-35" points="890.23 817.74 963.1 936.53 817.36 936.53 890.23 817.74"/>
            <polygon class="cls-45" points="795.23 870.54 837.41 807.57 922.7 936.53 795.23 936.53 795.23 870.54"/>
            <path class="cls-4" d="m980.05,820.09c-3.4,5.6-1.34,12.74,4.6,15.94,5.94,3.21,13.52,1.26,16.92-4.34,3.4-5.6,1.34-12.74-4.6-15.94-5.94-3.21-13.52-1.26-16.92,4.34Z"/>
          </g>
          <g>
            <g>
              <path class="cls-7" d="m725.37,474.3h142.38c3.04,0,5.5-2.46,5.5-5.5s-2.46-5.5-5.5-5.5h-142.38c-3.04,0-5.5,2.46-5.5,5.5s2.46,5.5,5.5,5.5Z"/>
              <path class="cls-7" d="m649.53,474.3h50.38c3.04,0,5.5-2.46,5.5-5.5s-2.46-5.5-5.5-5.5h-50.38c-3.04,0-5.5,2.46-5.5,5.5s2.46,5.5,5.5,5.5Z"/>
            </g>
            <g>
              <path class="cls-7" d="m834.42,514.22h33.33c3.04,0,5.5-2.46,5.5-5.5s-2.46-5.5-5.5-5.5h-33.33c-3.04,0-5.5,2.46-5.5,5.5s2.46,5.5,5.5,5.5Z"/>
              <path class="cls-7" d="m649.53,514.22h75.84c3.04,0,5.5-2.46,5.5-5.5s-2.46-5.5-5.5-5.5h-75.84c-3.04,0-5.5,2.46-5.5,5.5s2.46,5.5,5.5,5.5Z"/>
              <path class="cls-7" d="m741.79,514.22h71.62c3.04,0,5.5-2.46,5.5-5.5s-2.46-5.5-5.5-5.5h-71.62c-3.04,0-5.5,2.46-5.5,5.5s2.46,5.5,5.5,5.5Z"/>
            </g>
            <g>
              <path class="cls-7" d="m782.51,554.15h85.24c3.04,0,5.5-2.46,5.5-5.5s-2.46-5.5-5.5-5.5h-85.24c-3.04,0-5.5,2.46-5.5,5.5s2.46,5.5,5.5,5.5Z"/>
              <path class="cls-7" d="m649.53,554.15h110.13c3.04,0,5.5-2.46,5.5-5.5s-2.46-5.5-5.5-5.5h-110.13c-3.04,0-5.5,2.46-5.5,5.5s2.46,5.5,5.5,5.5Z"/>
            </g>
            <g>
              <path class="cls-7" d="m858.67,594.07h9.08c3.04,0,5.5-2.46,5.5-5.5s-2.46-5.5-5.5-5.5h-9.08c-3.04,0-5.5,2.46-5.5,5.5s2.46,5.5,5.5,5.5Z"/>
              <path class="cls-7" d="m649.53,594.07h33.19c3.04,0,5.5-2.46,5.5-5.5s-2.46-5.5-5.5-5.5h-33.19c-3.04,0-5.5,2.46-5.5,5.5s2.46,5.5,5.5,5.5Z"/>
              <path class="cls-7" d="m702.31,594.07h137.71c3.04,0,5.5-2.46,5.5-5.5s-2.46-5.5-5.5-5.5h-137.71c-3.04,0-5.5,2.46-5.5,5.5s2.46,5.5,5.5,5.5Z"/>
            </g>
          </g>
          <g>
            <g>
              <path class="cls-7" d="m1006.69,670.04h24c3.04,0,5.5-2.46,5.5-5.5s-2.46-5.5-5.5-5.5h-24c-3.04,0-5.5,2.46-5.5,5.5s2.46,5.5,5.5,5.5Z"/>
              <path class="cls-7" d="m931.72,670.04h51.75c3.04,0,5.5-2.46,5.5-5.5s-2.46-5.5-5.5-5.5h-51.75c-3.04,0-5.5,2.46-5.5,5.5s2.46,5.5,5.5,5.5Z"/>
            </g>
            <g>
              <path class="cls-7" d="m957.59,709.96h73.1c3.04,0,5.5-2.46,5.5-5.5s-2.46-5.5-5.5-5.5h-73.1c-3.04,0-5.5,2.46-5.5,5.5s2.46,5.5,5.5,5.5Z"/>
              <path class="cls-7" d="m806.57,709.96h92.8c3.04,0,5.5-2.46,5.5-5.5s-2.46-5.5-5.5-5.5h-92.8c-3.04,0-5.5,2.46-5.5,5.5s2.46,5.5,5.5,5.5Z"/>
              <path class="cls-7" d="m917.55,709.96h18.63c3.04,0,5.5-2.46,5.5-5.5s-2.46-5.5-5.5-5.5h-18.63c-3.04,0-5.5,2.46-5.5,5.5s2.46,5.5,5.5,5.5Z"/>
            </g>
            <g>
              <path class="cls-7" d="m980.51,749.89h50.18c3.04,0,5.5-2.46,5.5-5.5s-2.46-5.5-5.5-5.5h-50.18c-3.04,0-5.5,2.46-5.5,5.5s2.46,5.5,5.5,5.5Z"/>
              <path class="cls-7" d="m806.57,749.89h154.66c3.04,0,5.5-2.46,5.5-5.5s-2.46-5.5-5.5-5.5h-154.66c-3.04,0-5.5,2.46-5.5,5.5s2.46,5.5,5.5,5.5Z"/>
            </g>
          </g>
          <path class="cls-7" d="m769.26,704.46v-49.86c0-26.77-17.89-48.46-39.96-48.46-6.34,0-12.56,1.86-17.96,5.16-8.24,5.03-14.33,13.08-17.92,21.96-3.6,8.87-3.31,18.82-4.41,28.2-1.43,12.2-5.75,24.02-14.79,32.65-6.66,6.35-15.42,10.36-24.69,10.36h119.73Z"/>
          <g>
            <path class="cls-2" d="m891.97,962.93h298.99c22.07,0,39.96,20.82,39.96,46.51v.25l-.36,44.85.13,103.5h-254.15c-24.5,0-44.35-19.86-44.35-44.35v-56.4l-40.21-94.35Z"/>
            <path class="cls-7" d="m932.32,1061.25v-49.86c0-26.77-17.89-48.46-39.96-48.46-6.34,0-12.56,1.86-17.96,5.16-8.24,5.03-14.33,13.08-17.92,21.96-3.6,8.87-3.31,18.82-4.41,28.2-1.43,12.2-5.75,24.02-14.79,32.65-6.66,6.35-15.42,10.36-24.69,10.36h119.73Z"/>
            <g>
              <path class="cls-7" d="m1198.07,1002.8h-28.07c-2.99,0-5.42-2.65-5.42-5.93s2.43-5.93,5.42-5.93h28.07c2.99,0,5.42,2.65,5.42,5.93,0,3.27-2.43,5.93-5.42,5.93Z"/>
              <path class="cls-7" d="m1154.99,1002.8h-163.9c-2.99,0-5.42-2.65-5.42-5.93s2.43-5.93,5.42-5.93h163.9c2.99,0,5.42,2.65,5.42,5.93s-2.43,5.93-5.42,5.93Z"/>
              <path class="cls-7" d="m975.37,1002.8h-10.61c-2.99,0-5.42-2.65-5.42-5.93s2.43-5.93,5.42-5.93h10.61c2.99,0,5.42,2.65,5.42,5.93s-2.43,5.93-5.42,5.93Z"/>
            </g>
            <g>
              <path class="cls-7" d="m1198.07,1041.11h-182.95c-2.99,0-5.42-2.65-5.42-5.93s2.43-5.93,5.42-5.93h182.95c2.99,0,5.42,2.65,5.42,5.93,0,3.27-2.43,5.93-5.42,5.93Z"/>
              <path class="cls-7" d="m998.45,1041.11h-33.68c-2.99,0-5.42-2.65-5.42-5.93s2.43-5.93,5.42-5.93h33.68c2.99,0,5.42,2.65,5.42,5.93s-2.43,5.93-5.42,5.93Z"/>
            </g>
            <g>
              <path class="cls-7" d="m1198.07,1083.41h-28.07c-2.99,0-5.42-2.65-5.42-5.93s2.43-5.93,5.42-5.93h28.07c2.99,0,5.42,2.65,5.42,5.93,0,3.27-2.43,5.93-5.42,5.93Z"/>
              <path class="cls-7" d="m1154.99,1083.41h-90.75c-2.99,0-5.42-2.65-5.42-5.93s2.43-5.93,5.42-5.93h90.75c2.99,0,5.42,2.65,5.42,5.93s-2.43,5.93-5.42,5.93Z"/>
              <path class="cls-7" d="m1048.52,1083.41h-83.75c-2.99,0-5.42-2.65-5.42-5.93s2.43-5.93,5.42-5.93h83.75c2.99,0,5.42,2.65,5.42,5.93s-2.43,5.93-5.42,5.93Z"/>
            </g>
          </g>
        </g>
        <path class="cls-3" d="m1027.73,1096.14h243.83s114.27,0,114.27,0c0,34.18-22.85,61.9-51.03,61.9h-.1s-357.99,0-357.99,0c28.18,0,51.03-27.71,51.03-61.9Z"/>
      </g>
      <g>
        <circle class="cls-2" cx="620.77" cy="407.6" r="11.5"/>
        <path class="cls-2" d="m654.62,410.98h-9.5c-1.86,0-3.37-1.51-3.37-3.38h0c0-1.86,1.51-3.38,3.37-3.38h9.5c1.86,0,3.38,1.51,3.38,3.38h0c0,1.86-1.51,3.38-3.38,3.38Z"/>
        <path class="cls-2" d="m744.66,410.98h-78.5c-1.86,0-3.38-1.51-3.38-3.38h0c0-1.86,1.51-3.38,3.38-3.38h78.5c1.86,0,3.38,1.51,3.38,3.38h0c0,1.86-1.51,3.38-3.38,3.38Z"/>
      </g>
    </g>
    <g>
      <path class="cls-53" d="m354.12,4.79l-203.42,76.68c-26.14,9.85-39.83,37.77-30.56,62.35l41.48,110.04c9.27,24.58,37.97,36.52,64.12,26.66l64.03-24.13,56.02,34.43,19.36-62.84,64.03-24.13c26.14-9.85,39.83-37.77,30.56-62.35l-41.48-110.04c-9.27-24.58-37.97-36.52-64.12-26.66Z"/>
      <g>
        <g>
          <polygon class="cls-46" points="167 131.91 166.97 132.12 318.67 218.93 235.74 106 167 131.91"/>
          <polygon class="cls-44" points="375.33 53.59 375.17 53.44 301.46 81.23 318.67 218.93 318.67 218.93 375.33 53.59"/>
          <polygon class="cls-54" points="235.74 106 318.67 218.93 318.67 218.93 301.46 81.23 235.74 106"/>
        </g>
        <polygon class="cls-55" points="375.17 53.44 315.69 0 315.62 .03 301.52 81.2 375.17 53.44"/>
        <polygon class="cls-57" points="176.41 52.5 167 131.91 235.7 106.01 176.41 52.5 176.41 52.5"/>
        <polygon class="cls-59" points="245.79 26.35 176.41 52.5 235.7 106.01 235.89 105.94 246.16 26.71 245.79 26.35"/>
        <polygon class="cls-58" points="246.16 26.71 235.89 105.94 301.33 81.27 246.16 26.71"/>
        <polygon class="cls-56" points="246.23 26.18 245.79 26.35 246.16 26.71 246.23 26.18"/>
        <polygon class="cls-50" points="301.33 81.27 301.52 81.2 315.62 .03 246.23 26.18 246.16 26.71 301.33 81.27"/>
      </g>
    </g>
    <g>
      <g>
        <path class="cls-48" d="m1329.05,179.1c-2.58,0-5.1-1.33-6.51-3.71-2.12-3.59-.93-8.22,2.66-10.35,12.16-7.18,29.41-20.27,42.53-41.82,15.03-24.69,17.91-49.52,17.81-65.36h-56.5c-4.17,0-7.55-3.38-7.55-7.55s3.38-7.55,7.55-7.55h63.79c3.98,0,7.28,3.09,7.54,7.06,1.07,16.48-.07,48.96-19.74,81.27-11.67,19.16-28.18,35.41-47.75,46.97-1.21.71-2.53,1.05-3.84,1.05Z"/>
        <path class="cls-52" d="m1180.28,179.1c2.58,0,5.1-1.33,6.51-3.71,2.12-3.59.93-8.22-2.66-10.35-12.16-7.18-29.41-20.27-42.53-41.82-15.03-24.69-17.91-49.52-17.81-65.36h56.5c4.17,0,7.55-3.38,7.55-7.55s-3.38-7.55-7.55-7.55h-63.79c-3.98,0-7.28,3.09-7.54,7.06-1.07,16.48.07,48.96,19.74,81.27,11.67,19.16,28.18,35.41,47.75,46.97,1.21.71,2.53,1.05,3.84,1.05Z"/>
      </g>
      <g>
        <path class="cls-49" d="m1275.65,226.62c-49.29,0-89.25-39.96-89.25-89.25V37.58h-20.98v112.19c0,49.29,39.96,89.25,89.25,89.25h0c20.94,0,40.2-7.22,55.42-19.29-10.6,4.44-22.23,6.89-34.44,6.89h0Z"/>
        <path class="cls-47" d="m1343.91,149.77V37.58h-157.52v99.79c0,49.29,39.96,89.25,89.25,89.25h0c12.21,0,23.84-2.45,34.44-6.89,20.61-16.35,33.83-41.61,33.83-69.96Z"/>
        <path class="cls-51" d="m1343.91,149.77V37.58h-157.52v99.79c0,49.29,39.96,89.25,89.25,89.25h0c12.21,0,23.84-2.45,34.44-6.89,20.61-16.35,33.83-41.61,33.83-69.96Z"/>
      </g>
      <rect class="cls-21" x="1240.3" y="235.66" width="28.72" height="72"/>
      <g>
        <path class="cls-20" d="m1237.63,230.07h-14.44v.14c0,17.38,14.09,31.48,31.48,31.48h0c4.22,0,8.24-.84,11.92-2.34-15.55-1.2-27.93-13.68-28.95-29.27Z"/>
        <path class="cls-23" d="m1286.14,230.21v-.14h-48.51c1.03,15.59,13.41,28.08,28.95,29.27,11.47-4.7,19.56-15.97,19.56-29.13Z"/>
        <path class="cls-22" d="m1286.14,230.21v-.14h-48.51c1.03,15.59,13.41,28.08,28.95,29.27,11.47-4.7,19.56-15.97,19.56-29.13Z"/>
      </g>
      <g>
        <rect class="cls-26" x="1223.19" y="302.81" width="18.75" height="17.91"/>
        <rect class="cls-24" x="1241.93" y="302.81" width="44.21" height="17.91"/>
        <rect class="cls-25" x="1241.93" y="302.81" width="44.21" height="17.91"/>
      </g>
      <g>
        <path class="cls-6" d="m1175.49,328.46v62.2h11.92v-69.95h-4.17c-4.28,0-7.75,3.47-7.75,7.75Z"/>
        <path class="cls-28" d="m1187.4,320.72v69.95h146.44v-62.2c0-4.28-3.47-7.75-7.75-7.75h-138.69Z"/>
      </g>
      <g>
        <path class="cls-5" d="m1158.98,390.66h-.36c-2.89,0-5.24,2.35-5.24,5.24v34.21h202.56v-5.6h-196.97v-33.85Z"/>
        <path class="cls-29" d="m1158.98,390.66v33.85h196.97v-28.61c0-2.89-2.35-5.24-5.24-5.24h-191.73Z"/>
      </g>
      <g>
        <path class="cls-27" d="m1144.43,11.87v19.33c0,3.52,2.85,6.37,6.37,6.37h26.41V5.5h-26.41c-3.52,0-6.37,2.85-6.37,6.37Z"/>
        <path class="cls-19" d="m1177.21,5.5v32.08h181.31c3.52,0,6.37-2.85,6.37-6.37V11.87c0-3.52-2.85-6.37-6.37-6.37h-181.31Z"/>
        <path class="cls-17" d="m1177.21,5.5v32.08h181.31c3.52,0,6.37-2.85,6.37-6.37V11.87c0-3.52-2.85-6.37-6.37-6.37h-181.31Z"/>
      </g>
      <g>
        <path class="cls-18" d="m1208.75,122.96c0-13.34,4.66-25.6,12.43-35.23-13.75,10.23-22.66,26.61-22.66,45.07,0,31.01,25.14,56.14,56.14,56.14,17.66,0,33.42-8.16,43.71-20.91-9.35,6.96-20.93,11.08-33.48,11.08-31.01,0-56.14-25.14-56.14-56.14Z"/>
        <path class="cls-16" d="m1254.66,76.66c-12.55,0-24.14,4.12-33.48,11.08-7.77,9.63-12.43,21.89-12.43,35.23,0,31.01,25.14,56.14,56.14,56.14,12.55,0,24.14-4.12,33.48-11.08,7.77-9.63,12.43-21.89,12.43-35.23,0-31.01-25.14-56.14-56.14-56.14Z"/>
      </g>
      <path class="cls-2" d="m1266.28,93.96v77.67c0,1.29-.94,2.23-2.23,2.23h-7.98c-1.17,0-2.11-.94-2.11-2.23v-59.13h-8.8c-1.17,0-2.11-1.06-2.11-2.23v-5.4c0-1.29.94-2.23,2.11-2.23h2.11c5.87,0,6.57-4.58,6.69-6.1v-2.58c0-1.29.94-2.23,2.11-2.23h7.98c1.29,0,2.23.94,2.23,2.23Z"/>
      <g>
        <g>
          <rect class="cls-3" x="1200.19" y="335.27" width="108.95" height="40.85"/>
          <rect class="cls-2" x="1214.55" y="335.27" width="94.59" height="40.85"/>
        </g>
        <g>
          <path class="cls-7" d="m1273.82,347.65h-38.31c-1.18,0-2.13-.95-2.13-2.13s.95-2.13,2.13-2.13h38.31c1.18,0,2.13.95,2.13,2.13s-.95,2.13-2.13,2.13Z"/>
          <path class="cls-7" d="m1284.89,357.82h-15.87c-1.18,0-2.13-.95-2.13-2.13s.95-2.13,2.13-2.13h15.87c1.18,0,2.13.95,2.13,2.13s-.95,2.13-2.13,2.13Z"/>
          <path class="cls-7" d="m1260.62,357.82h-36.19c-1.18,0-2.13-.95-2.13-2.13s.95-2.13,2.13-2.13h36.19c1.18,0,2.13.95,2.13,2.13s-.95,2.13-2.13,2.13Z"/>
          <path class="cls-7" d="m1284.89,368.28h-38.84c-1.18,0-2.13-.95-2.13-2.13s.95-2.13,2.13-2.13h38.84c1.18,0,2.13.95,2.13,2.13s-.95,2.13-2.13,2.13Z"/>
          <path class="cls-7" d="m1238.07,368.28h-13.64c-1.18,0-2.13-.95-2.13-2.13s.95-2.13,2.13-2.13h13.64c1.18,0,2.13.95,2.13,2.13s-.95,2.13-2.13,2.13Z"/>
        </g>
      </g>
    </g>
  </g>
</svg>