<?xml version="1.0" encoding="UTF-8"?>
<svg id="Capa_2" data-name="Capa 2" xmlns="http://www.w3.org/2000/svg" xmlns:xlink="http://www.w3.org/1999/xlink" viewBox="0 0 1475.84 1186">
  <defs>
    <style>
      .cls-1 {
        fill: url(#linear-gradient);
      }

      .cls-2 {
        fill: #e6e7e8;
      }

      .cls-3 {
        fill: #fff;
      }

      .cls-4 {
        fill: #fcd118;
      }

      .cls-5 {
        fill: #ef4136;
      }

      .cls-6 {
        fill: #939598;
      }

      .cls-7 {
        fill: #bcbec0;
      }

      .cls-8 {
        fill: #a7a9ac;
      }

      .cls-9 {
        fill: url(#linear-gradient-8);
      }

      .cls-10 {
        fill: url(#linear-gradient-9);
      }

      .cls-11 {
        fill: url(#linear-gradient-3);
      }

      .cls-12 {
        fill: url(#linear-gradient-4);
      }

      .cls-13 {
        fill: url(#linear-gradient-2);
      }

      .cls-14 {
        fill: url(#linear-gradient-6);
      }

      .cls-15 {
        fill: url(#linear-gradient-7);
      }

      .cls-16 {
        fill: url(#linear-gradient-5);
      }

      .cls-17 {
        fill: url(#linear-gradient-59);
      }

      .cls-18 {
        fill: url(#linear-gradient-57);
      }

      .cls-19 {
        fill: url(#linear-gradient-58);
      }

      .cls-20 {
        fill: url(#linear-gradient-55);
      }

      .cls-21 {
        fill: url(#linear-gradient-56);
      }

      .cls-22 {
        fill: url(#linear-gradient-53);
      }

      .cls-23 {
        fill: url(#linear-gradient-54);
      }

      .cls-24 {
        fill: url(#linear-gradient-51);
      }

      .cls-25 {
        fill: url(#linear-gradient-52);
      }

      .cls-26 {
        fill: url(#linear-gradient-50);
      }

      .cls-27 {
        fill: url(#linear-gradient-64);
      }

      .cls-28 {
        fill: url(#linear-gradient-63);
      }

      .cls-29 {
        fill: url(#linear-gradient-65);
      }

      .cls-30 {
        fill: url(#linear-gradient-60);
      }

      .cls-31 {
        fill: url(#linear-gradient-62);
      }

      .cls-32 {
        fill: url(#linear-gradient-61);
      }

      .cls-33 {
        fill: url(#linear-gradient-41);
      }

      .cls-34 {
        fill: url(#linear-gradient-40);
      }

      .cls-35 {
        fill: url(#linear-gradient-43);
      }

      .cls-36 {
        fill: url(#linear-gradient-42);
      }

      .cls-37 {
        fill: url(#linear-gradient-45);
      }

      .cls-38 {
        fill: url(#linear-gradient-46);
      }

      .cls-39 {
        fill: url(#linear-gradient-44);
      }

      .cls-40 {
        fill: url(#linear-gradient-49);
      }

      .cls-41 {
        fill: url(#linear-gradient-47);
      }

      .cls-42 {
        fill: url(#linear-gradient-48);
      }

      .cls-43 {
        fill: url(#linear-gradient-14);
      }

      .cls-44 {
        fill: url(#linear-gradient-18);
      }

      .cls-45 {
        fill: url(#linear-gradient-22);
      }

      .cls-46 {
        fill: url(#linear-gradient-20);
      }

      .cls-47 {
        fill: url(#linear-gradient-21);
      }

      .cls-48 {
        fill: url(#linear-gradient-23);
      }

      .cls-49 {
        fill: url(#linear-gradient-15);
      }

      .cls-50 {
        fill: url(#linear-gradient-19);
      }

      .cls-51 {
        fill: url(#linear-gradient-16);
      }

      .cls-52 {
        fill: url(#linear-gradient-17);
      }

      .cls-53 {
        fill: url(#linear-gradient-13);
      }

      .cls-54 {
        fill: url(#linear-gradient-12);
      }

      .cls-55 {
        fill: url(#linear-gradient-10);
      }

      .cls-56 {
        fill: url(#linear-gradient-11);
      }

      .cls-57 {
        fill: url(#linear-gradient-27);
      }

      .cls-58 {
        fill: url(#linear-gradient-24);
      }

      .cls-59 {
        fill: url(#linear-gradient-26);
      }

      .cls-60 {
        fill: url(#linear-gradient-38);
      }

      .cls-61 {
        fill: url(#linear-gradient-35);
      }

      .cls-62 {
        fill: url(#linear-gradient-37);
      }

      .cls-63 {
        fill: url(#linear-gradient-34);
      }

      .cls-64 {
        fill: url(#linear-gradient-39);
      }

      .cls-65 {
        fill: url(#linear-gradient-36);
      }

      .cls-66 {
        fill: url(#linear-gradient-25);
      }

      .cls-67 {
        fill: url(#linear-gradient-28);
      }

      .cls-68 {
        fill: url(#linear-gradient-29);
      }

      .cls-69 {
        fill: url(#linear-gradient-33);
      }

      .cls-70 {
        fill: url(#linear-gradient-30);
      }

      .cls-71 {
        fill: url(#linear-gradient-32);
      }

      .cls-72 {
        fill: url(#linear-gradient-31);
      }
    </style>
    <linearGradient id="linear-gradient" x1="679.59" y1="601.66" x2="2052.82" y2="601.66" gradientTransform="translate(2123.84) rotate(-180) scale(1 -1)" gradientUnits="userSpaceOnUse">
      <stop offset="0" stop-color="#482d9d"/>
      <stop offset=".21" stop-color="#3e50b3"/>
      <stop offset=".75" stop-color="#26a6e9"/>
      <stop offset="1" stop-color="#1dc9ff"/>
    </linearGradient>
    <linearGradient id="linear-gradient-2" x1="571.58" y1="229.6" x2="2171.57" y2="425.6" gradientTransform="translate(2138.39 93.2) rotate(180) scale(1 -1)" xlink:href="#linear-gradient"/>
    <linearGradient id="linear-gradient-3" x1="613.28" y1="-89.14" x2="2213.35" y2="106.87" gradientTransform="translate(175.62 3212.47) rotate(-90) scale(1.35 -1.37)" xlink:href="#linear-gradient"/>
    <linearGradient id="linear-gradient-4" x1="989.11" y1="62.75" x2="1058.65" y2="62.75" gradientTransform="translate(2123.84) rotate(-180) scale(1 -1)" gradientUnits="userSpaceOnUse">
      <stop offset="0" stop-color="#582d7f"/>
      <stop offset=".21" stop-color="#4a5094"/>
      <stop offset=".75" stop-color="#29a6c7"/>
      <stop offset="1" stop-color="#1dc9dc"/>
    </linearGradient>
    <linearGradient id="linear-gradient-5" x1="1047.07" y1="60.9" x2="1307.25" y2="60.9" xlink:href="#linear-gradient"/>
    <linearGradient id="linear-gradient-6" x1="1873.65" y1="208.84" x2="2006.23" y2="208.84" xlink:href="#linear-gradient"/>
    <linearGradient id="linear-gradient-7" x1="1499.9" y1="150.36" x2="1928.33" y2="150.36" xlink:href="#linear-gradient"/>
    <linearGradient id="linear-gradient-8" x1="1864.41" y1="419.78" x2="2006.35" y2="419.78" xlink:href="#linear-gradient"/>
    <linearGradient id="linear-gradient-9" x1="780.07" y1="280.33" x2="1050.81" y2="280.33" xlink:href="#linear-gradient"/>
    <linearGradient id="linear-gradient-10" x1="1513.06" y1="1065.33" x2="2047.48" y2="1065.33" xlink:href="#linear-gradient"/>
    <linearGradient id="linear-gradient-11" x1="1013.97" y1="1114.11" x2="1279.59" y2="1114.11" xlink:href="#linear-gradient"/>
    <linearGradient id="linear-gradient-12" x1="870.44" y1="1116.88" x2="1034.24" y2="1116.88" xlink:href="#linear-gradient"/>
    <linearGradient id="linear-gradient-13" x1="679.67" y1="967.27" x2="1013.97" y2="967.27" xlink:href="#linear-gradient"/>
    <linearGradient id="linear-gradient-14" x1="730.87" y1="1110.85" x2="732.65" y2="882.98" gradientUnits="userSpaceOnUse">
      <stop offset="0" stop-color="#d1d3d4"/>
      <stop offset="1" stop-color="#9d9e9f"/>
    </linearGradient>
    <linearGradient id="linear-gradient-15" x1="485.97" y1="1107.01" x2="625.84" y2="1006.98" gradientUnits="userSpaceOnUse">
      <stop offset="0" stop-color="#9d9e9f"/>
      <stop offset="1" stop-color="#d1d3d4"/>
    </linearGradient>
    <linearGradient id="linear-gradient-16" x1="731.43" y1="1095.34" x2="731.43" y2="1146.85" xlink:href="#linear-gradient-14"/>
    <linearGradient id="linear-gradient-17" x1="731.43" y1="1109.65" x2="731.43" y2="1197.48" xlink:href="#linear-gradient-14"/>
    <linearGradient id="linear-gradient-18" x1="428.3" y1="1002.1" x2="595.3" y2="840.1" gradientUnits="userSpaceOnUse">
      <stop offset="0" stop-color="#bbb"/>
      <stop offset=".05" stop-color="#ccc"/>
      <stop offset=".11" stop-color="#dcdddd"/>
      <stop offset=".19" stop-color="#e8e9e9"/>
      <stop offset=".3" stop-color="#eff0f0"/>
      <stop offset=".6" stop-color="#f1f2f2"/>
      <stop offset="1" stop-color="#fff"/>
    </linearGradient>
    <linearGradient id="linear-gradient-19" x1="309.62" y1="547.81" x2="788.63" y2="547.81" gradientUnits="userSpaceOnUse">
      <stop offset="0" stop-color="#ffde39"/>
      <stop offset=".09" stop-color="#fec63c"/>
      <stop offset=".29" stop-color="#fe9843"/>
      <stop offset=".42" stop-color="#fe7d4b"/>
      <stop offset=".65" stop-color="#fe4f59"/>
      <stop offset="1" stop-color="#ed327f"/>
    </linearGradient>
    <linearGradient id="linear-gradient-20" x1="778.74" x2="134.75" y2="547.81" xlink:href="#linear-gradient-19"/>
    <linearGradient id="linear-gradient-21" x1="778.74" y1="744.17" x2="134.75" y2="744.17" xlink:href="#linear-gradient-19"/>
    <linearGradient id="linear-gradient-22" y1="744.17" x2="788.63" y2="744.17" xlink:href="#linear-gradient-19"/>
    <linearGradient id="linear-gradient-23" x1="778.74" y1="842.35" x2="134.75" y2="842.35" xlink:href="#linear-gradient-19"/>
    <linearGradient id="linear-gradient-24" y1="842.35" x2="788.63" y2="842.35" xlink:href="#linear-gradient-19"/>
    <linearGradient id="linear-gradient-25" x1="404.01" y1="645.99" x2="828.57" y2="645.99" gradientUnits="userSpaceOnUse">
      <stop offset="0" stop-color="#42e397"/>
      <stop offset="1" stop-color="#3cb6b5"/>
    </linearGradient>
    <linearGradient id="linear-gradient-26" x1="340.9" x2="477.42" xlink:href="#linear-gradient-25"/>
    <linearGradient id="linear-gradient-27" x1="691.14" y1="774.19" x2="834.81" y2="630.53" xlink:href="#linear-gradient-25"/>
    <linearGradient id="linear-gradient-28" x1="720.89" y1="803.94" x2="864.55" y2="660.27" xlink:href="#linear-gradient-25"/>
    <linearGradient id="linear-gradient-29" x1="750.63" y1="833.68" x2="894.3" y2="690.01" xlink:href="#linear-gradient-25"/>
    <linearGradient id="linear-gradient-30" x1="729.07" y1="812.12" x2="872.74" y2="668.45" xlink:href="#linear-gradient-25"/>
    <linearGradient id="linear-gradient-31" x1="704.44" y1="787.49" x2="848.11" y2="643.83" xlink:href="#linear-gradient-25"/>
    <linearGradient id="linear-gradient-32" x1="691.14" y1="874.93" x2="834.81" y2="731.27" xlink:href="#linear-gradient-25"/>
    <linearGradient id="linear-gradient-33" x1="720.89" y1="904.68" x2="864.55" y2="761.01" xlink:href="#linear-gradient-25"/>
    <linearGradient id="linear-gradient-34" x1="750.63" y1="934.42" x2="894.3" y2="790.75" xlink:href="#linear-gradient-25"/>
    <linearGradient id="linear-gradient-35" x1="729.07" y1="906.36" x2="872.74" y2="762.69" xlink:href="#linear-gradient-25"/>
    <linearGradient id="linear-gradient-36" x1="978.62" y1="908.39" x2="978.62" y2="465.17" xlink:href="#linear-gradient-25"/>
    <linearGradient id="linear-gradient-37" x1="523.24" y1="-1837.34" x2="466.6" y2="-1837.34" gradientTransform="translate(-203.8 2138.14) rotate(25.03)" gradientUnits="userSpaceOnUse">
      <stop offset="0" stop-color="#9d9e9f"/>
      <stop offset=".21" stop-color="#a8a9aa"/>
      <stop offset="1" stop-color="#d1d3d4"/>
    </linearGradient>
    <linearGradient id="linear-gradient-38" x1="569.2" y1="-1837.34" x2="504.22" y2="-1837.34" xlink:href="#linear-gradient-37"/>
    <linearGradient id="linear-gradient-39" x1="1015.52" y1="908.39" x2="1015.52" y2="465.17" xlink:href="#linear-gradient-25"/>
    <linearGradient id="linear-gradient-40" x1="696.86" y1="775.81" x2="631.78" y2="775.81" gradientTransform="translate(440.77 -281.41) rotate(10.1)" xlink:href="#linear-gradient-37"/>
    <linearGradient id="linear-gradient-41" x1="749.67" y1="775.81" x2="675.01" y2="775.81" gradientTransform="translate(440.77 -281.41) rotate(10.1)" xlink:href="#linear-gradient-37"/>
    <linearGradient id="linear-gradient-42" x1="950.67" y1="908.39" x2="950.67" y2="465.17" xlink:href="#linear-gradient-25"/>
    <linearGradient id="linear-gradient-43" x1="919.65" y1="846.71" x2="1037.6" y2="846.71" xlink:href="#linear-gradient-25"/>
    <linearGradient id="linear-gradient-44" x1="425.39" y1="-61.87" x2="425.39" y2="196.4" gradientTransform="translate(-99.1 218.97) rotate(-14.04)" xlink:href="#linear-gradient-19"/>
    <linearGradient id="linear-gradient-45" x1="425.13" y1="354.4" x2="425.13" y2="403.21" gradientTransform="translate(-99.1 218.97) rotate(-14.04)" xlink:href="#linear-gradient-19"/>
    <linearGradient id="linear-gradient-46" x1="425.13" y1="382.11" x2="425.13" y2="-123.97" gradientTransform="translate(-99.1 218.97) rotate(-14.04)" xlink:href="#linear-gradient-19"/>
    <linearGradient id="linear-gradient-47" x1="553.75" y1="1417" x2="399.62" y2="1417" gradientTransform="translate(-777.22 -702.93) rotate(-33.94)" gradientUnits="userSpaceOnUse">
      <stop offset="0" stop-color="#fff"/>
      <stop offset="1" stop-color="#f1f2f2"/>
    </linearGradient>
    <linearGradient id="linear-gradient-48" x1="192.5" y1="84.52" x2="333.05" y2="84.52" gradientTransform="translate(-99.1 218.97) rotate(-14.04)" gradientUnits="userSpaceOnUse">
      <stop offset="0" stop-color="#f1f2f2"/>
      <stop offset="1" stop-color="#fff"/>
    </linearGradient>
    <linearGradient id="linear-gradient-49" x1="308.49" y1="-53.12" x2="308.49" y2="210.48" gradientTransform="translate(-99.1 218.97) rotate(-14.04)" gradientUnits="userSpaceOnUse">
      <stop offset="0" stop-color="#ceecfa"/>
      <stop offset="1" stop-color="#ee6ee4"/>
    </linearGradient>
    <linearGradient id="linear-gradient-50" x1="542.38" y1="92.36" x2="542.38" y2="241.11" xlink:href="#linear-gradient-49"/>
    <linearGradient id="linear-gradient-51" x1="308.7" y1="121.8" x2="308.7" y2="4.38" xlink:href="#linear-gradient-49"/>
    <linearGradient id="linear-gradient-52" x1="318.9" y1="181.23" x2="313.63" y2="154.49" gradientTransform="translate(-98.85 219.97) rotate(-14.04)" xlink:href="#linear-gradient-14"/>
    <linearGradient id="linear-gradient-53" x1="637.12" y1="447.17" x2="593" y2="447.17" gradientTransform="translate(-240.58 -77.56) rotate(-20.24)" xlink:href="#linear-gradient-37"/>
    <linearGradient id="linear-gradient-54" x1="672.92" y1="447.17" x2="622.31" y2="447.17" gradientTransform="translate(-240.58 -77.56) rotate(-20.24)" xlink:href="#linear-gradient-37"/>
    <linearGradient id="linear-gradient-55" x1="609.46" y1="477.94" x2="609.46" y2="626.69" gradientTransform="translate(-240.58 -77.56) rotate(-20.24)" xlink:href="#linear-gradient-49"/>
    <linearGradient id="linear-gradient-56" x1="227.63" y1="3028.7" x2="176.95" y2="3028.7" gradientTransform="translate(-1505.33 -2239.71) rotate(-35.18)" xlink:href="#linear-gradient-37"/>
    <linearGradient id="linear-gradient-57" x1="268.76" y1="3028.7" x2="210.61" y2="3028.7" gradientTransform="translate(-1505.33 -2239.71) rotate(-35.18)" xlink:href="#linear-gradient-37"/>
    <linearGradient id="linear-gradient-58" x1="476.52" y1="47.84" x2="341.86" y2="135.34" xlink:href="#linear-gradient-49"/>
    <linearGradient id="linear-gradient-59" x1="950.19" y1="-673.23" x2="1145.51" y2="-488.91" gradientTransform="translate(2193.48 841.25) rotate(179.17) scale(1 -1)" xlink:href="#linear-gradient-49"/>
    <linearGradient id="linear-gradient-60" x1="814.42" y1="-846.04" x2="1035.87" y2="-624.58" gradientTransform="translate(1418.66 1313.84) rotate(-135.83) scale(1 -1)" gradientUnits="userSpaceOnUse">
      <stop offset="0" stop-color="#fc9e18"/>
      <stop offset=".31" stop-color="#fcaf18"/>
      <stop offset="1" stop-color="#fcd118"/>
    </linearGradient>
    <linearGradient id="linear-gradient-61" x1="-1492.4" y1="7715.94" x2="-1492.4" y2="7567.6" gradientTransform="translate(8858.72 -1223.12) rotate(-89.04) scale(1 -1)" xlink:href="#linear-gradient-60"/>
    <linearGradient id="linear-gradient-62" x1="947.64" y1="-642.09" x2="947.64" y2="-738.97" gradientTransform="translate(2193.48 841.25) rotate(179.17) scale(1 -1)" xlink:href="#linear-gradient-19"/>
    <linearGradient id="linear-gradient-63" x1="960.06" y1="-689.3" x2="976.31" y2="-668.17" gradientTransform="translate(2193.48 841.25) rotate(179.17) scale(1 -1)" gradientUnits="userSpaceOnUse">
      <stop offset="0" stop-color="#ef4136"/>
      <stop offset="1" stop-color="#b33129"/>
    </linearGradient>
    <linearGradient id="linear-gradient-64" x1="-27" y1="1415.07" x2="-27" y2="1280.88" gradientTransform="translate(1510.92 -1211.1) rotate(-168.99) scale(1 -1)" xlink:href="#linear-gradient-19"/>
    <linearGradient id="linear-gradient-65" x1="76.15" y1="1416.16" x2="76.15" y2="1281.97" gradientTransform="translate(1510.92 -1211.1) rotate(-168.99) scale(1 -1)" xlink:href="#linear-gradient-19"/>
  </defs>
  <g id="WEB">
    <g>
      <g>
        <path class="cls-1" d="m1295.78,424.95c87.72,136.27,176.75,297.83,139.95,459.88-33.05,145.54-184.65,282.51-355.16,283.58-135.46.85-261.01-80.68-398.01-47.02-168.56,41.41-342.42,120.96-497.79,1.9-87.62-67.15-129.38-178.41-108.4-280.3,14.65-71.15,56.49-135.01,84.8-202.74,23.55-56.35,38.59-122.4,16.11-181.04-41.52-108.35-112.3-210.7,3.19-306.61,68.81-57.14,157.54-71.1,245.84-88.04,102.14-19.6,205.14-36.62,309.39-43.74,144.37-9.86,292.45-.17,427.83,46.08,26.61,9.09,53.17,19.86,74.06,37.27,47.98,39.98,29.48,74.04,6.96,119.12-31.86,63.76,9.65,137.5,45.05,192.11,2.06,3.18,4.12,6.37,6.18,9.56Z"/>
        <ellipse class="cls-13" cx="1390.9" cy="344.37" rx="79.33" ry="124" transform="translate(-37.31 460.16) rotate(-18.54)"/>
        <ellipse class="cls-11" cx="67.62" cy="527.29" rx="106.01" ry="66.95" transform="translate(-463.95 534.12) rotate(-83.43)"/>
      </g>
      <g>
        <path class="cls-12" d="m1075.79,66.91c-1.37-9.45-5.07-19.05-10.6-26.98,23.45,4.98,46.66,10.87,69.54,17.74-18.75,10.66-38.14,20.22-58.02,27.88.17-6.23-.02-12.45-.92-18.65Z"/>
        <path class="cls-16" d="m1076.71,85.56c-54.01,20.81-111.54,27.58-168.99,4.13-36.37-14.84-68.33-40.26-91.13-72.24,83.7-1.15,167.61,5.27,248.6,22.48,5.53,7.93,9.24,17.52,10.6,26.98.9,6.2,1.09,12.41.92,18.65Z"/>
        <path class="cls-14" d="m250.19,268.74c-37.22,9.39-76.45,10.68-114.02,2.63-6.19-1.32-12.45-2.99-18.55-5.1,1.53-38.83,18.37-76.73,62.86-113.67,4.91-4.08,9.93-7.93,15.04-11.59,14.38,24.15,27.77,48.84,38.2,74.9,6.87,17.15,12.35,34.83,16.48,52.83Z"/>
        <path class="cls-15" d="m541.27,107.8c-26.94,6.42-56.09.11-82.3,9.04-34.46,11.75-54.82,46.04-78.78,73.46-33.87,38.75-80.14,65.87-130,78.45-4.12-18-9.61-35.68-16.48-52.83-10.43-26.06-23.83-50.75-38.2-74.9,66.44-47.56,148.81-60.72,230.81-76.45,65.49-12.57,131.33-24.07,197.63-32.59-5.33,10.58-11.35,20.77-18.44,30.27-16.02,21.47-38.17,39.35-64.23,45.56Z"/>
        <path class="cls-9" d="m250.19,268.74c14.33,62.56,12.05,128.95-7.2,190.2-13,41.35-33.68,80.2-60.37,114.35,8.1-38.15,8.66-77.55-5.34-114.08-25.53-66.61-62.11-130.96-59.67-192.94,6.1,2.11,12.37,3.78,18.55,5.1,37.57,8.05,76.8,6.76,114.02-2.63Z"/>
        <path class="cls-10" d="m1166.07,374.55c-11.74-44.79.44-93.06-10.18-138.12-2.47-10.46-6.5-21.16-14.81-27.98-11.79-9.69-29.01-9.2-42.33-16.63-19.47-10.87-26.12-35.91-25.71-58.2.3-16.04,3.22-32.09,3.67-48.05,19.88-7.66,39.28-17.22,58.02-27.88,9.66,2.9,19.26,5.96,28.8,9.21,26.61,9.09,53.17,19.86,74.06,37.27,47.98,39.98,29.48,74.04,6.96,119.12-31.86,63.76,9.65,137.5,45.05,192.11,2.06,3.18,4.12,6.37,6.18,9.56,16.22,25.2,32.49,51.27,47.99,78.04-23.82-3.17-47.21-8.55-69.59-17.38-49.88-19.68-94.51-59.19-108.11-111.06Z"/>
        <path class="cls-55" d="m171.15,953.89c82.93,29.99,129.11,118.83,203.77,165.77,7.43,4.67,15.18,8.93,23.5,11.68,48.04,15.87,98.09-21.42,148.64-19.15,23.78,1.07,46.85,11.64,63.71,28.38-145.6,40.75-292.62,84.93-426.01-17.29-57.4-43.98-95.11-106.89-108.4-173.7,31.26-7.56,64.5-6.65,94.79,4.31Z"/>
        <path class="cls-56" d="m1109.87,1065.55c-.42,1.12-.85,2.23-1.25,3.35-11.51,31.88-16.77,65.4-19.02,99.31-3,.1-6.01.18-9.03.2-80.79.51-158.05-28.28-236.32-44.47,49.52-38.97,114.1-60.06,177.74-63.56,29.37-1.61,58.9.19,87.88,5.17Z"/>
        <path class="cls-54" d="m1109.87,1065.55c50.74,8.72,99.82,27.23,143.53,54.4-49.46,28.44-105.41,46.25-163.8,48.26,2.25-33.91,7.51-67.43,19.02-99.31.4-1.12.83-2.23,1.25-3.35Z"/>
        <path class="cls-53" d="m1159.2,978.5c38.77-51.75,87.9-96.31,145.38-125.93,43.18-22.26,91.17-35.83,139.59-37.96-.44,23.35-3.12,46.78-8.44,70.23-21.1,92.91-90.52,182.32-182.33,235.12-43.71-27.17-92.79-45.67-143.53-54.4,11.77-31.31,29.26-60.27,49.32-87.05Z"/>
      </g>
    </g>
    <g>
      <g>
        <g>
          <path class="cls-3" d="m688.19,143.13c-2.13-.5-3.45-2.63-2.95-4.76l2.3-9.75c.5-2.13,2.63-3.45,4.76-2.95s3.45,2.64,2.95,4.76l-2.3,9.75c-.5,2.13-2.64,3.45-4.76,2.95Z"/>
          <path class="cls-3" d="m681.91,169.77c-2.13-.5-3.45-2.64-2.95-4.76l2.3-9.75c.5-2.13,2.63-3.45,4.76-2.95,2.13.5,3.45,2.64,2.95,4.76l-2.3,9.75c-.5,2.13-2.64,3.45-4.76,2.95Z"/>
        </g>
        <g>
          <path class="cls-3" d="m704.39,155.87l-9.75-2.3c-2.13-.5-3.45-2.64-2.95-4.76.5-2.13,2.64-3.45,4.76-2.95l9.75,2.3c2.13.5,3.45,2.63,2.95,4.76-.5,2.13-2.63,3.45-4.76,2.95Z"/>
          <path class="cls-3" d="m677.75,149.59l-9.75-2.3c-2.13-.5-3.45-2.63-2.95-4.76.5-2.13,2.63-3.45,4.76-2.95l9.75,2.3c2.13.5,3.45,2.63,2.95,4.76-.5,2.13-2.63,3.45-4.76,2.95Z"/>
        </g>
      </g>
      <g>
        <g>
          <path class="cls-3" d="m766.64,109.72c-1.28.66-2.86.15-3.51-1.14l-3-5.88c-.66-1.28-.15-2.86,1.14-3.51s2.86-.15,3.51,1.14l3,5.88c.66,1.28.15,2.86-1.14,3.51Z"/>
          <path class="cls-3" d="m774.85,125.77c-1.28.66-2.86.15-3.51-1.14l-3-5.88c-.66-1.28-.15-2.86,1.14-3.51,1.28-.66,2.86-.15,3.51,1.14l3,5.88c.66,1.28.15,2.86-1.14,3.51Z"/>
        </g>
        <g>
          <path class="cls-3" d="m780.21,109.2l-5.88,3c-1.28.66-2.86.15-3.51-1.14-.66-1.28-.15-2.86,1.14-3.51l5.88-3c1.28-.66,2.86-.15,3.51,1.14.66,1.28.15,2.86-1.14,3.51Z"/>
          <path class="cls-3" d="m764.15,117.41l-5.88,3c-1.28.66-2.86.15-3.51-1.14-.66-1.28-.15-2.86,1.14-3.51l5.88-3c1.28-.66,2.86-.15,3.51,1.14.66,1.28.15,2.86-1.14,3.51Z"/>
        </g>
      </g>
      <g>
        <g>
          <path class="cls-3" d="m748.47,153.79c-.52.47-1.32.43-1.79-.09l-2.15-2.38c-.47-.52-.43-1.32.09-1.79s1.32-.43,1.79.09l2.15,2.38c.47.52.43,1.32-.09,1.79Z"/>
          <path class="cls-3" d="m754.34,160.29c-.52.47-1.32.43-1.79-.09l-2.15-2.38c-.47-.52-.43-1.32.09-1.79.52-.47,1.32-.43,1.79.09l2.15,2.38c.47.52.43,1.32-.09,1.79Z"/>
        </g>
        <g>
          <path class="cls-3" d="m754.77,151.84l-2.38,2.15c-.52.47-1.32.43-1.79-.09-.47-.52-.43-1.32.09-1.79l2.38-2.15c.52-.47,1.32-.43,1.79.09.47.52.43,1.32-.09,1.79Z"/>
          <path class="cls-3" d="m748.27,157.71l-2.38,2.15c-.52.47-1.32.43-1.79-.09-.47-.52-.43-1.32.09-1.79l2.38-2.15c.52-.47,1.32-.43,1.79.09s.43,1.32-.09,1.79Z"/>
        </g>
      </g>
      <g>
        <g>
          <path class="cls-3" d="m720.86,198.23c-.52.47-1.32.43-1.79-.09l-2.15-2.38c-.47-.52-.43-1.32.09-1.79s1.32-.43,1.79.09l2.15,2.38c.47.52.43,1.32-.09,1.79Z"/>
          <path class="cls-3" d="m726.73,204.74c-.52.47-1.32.43-1.79-.09l-2.15-2.38c-.47-.52-.43-1.32.09-1.79.52-.47,1.32-.43,1.79.09l2.15,2.38c.47.52.43,1.32-.09,1.79Z"/>
        </g>
        <g>
          <path class="cls-3" d="m727.16,196.28l-2.38,2.15c-.52.47-1.32.43-1.79-.09s-.43-1.32.09-1.79l2.38-2.15c.52-.47,1.32-.43,1.79.09.47.52.43,1.32-.09,1.79Z"/>
          <path class="cls-3" d="m720.66,202.16l-2.38,2.15c-.52.47-1.32.43-1.79-.09s-.43-1.32.09-1.79l2.38-2.15c.52-.47,1.32-.43,1.79.09s.43,1.32-.09,1.79Z"/>
        </g>
      </g>
    </g>
    <g>
      <g>
        <g>
          <path class="cls-3" d="m775.06,282.04c-2.13-.5-3.45-2.64-2.95-4.76l2.3-9.75c.5-2.13,2.63-3.45,4.76-2.95,2.13.5,3.45,2.63,2.95,4.76l-2.3,9.75c-.5,2.13-2.64,3.45-4.76,2.95Z"/>
          <path class="cls-3" d="m768.78,308.68c-2.13-.5-3.45-2.64-2.95-4.76l2.3-9.75c.5-2.13,2.63-3.45,4.76-2.95,2.13.5,3.45,2.64,2.95,4.76l-2.3,9.75c-.5,2.13-2.63,3.45-4.76,2.95Z"/>
        </g>
        <g>
          <path class="cls-3" d="m791.26,294.77l-9.75-2.3c-2.13-.5-3.45-2.63-2.95-4.76.5-2.13,2.64-3.45,4.76-2.95l9.75,2.3c2.13.5,3.45,2.64,2.95,4.76-.5,2.13-2.64,3.45-4.76,2.95Z"/>
          <path class="cls-3" d="m764.62,288.49l-9.75-2.3c-2.13-.5-3.45-2.63-2.95-4.76.5-2.13,2.64-3.45,4.76-2.95l9.75,2.3c2.13.5,3.45,2.63,2.95,4.76-.5,2.13-2.63,3.45-4.76,2.95Z"/>
        </g>
      </g>
      <g>
        <g>
          <path class="cls-3" d="m853.51,248.62c-1.28.66-2.86.15-3.51-1.14l-3-5.88c-.66-1.28-.15-2.86,1.14-3.51,1.28-.66,2.86-.15,3.51,1.14l3,5.88c.66,1.28.15,2.86-1.14,3.51Z"/>
          <path class="cls-3" d="m861.72,264.68c-1.28.66-2.86.15-3.51-1.14l-3-5.88c-.66-1.28-.15-2.86,1.14-3.51,1.28-.66,2.86-.15,3.51,1.14l3,5.88c.66,1.28.15,2.86-1.14,3.51Z"/>
        </g>
        <g>
          <path class="cls-3" d="m867.08,248.1l-5.88,3c-1.28.66-2.86.15-3.51-1.14-.66-1.28-.15-2.86,1.14-3.51l5.88-3c1.28-.66,2.86-.15,3.51,1.14.66,1.28.15,2.86-1.14,3.51Z"/>
          <path class="cls-3" d="m851.02,256.32l-5.88,3c-1.28.66-2.86.15-3.51-1.14-.66-1.28-.15-2.86,1.14-3.51l5.88-3c1.28-.66,2.86-.15,3.51,1.14.66,1.28.15,2.86-1.14,3.51Z"/>
        </g>
      </g>
      <g>
        <g>
          <path class="cls-3" d="m835.34,292.69c-.52.47-1.32.43-1.79-.09l-2.15-2.38c-.47-.52-.43-1.32.09-1.79.52-.47,1.32-.43,1.79.09l2.15,2.38c.47.52.43,1.32-.09,1.79Z"/>
          <path class="cls-3" d="m841.21,299.2c-.52.47-1.32.43-1.79-.09l-2.15-2.38c-.47-.52-.43-1.32.09-1.79s1.32-.43,1.79.09l2.15,2.38c.47.52.43,1.32-.09,1.79Z"/>
        </g>
        <g>
          <path class="cls-3" d="m841.64,290.74l-2.38,2.15c-.52.47-1.32.43-1.79-.09s-.43-1.32.09-1.79l2.38-2.15c.52-.47,1.32-.43,1.79.09s.43,1.32-.09,1.79Z"/>
          <path class="cls-3" d="m835.13,296.62l-2.38,2.15c-.52.47-1.32.43-1.79-.09-.47-.52-.43-1.32.09-1.79l2.38-2.15c.52-.47,1.32-.43,1.79.09.47.52.43,1.32-.09,1.79Z"/>
        </g>
      </g>
      <g>
        <g>
          <path class="cls-3" d="m807.72,337.13c-.52.47-1.32.43-1.79-.09l-2.15-2.38c-.47-.52-.43-1.32.09-1.79.52-.47,1.32-.43,1.79.09l2.15,2.38c.47.52.43,1.32-.09,1.79Z"/>
          <path class="cls-3" d="m813.6,343.64c-.52.47-1.32.43-1.79-.09l-2.15-2.38c-.47-.52-.43-1.32.09-1.79.52-.47,1.32-.43,1.79.09l2.15,2.38c.47.52.43,1.32-.09,1.79Z"/>
        </g>
        <g>
          <path class="cls-3" d="m814.03,335.19l-2.38,2.15c-.52.47-1.32.43-1.79-.09-.47-.52-.43-1.32.09-1.79l2.38-2.15c.52-.47,1.32-.43,1.79.09s.43,1.32-.09,1.79Z"/>
          <path class="cls-3" d="m807.52,341.06l-2.38,2.15c-.52.47-1.32.43-1.79-.09-.47-.52-.43-1.32.09-1.79l2.38-2.15c.52-.47,1.32-.43,1.79.09.47.52.43,1.32-.09,1.79Z"/>
        </g>
      </g>
    </g>
    <g>
      <g>
        <g>
          <path class="cls-3" d="m1192.8,783.63c-2.13-.5-3.45-2.63-2.95-4.76l2.3-9.75c.5-2.13,2.64-3.45,4.76-2.95,2.13.5,3.45,2.64,2.95,4.76l-2.3,9.75c-.5,2.13-2.64,3.45-4.76,2.95Z"/>
          <path class="cls-3" d="m1186.53,810.27c-2.13-.5-3.45-2.63-2.95-4.76l2.3-9.75c.5-2.13,2.64-3.45,4.76-2.95,2.13.5,3.45,2.64,2.95,4.76l-2.3,9.75c-.5,2.13-2.64,3.45-4.76,2.95Z"/>
        </g>
        <g>
          <path class="cls-3" d="m1209.01,796.36l-9.75-2.3c-2.13-.5-3.45-2.63-2.95-4.76.5-2.13,2.64-3.45,4.76-2.95l9.75,2.3c2.13.5,3.45,2.63,2.95,4.76-.5,2.13-2.64,3.45-4.76,2.95Z"/>
          <path class="cls-3" d="m1182.37,790.08l-9.75-2.3c-2.13-.5-3.45-2.64-2.95-4.76.5-2.13,2.64-3.45,4.76-2.95l9.75,2.3c2.13.5,3.45,2.63,2.95,4.76s-2.64,3.45-4.76,2.95Z"/>
        </g>
      </g>
      <g>
        <g>
          <path class="cls-3" d="m1271.25,750.21c-1.28.66-2.86.15-3.51-1.14l-3-5.88c-.66-1.28-.15-2.86,1.14-3.51,1.28-.66,2.86-.15,3.51,1.14l3,5.88c.66,1.28.15,2.86-1.14,3.51Z"/>
          <path class="cls-3" d="m1279.47,766.27c-1.28.66-2.86.15-3.51-1.14l-3-5.88c-.66-1.28-.15-2.86,1.14-3.51,1.28-.66,2.86-.15,3.51,1.14l3,5.88c.66,1.28.15,2.86-1.14,3.51Z"/>
        </g>
        <g>
          <path class="cls-3" d="m1284.83,749.69l-5.88,3c-1.28.66-2.86.15-3.51-1.14s-.15-2.86,1.14-3.51l5.88-3c1.28-.66,2.86-.15,3.51,1.14s.15,2.86-1.14,3.51Z"/>
          <path class="cls-3" d="m1268.77,757.91l-5.88,3c-1.28.66-2.86.15-3.51-1.14-.66-1.28-.15-2.86,1.14-3.51l5.88-3c1.28-.66,2.86-.15,3.51,1.14s.15,2.86-1.14,3.51Z"/>
        </g>
      </g>
      <g>
        <g>
          <path class="cls-3" d="m1253.08,794.28c-.52.47-1.32.43-1.79-.09l-2.15-2.38c-.47-.52-.43-1.32.09-1.79s1.32-.43,1.79.09l2.15,2.38c.47.52.43,1.32-.09,1.79Z"/>
          <path class="cls-3" d="m1258.96,800.79c-.52.47-1.32.43-1.79-.09l-2.15-2.38c-.47-.52-.43-1.32.09-1.79.52-.47,1.32-.43,1.79.09l2.15,2.38c.47.52.43,1.32-.09,1.79Z"/>
        </g>
        <g>
          <path class="cls-3" d="m1259.39,792.33l-2.38,2.15c-.52.47-1.32.43-1.79-.09-.47-.52-.43-1.32.09-1.79l2.38-2.15c.52-.47,1.32-.43,1.79.09.47.52.43,1.32-.09,1.79Z"/>
          <path class="cls-3" d="m1252.88,798.21l-2.38,2.15c-.52.47-1.32.43-1.79-.09s-.43-1.32.09-1.79l2.38-2.15c.52-.47,1.32-.43,1.79.09s.43,1.32-.09,1.79Z"/>
        </g>
      </g>
      <g>
        <g>
          <path class="cls-3" d="m1225.47,838.73c-.52.47-1.32.43-1.79-.09l-2.15-2.38c-.47-.52-.43-1.32.09-1.79.52-.47,1.32-.43,1.79.09l2.15,2.38c.47.52.43,1.32-.09,1.79Z"/>
          <path class="cls-3" d="m1231.34,845.23c-.52.47-1.32.43-1.79-.09l-2.15-2.38c-.47-.52-.43-1.32.09-1.79.52-.47,1.32-.43,1.79.09l2.15,2.38c.47.52.43,1.32-.09,1.79Z"/>
        </g>
        <g>
          <path class="cls-3" d="m1231.78,836.78l-2.38,2.15c-.52.47-1.32.43-1.79-.09-.47-.52-.43-1.32.09-1.79l2.38-2.15c.52-.47,1.32-.43,1.79.09.47.52.43,1.32-.09,1.79Z"/>
          <path class="cls-3" d="m1225.27,842.65l-2.38,2.15c-.52.47-1.32.43-1.79-.09s-.43-1.32.09-1.79l2.38-2.15c.52-.47,1.32-.43,1.79.09s.43,1.32-.09,1.79Z"/>
        </g>
      </g>
    </g>
    <g>
      <g>
        <g>
          <path class="cls-3" d="m215.08,699.29c-2.13-.5-3.45-2.64-2.95-4.76l2.3-9.75c.5-2.13,2.64-3.45,4.76-2.95,2.13.5,3.45,2.64,2.95,4.76l-2.3,9.75c-.5,2.13-2.63,3.45-4.76,2.95Z"/>
          <path class="cls-3" d="m208.81,725.93c-2.13-.5-3.45-2.64-2.95-4.76l2.3-9.75c.5-2.13,2.63-3.45,4.76-2.95,2.13.5,3.45,2.64,2.95,4.76l-2.3,9.75c-.5,2.13-2.64,3.45-4.76,2.95Z"/>
        </g>
        <g>
          <path class="cls-3" d="m231.29,712.03l-9.75-2.3c-2.13-.5-3.45-2.64-2.95-4.76.5-2.13,2.63-3.45,4.76-2.95l9.75,2.3c2.13.5,3.45,2.63,2.95,4.76-.5,2.13-2.64,3.45-4.76,2.95Z"/>
          <path class="cls-3" d="m204.65,705.75l-9.75-2.3c-2.13-.5-3.45-2.64-2.95-4.76.5-2.13,2.63-3.45,4.76-2.95l9.75,2.3c2.13.5,3.45,2.64,2.95,4.76-.5,2.13-2.64,3.45-4.76,2.95Z"/>
        </g>
      </g>
      <g>
        <g>
          <path class="cls-3" d="m293.53,665.88c-1.28.66-2.86.15-3.51-1.14l-3-5.88c-.66-1.28-.15-2.86,1.14-3.51,1.28-.66,2.86-.15,3.51,1.14l3,5.88c.66,1.28.15,2.86-1.14,3.51Z"/>
          <path class="cls-3" d="m301.75,681.94c-1.28.66-2.86.15-3.51-1.14l-3-5.88c-.66-1.28-.15-2.86,1.14-3.51s2.86-.15,3.51,1.14l3,5.88c.66,1.28.15,2.86-1.14,3.51Z"/>
        </g>
        <g>
          <path class="cls-3" d="m307.1,665.36l-5.88,3c-1.28.66-2.86.15-3.51-1.14s-.15-2.86,1.14-3.51l5.88-3c1.28-.66,2.86-.15,3.51,1.14.66,1.28.15,2.86-1.14,3.51Z"/>
          <path class="cls-3" d="m291.05,673.57l-5.88,3c-1.28.66-2.86.15-3.51-1.14-.66-1.28-.15-2.86,1.14-3.51l5.88-3c1.28-.66,2.86-.15,3.51,1.14.66,1.28.15,2.86-1.14,3.51Z"/>
        </g>
      </g>
      <g>
        <g>
          <path class="cls-3" d="m275.36,709.95c-.52.47-1.32.43-1.79-.09l-2.15-2.38c-.47-.52-.43-1.32.09-1.79.52-.47,1.32-.43,1.79.09l2.15,2.38c.47.52.43,1.32-.09,1.79Z"/>
          <path class="cls-3" d="m281.23,716.45c-.52.47-1.32.43-1.79-.09l-2.15-2.38c-.47-.52-.43-1.32.09-1.79s1.32-.43,1.79.09l2.15,2.38c.47.52.43,1.32-.09,1.79Z"/>
        </g>
        <g>
          <path class="cls-3" d="m281.67,708l-2.38,2.15c-.52.47-1.32.43-1.79-.09-.47-.52-.43-1.32.09-1.79l2.38-2.15c.52-.47,1.32-.43,1.79.09s.43,1.32-.09,1.79Z"/>
          <path class="cls-3" d="m275.16,713.87l-2.38,2.15c-.52.47-1.32.43-1.79-.09-.47-.52-.43-1.32.09-1.79l2.38-2.15c.52-.47,1.32-.43,1.79.09.47.52.43,1.32-.09,1.79Z"/>
        </g>
      </g>
      <g>
        <g>
          <path class="cls-3" d="m247.75,754.39c-.52.47-1.32.43-1.79-.09l-2.15-2.38c-.47-.52-.43-1.32.09-1.79s1.32-.43,1.79.09l2.15,2.38c.47.52.43,1.32-.09,1.79Z"/>
          <path class="cls-3" d="m253.62,760.9c-.52.47-1.32.43-1.79-.09l-2.15-2.38c-.47-.52-.43-1.32.09-1.79s1.32-.43,1.79.09l2.15,2.38c.47.52.43,1.32-.09,1.79Z"/>
        </g>
        <g>
          <path class="cls-3" d="m254.06,752.44l-2.38,2.15c-.52.47-1.32.43-1.79-.09-.47-.52-.43-1.32.09-1.79l2.38-2.15c.52-.47,1.32-.43,1.79.09.47.52.43,1.32-.09,1.79Z"/>
          <path class="cls-3" d="m247.55,758.32l-2.38,2.15c-.52.47-1.32.43-1.79-.09-.47-.52-.43-1.32.09-1.79l2.38-2.15c.52-.47,1.32-.43,1.79.09.47.52.43,1.32-.09,1.79Z"/>
        </g>
      </g>
    </g>
    <g>
      <g>
        <g>
          <path class="cls-3" d="m251.82,873.7c-2.13-.5-3.45-2.64-2.95-4.76l2.3-9.75c.5-2.13,2.63-3.45,4.76-2.95,2.13.5,3.45,2.64,2.95,4.76l-2.3,9.75c-.5,2.13-2.63,3.45-4.76,2.95Z"/>
          <path class="cls-3" d="m245.54,900.34c-2.13-.5-3.45-2.63-2.95-4.76l2.3-9.75c.5-2.13,2.64-3.45,4.76-2.95,2.13.5,3.45,2.64,2.95,4.76l-2.3,9.75c-.5,2.13-2.64,3.45-4.76,2.95Z"/>
        </g>
        <g>
          <path class="cls-3" d="m268.02,886.44l-9.75-2.3c-2.13-.5-3.45-2.64-2.95-4.76.5-2.13,2.63-3.45,4.76-2.95l9.75,2.3c2.13.5,3.45,2.64,2.95,4.76-.5,2.13-2.63,3.45-4.76,2.95Z"/>
          <path class="cls-3" d="m241.38,880.16l-9.75-2.3c-2.13-.5-3.45-2.64-2.95-4.76.5-2.13,2.63-3.45,4.76-2.95l9.75,2.3c2.13.5,3.45,2.64,2.95,4.76-.5,2.13-2.64,3.45-4.76,2.95Z"/>
        </g>
      </g>
      <g>
        <g>
          <path class="cls-3" d="m330.27,840.29c-1.28.66-2.86.15-3.51-1.14l-3-5.88c-.66-1.28-.15-2.86,1.14-3.51,1.28-.66,2.86-.15,3.51,1.14l3,5.88c.66,1.28.15,2.86-1.14,3.51Z"/>
          <path class="cls-3" d="m338.48,856.35c-1.28.66-2.86.15-3.51-1.14l-3-5.88c-.66-1.28-.15-2.86,1.14-3.51s2.86-.15,3.51,1.14l3,5.88c.66,1.28.15,2.86-1.14,3.51Z"/>
        </g>
        <g>
          <path class="cls-3" d="m343.84,839.77l-5.88,3c-1.28.66-2.86.15-3.51-1.14-.66-1.28-.15-2.86,1.14-3.51l5.88-3c1.28-.66,2.86-.15,3.51,1.14.66,1.28.15,2.86-1.14,3.51Z"/>
          <path class="cls-3" d="m327.78,847.98l-5.88,3c-1.28.66-2.86.15-3.51-1.14-.66-1.28-.15-2.86,1.14-3.51l5.88-3c1.28-.66,2.86-.15,3.51,1.14.66,1.28.15,2.86-1.14,3.51Z"/>
        </g>
      </g>
      <g>
        <g>
          <path class="cls-3" d="m312.1,884.36c-.52.47-1.32.43-1.79-.09l-2.15-2.38c-.47-.52-.43-1.32.09-1.79.52-.47,1.32-.43,1.79.09l2.15,2.38c.47.52.43,1.32-.09,1.79Z"/>
          <path class="cls-3" d="m317.97,890.86c-.52.47-1.32.43-1.79-.09l-2.15-2.38c-.47-.52-.43-1.32.09-1.79s1.32-.43,1.79.09l2.15,2.38c.47.52.43,1.32-.09,1.79Z"/>
        </g>
        <g>
          <path class="cls-3" d="m318.4,882.41l-2.38,2.15c-.52.47-1.32.43-1.79-.09s-.43-1.32.09-1.79l2.38-2.15c.52-.47,1.32-.43,1.79.09.47.52.43,1.32-.09,1.79Z"/>
          <path class="cls-3" d="m311.89,888.28l-2.38,2.15c-.52.47-1.32.43-1.79-.09s-.43-1.32.09-1.79l2.38-2.15c.52-.47,1.32-.43,1.79.09s.43,1.32-.09,1.79Z"/>
        </g>
      </g>
      <g>
        <g>
          <path class="cls-3" d="m284.48,928.8c-.52.47-1.32.43-1.79-.09l-2.15-2.38c-.47-.52-.43-1.32.09-1.79s1.32-.43,1.79.09l2.15,2.38c.47.52.43,1.32-.09,1.79Z"/>
          <path class="cls-3" d="m290.36,935.31c-.52.47-1.32.43-1.79-.09l-2.15-2.38c-.47-.52-.43-1.32.09-1.79s1.32-.43,1.79.09l2.15,2.38c.47.52.43,1.32-.09,1.79Z"/>
        </g>
        <g>
          <path class="cls-3" d="m290.79,926.85l-2.38,2.15c-.52.47-1.32.43-1.79-.09s-.43-1.32.09-1.79l2.38-2.15c.52-.47,1.32-.43,1.79.09s.43,1.32-.09,1.79Z"/>
          <path class="cls-3" d="m284.28,932.73l-2.38,2.15c-.52.47-1.32.43-1.79-.09-.47-.52-.43-1.32.09-1.79l2.38-2.15c.52-.47,1.32-.43,1.79.09s.43,1.32-.09,1.79Z"/>
        </g>
      </g>
    </g>
    <g>
      <g>
        <g>
          <path class="cls-43" d="m650.43,968.05c.08,45.39.25,143.27.25,143.27h161.73v-143.27h-161.99Z"/>
          <path class="cls-49" d="m363.42,912.11v15.58c0,24.83,20.13,44.97,44.97,44.97h646.09c24.83,0,44.97-20.13,44.97-44.97v-15.58H363.42Z"/>
          <g>
            <polygon class="cls-51" points="848.34 1104.21 614.52 1104.21 595.44 1125.39 867.42 1125.39 848.34 1104.21"/>
            <rect class="cls-52" x="595.44" y="1125.39" width="271.98" height="25.76"/>
          </g>
        </g>
        <path class="cls-44" d="m1054.47,478.05H408.38c-24.83,0-44.97,20.13-44.97,44.97v389.1h736.02v-389.1c0-24.83-20.13-44.97-44.97-44.97Z"/>
        <g>
          <g>
            <path class="cls-50" d="m433.68,511.36h-20.31c-5.17,0-9.35,4.19-9.35,9.35v54.18c0,5.17,4.19,9.35,9.35,9.35h20.31v-72.89Z"/>
            <path class="cls-46" d="m819.21,511.36h-385.53s0,72.89,0,72.89h385.53c5.17,0,9.35-4.19,9.35-9.35v-54.18c0-5.17-4.19-9.35-9.35-9.35Z"/>
            <g>
              <rect class="cls-3" x="449.24" y="525.26" width="45.1" height="45.1" rx="9" ry="9"/>
              <g>
                <path class="cls-3" d="m658.94,539.91h-144.87c-2.24,0-4.05-1.81-4.05-4.05s1.81-4.05,4.05-4.05h144.87c2.24,0,4.05,1.81,4.05,4.05s-1.81,4.05-4.05,4.05Z"/>
                <g>
                  <path class="cls-3" d="m535.57,563.82h-21.49c-2.24,0-4.05-1.81-4.05-4.05s1.81-4.05,4.05-4.05h21.49c2.24,0,4.05,1.81,4.05,4.05s-1.81,4.05-4.05,4.05Z"/>
                  <path class="cls-3" d="m613.2,563.82h-61.24c-2.24,0-4.05-1.81-4.05-4.05s1.81-4.05,4.05-4.05h61.24c2.24,0,4.05,1.81,4.05,4.05s-1.81,4.05-4.05,4.05Z"/>
                  <path class="cls-3" d="m688.74,563.82h-57.95c-2.24,0-4.05-1.81-4.05-4.05s1.81-4.05,4.05-4.05h57.95c2.24,0,4.05,1.81,4.05,4.05s-1.81,4.05-4.05,4.05Z"/>
                </g>
              </g>
            </g>
          </g>
          <g>
            <path class="cls-47" d="m709.71,771.26v-54.18c0-5.17-4.19-9.35-9.35-9.35h-266.68v72.89h266.68c5.17,0,9.35-4.19,9.35-9.35Z"/>
            <path class="cls-45" d="m404.01,717.07v54.18c0,5.17,4.19,9.35,9.35,9.35h20.31v-72.89h-20.31c-5.17,0-9.35,4.19-9.35,9.35Z"/>
            <g>
              <rect class="cls-3" x="449.24" y="721.61" width="45.1" height="45.1" rx="9" ry="9"/>
              <g>
                <path class="cls-3" d="m587.4,736.26h-73.32c-2.24,0-4.05-1.81-4.05-4.05s1.81-4.05,4.05-4.05h73.32c2.24,0,4.05,1.81,4.05,4.05s-1.81,4.05-4.05,4.05Z"/>
                <g>
                  <path class="cls-3" d="m527.62,760.17h-13.54c-2.24,0-4.05-1.81-4.05-4.05s1.81-4.05,4.05-4.05h13.54c2.24,0,4.05,1.81,4.05,4.05s-1.81,4.05-4.05,4.05Z"/>
                  <path class="cls-3" d="m688.74,760.17h-145.39c-2.24,0-4.05-1.81-4.05-4.05s1.81-4.05,4.05-4.05h145.39c2.24,0,4.05,1.81,4.05,4.05s-1.81,4.05-4.05,4.05Z"/>
                </g>
              </g>
            </g>
          </g>
          <g>
            <path class="cls-48" d="m709.71,869.44v-54.18c0-5.17-4.19-9.35-9.35-9.35h-266.68s0,72.89,0,72.89h266.68c5.17,0,9.35-4.19,9.35-9.35Z"/>
            <path class="cls-58" d="m404.01,815.25v54.18c0,5.17,4.19,9.35,9.35,9.35h20.31v-72.89h-20.31c-5.17,0-9.35,4.19-9.35,9.35Z"/>
            <g>
              <rect class="cls-3" x="449.24" y="819.79" width="45.1" height="45.1" rx="9" ry="9"/>
              <g>
                <path class="cls-3" d="m587.4,834.44h-73.32c-2.24,0-4.05-1.81-4.05-4.05s1.81-4.05,4.05-4.05h73.32c2.24,0,4.05,1.81,4.05,4.05s-1.81,4.05-4.05,4.05Z"/>
                <g>
                  <path class="cls-3" d="m527.62,858.35h-13.54c-2.24,0-4.05-1.81-4.05-4.05s1.81-4.05,4.05-4.05h13.54c2.24,0,4.05,1.81,4.05,4.05s-1.81,4.05-4.05,4.05Z"/>
                  <path class="cls-3" d="m688.74,858.35h-145.39c-2.24,0-4.05-1.81-4.05-4.05s1.81-4.05,4.05-4.05h145.39c2.24,0,4.05,1.81,4.05,4.05s-1.81,4.05-4.05,4.05Z"/>
                </g>
              </g>
            </g>
          </g>
          <g>
            <path class="cls-66" d="m828.56,673.08v-54.18c0-5.17-4.19-9.35-9.35-9.35h-385.53v72.89h385.53c5.17,0,9.35-4.19,9.35-9.35Z"/>
            <path class="cls-59" d="m404.01,618.9v54.18c0,5.17,4.19,9.35,9.35,9.35h20.31v-72.89h-20.31c-5.17,0-9.35,4.19-9.35,9.35Z"/>
            <g>
              <rect class="cls-3" x="449.24" y="623.44" width="45.1" height="45.1" rx="9" ry="9"/>
              <g>
                <g>
                  <path class="cls-3" d="m523.8,638.09h-9.73c-2.24,0-4.05-1.81-4.05-4.05s1.81-4.05,4.05-4.05h9.73c2.24,0,4.05,1.81,4.05,4.05s-1.81,4.05-4.05,4.05Z"/>
                  <path class="cls-3" d="m564.57,638.09h-26.99c-2.24,0-4.05-1.81-4.05-4.05s1.81-4.05,4.05-4.05h26.99c2.24,0,4.05,1.81,4.05,4.05s-1.81,4.05-4.05,4.05Z"/>
                </g>
                <g>
                  <path class="cls-3" d="m615.07,662h-100.99c-2.24,0-4.05-1.81-4.05-4.05s1.81-4.05,4.05-4.05h100.99c2.24,0,4.05,1.81,4.05,4.05s-1.81,4.05-4.05,4.05Z"/>
                  <path class="cls-3" d="m688.74,662h-57.95c-2.24,0-4.05-1.81-4.05-4.05s1.81-4.05,4.05-4.05h57.95c2.24,0,4.05,1.81,4.05,4.05s-1.81,4.05-4.05,4.05Z"/>
                </g>
              </g>
            </g>
          </g>
          <g>
            <path class="cls-57" d="m729.52,745.97h-10.35c-2.75,0-4.98-2.23-4.98-4.98s2.23-4.98,4.98-4.98h10.35c2.75,0,4.98,2.23,4.98,4.98s-2.23,4.98-4.98,4.98Z"/>
            <path class="cls-67" d="m816.42,745.97h-21.73c-2.75,0-4.98-2.23-4.98-4.98s2.23-4.98,4.98-4.98h21.73c2.75,0,4.98,2.23,4.98,4.98s-2.23,4.98-4.98,4.98Zm-43.45,0h-21.73c-2.75,0-4.98-2.23-4.98-4.98s2.23-4.98,4.98-4.98h21.73c2.75,0,4.98,2.23,4.98,4.98s-2.23,4.98-4.98,4.98Z"/>
            <path class="cls-68" d="m848.5,745.97h-10.35c-2.75,0-4.98-2.23-4.98-4.98s2.23-4.98,4.98-4.98h5.37v-5.37c0-2.75,2.23-4.98,4.98-4.98s4.98,2.23,4.98,4.98v10.35c0,2.75-2.23,4.98-4.98,4.98Z"/>
            <path class="cls-70" d="m848.5,710.33c-2.75,0-4.98-2.23-4.98-4.98v-25.3c0-2.75,2.23-4.98,4.98-4.98s4.98,2.23,4.98,4.98v25.3c0,2.75-2.23,4.98-4.98,4.98Z"/>
            <path class="cls-72" d="m848.5,659.73c-2.75,0-4.98-2.23-4.98-4.98v-5.37h-7.28c-2.75,0-4.98-2.23-4.98-4.98s2.23-4.98,4.98-4.98h12.27c2.75,0,4.98,2.23,4.98,4.98v10.35c0,2.75-2.23,4.98-4.98,4.98Z"/>
          </g>
          <g>
            <path class="cls-71" d="m729.52,846.71h-10.35c-2.75,0-4.98-2.23-4.98-4.98s2.23-4.98,4.98-4.98h10.35c2.75,0,4.98,2.23,4.98,4.98s-2.23,4.98-4.98,4.98Z"/>
            <path class="cls-69" d="m816.42,846.71h-21.73c-2.75,0-4.98-2.23-4.98-4.98s2.23-4.98,4.98-4.98h21.73c2.75,0,4.98,2.23,4.98,4.98s-2.23,4.98-4.98,4.98Zm-43.45,0h-21.73c-2.75,0-4.98-2.23-4.98-4.98s2.23-4.98,4.98-4.98h21.73c2.75,0,4.98,2.23,4.98,4.98s-2.23,4.98-4.98,4.98Z"/>
            <path class="cls-63" d="m848.5,846.71h-10.35c-2.75,0-4.98-2.23-4.98-4.98s2.23-4.98,4.98-4.98h5.37v-5.37c0-2.75,2.23-4.98,4.98-4.98s4.98,2.23,4.98,4.98v10.35c0,2.75-2.23,4.98-4.98,4.98Z"/>
            <path class="cls-61" d="m848.5,804.56c-2.75,0-4.98-2.23-4.98-4.98v-25.3c0-2.75,2.23-4.98,4.98-4.98s4.98,2.23,4.98,4.98v25.3c0,2.75-2.23,4.98-4.98,4.98Z"/>
          </g>
        </g>
        <g>
          <path class="cls-65" d="m892.41,511.36h172.43c7.05,0,12.78,5.73,12.78,12.78v341.86c0,7.05-5.73,12.78-12.78,12.78h-172.44c-7.05,0-12.78-5.73-12.78-12.78v-341.86c0-7.05,5.73-12.78,12.78-12.78Z"/>
          <g>
            <g>
              <path class="cls-62" d="m1005.84,698.75c-3.14-1.48-5.22-3.34-6.43-4.61-4.39-4.62-5.75-10.29-5.89-14-.06-1.76.14-3.31.18-3.6,0,0,.43-3.2,1.82-6.17,4.99-10.69,17.7-15.31,28.39-10.32l.64.3,13.05-27.94-.16-.08-5.93-2.77c-.59-.27-1.28-.02-1.56.57l-4.41,9.44c-.23.49-.77.77-1.3.65-4.54-.99-9.14-1.16-13.61-.6-.54.07-1.05-.25-1.24-.76l-3.56-9.8c-.22-.61-.89-.92-1.5-.7l-12.97,4.71c-.61.22-.92.89-.7,1.5l3.56,9.8c.19.51,0,1.08-.46,1.38-3.79,2.44-7.21,5.52-10.05,9.2-.33.43-.92.56-1.41.33l-9.44-4.41c-.59-.27-1.28-.02-1.56.57l-5.84,12.51c-.27.59-.02,1.28.57,1.56l9.44,4.41c.49.23.77.77.65,1.3-.99,4.54-1.16,9.14-.6,13.61.07.54-.25,1.05-.76,1.24l-9.8,3.56c-.61.22-.92.89-.7,1.5l4.71,12.97c.22.61.89.92,1.5.7l9.8-3.56c.51-.19,1.08,0,1.38.46,2.44,3.79,5.52,7.21,9.2,10.05.43.33.56.92.33,1.41l-4.41,9.44c-.27.59-.02,1.28.57,1.56l5.92,2.77.17.08,13.05-27.94-.64-.3Z"/>
              <path class="cls-60" d="m1065,693.89l-9.44-4.41c-.49-.23-.77-.77-.65-1.3.99-4.54,1.16-9.14.6-13.61-.07-.54.25-1.05.76-1.24l9.8-3.56c.61-.22.92-.89.7-1.5l-4.71-12.97c-.22-.61-.89-.92-1.5-.7l-9.8,3.56c-.51.19-1.08,0-1.38-.46-2.44-3.79-5.52-7.21-9.2-10.05-.43-.33-.56-.92-.33-1.41l4.41-9.44c.27-.59.02-1.28-.56-1.56l-5.93-2.77-.16-.08-13.05,27.94.64.3c10.69,4.99,15.31,17.7,10.32,28.39-4.99,10.69-17.7,15.31-28.39,10.32l-.64-.3-13.05,27.94.17.08,5.93,2.77c.59.27,1.28.02,1.56-.57l4.41-9.44c.23-.49.77-.77,1.3-.65,4.54.99,9.14,1.16,13.61.6.54-.07,1.05.25,1.24.76l3.56,9.8c.22.61.89.92,1.5.7l12.97-4.71c.61-.22.92-.89.7-1.5l-3.56-9.8c-.19-.51,0-1.08.46-1.38,3.79-2.44,7.21-5.52,10.05-9.2.33-.43.92-.56,1.41-.33l9.44,4.41c.59.27,1.28.02,1.56-.57l5.84-12.51c.27-.59.02-1.28-.57-1.56Z"/>
              <path class="cls-7" d="m1028.52,654.08l-.86-.4-.86-.4c-14.37-6.71-31.45-.5-38.16,13.86-1.87,3.99-2.44,8.3-2.44,8.3-.05.39-.33,2.47-.24,4.84.18,4.99,2.01,12.61,7.91,18.82,1.62,1.7,4.41,4.21,8.64,6.2l.86.4.86.4c14.36,6.71,31.45.5,38.16-13.86,6.71-14.37.5-31.45-13.86-38.16Z"/>
              <g>
                <path class="cls-64" d="m1022.8,665.35l-.48-.22-.48-.22c-8.04-3.76-17.61-.28-21.36,7.76-1.04,2.24-1.37,4.65-1.37,4.65-.03.22-.18,1.38-.13,2.71.1,2.79,1.13,7.06,4.43,10.54.91.95,2.47,2.36,4.84,3.47l.48.22.48.22c8.04,3.76,17.61.28,21.36-7.76,3.76-8.04.28-17.61-7.76-21.36Z"/>
                <path class="cls-8" d="m1015.1,694.39l-.48-.22-.48-.22c-2.37-1.11-3.93-2.52-4.84-3.47-3.3-3.48-4.33-7.74-4.43-10.54-.05-1.33.11-2.49.13-2.71,0,0,.32-2.41,1.37-4.65,2.24-4.8,6.55-7.97,11.37-8.95-6.96-1.2-14.14,2.33-17.28,9.04-1.04,2.24-1.37,4.65-1.37,4.65-.03.22-.18,1.38-.13,2.71.1,2.79,1.13,7.06,4.43,10.54.91.95,2.47,2.36,4.84,3.47l.48.22.48.22c3.24,1.52,6.74,1.85,10,1.19-1.38-.24-2.76-.66-4.09-1.28Z"/>
              </g>
            </g>
            <g>
              <path class="cls-34" d="m945.56,621.4c-3.93-.71-6.79-2.17-8.5-3.22-6.24-3.83-9.43-9.72-10.68-13.8-.59-1.94-.83-3.72-.87-4.05,0,0-.47-3.68.19-7.39,2.38-13.34,15.12-22.23,28.46-19.86l.79.14,6.21-34.88-.2-.04-7.4-1.32c-.73-.13-1.43.36-1.56,1.09l-2.1,11.79c-.11.61-.63,1.08-1.25,1.11-5.33.25-10.49,1.41-15.29,3.37-.58.24-1.24.03-1.6-.48l-6.86-9.83c-.42-.61-1.26-.76-1.87-.33l-13.01,9.07c-.61.42-.76,1.26-.33,1.87l6.86,9.83c.36.51.32,1.2-.1,1.67-3.49,3.83-6.36,8.27-8.44,13.19-.24.57-.86.9-1.47.79l-11.79-2.1c-.73-.13-1.43.36-1.56,1.09l-2.78,15.61c-.13.73.36,1.43,1.09,1.56l11.79,2.1c.61.11,1.08.63,1.11,1.25.25,5.33,1.41,10.49,3.37,15.29.24.58.03,1.24-.48,1.6l-9.83,6.86c-.61.42-.76,1.26-.33,1.87l9.07,13.01c.42.61,1.26.76,1.87.33l9.83-6.86c.51-.36,1.2-.32,1.67.1,3.83,3.49,8.27,6.36,13.19,8.44.57.24.9.86.79,1.47l-2.1,11.79c-.13.73.36,1.43,1.09,1.56l7.4,1.32.21.04,6.21-34.88-.79-.14Z"/>
              <path class="cls-33" d="m1009.8,598.49l-11.79-2.1c-.61-.11-1.08-.63-1.11-1.25-.25-5.33-1.41-10.49-3.37-15.29-.24-.58-.03-1.24.48-1.6l9.83-6.86c.61-.42.76-1.26.33-1.87l-9.07-13.01c-.42-.61-1.26-.76-1.87-.33l-9.83,6.86c-.51.36-1.2.32-1.67-.1-3.83-3.49-8.27-6.36-13.19-8.44-.57-.24-.9-.86-.79-1.47l2.1-11.79c.13-.73-.36-1.43-1.09-1.56l-7.4-1.32-.2-.04-6.21,34.88.79.14c13.34,2.38,22.23,15.12,19.86,28.46-2.38,13.34-15.12,22.23-28.46,19.86l-.79-.14-6.21,34.88.21.04,7.4,1.32c.73.13,1.43-.36,1.56-1.09l2.1-11.79c.11-.61.63-1.08,1.25-1.11,5.33-.25,10.49-1.42,15.29-3.37.58-.24,1.24-.03,1.6.48l6.86,9.83c.42.61,1.26.76,1.87.33l13.01-9.07c.61-.42.76-1.26.33-1.87l-6.86-9.83c-.36-.51-.32-1.2.1-1.67,3.49-3.83,6.36-8.27,8.44-13.19.24-.57.86-.9,1.47-.79l11.79,2.1c.73.13,1.43-.36,1.56-1.09l2.78-15.61c.13-.73-.36-1.43-1.09-1.56Z"/>
              <path class="cls-7" d="m957.75,563.96l-1.11-.2-1.11-.2c-18.57-3.31-36.3,9.07-39.61,27.64-.92,5.16-.27,10.29-.27,10.29.06.46.38,2.94,1.21,5.64,1.74,5.68,6.18,13.88,14.87,19.21,2.39,1.46,6.36,3.49,11.83,4.48l1.11.2,1.11.2c18.57,3.31,36.3-9.07,39.61-27.64,3.31-18.57-9.07-36.3-27.64-39.61Z"/>
              <g>
                <path class="cls-36" d="m954.71,578.27l-.63-.11-.63-.11c-10.62-1.89-20.76,5.18-22.65,15.8-.53,2.95-.15,5.88-.15,5.88.03.26.22,1.68.69,3.23.99,3.25,3.53,7.94,8.5,10.98,1.36.84,3.64,1.99,6.76,2.56l.63.11.63.11c10.62,1.89,20.76-5.19,22.65-15.8,1.89-10.62-5.18-20.76-15.8-22.65Z"/>
                <path class="cls-8" d="m954.78,614.77l-.63-.11-.63-.11c-3.13-.56-5.4-1.72-6.76-2.56-4.97-3.05-7.51-7.74-8.5-10.98-.47-1.54-.66-2.96-.69-3.23,0,0-.37-2.93.15-5.88,1.13-6.34,5.19-11.41,10.54-14.07-8.55.78-15.88,7.16-17.45,16.03-.53,2.95-.15,5.88-.15,5.88.03.26.22,1.68.69,3.23.99,3.25,3.53,7.94,8.5,10.98,1.36.84,3.64,1.99,6.76,2.56l.63.11.63.11c4.28.76,8.49.06,12.11-1.73-1.7.15-3.44.09-5.2-.22Z"/>
              </g>
            </g>
          </g>
          <g>
            <rect class="cls-3" x="892.18" y="744.17" width="172.88" height="122.76" rx="10.27" ry="10.27"/>
            <g>
              <g>
                <circle class="cls-2" cx="915.12" cy="764.09" r="9"/>
                <rect class="cls-2" x="929.37" y="755.09" width="38.25" height="4.33"/>
                <rect class="cls-2" x="929.37" y="766.3" width="62" height="6.79"/>
              </g>
              <g>
                <path class="cls-2" d="m1048.62,791.38h-14.5c-1.38,0-2.5-1.12-2.5-2.5s1.12-2.5,2.5-2.5h14.5c1.38,0,2.5,1.12,2.5,2.5s-1.12,2.5-2.5,2.5Z"/>
                <path class="cls-2" d="m1026.12,791.38h-106.48c-1.38,0-2.5-1.12-2.5-2.5s1.12-2.5,2.5-2.5h106.48c1.38,0,2.5,1.12,2.5,2.5s-1.12,2.5-2.5,2.5Z"/>
                <path class="cls-2" d="m911.37,791.38h-2.75c-1.38,0-2.5-1.12-2.5-2.5s1.12-2.5,2.5-2.5h2.75c1.38,0,2.5,1.12,2.5,2.5s-1.12,2.5-2.5,2.5Z"/>
                <path class="cls-2" d="m1048.62,808.05h-64.25c-1.38,0-2.5-1.12-2.5-2.5s1.12-2.5,2.5-2.5h64.25c1.38,0,2.5,1.12,2.5,2.5s-1.12,2.5-2.5,2.5Z"/>
                <path class="cls-2" d="m975.87,808.05h-67.25c-1.38,0-2.5-1.12-2.5-2.5s1.12-2.5,2.5-2.5h67.25c1.38,0,2.5,1.12,2.5,2.5s-1.12,2.5-2.5,2.5Z"/>
                <path class="cls-2" d="m1048.62,824.72h-104.75c-1.38,0-2.5-1.12-2.5-2.5s1.12-2.5,2.5-2.5h104.75c1.38,0,2.5,1.12,2.5,2.5s-1.12,2.5-2.5,2.5Z"/>
                <path class="cls-2" d="m937.12,824.72h-28.5c-1.38,0-2.5-1.12-2.5-2.5s1.12-2.5,2.5-2.5h28.5c1.38,0,2.5,1.12,2.5,2.5s-1.12,2.5-2.5,2.5Z"/>
              </g>
            </g>
            <path class="cls-35" d="m1027.16,857.15h-97.08c-5.76,0-10.44-4.67-10.44-10.44h0c0-5.76,4.67-10.44,10.44-10.44h97.08c5.76,0,10.44,4.67,10.44,10.44h0c0,5.76-4.67,10.44-10.44,10.44Z"/>
          </g>
        </g>
      </g>
      <path class="cls-3" d="m758.04,949.45h-53.22c-3.95,0-7.15-3.2-7.15-7.15s3.2-7.15,7.15-7.15h53.22c3.95,0,7.15,3.2,7.15,7.15s-3.2,7.15-7.15,7.15Z"/>
    </g>
    <g>
      <g>
        <path class="cls-39" d="m622.11,326.65l-225.83,56.07-17.34-4.2-13.29,11.75-225.83,56.08c-9.96,2.47-20.04-3.6-22.51-13.56L45.32,142.76c-2.47-9.96,3.6-20.04,13.56-22.51L541.18.55c9.96-2.47,20.04,3.6,22.51,13.56l71.98,290.03c2.47,9.96-3.6,20.04-13.56,22.51Z"/>
        <polygon class="cls-37" points="405.52 380.4 396.27 382.69 378.6 377.16 365.65 390.3 356.4 392.59 345.19 347.42 394.31 335.23 405.52 380.4"/>
        <path class="cls-38" d="m396.27,382.7c-2.87-.77-9.25-2.05-16.91,0-6.95,1.87-11.54,5.59-13.71,7.59-3.74-15.06-7.47-30.12-11.21-45.17l30.62-7.6,11.21,45.17Z"/>
      </g>
      <g>
        <path class="cls-6" d="m375.88,365.98c-79.82-6.93-159.68,12.89-227,56.34l1.33,5.37,225.66-61.7,228.33-50.97-1.33-5.37c-79.82-6.93-159.68,12.89-227,56.34Z"/>
        <g>
          <path class="cls-8" d="m375.88,365.98c67.32-43.45,147.18-63.27,227-56.34l-3.43-13.83-4.59-18.49-227,56.34c2.67,10.77,5.35,21.55,8.02,32.32Z"/>
          <path class="cls-8" d="m375.88,365.98c-2.67-10.77-5.35-21.55-8.02-32.32l-227,56.34,5.63,22.7,2.39,9.62c67.32-43.45,147.18-63.27,227-56.34Z"/>
        </g>
      </g>
      <path class="cls-41" d="m600.49,300.03c-79.82-6.93-159.68,12.89-227,56.34-24.67-99.38-49.33-198.76-74-298.14C366.82,14.78,446.68-5.04,526.5,1.89c24.67,99.38,49.33,198.76,74,298.14Z"/>
      <path class="cls-42" d="m373.5,356.37c-79.82-6.93-159.68,12.89-227,56.34-24.67-99.38-49.33-198.76-74-298.14,67.32-43.45,147.18-63.27,227-56.34,24.67,99.38,49.33,198.76,74,298.14Z"/>
      <path class="cls-40" d="m352.61,326.05c-68.96,8.27-136.6,25.18-201.33,50.34-9.87-39.46-19.73-78.91-29.6-118.37,64.73-25.16,132.37-42.07,201.33-50.34,9.87,39.46,19.73,78.91,29.6,118.37Z"/>
      <path class="cls-26" d="m554.65,169.9c-68.96,8.27-136.6,25.18-201.33,50.34-11.05-44.19-22.1-88.38-33.15-132.57,64.73-25.16,132.37-42.07,201.33-50.34,11.05,44.19,22.1,88.38,33.15,132.57Z"/>
      <path class="cls-24" d="m296.71,101.38c-69.02,8.15-136.74,24.96-201.56,50.02-1.59-6.4-3.18-12.8-4.76-19.2,64.82-25.06,132.54-41.87,201.56-50.02,1.59,6.4,3.18,12.8,4.76,19.2Z"/>
      <g>
        <path class="cls-8" d="m147.35,170.97c-1.71.42-3.49-.58-4.06-2.33-.59-1.83.37-3.79,2.14-4.38,22.1-7.27,44.78-13.61,67.44-18.87,1.82-.42,3.66.76,4.09,2.63.44,1.88-.68,3.77-2.51,4.17-22.46,5.21-44.96,11.51-66.87,18.72-.08.03-.16.05-.24.07Z"/>
        <path class="cls-8" d="m107.09,185.44c-1.63.41-3.36-.49-4-2.15-.69-1.8.17-3.81,1.91-4.49,10.27-4.01,20.75-7.86,31.17-11.43,1.77-.61,3.71.38,4.32,2.21.62,1.83-.32,3.8-2.09,4.41-10.33,3.54-20.72,7.35-30.9,11.33-.14.05-.27.1-.41.13Z"/>
        <path class="cls-8" d="m308.05,161.13c-.14.03-.28.06-.42.08-6.62.76-13.31,1.61-19.9,2.54-1.85.26-3.58-1.07-3.86-2.98-.28-1.91,1-3.67,2.85-3.93,6.64-.93,13.39-1.79,20.06-2.56,1.86-.21,3.56,1.17,3.79,3.08.21,1.76-.89,3.37-2.52,3.77Z"/>
        <path class="cls-8" d="m275.42,165.56c-.09.02-.19.04-.28.06-21.42,3.37-42.95,7.7-64.01,12.86-1.82.45-3.66-.71-4.12-2.58-.46-1.87.64-3.75,2.45-4.19,0,0,0,0,0,0,21.23-5.21,42.95-9.57,64.55-12.97,1.85-.29,3.6,1.02,3.91,2.92.29,1.8-.81,3.49-2.5,3.91Z"/>
        <path class="cls-8" d="m113.07,209.52c-1.63.41-3.36-.49-4-2.15-.69-1.8.17-3.81,1.91-4.49,27.33-10.68,55.57-19.92,83.92-27.45,1.82-.49,3.68.64,4.17,2.5.49,1.86-.57,3.76-2.38,4.24-28.11,7.47-56.11,16.63-83.21,27.22-.14.05-.27.1-.41.13Z"/>
        <path class="cls-8" d="m314.03,185.21c-.14.03-.28.06-.42.08-14.23,1.63-28.61,3.68-42.72,6.1-1.85.32-3.61-.97-3.94-2.87-.33-1.9.89-3.69,2.74-4.01,14.23-2.44,28.73-4.51,43.08-6.15,1.86-.21,3.56,1.16,3.79,3.08.21,1.76-.89,3.37-2.52,3.77Z"/>
        <path class="cls-8" d="m166.54,216.79c-1.72.43-3.51-.59-4.07-2.36-.58-1.84.4-3.79,2.18-4.36,28.89-9.19,58.64-16.77,88.41-22.53,1.84-.36,3.63.89,4,2.78.37,1.89-.82,3.71-2.65,4.07-29.52,5.71-59.01,13.23-87.66,22.34-.07.02-.14.04-.21.06Z"/>
        <path class="cls-8" d="m119.04,233.6c-1.63.41-3.36-.49-4-2.15-.69-1.8.17-3.81,1.91-4.49,11.34-4.43,22.93-8.65,34.44-12.54,1.77-.6,3.71.4,4.31,2.23.61,1.83-.34,3.8-2.11,4.4-11.42,3.86-22.91,8.04-34.15,12.43-.14.05-.27.1-.41.13Z"/>
      </g>
      <g>
        <path class="cls-8" d="m560.14,205.36c-.14.03-.28.06-.42.08-30.15,3.45-60.4,8.73-89.93,15.69-1.82.43-3.66-.74-4.1-2.62-.44-1.88.68-3.71,2.5-4.18,29.77-7.02,60.29-12.35,90.69-15.83,1.86-.21,3.56,1.17,3.79,3.08.21,1.76-.89,3.37-2.52,3.77Z"/>
        <path class="cls-8" d="m365.16,253.76c-1.63.41-3.36-.49-4-2.15-.69-1.8.17-3.81,1.91-4.49,27.86-10.89,56.64-20.27,85.56-27.89.02,0,.03,0,.05-.01,1.8-.45,3.63.68,4.12,2.53.49,1.86-.58,3.76-2.39,4.24-28.67,7.55-57.21,16.85-84.83,27.65-.14.05-.27.1-.41.13Z"/>
        <path class="cls-8" d="m566.12,229.45c-.14.03-.28.06-.42.08-15.45,1.77-31.04,4.03-46.34,6.72-1.84.32-3.62-.95-3.96-2.85-.34-1.9.87-3.7,2.72-4.02,15.43-2.72,31.16-5,46.74-6.78,1.86-.21,3.56,1.16,3.79,3.08.21,1.76-.89,3.37-2.52,3.77Z"/>
        <path class="cls-8" d="m406.77,264.9c-1.7.42-3.48-.57-4.05-2.31-.61-1.83.34-3.8,2.12-4.39,32.7-10.98,66.45-19.87,100.31-26.42,1.84-.36,3.63.89,4,2.78.37,1.89-.82,3.73-2.65,4.07-33.58,6.5-67.04,15.31-99.46,26.2-.09.03-.17.05-.26.08Z"/>
        <path class="cls-8" d="m371.13,277.84c-1.63.41-3.36-.49-4-2.15-.69-1.8.17-3.81,1.91-4.49,8.15-3.18,16.46-6.28,24.72-9.19,1.77-.62,3.71.35,4.34,2.17.63,1.82-.29,3.8-2.06,4.43-8.19,2.89-16.43,5.95-24.51,9.11-.14.05-.27.1-.41.13Z"/>
        <path class="cls-8" d="m572.09,253.53c-.14.03-.28.06-.42.08-30.15,3.45-60.4,8.73-89.93,15.7-1.82.43-3.66-.74-4.1-2.62-.44-1.88.66-3.77,2.5-4.18,29.77-7.02,60.29-12.35,90.69-15.83,1.86-.21,3.56,1.17,3.79,3.08.21,1.76-.89,3.37-2.52,3.77Z"/>
        <path class="cls-8" d="m377.11,301.92c-1.63.41-3.36-.49-4-2.15-.69-1.8.17-3.81,1.91-4.49,29.79-11.64,60.6-21.55,91.58-29.45,1.81-.47,3.67.68,4.15,2.55s-.61,3.76-2.42,4.22c-30.72,7.83-61.27,17.65-90.81,29.2-.14.05-.27.1-.41.13Z"/>
      </g>
      <path class="cls-3" d="m242.88,235.54c8.67-1.74,45.04-12.86,47.25,2.26.84,5.74-7.57,10.63-6.15,16.28,1.36,5.4,9.03,3.75,12.85,2.73,5.72-1.54,13.42-4.3,18.08,1.1,2.25,2.6,2.64,6.4,1.87,9.75-1.14,4.92-4.24,10.1-7.92,13.56-9.28,8.72-21.95,12.36-33.72,16.31-16.87,5.67-33.02,13.34-48.63,21.85-12.84,7-24.76,15.85-38.31,21.46-3.36,1.39-6.95,2.66-10.55,2.19-11.37-1.5-11.12-15.14-6.35-22.64,4.13-6.48,10.46-11.59,13.29-18.74.89-2.24,1.31-5.03-.22-6.89-2.65-3.21-7.82-.77-11.94-1.34-5.23-.73-8.35-6.89-7.4-12.09,2.26-12.38,19.05-21.55,28.84-27.38,15.18-9.05,31.73-14.94,49.02-18.42Z"/>
      <g>
        <g>
          <path class="cls-4" d="m265.36,269.31c.22-5.39-.67-10.66-2.85-15.62-7.68-17.47-28.07-25.4-45.54-17.72-23.36,10.27-27.49,43.96-6.77,59.26,3.97,2.93,8.5,4.96,12.72,7.49,3.44,2.06,6.05,4.49,8.57,7.29l31.54-13.87c-.42-4.01-.48-8.06-.19-12.07.37-5.01,2.31-9.71,2.51-14.76Z"/>
          <path class="cls-3" d="m210.2,288.22c-.99.25-2.08-.08-2.77-.93-2.18-2.71-3.84-5.78-4.95-9.14-.47-1.42.3-2.95,1.72-3.42,1.42-.47,2.95.3,3.42,1.72.91,2.74,2.26,5.25,4.03,7.45.94,1.17.75,2.87-.41,3.81-.32.25-.67.42-1.04.52Z"/>
          <path class="cls-3" d="m204.46,267.69c-.3.08-.63.1-.95.06-1.49-.16-2.56-1.5-2.39-2.99.44-3.95,1.57-7.72,3.37-11.2.69-1.33,2.32-1.85,3.65-1.16,1.33.69,1.85,2.32,1.16,3.65-1.49,2.89-2.43,6.02-2.8,9.31-.13,1.16-.97,2.06-2.03,2.33Z"/>
          <path class="cls-3" d="m247.57,305.94c-.68.17-1.4-.17-1.69-.83l-11.37-25.85c-.32-.74.01-1.6.75-1.92.74-.32,1.6.01,1.92.75l11.37,25.85c.32.74-.01,1.6-.75,1.92-.08.03-.16.06-.23.08Z"/>
          <path class="cls-25" d="m233.86,312.77c3.75,4.49,6.1,9.43,8.73,14.6,3.52,6.92,11.13,10.81,18.64,7.51,4.43-1.95,7.86-6.43,8.32-11.29.41-4.29-1.5-7.94-2.98-11.82-1.42-3.73-2.35-7.76-3-11.68-.22-1.31-.39-2.62-.53-3.94l-31.54,13.87c.79.88,1.57,1.8,2.37,2.75Z"/>
        </g>
        <g>
          <path class="cls-3" d="m236.2,280.09c-.28.07-.59.06-.88-.06-.75-.29-1.12-1.14-.83-1.89l5.37-13.81c.29-.75,1.14-1.12,1.89-.83.75.29,1.12,1.14.83,1.89l-5.37,13.81c-.18.46-.56.78-1.01.89Z"/>
          <path class="cls-3" d="m236.2,280.09c-.28.07-.59.06-.88-.06l-13.81-5.37c-.75-.29-1.12-1.14-.83-1.89.29-.75,1.14-1.12,1.89-.83l13.81,5.37c.75.29,1.12,1.14.83,1.89-.18.46-.56.78-1.01.89Z"/>
        </g>
      </g>
      <path class="cls-3" d="m165.75,305.8c1.25,5.01-1.79,10.09-6.8,11.34-5.01,1.25-10.09-1.79-11.34-6.8-1.25-5.01,1.79-10.09,6.8-11.34,5.01-1.25,10.09,1.79,11.34,6.8Z"/>
      <path class="cls-3" d="m298.8,247.81c.62,2.49-.89,5.02-3.39,5.65-2.49.62-5.02-.89-5.65-3.39-.62-2.49.89-5.02,3.39-5.65,2.49-.62,5.02.89,5.65,3.39Z"/>
      <g>
        <g>
          <path class="cls-22" d="m491.19,146.89c-2.54.93-4.71,1.06-6.07,1.03-4.96-.1-8.85-2.46-10.97-4.42-1.01-.93-1.76-1.89-1.9-2.07,0,0-1.54-1.99-2.42-4.39-3.18-8.62,1.23-18.18,9.85-21.36l.51-.19-8.31-22.53-.13.05-4.78,1.76c-.47.17-.71.7-.54,1.17l2.81,7.61c.15.4,0,.84-.35,1.07-3.03,1.97-5.65,4.42-7.79,7.2-.26.34-.72.44-1.1.27l-7.37-3.4c-.46-.21-1-.01-1.21.45l-4.5,9.76c-.21.46-.01,1,.45,1.21l7.37,3.4c.38.18.6.6.51,1.01-.73,3.43-.89,7.02-.42,10.6.06.42-.19.82-.59.96l-7.61,2.81c-.47.17-.71.7-.54,1.17l3.72,10.09c.17.47.7.71,1.17.54l7.61-2.81c.4-.15.84,0,1.07.35,1.97,3.03,4.42,5.65,7.2,7.79.34.26.44.72.27,1.1l-3.4,7.37c-.21.46-.01,1,.45,1.21l9.76,4.5c.46.21,1,.01,1.21-.45l3.4-7.37c.18-.38.6-.6,1.01-.51,3.43.73,7.02.89,10.6.42.42-.05.82.19.96.59l2.81,7.61c.17.47.7.71,1.17.54l4.78-1.76.13-.05-8.31-22.53-.51.19Z"/>
          <path class="cls-23" d="m520.92,111.5l-7.61,2.81c-.4.15-.84,0-1.07-.35-1.97-3.03-4.42-5.65-7.2-7.79-.34-.26-.44-.72-.27-1.1l3.4-7.37c.21-.46.01-1-.45-1.21l-9.76-4.5c-.46-.21-1-.01-1.21.45l-3.4,7.37c-.18.38-.6.6-1.01.51-3.43-.73-7.01-.89-10.6-.42-.42.06-.82-.19-.96-.59l-2.81-7.61c-.17-.47-.7-.71-1.17-.54l-4.78,1.76-.13.05,8.31,22.53.51-.19c8.62-3.18,18.18,1.23,21.36,9.85,3.18,8.62-1.23,18.18-9.85,21.36l-.51.19,8.31,22.53.13-.05,4.78-1.76c.47-.17.71-.7.54-1.17l-2.81-7.61c-.15-.4,0-.84.35-1.07,3.03-1.97,5.65-4.42,7.79-7.2.26-.34.72-.44,1.1-.27l7.37,3.4c.46.21,1,.01,1.21-.45l4.5-9.76c.21-.46.01-1-.45-1.21l-7.37-3.4c-.38-.18-.6-.6-.51-1.01.73-3.43.89-7.02.42-10.6-.06-.42.19-.82.59-.96l7.61-2.81c.47-.17.71-.7.54-1.17l-3.72-10.09c-.17-.47-.7-.71-1.17-.54Z"/>
          <path class="cls-7" d="m478.9,109.87l-.69.25-.69.25c-11.58,4.27-17.51,17.13-13.24,28.71,1.19,3.22,3.25,5.9,3.25,5.9.19.24,1.19,1.54,2.55,2.79,2.86,2.63,8.08,5.8,14.75,5.94,1.83.04,4.75-.13,8.16-1.38l.69-.25.69-.25c11.58-4.27,17.51-17.13,13.24-28.71-4.27-11.58-17.13-17.51-28.71-13.24Z"/>
          <g>
            <path class="cls-20" d="m482,119.21l-.39.14-.39.14c-6.49,2.39-9.8,9.59-7.41,16.08.67,1.8,1.82,3.3,1.82,3.3.1.14.67.86,1.43,1.56,1.6,1.47,4.52,3.25,8.26,3.32,1.03.02,2.66-.07,4.57-.77l.39-.14.39-.14c6.49-2.39,9.8-9.59,7.41-16.08-2.39-6.49-9.59-9.8-16.08-7.41Z"/>
            <path class="cls-8" d="m493.85,139.38l-.39.14-.39.14c-1.91.7-3.54.8-4.57.77-3.73-.08-6.66-1.85-8.26-3.32-.76-.7-1.32-1.43-1.43-1.56,0,0-1.16-1.5-1.82-3.3-1.43-3.87-.82-7.99,1.28-11.2-4.48,3.2-6.46,9.1-4.47,14.51.67,1.8,1.82,3.3,1.82,3.3.1.14.67.86,1.43,1.56,1.6,1.47,4.52,3.25,8.26,3.32,1.03.02,2.66-.07,4.57-.77l.39-.14.39-.14c2.62-.97,4.72-2.71,6.14-4.88-.89.63-1.87,1.16-2.95,1.56Z"/>
          </g>
        </g>
        <g>
          <path class="cls-21" d="m410.38,138.78c-2.54,1.78-4.92,2.57-6.44,2.94-5.54,1.36-10.55-.11-13.49-1.65-1.4-.73-2.51-1.58-2.72-1.74,0,0-2.29-1.76-3.99-4.16-6.08-8.63-4.02-20.55,4.61-26.63l.51-.36-15.9-22.55-.13.09-4.78,3.37c-.47.33-.59.99-.25,1.46l5.37,7.62c.28.4.25.94-.07,1.3-2.78,3.09-4.97,6.58-6.51,10.3-.19.45-.66.7-1.14.62l-9.19-1.59c-.57-.1-1.11.28-1.21.85l-2.11,12.17c-.1.57.28,1.11.85,1.21l9.19,1.59c.48.08.84.48.87.97.21,4.03,1.09,8.05,2.67,11.89.19.45.03.97-.37,1.25l-7.62,5.37c-.47.33-.59.99-.25,1.46l7.12,10.09c.33.47.99.59,1.46.25l7.62-5.37c.4-.28.94-.25,1.3.07,3.09,2.78,6.58,4.97,10.3,6.51.45.19.7.66.62,1.14l-1.59,9.19c-.1.57.28,1.11.85,1.21l12.17,2.11c.57.1,1.11-.28,1.21-.85l1.59-9.19c.08-.48.48-.84.97-.87,4.03-.21,8.05-1.09,11.89-2.67.45-.19.97-.03,1.25.37l5.37,7.62c.33.47.99.59,1.46.25l4.78-3.37.13-.09-15.9-22.55-.51.36Z"/>
          <path class="cls-18" d="m432.91,90.68l-7.62,5.37c-.4.28-.94.25-1.3-.07-3.09-2.78-6.58-4.97-10.3-6.51-.45-.19-.7-.66-.62-1.14l1.59-9.19c.1-.57-.28-1.11-.85-1.21l-12.17-2.11c-.57-.1-1.11.28-1.21.85l-1.59,9.19c-.08.48-.48.84-.97.87-4.03.21-8.05,1.09-11.89,2.67-.45.19-.97.03-1.25-.37l-5.37-7.62c-.33-.47-.99-.59-1.46-.25l-4.78,3.37-.13.09,15.9,22.55.51-.36c8.63-6.08,20.55-4.02,26.63,4.61,6.08,8.63,4.02,20.55-4.61,26.63l-.51.36,15.9,22.55.13-.09,4.78-3.37c.47-.33.59-.99.25-1.46l-5.37-7.62c-.28-.4-.25-.94.07-1.3,2.78-3.09,4.97-6.58,6.51-10.3.19-.45.66-.7,1.14-.62l9.19,1.59c.57.1,1.11-.28,1.21-.85l2.11-12.17c.1-.57-.28-1.11-.85-1.21l-9.19-1.59c-.48-.08-.84-.48-.87-.97-.21-4.03-1.09-8.05-2.67-11.89-.18-.45-.03-.97.37-1.25l7.62-5.37c.47-.33.59-.99.25-1.46l-7.12-10.09c-.33-.47-.99-.59-1.46-.25Z"/>
          <path class="cls-7" d="m385.27,100.55l-.72.5-.71.5c-12.01,8.46-14.88,25.06-6.41,37.06,2.35,3.34,5.55,5.78,5.55,5.78.29.22,1.84,1.4,3.78,2.42,4.09,2.15,11.07,4.19,18.77,2.3,2.12-.52,5.42-1.61,8.96-4.09l.72-.5.72-.5c12.01-8.46,14.88-25.06,6.41-37.06-8.46-12.01-25.06-14.88-37.06-6.41Z"/>
          <g>
            <path class="cls-19" d="m391.53,110.08l-.41.29-.41.29c-6.87,4.84-8.51,14.33-3.67,21.19,1.35,1.91,3.17,3.31,3.17,3.31.16.13,1.05.8,2.16,1.39,2.34,1.23,6.33,2.39,10.74,1.32,1.21-.3,3.1-.92,5.12-2.34l.41-.29.41-.29c6.87-4.84,8.51-14.33,3.67-21.19-4.84-6.87-14.33-8.51-21.19-3.67Z"/>
            <path class="cls-8" d="m411.76,130.04l-.41.29-.41.29c-2.03,1.42-3.91,2.04-5.12,2.34-4.41,1.08-8.39-.09-10.74-1.32-1.11-.58-2-1.26-2.16-1.39,0,0-1.83-1.4-3.17-3.31-2.89-4.1-3.47-9.13-2.01-13.54-4.26,5.16-4.74,12.71-.7,18.44,1.35,1.91,3.17,3.31,3.17,3.31.16.13,1.05.8,2.16,1.39,2.34,1.23,6.33,2.39,10.74,1.32,1.21-.3,3.1-.92,5.12-2.34l.41-.29.41-.29c2.77-1.95,4.69-4.66,5.67-7.65-.84,1.02-1.83,1.95-2.97,2.75Z"/>
          </g>
        </g>
      </g>
    </g>
    <g>
      <path class="cls-17" d="m993.43,317.47c9.25-7.16,19.97-16.78,30.45-29.42,6.24-7.52,11.48-15.02,15.89-22.21-19.96-21.46-32.34-50.09-32.79-81.7h0c-.98-67.71,53.11-123.39,120.82-124.37l210.21-3.04c67.71-.98,123.39,53.11,124.37,120.82h0c.98,67.71-53.11,123.39-120.82,124.37l-210.21,3.04c-21.94.32-42.61-5.15-60.57-14.99-2.67,2.1-5.52,4.17-8.59,6.19-26.99,17.76-54.31,20.83-68.76,21.31Z"/>
      <g>
        <g>
          <circle class="cls-30" cx="1235.6" cy="142.25" r="122.45" transform="translate(261.31 915.36) rotate(-45)"/>
          <g>
            <circle class="cls-32" cx="1235.6" cy="142.25" r="116.1" transform="translate(261.31 915.36) rotate(-45)"/>
            <path class="cls-3" d="m1340.59,144.12c.44.46,1.06.74,1.75.74,1.35,0,2.44-1.09,2.44-2.43.02-9.35-1.16-18.67-3.5-27.69-.34-1.3-1.67-2.09-2.97-1.75-1.3.34-2.09,1.67-1.75,2.97,2.24,8.62,3.36,17.53,3.35,26.46,0,.66.26,1.26.69,1.7Z"/>
            <path class="cls-3" d="m1338.78,163.57c.34.35.79.6,1.3.7,1.32.25,2.6-.63,2.84-1.95.6-3.2,1.05-6.46,1.36-9.71.13-1.34-.86-2.53-2.2-2.66-1.34-.13-2.53.86-2.66,2.2-.29,3.1-.73,6.22-1.3,9.28-.15.81.12,1.59.65,2.14Z"/>
          </g>
          <path class="cls-31" d="m1295.59,141.38c.35,23.92-13.36,44.77-33.47,54.7-4.68-7.86-14.06-21.2-30.52-32.02-23.17-15.22-46.35-16.23-55.73-16.12-.15-1.59-.25-3.2-.27-4.83l119.99-1.74Z"/>
        </g>
        <g>
          <path class="cls-5" d="m1247.05,201.15c-3.43.67-6.97,1.04-10.59,1.09-28.38.41-52.42-18.96-59.05-45.34-.73-2.91-1.25-5.9-1.54-8.96,10.45,2.4,30.14,8.45,48.6,24.92,11.18,9.97,18.25,20.49,22.58,28.29Z"/>
          <path class="cls-28" d="m1231.6,164.06c16.46,10.81,25.85,24.15,30.52,32.02-4.7,2.32-9.76,4.05-15.07,5.07-4.33-7.8-11.4-18.32-22.58-28.29-18.46-16.46-38.15-22.52-48.6-24.92h0c9.38-.11,32.56.9,55.73,16.12Z"/>
        </g>
      </g>
      <g>
        <path class="cls-27" d="m1318.88,65.22h0c-7.65-7.62-20.14-5.61-27.75,2.04l-3.77,3.79-3.79-3.77c-7.65-7.62-20.14-9.58-27.76-1.93h0c-7.62,7.65-7.59,20.14.06,27.76l3.79,3.77,27.82,27.7,27.7-27.82,3.77-3.79c7.62-7.65,7.59-20.14-.06-27.76Z"/>
        <path class="cls-29" d="m1213.5,66.74h0c-7.65-7.62-20.14-5.61-27.75,2.04l-3.77,3.79-3.79-3.77c-7.65-7.62-20.14-9.58-27.76-1.93h0c-7.62,7.65-7.59,20.14.06,27.76l3.79,3.77,27.82,27.7,27.7-27.82,3.77-3.79c7.62-7.65,7.59-20.14-.06-27.76Z"/>
      </g>
    </g>
  </g>
</svg>